<?xml version="1.0" encoding="UTF-8"?>
<svg width="96px" height="96px" viewBox="0 0 96 96" version="1.1" xmlns="http://www.w3.org/2000/svg" xmlns:xlink="http://www.w3.org/1999/xlink">
    <title>Icons (Solution)/MMC/3. Dark positive/2. MMC dark positive 96px</title>
    <defs>
        <linearGradient x1="-2.22044605e-13%" y1="100%" x2="99.0041453%" y2="0.995854731%" id="linearGradient-1">
            <stop stop-color="#101E1E" offset="0%"></stop>
            <stop stop-color="#101E1E" offset="25%"></stop>
            <stop stop-color="#344055" offset="100%"></stop>
        </linearGradient>
        <path d="M13.5884573,68.8628129 L13.5884573,16.8628129 C13.5884573,13.5491044 16.2747488,10.8628129 19.5884573,10.8628129 L43.5884573,10.8628129 C46.9021658,10.8628129 49.5884573,13.5491044 49.5884573,16.8628129 L49.5884573,68.8628129 C49.5884573,72.1765214 46.9021658,74.8628129 43.5884573,74.8628129 L19.5884573,74.8628129 C16.2747488,74.8628129 13.5884573,72.1765214 13.5884573,68.8628129 Z" id="path-2"></path>
        <filter x="-20.8%" y="-11.7%" width="141.7%" height="123.4%" filterUnits="objectBoundingBox" id="filter-3">
            <feOffset dx="0" dy="0" in="SourceAlpha" result="shadowOffsetOuter1"></feOffset>
            <feGaussianBlur stdDeviation="2.5" in="shadowOffsetOuter1" result="shadowBlurOuter1"></feGaussianBlur>
            <feColorMatrix values="0 0 0 0 0.062745098   0 0 0 0 0.117647059   0 0 0 0 0.117647059  0 0 0 0.3 0" type="matrix" in="shadowBlurOuter1"></feColorMatrix>
        </filter>
        <linearGradient x1="12.6651528%" y1="100%" x2="86.5912455%" y2="0.995854731%" id="linearGradient-4">
            <stop stop-color="#344055" offset="0%"></stop>
            <stop stop-color="#344055" offset="25%"></stop>
            <stop stop-color="#5D6677" offset="100%"></stop>
        </linearGradient>
        <linearGradient x1="13.7147927%" y1="100%" x2="86.2852073%" y2="0%" id="linearGradient-5">
            <stop stop-color="#007FFF" offset="0%"></stop>
            <stop stop-color="#007FFF" offset="24.6495927%"></stop>
            <stop stop-color="#6610F2" offset="100%"></stop>
        </linearGradient>
        <path d="M2.50083488,12.6707079 L23.2854446,0.670707857 C25.6769077,-0.710004017 28.7348597,0.109371759 30.1155716,2.50083488 L55.1155716,45.8021051 C56.4962835,48.1935682 55.6769077,51.2515202 53.2854446,52.6322321 L32.0678222,64.8822321 C29.9155054,66.1248728 27.1633485,65.3874346 25.9207079,63.2351178 L0.670707857,19.5008349 C-0.710004017,17.1093718 0.109371759,14.0514197 2.50083488,12.6707079 Z" id="path-6"></path>
        <linearGradient x1="0%" y1="100%" x2="100%" y2="0%" id="linearGradient-8">
            <stop stop-color="#EFF0F2" offset="0%"></stop>
            <stop stop-color="#EFF0F2" offset="24.7309791%"></stop>
            <stop stop-color="#FFFFFF" offset="100%"></stop>
        </linearGradient>
        <linearGradient x1="0.101753715%" y1="99.8982463%" x2="100%" y2="0%" id="linearGradient-9">
            <stop stop-color="#FFC866" offset="0%"></stop>
            <stop stop-color="#FFDB99" offset="100%"></stop>
        </linearGradient>
        <linearGradient x1="0%" y1="100%" x2="100%" y2="0%" id="linearGradient-10">
            <stop stop-color="#FDCA40" offset="0%"></stop>
            <stop stop-color="#FDCA40" offset="24.6093781%"></stop>
            <stop stop-color="#FFA400" offset="100%"></stop>
        </linearGradient>
        <linearGradient x1="0%" y1="83.6449754%" x2="100%" y2="16.3550246%" id="linearGradient-11">
            <stop stop-color="#FDCA40" offset="0%"></stop>
            <stop stop-color="#FDCA40" offset="24.6093781%"></stop>
            <stop stop-color="#FFA400" offset="100%"></stop>
        </linearGradient>
    </defs>
    <g id="Icons-(Solution)/MMC/3.-Dark-positive/2.-MMC-dark-positive-96px" stroke="none" stroke-width="1" fill="none" fill-rule="evenodd">
        <g id="Icons-(Solution)/MMC/1.-3D/1.-Primary/2.-MMC-96px" transform="translate(3.676025, 4.150000)">
            <path d="M84.3239746,43.85 C84.3239746,65.9411111 66.4150857,83.85 44.3239746,83.85 C22.2328635,83.85 4.3239746,65.9411111 4.3239746,43.85 C4.3239746,21.7588889 22.2328635,3.84999997 44.3239746,3.84999997 C66.4150857,3.84999997 84.3239746,21.7588889 84.3239746,43.85" id="Gradient" fill="url(#linearGradient-1)"></path>
            <g id="Shadow" style="mix-blend-mode: multiply;" transform="translate(31.588457, 42.862813) rotate(-30.000000) translate(-31.588457, -42.862813) " fill="black" fill-opacity="1">
                <use filter="url(#filter-3)" xlink:href="#path-2"></use>
            </g>
            <path d="M34.0429399,8.8461524 L60.0429399,53.8794734 C60.2271572,54.198547 60.3787372,54.5275077 60.4987158,54.8624897 L60.8522331,54.8628129 L60.8522331,56.8628129 C60.8516499,58.9402427 59.7751076,60.9623097 57.8467875,62.0756258 L35.7631397,74.8256258 C32.6542377,76.6205513 28.6789,75.5553627 26.8839746,72.4464607 L1.1339746,27.8461524 C0.581689846,26.8895671 0.322750117,25.8441167 0.329244282,24.8139668 L0.328974596,22.8628129 L0.66729555,22.8628264 C1.1248819,21.5544273 2.03555274,20.3974228 3.33012702,19.65 L25.8467875,6.64999997 C28.7165433,4.99314572 32.3860857,5.97639665 34.0429399,8.8461524 Z" id="Combined-Shape" fill="#212E39"></path>
            <path d="M27.1339746,70.8794734 L1.1339746,25.8461524 C-0.522879653,22.9763967 0.460371278,19.3068542 3.33012702,17.65 L25.8467875,4.64999997 C28.7165433,2.99314572 32.3860857,3.97639665 34.0429399,6.8461524 L60.0429399,51.8794734 C61.6997942,54.7492291 60.7165433,58.4187716 57.8467875,60.0756258 L35.330127,73.0756258 C32.4603713,74.7324801 28.7908288,73.7492291 27.1339746,70.8794734 Z" id="Solid" fill="url(#linearGradient-4)"></path>
            <g id="new-screen" transform="translate(2.673267, 6.199292)">
                <mask id="mask-7" fill="white">
                    <use xlink:href="#path-6"></use>
                </mask>
                <use fill="url(#linearGradient-5)" xlink:href="#path-6"></use>
                <path d="M41.8931397,53.4360797 C41.8931397,52.3315533 40.9975616,51.4360797 39.8929064,51.4360797 C38.7882511,51.4360797 37.8931397,52.3315533 37.8931397,53.4360797 C37.8931397,54.540606 38.7882511,55.4360797 39.8929064,55.4360797 C40.9975616,55.4360797 41.8931397,54.540606 41.8931397,53.4360797" id="new-button" fill="url(#linearGradient-8)" mask="url(#mask-7)"></path>
                <path d="M30.1376224,2.51288568 L50.7707502,38.2502095 C45.4502819,41.0969781 39.3712406,42.7111446 32.9151905,42.7111446 C24.0022866,42.7111446 15.8079313,39.6346725 9.33610354,34.4857073 L0.692758665,19.5128857 C-0.68795321,17.1214226 0.131422566,14.0634705 2.52288568,12.6827587 L23.3074954,0.682758665 C25.6989585,-0.69795321 28.7569105,0.121422566 30.1376224,2.51288568 Z" id="Combined-Shape" fill-opacity="0.05" fill="#FFFFFF" mask="url(#mask-7)"></path>
            </g>
            <path d="M85.666684,33.5066884 C84.2863234,35.897543 81.2283763,36.7169175 78.8375217,35.3365569 C76.4466671,33.9561964 75.6272926,30.8982493 77.0076532,28.5073947 C78.3880137,26.1165401 81.4459608,25.2971656 83.8368154,26.6775262 C86.2276701,28.0578867 87.0470445,31.1158338 85.666684,33.5066884" id="Fill-12" fill="url(#linearGradient-9)" transform="translate(81.337169, 31.007042) rotate(-30.000000) translate(-81.337169, -31.007042) "></path>
            <path d="M59.3826859,25.9818836 C62.3075256,25.9818836 64.743105,28.074484 65.2740983,30.8443592 L65.3853984,30.8441059 L65.3853984,31.9807621 C65.3815644,35.2941427 62.6960665,37.9796406 59.3826859,37.9796406 C56.0693053,37.9796406 53.3838074,35.2941427 53.3838074,31.9807621 L53.3848074,31.9238836 L53.3853984,30.8441059 L53.4912735,30.8443592 C54.0222668,28.074484 56.4578462,25.9818836 59.3826859,25.9818836 Z" id="Combined-Shape" fill="#9D8532"></path>
            <path d="M65.3815644,30.9807621 C65.3815644,34.2941427 62.6960665,36.9796406 59.3826859,36.9796406 C56.0693053,36.9796406 53.3838074,34.2941427 53.3838074,30.9807621 C53.3838074,27.6673815 56.0693053,24.9818836 59.3826859,24.9818836 C62.6960665,24.9818836 65.3815644,27.6673815 65.3815644,30.9807621" id="Fill-14" fill="url(#linearGradient-10)"></path>
            <path d="M55.5423283,9.32977389 C54.1619678,11.7206285 51.1040206,12.540003 48.713166,11.1596424 C46.3223114,9.77928186 45.502937,6.72133475 46.8832975,4.33048014 C48.2636581,1.93962553 51.3216052,1.12025108 53.7124598,2.50061163 C56.1033144,3.88097218 56.9226889,6.93891928 55.5423283,9.32977389" id="Fill-16" fill="url(#linearGradient-9)" transform="translate(51.212813, 6.830127) rotate(-30.000000) translate(-51.212813, -6.830127) "></path>
            <path d="M87.4256258,6.55255888 C87.7987767,7.19887508 88.0380149,7.88575843 88.1519493,8.58108052 L88.2289746,8.58083493 L88.2294813,9.43782069 C88.2679562,11.5495597 87.1880925,13.617902 85.2294734,14.7487113 L73.1051178,21.7487113 C70.235362,23.4055656 66.5658196,22.4223146 64.9089653,19.5525589 C64.3814923,18.6389489 64.121599,17.644279 64.1049695,16.659297 L64.1039746,15.6148649 L64.1786894,15.6145699 C64.45282,13.8893158 65.4743887,12.2979083 67.1051178,11.3564065 L79.2294734,4.35640646 C82.0992292,2.69955221 85.7687716,3.68280314 87.4256258,6.55255888 Z" id="Combined-Shape" fill="#9D8532"></path>
            <path d="M64.9089777,18.5525803 C63.2521294,15.6828349 64.235373,12.0133057 67.1051154,10.3564519 L79.2295005,3.35640403 C82.0992358,1.69955431 85.7687579,2.68279231 87.4256076,5.55252756 C87.4256095,5.55253087 87.4256114,5.55253417 87.4256133,5.55253747 C89.0824617,8.42228296 88.099218,12.0918121 85.2294757,13.7486659 L73.1050906,20.7487138 C70.2353553,22.4055635 66.5658332,21.4223255 64.9089835,18.5525903 C64.9089815,18.552587 64.9089796,18.5525837 64.9089777,18.5525803 Z" id="Fill-8-Copy" fill="url(#linearGradient-11)"></path>
            <path d="M47.6506351,15.660254 C48.0237859,16.3065702 48.2630242,16.9934536 48.3769586,17.6887757 L48.4539746,17.6885301 L48.4544905,18.5455158 C48.4929655,20.6572548 47.4131018,22.7255972 45.4544827,23.8564065 L33.330127,30.8564065 C30.4603713,32.5132607 26.7908288,31.5300098 25.1339746,28.660254 C24.6065016,27.746644 24.3466082,26.7519741 24.3299787,25.7669922 L24.3289838,24.72256 L24.4036986,24.7222651 C24.6778293,22.997011 25.6993979,21.4056035 27.330127,20.4641016 L39.4544827,13.4641016 C42.3242384,11.8072474 45.9937808,12.7904983 47.6506351,15.660254 Z" id="Combined-Shape" fill="#9D8532"></path>
            <path d="M25.133987,27.6602755 C23.4771387,24.79053 24.4603823,21.1210008 27.3301246,19.464147 L39.4545098,12.4640992 C42.324245,10.8072495 45.9937672,11.7904875 47.6506169,14.6602227 C47.6506188,14.660226 47.6506207,14.6602293 47.6506226,14.6602326 C49.3074709,17.5299781 48.3242273,21.1995073 45.454485,22.8563611 L33.3300998,29.8564089 C30.4603646,31.5132587 26.7908424,30.5300207 25.1339927,27.6602854 C25.1339908,27.6602821 25.1339889,27.6602788 25.133987,27.6602755 Z" id="Fill-8-Copy" fill="url(#linearGradient-11)"></path>
        </g>
    </g>
</svg>