<?xml version="1.0" encoding="UTF-8"?>
<svg width="160px" height="128px" viewBox="0 0 160 128" version="1.1" xmlns="http://www.w3.org/2000/svg" xmlns:xlink="http://www.w3.org/1999/xlink">
    <title>Icons (Solution)/CAIC/1. Light positive/1. CAIC light positive 160px</title>
    <defs>
        <linearGradient x1="0%" y1="100%" x2="100%" y2="0%" id="linearGradient-1">
            <stop stop-color="#007FFF" offset="0%"></stop>
            <stop stop-color="#007FFF" offset="24.6495927%"></stop>
            <stop stop-color="#6610F2" offset="100%"></stop>
        </linearGradient>
        <linearGradient x1="1.21207615%" y1="100%" x2="98.7879239%" y2="0%" id="linearGradient-2">
            <stop stop-color="#FDCA40" offset="0%"></stop>
            <stop stop-color="#FDCA40" offset="24.6093781%"></stop>
            <stop stop-color="#FFA400" offset="100%"></stop>
        </linearGradient>
        <path d="M52,14 C56.3172,14 59.8181818,17.5824 59.8181818,22 C59.8181818,25.3566282 57.7969155,28.2310597 54.9321422,29.4181454 L54.931,37 L70,37 C83.8071187,37 95,48.1928813 95,62 C95,75.8071187 83.8071187,87 70,87 L34,87 C20.1928813,87 9,75.8071187 9,62 C9,48.1928813 20.1928813,37 34,37 L49.068,37 L49.0678578,29.4181454 C46.2030845,28.2310597 44.1818182,25.3566282 44.1818182,22 C44.1818182,17.5824 47.6828,14 52,14 Z" id="path-3"></path>
        <filter x="-14.0%" y="-16.4%" width="127.9%" height="132.9%" filterUnits="objectBoundingBox" id="filter-4">
            <feOffset dx="0" dy="0" in="SourceAlpha" result="shadowOffsetOuter1"></feOffset>
            <feGaussianBlur stdDeviation="4" in="shadowOffsetOuter1" result="shadowBlurOuter1"></feGaussianBlur>
            <feColorMatrix values="0 0 0 0 0.062745098   0 0 0 0 0.117647059   0 0 0 0 0.117647059  0 0 0 0.3 0" type="matrix" in="shadowBlurOuter1"></feColorMatrix>
        </filter>
        <linearGradient x1="0.101753715%" y1="67.2576936%" x2="100%" y2="32.7071141%" id="linearGradient-5">
            <stop stop-color="#FFC866" offset="0%"></stop>
            <stop stop-color="#FFDB99" offset="100%"></stop>
        </linearGradient>
        <linearGradient x1="3.57353036e-13%" y1="82.5477789%" x2="99.0041453%" y2="18.1004783%" id="linearGradient-6">
            <stop stop-color="#344055" offset="0%"></stop>
            <stop stop-color="#344055" offset="25%"></stop>
            <stop stop-color="#5D6677" offset="100%"></stop>
        </linearGradient>
        <linearGradient x1="-2.22044605e-13%" y1="59.8765432%" x2="99.0041453%" y2="40.3201688%" id="linearGradient-7">
            <stop stop-color="#101E1E" offset="0%"></stop>
            <stop stop-color="#101E1E" offset="25%"></stop>
            <stop stop-color="#344055" offset="100%"></stop>
        </linearGradient>
        <linearGradient x1="-2.22044605e-13%" y1="100%" x2="99.0041453%" y2="0.995854731%" id="linearGradient-8">
            <stop stop-color="#FFFFFF" offset="0%"></stop>
            <stop stop-color="#FFFFFF" offset="25%"></stop>
            <stop stop-color="#AEB3BB" offset="100%"></stop>
        </linearGradient>
    </defs>
    <g id="Icons-(Solution)/CAIC/1.-Light-positive/1.-CAIC-light-positive-160px" stroke="none" stroke-width="1" fill="none" fill-rule="evenodd">
        <path d="M124,64 C124,94.9275556 98.9275556,120 68,120 C37.0724444,120 12,94.9275556 12,64 C12,33.0724444 37.0724444,8 68,8 C98.9275556,8 124,33.0724444 124,64" id="Gradient" fill="url(#linearGradient-1)"></path>
        <path d="M115,84 L115.061869,84.0005814 C115.190722,82.9730003 115.522509,81.9536545 116.072775,81.000565 C118.281352,77.1751976 123.174068,75.8641985 126.999435,78.0727754 C129.252012,79.3733013 130.632739,81.6045448 130.936369,84.0005162 L131,84 L131,85 C131.001266,86.3598059 130.655699,87.7376808 129.927225,88.999435 C127.718648,92.8248024 122.825932,94.1358015 119.000565,91.9272246 C116.399315,90.4253923 114.960709,87.6824144 115.000817,84.8778783 L115,84 Z" id="Combined-Shape" fill="#9D8532"></path>
        <path d="M71,84 L71.1663368,84.0006474 C71.3977197,82.629495 71.8731502,81.2756591 72.6091631,80.0008475 C75.9220284,74.2627964 83.2611014,72.2962977 88.9991525,75.6091631 C92.2206804,77.469113 94.253391,80.5981493 94.8304513,84.0004375 L95,84 L95,86 C95.0018896,88.0397442 94.4835388,90.1065373 93.3908369,91.9991525 C90.0779716,97.7372036 82.7388986,99.7037023 77.0008475,96.3908369 C73.1754801,94.1822601 71.0263582,90.1842575 71.0002409,86.0641566 L71,84 Z" id="Combined-Shape" fill="#9D8532"></path>
        <path d="M148.999576,38.8045815 C151.868602,40.4610142 152.851851,44.1305507 151.195418,46.9995763 C149.889454,49.2615731 147.332132,50.3513603 144.902368,49.8994586 L128.545239,78.2327524 C131.138483,80.7225653 131.805118,84.7468275 129.927225,87.999435 C129.452264,88.8220903 128.853169,89.5284621 128.16725,90.1085527 L138.508695,108.020635 C139.684362,107.922943 140.900688,108.170138 141.999576,108.804582 C144.868602,110.461014 145.851851,114.130551 144.195418,116.999576 C142.538986,119.868602 138.869449,120.851851 136.000424,119.195418 C133.131398,117.538986 132.148149,113.869449 133.804582,111.000424 C134.094203,110.498784 134.445368,110.054796 134.843037,109.672487 L124.550979,91.8469073 C122.716394,92.2103203 120.747218,91.9356553 119.000565,90.9272246 C117.227818,89.9037286 115.995049,88.303795 115.402299,86.500781 L94.7379054,86.5009866 C94.4822291,87.7001092 94.0369345,88.8800787 93.3908369,89.9991525 C90.0779716,95.7372036 82.7388986,97.7037023 77.0008475,94.3908369 C71.2627964,91.0779716 69.2962977,83.7388986 72.6091631,78.0008475 C75.9220284,72.2627964 83.2611014,70.2962977 88.9991525,73.6091631 C92.3778827,75.5598739 94.4489424,78.9065492 94.9044989,82.5003428 L115.140825,82.5005495 C115.304319,81.6434707 115.611925,80.7987813 116.072775,80.000565 C116.338272,79.5407113 116.642557,79.1171924 116.979113,78.7317543 L107.242683,61.8688871 C105.84429,62.1654769 104.335663,61.9663194 103.000424,61.1954185 C100.131398,59.5389858 99.1481489,55.8694493 100.804582,53.0004237 C102.461014,50.1313982 106.130551,49.1481489 108.999576,50.8045815 C111.868602,52.4610142 112.851851,56.1305507 111.195418,58.9995763 C111.034283,59.2786719 110.854096,59.5399222 110.65745,59.7826329 L120.293196,76.4731343 C121.801999,75.9314177 123.465767,75.8432645 125.059753,76.2688962 L141.438698,47.8990939 C139.833351,46.0208319 139.498898,43.2619337 140.804582,41.0004237 C142.461014,38.1313982 146.130551,37.1481489 148.999576,38.8045815 Z" id="Combined-Shape" fill="url(#linearGradient-2)"></path>
        <g id="Shadow" style="mix-blend-mode: multiply;" fill="black" fill-opacity="1">
            <use filter="url(#filter-4)" xlink:href="#path-3"></use>
        </g>
        <path d="M120,10 C124.418278,10 128,13.581722 128,18 C128,22.418278 124.418278,26 120,26 L105.314,26 C103.913699,26.0021488 102.51205,26.6351246 101.47398,27.6077666 L101.283694,27.7940458 L100.774484,28.3142684 C99.7213652,29.391595 98.3006401,29.9952875 96.8198977,29.9952875 C96.2881808,29.9952875 96.0499866,29.3304494 96.4363488,28.9519293 C97.1462424,28.2570051 97.588871,27.2728526 97.588871,26.1819381 C97.588871,25.2362703 97.2521266,24.5789698 96.7002169,23.9917562 C95.0434769,22.5258451 94,20.3847811 94,18 C94,13.581722 97.581722,10 102,10 L120,10 Z" id="Colour" fill="url(#linearGradient-5)"></path>
        <path d="M6,53 L6.08210526,53.0005127 C7.098163,40.6812076 17.4184979,31 30,31 L70,31 C82.5815021,31 92.901837,40.6812076 93.9178947,53.0005127 L94,53 L94,55 C94,68.254834 83.254834,79 70,79 L30,79 C16.745166,79 6,68.254834 6,55 L6,53 Z" id="Combined-Shape" fill="#101E1E"></path>
        <path d="M50,6 C54.4176,6 58,9.5824 58,14 C58,17.356493 55.931894,20.2308282 53.0006857,21.418002 L53,29 L70,29 C83.254834,29 94,39.745166 94,53 C94,66.254834 83.254834,77 70,77 L30,77 C16.745166,77 6,66.254834 6,53 C6,39.745166 16.745166,29 30,29 L47,29 L47.0003115,21.4184058 C44.068575,20.2314801 42,17.3568736 42,14 C42,9.5824 45.5824,6 50,6 Z" id="Combined-Shape" fill="url(#linearGradient-6)"></path>
        <path d="M30,37 L70,37 C78.836556,37 86,44.163444 86,53 C86,61.836556 78.836556,69 70,69 L30,69 C21.163444,69 14,61.836556 14,53 C14,44.163444 21.163444,37 30,37 Z" id="Solid" fill="url(#linearGradient-7)"></path>
        <path d="M70,37 C78.836556,37 86,44.163444 86,53 C86,53.335952 85.9896459,53.6694857 85.9692396,54.0002994 C85.4534509,45.6296415 78.5009433,39 70,39 L30,39 C21.4990567,39 14.5465491,45.6296415 14.0306986,54.0007031 C14.0103541,53.6694857 14,53.335952 14,53 C14,44.163444 21.163444,37 30,37 L70,37 Z" id="Combined-Shape" fill="#101E1E"></path>
        <path d="M26,53 C26,48.5824 29.5824,45 34,45 C38.4176,45 42,48.5824 42,53 C42,57.4176 38.4176,61 34,61 C29.5824,61 26,57.4176 26,53 Z" id="Path" fill="url(#linearGradient-8)"></path>
        <path d="M66,61 C61.5824,61 58,57.4176 58,53 C58,48.5824 61.5824,45 66,45 C70.4176,45 74,48.5824 74,53 C74,57.4176 70.4176,61 66,61" id="Path-Copy" fill="url(#linearGradient-8)"></path>
        <path d="M36,54 C34.3434,54 33,52.6566 33,51 C33,49.3434 34.3434,48 36,48 C37.6566,48 39,49.3434 39,51 C39,52.6566 37.6566,54 36,54" id="Path" fill="#FFFFFF" transform="translate(36.000000, 51.000000) scale(-1, -1) translate(-36.000000, -51.000000) "></path>
        <path d="M68,54 C66.3434,54 65,52.6566 65,51 C65,49.3434 66.3434,48 68,48 C69.6566,48 71,49.3434 71,51 C71,52.6566 69.6566,54 68,54" id="Path-Copy-2" fill="#FFFFFF" transform="translate(68.000000, 51.000000) scale(-1, -1) translate(-68.000000, -51.000000) "></path>
    </g>
</svg>