<?xml version="1.0" encoding="UTF-8"?>
<svg width="96px" height="96px" viewBox="0 0 96 96" version="1.1" xmlns="http://www.w3.org/2000/svg" xmlns:xlink="http://www.w3.org/1999/xlink">
    <title>Icons (Solution)/CAIC/1. Light positive/2. CAIC light positive 96px</title>
    <defs>
        <linearGradient x1="0%" y1="100%" x2="100%" y2="0%" id="linearGradient-1">
            <stop stop-color="#007FFF" offset="0%"></stop>
            <stop stop-color="#007FFF" offset="24.6495927%"></stop>
            <stop stop-color="#6610F2" offset="100%"></stop>
        </linearGradient>
        <linearGradient x1="1.57470396%" y1="100%" x2="98.425296%" y2="0%" id="linearGradient-2">
            <stop stop-color="#FDCA40" offset="0%"></stop>
            <stop stop-color="#FDCA40" offset="24.6093781%"></stop>
            <stop stop-color="#FFA400" offset="100%"></stop>
        </linearGradient>
        <path d="M36,9 C39.20276,9 41.8,11.6868 41.8,15 C41.8,17.6118232 40.185997,19.8343826 37.9336919,20.6583326 L37.9333333,25 L48,25 C57.3888407,25 65,32.6111593 65,42 C65,51.3888407 57.3888407,59 48,59 L24,59 C14.6111593,59 7,51.3888407 7,42 C7,32.6111593 14.6111593,25 24,25 L34.0666667,25 L34.0663081,20.6583326 C31.814003,19.8343826 30.2,17.6118232 30.2,15 C30.2,11.6868 32.79724,9 36,9 Z" id="path-3"></path>
        <filter x="-12.9%" y="-15.0%" width="125.9%" height="130.0%" filterUnits="objectBoundingBox" id="filter-4">
            <feOffset dx="0" dy="0" in="SourceAlpha" result="shadowOffsetOuter1"></feOffset>
            <feGaussianBlur stdDeviation="2.5" in="shadowOffsetOuter1" result="shadowBlurOuter1"></feGaussianBlur>
            <feColorMatrix values="0 0 0 0 0.062745098   0 0 0 0 0.117647059   0 0 0 0 0.117647059  0 0 0 0.3 0" type="matrix" in="shadowBlurOuter1"></feColorMatrix>
        </filter>
        <linearGradient x1="3.57353036e-13%" y1="84.7222222%" x2="99.0041453%" y2="15.9693436%" id="linearGradient-5">
            <stop stop-color="#344055" offset="0%"></stop>
            <stop stop-color="#344055" offset="25%"></stop>
            <stop stop-color="#5D6677" offset="100%"></stop>
        </linearGradient>
        <linearGradient x1="-2.22044605e-13%" y1="60.5034722%" x2="99.0041453%" y2="39.7057264%" id="linearGradient-6">
            <stop stop-color="#101E1E" offset="0%"></stop>
            <stop stop-color="#101E1E" offset="25%"></stop>
            <stop stop-color="#344055" offset="100%"></stop>
        </linearGradient>
        <linearGradient x1="-2.22044605e-13%" y1="100%" x2="99.0041453%" y2="0.995854731%" id="linearGradient-7">
            <stop stop-color="#FFFFFF" offset="0%"></stop>
            <stop stop-color="#FFFFFF" offset="25%"></stop>
            <stop stop-color="#AEB3BB" offset="100%"></stop>
        </linearGradient>
    </defs>
    <g id="Icons-(Solution)/CAIC/1.-Light-positive/2.-CAIC-light-positive-96px" stroke="none" stroke-width="1" fill="none" fill-rule="evenodd">
        <path d="M88,48 C88,70.0911111 70.0911111,88 48,88 C25.9088889,88 8,70.0911111 8,48 C8,25.9088889 25.9088889,8 48,8 C70.0911111,8 88,25.9088889 88,48" id="Gradient" fill="url(#linearGradient-1)"></path>
        <path d="M28,62 L28.2239444,62.0002127 C28.4193804,61.1435756 28.7445953,60.3013229 29.2068723,59.5006356 C31.6915213,55.1970973 37.1958261,53.7222233 41.4993644,56.2068723 C43.7567536,57.5101766 45.2358501,59.6443239 45.7734425,62.0002008 L46,62 L46,64 C46.0013709,65.5299928 45.6126053,67.0799875 44.7931277,68.4993644 C42.3084787,72.8029027 36.8041739,74.2777767 32.5006356,71.7931277 C29.6316101,70.136695 28.0197687,67.1381931 28.0001807,64.0481175 L28,62 Z" id="Combined-Shape" fill="#9D8532"></path>
        <path d="M62,62 L62.0831636,62.0004913 C62.1988773,61.3148578 62.4366684,60.6378815 62.8048088,60.0004237 C64.4617093,57.1313982 68.1322822,56.1481489 71.0021181,57.8045815 C72.61337,58.7345756 73.630021,60.2991388 73.9186087,62.0003234 L74,62 L74.0015545,62.857625 C74.02792,63.9231701 73.7706056,65.0090793 73.1985805,65.9995763 C71.54168,68.8686018 67.871107,69.8518511 65.0012712,68.1954185 C63.0880473,67.09113 62.0131828,65.0921288 62.0001205,63.0320783 L62,62 Z" id="Combined-Shape" fill="#9D8532"></path>
        <path d="M87.4996469,27.6704846 C89.8905015,29.0508452 90.7098759,32.1087923 89.3295154,34.4996469 C88.1901959,36.4730061 85.908022,37.3757959 83.8013789,36.8547557 L71.9120148,57.4480312 C74.0624584,59.2902834 74.6658955,62.4588297 73.1985805,64.9995763 C72.8629052,65.5808187 72.4445815,66.084662 71.9670116,66.5048374 L79.8379435,80.1377963 C81.0383264,79.850685 82.3465697,80.0047552 83.4996469,80.6704846 C85.8905015,82.0508452 86.7098759,85.1087923 85.3295154,87.4996469 C83.9491548,89.8905015 80.8912077,90.7098759 78.5003531,89.3295154 C76.1094985,87.9491548 75.2901241,84.8912077 76.6704846,82.5003531 C76.8437226,82.2002961 77.0433839,81.924991 77.2648336,81.6756799 L69.2878303,67.8595834 C67.8769844,68.1695111 66.3506177,67.9742441 65.0012712,67.1954185 C63.5496719,66.3575739 62.580678,65.0046838 62.1918803,63.5008592 L45.8750366,63.5007634 C45.7014215,64.5287009 45.3449139,65.5436427 44.7931277,66.4993644 C42.3084787,70.8029027 36.8041739,72.2777767 32.5006356,69.7931277 C28.1970973,67.3084787 26.7222233,61.8041739 29.2068723,57.5006356 C31.6915213,53.1970973 37.1958261,51.7222233 41.4993644,54.2068723 C43.915419,55.6017821 45.4399281,57.9484347 45.8727894,60.500039 L62.1897936,60.500589 C62.3226833,59.9868375 62.526497,59.4823377 62.8048088,59.0004237 C63.0258689,58.6176445 63.2827731,58.2684327 63.5688373,57.9545787 L56.6407391,45.9576412 C55.5898734,46.0952252 54.4871491,45.9006866 53.4985608,45.3295154 C51.10942,43.9491548 50.2906329,40.8912077 51.670004,38.5003531 C53.049375,36.1094985 56.10513,35.2901241 58.4942708,36.6704846 C60.8834115,38.0508452 61.7021986,41.1087923 60.3228276,43.4996469 C60.060882,43.9536753 59.7384813,44.3510318 59.3716713,44.6874137 L66.0851035,56.3151854 C67.0800953,55.9803627 68.1594205,55.9060489 69.2108311,56.1223123 L81.2367308,35.2929709 C79.8664587,33.7270705 79.5722382,31.4025718 80.6704846,29.5003531 C82.0508452,27.1094985 85.1087923,26.2901241 87.4996469,27.6704846 Z" id="Combined-Shape" fill="url(#linearGradient-2)"></path>
        <g id="Shadow" style="mix-blend-mode: multiply;" fill="black" fill-opacity="1">
            <use filter="url(#filter-4)" xlink:href="#path-3"></use>
        </g>
        <path d="M5,38 L5.11635209,38.0004624 C6.10600002,29.5538989 13.2876275,23 22,23 L48,23 C56.7123725,23 63.894,29.5538989 64.8836479,38.0004624 L65,38 L65,40 C65,49.3888407 57.3888407,57 48,57 L22,57 C12.6111593,57 5,49.3888407 5,40 L5,38 Z" id="Combined-Shape" fill="#101E1E"></path>
        <path d="M35,5 C38.3132,5 41,7.6868 41,11 C41,13.6115239 39.3307244,15.8338732 37.0011719,16.6580493 L37,21 L48,21 C57.3888407,21 65,28.6111593 65,38 C65,47.3888407 57.3888407,55 48,55 L22,55 C12.6111593,55 5,47.3888407 5,38 C5,28.6111593 12.6111593,21 22,21 L33,21 L32.9998306,16.6584039 C30.6697545,15.8345108 29,13.6118985 29,11 C29,7.6868 31.6868,5 35,5 Z" id="Solid" fill="url(#linearGradient-5)"></path>
        <rect id="Colour" fill="url(#linearGradient-6)" x="11" y="27" width="48" height="22" rx="11"></rect>
        <path d="M48,27 C54.0751322,27 59,31.9248678 59,38 C59,38.3369962 58.9848458,38.670453 58.9551817,38.999726 C58.4495221,33.3931213 53.7377953,29 48,29 L22,29 C16.261864,29 11.5499183,33.3936431 11.0448183,39.000274 C11.0151849,38.6711273 11,38.337337 11,38 C11,31.9248678 15.9248678,27 22,27 L48,27 Z" id="Combined-Shape" fill="#101E1E"></path>
        <path d="M41,38 C41,35.239 43.239,33 46,33 C48.761,33 51,35.239 51,38 C51,40.761 48.761,43 46,43 C43.239,43 41,40.761 41,38 Z" id="Path" fill="url(#linearGradient-7)"></path>
        <path d="M19,38 C19,35.239 21.239,33 24,33 C26.761,33 29,35.239 29,38 C29,40.761 26.761,43 24,43 C21.239,43 19,40.761 19,38 Z" id="Path" fill="url(#linearGradient-7)"></path>
        <path d="M25,39 C23.8956,39 23,38.1044 23,37 C23,35.8956 23.8956,35 25,35 C26.1044,35 27,35.8956 27,37 C27,38.1044 26.1044,39 25,39" id="Path-Copy-2" fill="#FFFFFF" transform="translate(25.000000, 37.000000) scale(-1, -1) translate(-25.000000, -37.000000) "></path>
        <path d="M47,39 C45.8956,39 45,38.1044 45,37 C45,35.8956 45.8956,35 47,35 C48.1044,35 49,35.8956 49,37 C49,38.1044 48.1044,39 47,39" id="Path-Copy-3" fill="#FFFFFF" transform="translate(47.000000, 37.000000) scale(-1, -1) translate(-47.000000, -37.000000) "></path>
    </g>
</svg>