<?xml version="1.0" encoding="UTF-8"?>
<svg width="160px" height="128px" viewBox="0 0 160 128" version="1.1" xmlns="http://www.w3.org/2000/svg" xmlns:xlink="http://www.w3.org/1999/xlink">
    <title>Icons (Solution)/TraceDock/2. Light diapositive/1. TraceDock light diapositive 160px</title>
    <defs>
        <linearGradient x1="0%" y1="100%" x2="100%" y2="0%" id="linearGradient-1">
            <stop stop-color="#EFF0F2" offset="0%"></stop>
            <stop stop-color="#EFF0F2" offset="24.7309791%"></stop>
            <stop stop-color="#FFFFFF" offset="100%"></stop>
        </linearGradient>
        <rect id="path-2" x="10" y="16" width="96" height="88" rx="8"></rect>
        <filter x="-12.5%" y="-13.6%" width="125.0%" height="127.3%" filterUnits="objectBoundingBox" id="filter-3">
            <feOffset dx="0" dy="0" in="SourceAlpha" result="shadowOffsetOuter1"></feOffset>
            <feGaussianBlur stdDeviation="4" in="shadowOffsetOuter1" result="shadowBlurOuter1"></feGaussianBlur>
            <feColorMatrix values="0 0 0 0 0.062745098   0 0 0 0 0.117647059   0 0 0 0 0.117647059  0 0 0 0.3 0" type="matrix" in="shadowBlurOuter1"></feColorMatrix>
        </filter>
        <linearGradient x1="-2.22044605e-13%" y1="75.0868056%" x2="99.0041453%" y2="25.4128507%" id="linearGradient-4">
            <stop stop-color="#101E1E" offset="0%"></stop>
            <stop stop-color="#101E1E" offset="25%"></stop>
            <stop stop-color="#344055" offset="100%"></stop>
        </linearGradient>
        <linearGradient x1="0%" y1="70.8550347%" x2="100%" y2="29.1449653%" id="linearGradient-5">
            <stop stop-color="#04E4F4" offset="0%"></stop>
            <stop stop-color="#04E4F4" offset="24.7220569%"></stop>
            <stop stop-color="#007FFF" offset="100%"></stop>
        </linearGradient>
        <linearGradient x1="0%" y1="53.9153748%" x2="100%" y2="46.0846252%" id="linearGradient-6">
            <stop stop-color="#EFF0F2" offset="0%"></stop>
            <stop stop-color="#EFF0F2" offset="24.7309791%"></stop>
            <stop stop-color="#FFFFFF" offset="100%"></stop>
        </linearGradient>
        <linearGradient x1="3.57353036e-13%" y1="84.1900888%" x2="99.0041453%" y2="16.4908785%" id="linearGradient-7">
            <stop stop-color="#344055" offset="0%"></stop>
            <stop stop-color="#344055" offset="25%"></stop>
            <stop stop-color="#5D6677" offset="100%"></stop>
        </linearGradient>
        <path d="M115.045381,9.17138519 L136.295381,14.8653852 C138.963381,15.5803852 140.545381,18.3213852 139.831381,20.9883852 L134.137381,42.2383852 C133.539381,44.4723852 131.518381,45.9463852 129.310381,45.9463852 C128.881381,45.9463852 128.447381,45.8903852 128.013381,45.7743852 C125.345381,45.0593852 123.763381,42.3183852 124.477381,39.6513852 L126.31,32.811 L64.6842468,68.3647983 C64.4847805,69.0953856 64.1891056,69.8125264 63.7926245,70.4990689 C61.3086245,74.8030689 55.8046245,76.2780689 51.5006245,73.7930689 C49.3062016,72.5260752 47.8474479,70.474281 47.2738675,68.1970016 L39.9175352,63.7822723 C37.1431892,66.2035707 33.0505654,66.75112 29.6605727,64.8832974 L13.4432747,73.9632242 C12.6712747,74.3962242 11.8322747,74.6022242 11.0052747,74.6022242 C9.25427472,74.6022242 7.55427472,73.6802242 6.63827472,72.0442242 C5.28927472,69.6342242 6.14827472,66.5872242 8.55827472,65.2392242 L25.054735,56.0014916 C25.1878067,54.803045 25.5652989,53.6120287 26.2066245,52.5010689 C28.6916245,48.1970689 34.1956245,46.7220689 38.4996245,49.2070689 C40.2856486,50.23809 41.5844681,51.7895655 42.3151373,53.5595217 L50.802323,58.6518088 C53.5814142,56.6888536 57.3598274,56.3942446 60.4996245,58.2070689 C60.7909506,58.3752432 61.0693141,58.5572649 61.3343635,58.7518234 L124.798,22.137 L112.457381,18.8303852 C109.789381,18.1153852 108.207381,15.3733852 108.921381,12.7063852 C109.636381,10.0393852 112.377381,8.45738519 115.045381,9.17138519 Z" id="path-8"></path>
        <filter x="-9.0%" y="-18.2%" width="117.9%" height="136.4%" filterUnits="objectBoundingBox" id="filter-9">
            <feOffset dx="0" dy="0" in="SourceAlpha" result="shadowOffsetOuter1"></feOffset>
            <feGaussianBlur stdDeviation="4" in="shadowOffsetOuter1" result="shadowBlurOuter1"></feGaussianBlur>
            <feColorMatrix values="0 0 0 0 0.0509803922   0 0 0 0 0.192156863   0 0 0 0 0.294117647  0 0 0 0.3 0" type="matrix" in="shadowBlurOuter1"></feColorMatrix>
        </filter>
        <linearGradient x1="0%" y1="62.1499422%" x2="100%" y2="37.8500578%" id="linearGradient-10">
            <stop stop-color="#FDCA40" offset="0%"></stop>
            <stop stop-color="#FDCA40" offset="24.6093781%"></stop>
            <stop stop-color="#FFA400" offset="100%"></stop>
        </linearGradient>
        <linearGradient x1="0.101753715%" y1="99.8982463%" x2="100%" y2="0%" id="linearGradient-11">
            <stop stop-color="#FFC866" offset="0%"></stop>
            <stop stop-color="#FFDB99" offset="100%"></stop>
        </linearGradient>
        <linearGradient x1="4.74978538%" y1="99.8982463%" x2="95.34249%" y2="0%" id="linearGradient-12">
            <stop stop-color="#FFB633" offset="0%"></stop>
            <stop stop-color="#FFC866" offset="100%"></stop>
        </linearGradient>
    </defs>
    <g id="Icons-(Solution)/TraceDock/2.-Light-diapositive/1.-TraceDock-light-diapositive-160px" stroke="none" stroke-width="1" fill="none" fill-rule="evenodd">
        <g id="Icons-(Solution)/TraceDock/1.-3D/1.-Light-positive-primary/1.-TraceDock-light-positive-primary-160px" transform="translate(4.000000, 8.000000)">
            <path d="M64,112 C33.0724444,112 8,86.9275556 8,56 C8,25.0724444 33.0724444,0 64,0 C94.9275556,0 120,25.0724444 120,56 C120,86.9275556 94.9275556,112 64,112 Z" id="Gradient" fill="url(#linearGradient-1)"></path>
            <g id="Shadow" style="mix-blend-mode: multiply;" fill="black" fill-opacity="1">
                <use filter="url(#filter-3)" xlink:href="#path-2"></use>
            </g>
            <rect id="Solid" fill="#101E1E" x="6" y="12" width="104" height="86" rx="10"></rect>
            <rect id="Solid" fill="url(#linearGradient-4)" x="10" y="24" width="96" height="68" rx="4"></rect>
            <path d="M10,60.6021974 L33.9998646,49.1499672 L55.9998646,58.5201173 L106,30 L106,88 C106,90.209139 104.209139,92 102,92 L14,92 C11.790861,92 10,90.209139 10,88 L10,60.6021974 L10,60.6021974 Z" id="Solid" fill="url(#linearGradient-5)"></path>
            <path d="M109.516214,60.011181 C110.146214,61.543181 109.414214,63.296181 107.881214,63.926181 L61.6892097,82.9066441 C61.5637794,83.2795816 61.3995987,83.6456107 61.1952515,83.9994482 C59.5392266,86.8687596 55.869838,87.8520854 53.0004615,86.1954314 C51.3841153,85.262223 50.36645,83.6903656 50.081886,81.9827323 L37.7423198,74.6908259 C35.8698263,76.1839734 33.2000799,76.465396 31.0004615,75.1954314 C30.7233058,75.0354137 30.4637526,74.8566183 30.2224796,74.6615806 L9.65521402,86.592181 C9.18221402,86.867181 8.66421402,86.998181 8.15321402,86.998181 C7.11821402,86.998181 6.64521402,81.403181 6.64521402,81.403181 L28.0897111,68.9624486 C28.2076815,68.2899508 28.4433215,67.626354 28.8044285,67.0008275 C30.4611201,64.1315161 34.1305086,63.1481903 36.9998851,64.8048443 C38.6117639,65.7353151 39.6284108,67.3016256 39.9159509,69.0043584 L52.2668109,76.3022214 C54.1391467,74.8153969 56.8038209,74.5369317 58.9998851,75.8048443 C59.5425347,76.1180934 60.0177221,76.5034071 60.4203393,76.9417297 L105.601214,58.376181 C107.132214,57.746181 108.885214,58.477181 109.516214,60.011181 Z" id="Solid" fill="url(#linearGradient-6)"></path>
            <path d="M102,10 C106.418278,10 110,13.581722 110,18 L110,88 C110,92.418278 106.418278,96 102,96 L14,96 C9.581722,96 6,92.418278 6,88 L6,18 C6,13.581722 9.581722,10 14,10 L102,10 Z M102,24 L14,24 C11.790861,24 10,25.790861 10,28 L10,88 C10,90.209139 11.790861,92 14,92 L102,92 C104.209139,92 106,90.209139 106,88 L106,28 C106,25.790861 104.209139,24 102,24 Z" id="Solid" fill="url(#linearGradient-7)"></path>
            <path d="M31,20 C29.3430172,20 28,18.6569828 28,17 C28,15.3430172 29.3430172,14 31,14 C32.6569828,14 34,15.3430172 34,17 C34,18.6569828 32.6569828,20 31,20 M23,20 C21.3430172,20 20,18.6569828 20,17 C20,15.3430172 21.3430172,14 23,14 C24.6569828,14 26,15.3430172 26,17 C26,18.6569828 24.6569828,20 23,20 M15,20 C13.3430172,20 12,18.6569828 12,17 C12,15.3430172 13.3430172,14 15,14 C16.6569828,14 18,15.3430172 18,17 C18,18.6569828 16.6569828,20 15,20" id="Solid" fill="#FFFFFF"></path>
            <g id="Shadow" style="mix-blend-mode: multiply;" fill="black" fill-opacity="1">
                <use filter="url(#filter-9)" xlink:href="#path-8"></use>
            </g>
            <path d="M117.045381,5.17138519 L138.295381,10.8653852 C139.749111,11.2549718 140.880419,12.2460583 141.493563,13.4989306 L142,13.5 L142,15.5 C142.018008,15.9894676 141.964749,16.4902173 141.831381,16.9883852 L136.137381,38.2383852 C135.539381,40.4723852 133.518381,41.9463852 131.310381,41.9463852 C130.881381,41.9463852 130.447381,41.8903852 130.013381,41.7743852 C127.79631,41.1802303 126.329164,39.1870462 126.306272,36.9998696 L126.3,35 L126.652,34.999 L128.675,27.447 L64.6842468,64.3647983 C64.4847805,65.0953856 64.1891056,65.8125264 63.7926245,66.4990689 C61.3086245,70.8030689 55.8046245,72.2780689 51.5006245,69.7930689 C49.3062016,68.5260752 47.8474479,66.474281 47.2738675,64.1970016 L39.9175352,59.7822723 C37.1431892,62.2035707 33.0505654,62.75112 29.6605727,60.8832974 L17.8780668,67.4806594 C17.7056702,68.5154094 17.3480698,69.5372656 16.7926245,70.4990689 C14.3086245,74.8030689 8.80462453,76.2780689 4.50062453,73.7930689 C1.63129119,72.1364023 0.0197356383,69.1379578 0.000180082701,66.048106 L0,64 L0.224147111,63.9993735 C0.419574253,63.1431618 0.744647965,62.3013447 1.20662453,61.5010689 C3.69162453,57.1970689 9.19562453,55.7220689 13.4996245,58.2070689 L13.728,58.344 L25.054735,52.0014916 C25.1878067,50.803045 25.5652989,49.6120287 26.2066245,48.5010689 C28.6916245,44.1970689 34.1956245,42.7220689 38.4996245,45.2070689 C40.2856486,46.23809 41.5844681,47.7895655 42.3151373,49.5595217 L50.802323,54.6518088 C53.5814142,52.6888536 57.3598274,52.3942446 60.4996245,54.2070689 C60.7909506,54.3752432 61.0693141,54.5572649 61.3343635,54.7518234 L125.433,17.771 L114.457381,14.8303852 C112.22203,14.2313311 110.74902,12.2093793 110.75,10.0007978 L110.75,8 L111.168358,7.99918296 C112.139813,5.76787798 114.622693,4.52303479 117.045381,5.17138519 Z" id="Solid" fill="#9D8532"></path>
            <path d="M117.045381,3.17138519 L138.295381,8.86538519 C140.963381,9.58038519 142.545381,12.3213852 141.831381,14.9883852 L136.137381,36.2383852 C135.539381,38.4723852 133.518381,39.9463852 131.310381,39.9463852 C130.881381,39.9463852 130.447381,39.8903852 130.013381,39.7743852 C127.345381,39.0593852 125.763381,36.3183852 126.477381,33.6513852 L128.675,25.447 L64.6842468,62.3647983 C64.4847805,63.0953856 64.1891056,63.8125264 63.7926245,64.4990689 C61.3086245,68.8030689 55.8046245,70.2780689 51.5006245,67.7930689 C49.3062016,66.5260752 47.8474479,64.474281 47.2738675,62.1970016 L39.9175352,57.7822723 C37.1431892,60.2035707 33.0505654,60.75112 29.6605727,58.8832974 L17.8780668,65.4806594 C17.7056702,66.5154094 17.3480698,67.5372656 16.7926245,68.4990689 C14.3086245,72.8030689 8.80462453,74.2780689 4.50062453,71.7930689 C0.196624527,69.3080689 -1.27737547,63.8040689 1.20662453,59.5010689 C3.69162453,55.1970689 9.19562453,53.7220689 13.4996245,56.2070689 L13.728,56.344 L25.054735,50.0014916 C25.1878067,48.803045 25.5652989,47.6120287 26.2066245,46.5010689 C28.6916245,42.1970689 34.1956245,40.7220689 38.4996245,43.2070689 C40.2856486,44.23809 41.5844681,45.7895655 42.3151373,47.5595217 L50.802323,52.6518088 C53.5814142,50.6888536 57.3598274,50.3942446 60.4996245,52.2070689 C60.7909506,52.3752432 61.0693141,52.5572649 61.3343635,52.7518234 L125.433,15.771 L114.457381,12.8303852 C111.789381,12.1153852 110.207381,9.37338519 110.921381,6.70638519 C111.636381,4.03938519 114.377381,2.45738519 117.045381,3.17138519 Z" id="Solid" fill="url(#linearGradient-10)"></path>
            <g id="Shapes" transform="translate(118.000000, 86.000000)">
                <path d="M12,0 L12,12 L23.3872289,8.20405987 C23.7847345,9.39707844 24,10.6734002 24,12 C24,18.627417 18.627417,24 12,24 C5.372583,24 0,18.627417 0,12 C0,5.372583 5.372583,0 12,0 Z" id="Combined-Shape" fill="url(#linearGradient-11)"></path>
                <path d="M12,0 C17.3462641,0 21.8759487,3.49619272 23.4274394,8.3269638 L12,12 Z" id="Combined-Shape" fill="url(#linearGradient-12)"></path>
            </g>
        </g>
    </g>
</svg>