<?xml version="1.0" encoding="UTF-8"?>
<svg width="160px" height="128px" viewBox="0 0 160 128" version="1.1" xmlns="http://www.w3.org/2000/svg" xmlns:xlink="http://www.w3.org/1999/xlink">
    <title>Icons (Solution)/TraceDock/1. Light positive/1. TraceDock light positive 160px</title>
    <defs>
        <linearGradient x1="0%" y1="100%" x2="100%" y2="0%" id="linearGradient-1">
            <stop stop-color="#007FFF" offset="0%"></stop>
            <stop stop-color="#007FFF" offset="24.6495927%"></stop>
            <stop stop-color="#6610F2" offset="100%"></stop>
        </linearGradient>
        <rect id="path-2" x="14" y="24" width="96" height="88" rx="8"></rect>
        <filter x="-12.5%" y="-13.6%" width="125.0%" height="127.3%" filterUnits="objectBoundingBox" id="filter-3">
            <feOffset dx="0" dy="0" in="SourceAlpha" result="shadowOffsetOuter1"></feOffset>
            <feGaussianBlur stdDeviation="4" in="shadowOffsetOuter1" result="shadowBlurOuter1"></feGaussianBlur>
            <feColorMatrix values="0 0 0 0 0.062745098   0 0 0 0 0.117647059   0 0 0 0 0.117647059  0 0 0 0.3 0" type="matrix" in="shadowBlurOuter1"></feColorMatrix>
        </filter>
        <linearGradient x1="-2.22044605e-13%" y1="75.0868056%" x2="99.0041453%" y2="25.4128507%" id="linearGradient-4">
            <stop stop-color="#101E1E" offset="0%"></stop>
            <stop stop-color="#101E1E" offset="25%"></stop>
            <stop stop-color="#344055" offset="100%"></stop>
        </linearGradient>
        <linearGradient x1="0%" y1="70.8550347%" x2="100%" y2="29.1449653%" id="linearGradient-5">
            <stop stop-color="#04E4F4" offset="0%"></stop>
            <stop stop-color="#04E4F4" offset="24.7220569%"></stop>
            <stop stop-color="#007FFF" offset="100%"></stop>
        </linearGradient>
        <linearGradient x1="0%" y1="53.9153748%" x2="100%" y2="46.0846252%" id="linearGradient-6">
            <stop stop-color="#EFF0F2" offset="0%"></stop>
            <stop stop-color="#EFF0F2" offset="24.7309791%"></stop>
            <stop stop-color="#FFFFFF" offset="100%"></stop>
        </linearGradient>
        <linearGradient x1="3.57353036e-13%" y1="84.1900888%" x2="99.0041453%" y2="16.4908785%" id="linearGradient-7">
            <stop stop-color="#344055" offset="0%"></stop>
            <stop stop-color="#344055" offset="25%"></stop>
            <stop stop-color="#5D6677" offset="100%"></stop>
        </linearGradient>
        <path d="M119.045381,17.1713852 L140.295381,22.8653852 C142.963381,23.5803852 144.545381,26.3213852 143.831381,28.9883852 L138.137381,50.2383852 C137.539381,52.4723852 135.518381,53.9463852 133.310381,53.9463852 C132.881381,53.9463852 132.447381,53.8903852 132.013381,53.7743852 C129.345381,53.0593852 127.763381,50.3183852 128.477381,47.6513852 L130.31,40.811 L68.6842468,76.3647983 C68.4847805,77.0953856 68.1891056,77.8125264 67.7926245,78.4990689 C65.3086245,82.8030689 59.8046245,84.2780689 55.5006245,81.7930689 C53.3062016,80.5260752 51.8474479,78.474281 51.2738675,76.1970016 L43.9175352,71.7822723 C41.1431892,74.2035707 37.0505654,74.75112 33.6605727,72.8832974 L17.4432747,81.9632242 C16.6712747,82.3962242 15.8322747,82.6022242 15.0052747,82.6022242 C13.2542747,82.6022242 11.5542747,81.6802242 10.6382747,80.0442242 C9.28927472,77.6342242 10.1482747,74.5872242 12.5582747,73.2392242 L29.054735,64.0014916 C29.1878067,62.803045 29.5652989,61.6120287 30.2066245,60.5010689 C32.6916245,56.1970689 38.1956245,54.7220689 42.4996245,57.2070689 C44.2856486,58.23809 45.5844681,59.7895655 46.3151373,61.5595217 L54.802323,66.6518088 C57.5814142,64.6888536 61.3598274,64.3942446 64.4996245,66.2070689 C64.7909506,66.3752432 65.0693141,66.5572649 65.3343635,66.7518234 L128.798,30.137 L116.457381,26.8303852 C113.789381,26.1153852 112.207381,23.3733852 112.921381,20.7063852 C113.636381,18.0393852 116.377381,16.4573852 119.045381,17.1713852 Z" id="path-8"></path>
        <filter x="-9.0%" y="-18.2%" width="117.9%" height="136.4%" filterUnits="objectBoundingBox" id="filter-9">
            <feOffset dx="0" dy="0" in="SourceAlpha" result="shadowOffsetOuter1"></feOffset>
            <feGaussianBlur stdDeviation="4" in="shadowOffsetOuter1" result="shadowBlurOuter1"></feGaussianBlur>
            <feColorMatrix values="0 0 0 0 0.0509803922   0 0 0 0 0.192156863   0 0 0 0 0.294117647  0 0 0 0.3 0" type="matrix" in="shadowBlurOuter1"></feColorMatrix>
        </filter>
        <linearGradient x1="0%" y1="62.1499422%" x2="100%" y2="37.8500578%" id="linearGradient-10">
            <stop stop-color="#FDCA40" offset="0%"></stop>
            <stop stop-color="#FDCA40" offset="24.6093781%"></stop>
            <stop stop-color="#FFA400" offset="100%"></stop>
        </linearGradient>
        <linearGradient x1="0.101753715%" y1="99.8982463%" x2="100%" y2="0%" id="linearGradient-11">
            <stop stop-color="#FFC866" offset="0%"></stop>
            <stop stop-color="#FFDB99" offset="100%"></stop>
        </linearGradient>
        <linearGradient x1="4.74978538%" y1="99.8982463%" x2="95.34249%" y2="0%" id="linearGradient-12">
            <stop stop-color="#FFB633" offset="0%"></stop>
            <stop stop-color="#FFC866" offset="100%"></stop>
        </linearGradient>
    </defs>
    <g id="Icons-(Solution)/TraceDock/1.-Light-positive/1.-TraceDock-light-positive-160px" stroke="none" stroke-width="1" fill="none" fill-rule="evenodd">
        <path d="M68,120 C37.0724444,120 12,94.9275556 12,64 C12,33.0724444 37.0724444,8 68,8 C98.9275556,8 124,33.0724444 124,64 C124,94.9275556 98.9275556,120 68,120 Z" id="Gradient" fill="url(#linearGradient-1)"></path>
        <g id="Shadow" style="mix-blend-mode: multiply;" fill="black" fill-opacity="1">
            <use filter="url(#filter-3)" xlink:href="#path-2"></use>
        </g>
        <rect id="Solid" fill="#101E1E" x="10" y="20" width="104" height="86" rx="10"></rect>
        <rect id="Solid" fill="url(#linearGradient-4)" x="14" y="32" width="96" height="68" rx="4"></rect>
        <path d="M14,68.6021974 L37.9998646,57.1499672 L59.9998646,66.5201173 L110,38 L110,96 C110,98.209139 108.209139,100 106,100 L18,100 C15.790861,100 14,98.209139 14,96 L14,68.6021974 L14,68.6021974 Z" id="Solid" fill="url(#linearGradient-5)"></path>
        <path d="M113.516214,68.011181 C114.146214,69.543181 113.414214,71.296181 111.881214,71.926181 L65.6892097,90.9066441 C65.5637794,91.2795816 65.3995987,91.6456107 65.1952515,91.9994482 C63.5392266,94.8687596 59.869838,95.8520854 57.0004615,94.1954314 C55.3841153,93.262223 54.36645,91.6903656 54.081886,89.9827323 L41.7423198,82.6908259 C39.8698263,84.1839734 37.2000799,84.465396 35.0004615,83.1954314 C34.7233058,83.0354137 34.4637526,82.8566183 34.2224796,82.6615806 L13.655214,94.592181 C13.182214,94.867181 12.664214,94.998181 12.153214,94.998181 C11.118214,94.998181 10.645214,89.403181 10.645214,89.403181 L32.0897111,76.9624486 C32.2076815,76.2899508 32.4433215,75.626354 32.8044285,75.0008275 C34.4611201,72.1315161 38.1305086,71.1481903 40.9998851,72.8048443 C42.6117639,73.7353151 43.6284108,75.3016256 43.9159509,77.0043584 L56.2668109,84.3022214 C58.1391467,82.8153969 60.8038209,82.5369317 62.9998851,83.8048443 C63.5425347,84.1180934 64.0177221,84.5034071 64.4203393,84.9417297 L109.601214,66.376181 C111.132214,65.746181 112.885214,66.477181 113.516214,68.011181 Z" id="Solid" fill="url(#linearGradient-6)"></path>
        <path d="M106,18 C110.418278,18 114,21.581722 114,26 L114,96 C114,100.418278 110.418278,104 106,104 L18,104 C13.581722,104 10,100.418278 10,96 L10,26 C10,21.581722 13.581722,18 18,18 L106,18 Z M106,32 L18,32 C15.790861,32 14,33.790861 14,36 L14,96 C14,98.209139 15.790861,100 18,100 L106,100 C108.209139,100 110,98.209139 110,96 L110,36 C110,33.790861 108.209139,32 106,32 Z" id="Solid" fill="url(#linearGradient-7)"></path>
        <path d="M35,28 C33.3430172,28 32,26.6569828 32,25 C32,23.3430172 33.3430172,22 35,22 C36.6569828,22 38,23.3430172 38,25 C38,26.6569828 36.6569828,28 35,28 M27,28 C25.3430172,28 24,26.6569828 24,25 C24,23.3430172 25.3430172,22 27,22 C28.6569828,22 30,23.3430172 30,25 C30,26.6569828 28.6569828,28 27,28 M19,28 C17.3430172,28 16,26.6569828 16,25 C16,23.3430172 17.3430172,22 19,22 C20.6569828,22 22,23.3430172 22,25 C22,26.6569828 20.6569828,28 19,28" id="Solid" fill="#FFFFFF"></path>
        <g id="Shadow" style="mix-blend-mode: multiply;" fill="black" fill-opacity="1">
            <use filter="url(#filter-9)" xlink:href="#path-8"></use>
        </g>
        <path d="M121.045381,13.1713852 L142.295381,18.8653852 C143.749111,19.2549718 144.880419,20.2460583 145.493563,21.4989306 L146,21.5 L146,23.5 C146.018008,23.9894676 145.964749,24.4902173 145.831381,24.9883852 L140.137381,46.2383852 C139.539381,48.4723852 137.518381,49.9463852 135.310381,49.9463852 C134.881381,49.9463852 134.447381,49.8903852 134.013381,49.7743852 C131.79631,49.1802303 130.329164,47.1870462 130.306272,44.9998696 L130.3,43 L130.652,42.999 L132.675,35.447 L68.6842468,72.3647983 C68.4847805,73.0953856 68.1891056,73.8125264 67.7926245,74.4990689 C65.3086245,78.8030689 59.8046245,80.2780689 55.5006245,77.7930689 C53.3062016,76.5260752 51.8474479,74.474281 51.2738675,72.1970016 L43.9175352,67.7822723 C41.1431892,70.2035707 37.0505654,70.75112 33.6605727,68.8832974 L21.8780668,75.4806594 C21.7056702,76.5154094 21.3480698,77.5372656 20.7926245,78.4990689 C18.3086245,82.8030689 12.8046245,84.2780689 8.50062453,81.7930689 C5.63129119,80.1364023 4.01973564,77.1379578 4.00018008,74.048106 L4,72 L4.22414711,71.9993735 C4.41957425,71.1431618 4.74464796,70.3013447 5.20662453,69.5010689 C7.69162453,65.1970689 13.1956245,63.7220689 17.4996245,66.2070689 L17.728,66.344 L29.054735,60.0014916 C29.1878067,58.803045 29.5652989,57.6120287 30.2066245,56.5010689 C32.6916245,52.1970689 38.1956245,50.7220689 42.4996245,53.2070689 C44.2856486,54.23809 45.5844681,55.7895655 46.3151373,57.5595217 L54.802323,62.6518088 C57.5814142,60.6888536 61.3598274,60.3942446 64.4996245,62.2070689 C64.7909506,62.3752432 65.0693141,62.5572649 65.3343635,62.7518234 L129.433,25.771 L118.457381,22.8303852 C116.22203,22.2313311 114.74902,20.2093793 114.75,18.0007978 L114.75,16 L115.168358,15.999183 C116.139813,13.767878 118.622693,12.5230348 121.045381,13.1713852 Z" id="Solid" fill="#9D8532"></path>
        <path d="M121.045381,11.1713852 L142.295381,16.8653852 C144.963381,17.5803852 146.545381,20.3213852 145.831381,22.9883852 L140.137381,44.2383852 C139.539381,46.4723852 137.518381,47.9463852 135.310381,47.9463852 C134.881381,47.9463852 134.447381,47.8903852 134.013381,47.7743852 C131.345381,47.0593852 129.763381,44.3183852 130.477381,41.6513852 L132.675,33.447 L68.6842468,70.3647983 C68.4847805,71.0953856 68.1891056,71.8125264 67.7926245,72.4990689 C65.3086245,76.8030689 59.8046245,78.2780689 55.5006245,75.7930689 C53.3062016,74.5260752 51.8474479,72.474281 51.2738675,70.1970016 L43.9175352,65.7822723 C41.1431892,68.2035707 37.0505654,68.75112 33.6605727,66.8832974 L21.8780668,73.4806594 C21.7056702,74.5154094 21.3480698,75.5372656 20.7926245,76.4990689 C18.3086245,80.8030689 12.8046245,82.2780689 8.50062453,79.7930689 C4.19662453,77.3080689 2.72262453,71.8040689 5.20662453,67.5010689 C7.69162453,63.1970689 13.1956245,61.7220689 17.4996245,64.2070689 L17.728,64.344 L29.054735,58.0014916 C29.1878067,56.803045 29.5652989,55.6120287 30.2066245,54.5010689 C32.6916245,50.1970689 38.1956245,48.7220689 42.4996245,51.2070689 C44.2856486,52.23809 45.5844681,53.7895655 46.3151373,55.5595217 L54.802323,60.6518088 C57.5814142,58.6888536 61.3598274,58.3942446 64.4996245,60.2070689 C64.7909506,60.3752432 65.0693141,60.5572649 65.3343635,60.7518234 L129.433,23.771 L118.457381,20.8303852 C115.789381,20.1153852 114.207381,17.3733852 114.921381,14.7063852 C115.636381,12.0393852 118.377381,10.4573852 121.045381,11.1713852 Z" id="Solid" fill="url(#linearGradient-10)"></path>
        <g id="Shapes" transform="translate(122.000000, 94.000000)">
            <path d="M12,0 L12,12 L23.3872289,8.20405987 C23.7847345,9.39707844 24,10.6734002 24,12 C24,18.627417 18.627417,24 12,24 C5.372583,24 0,18.627417 0,12 C0,5.372583 5.372583,0 12,0 Z" id="Combined-Shape" fill="url(#linearGradient-11)"></path>
            <path d="M12,0 C17.3462641,0 21.8759487,3.49619272 23.4274394,8.3269638 L12,12 Z" id="Combined-Shape" fill="url(#linearGradient-12)"></path>
        </g>
    </g>
</svg>