<?xml version="1.0" encoding="UTF-8"?>
<svg width="96px" height="96px" viewBox="0 0 96 96" version="1.1" xmlns="http://www.w3.org/2000/svg" xmlns:xlink="http://www.w3.org/1999/xlink">
    <title>Icons (Solution)/TraceDock/1. Light positive/2. TraceDock light positive 96px</title>
    <defs>
        <linearGradient x1="0%" y1="100%" x2="100%" y2="0%" id="linearGradient-1">
            <stop stop-color="#007FFF" offset="0%"></stop>
            <stop stop-color="#007FFF" offset="24.6495927%"></stop>
            <stop stop-color="#6610F2" offset="100%"></stop>
        </linearGradient>
        <path d="M18,28 L62,28 C65.3137085,28 68,30.6862915 68,34 L68,78 C68,81.3137085 65.3137085,84 62,84 L18,84 C14.6862915,84 12,81.3137085 12,78 L12,34 C12,30.6862915 14.6862915,28 18,28 Z" id="path-2"></path>
        <filter x="-13.4%" y="-13.4%" width="126.8%" height="126.8%" filterUnits="objectBoundingBox" id="filter-3">
            <feOffset dx="0" dy="0" in="SourceAlpha" result="shadowOffsetOuter1"></feOffset>
            <feGaussianBlur stdDeviation="2.5" in="shadowOffsetOuter1" result="shadowBlurOuter1"></feGaussianBlur>
            <feColorMatrix values="0 0 0 0 0.062745098   0 0 0 0 0.117647059   0 0 0 0 0.117647059  0 0 0 0.3 0" type="matrix" in="shadowBlurOuter1"></feColorMatrix>
        </filter>
        <linearGradient x1="-2.22044605e-13%" y1="78.125%" x2="99.0041453%" y2="22.4351683%" id="linearGradient-4">
            <stop stop-color="#101E1E" offset="0%"></stop>
            <stop stop-color="#101E1E" offset="25%"></stop>
            <stop stop-color="#344055" offset="100%"></stop>
        </linearGradient>
        <linearGradient x1="0%" y1="73.0229592%" x2="100%" y2="26.9770408%" id="linearGradient-5">
            <stop stop-color="#04E4F4" offset="0%"></stop>
            <stop stop-color="#04E4F4" offset="24.7220569%"></stop>
            <stop stop-color="#007FFF" offset="100%"></stop>
        </linearGradient>
        <linearGradient x1="0%" y1="54.5764668%" x2="100%" y2="45.4235332%" id="linearGradient-6">
            <stop stop-color="#EFF0F2" offset="0%"></stop>
            <stop stop-color="#EFF0F2" offset="24.7309791%"></stop>
            <stop stop-color="#FFFFFF" offset="100%"></stop>
        </linearGradient>
        <linearGradient x1="3.57353036e-13%" y1="88.28125%" x2="99.0041453%" y2="12.4812013%" id="linearGradient-7">
            <stop stop-color="#344055" offset="0%"></stop>
            <stop stop-color="#344055" offset="25%"></stop>
            <stop stop-color="#5D6677" offset="100%"></stop>
        </linearGradient>
        <path d="M75.8151951,24.1029671 L88.1155885,27.3988476 C89.7159868,27.827673 90.6657343,29.4726839 90.2369088,31.0730822 L86.9447306,43.3596587 C86.5159052,44.960057 84.8708943,45.9098045 83.270496,45.4809791 C81.6700977,45.0521536 80.7203502,43.4071428 81.1491756,41.8067444 L82.2066622,37.8592325 C74.5217556,42.3099744 61.7563205,49.7031229 43.9103568,60.0386782 C43.7908272,60.7099625 43.5554329,61.3715111 43.1952515,61.9951832 C41.5392266,64.8644946 37.869838,65.8478204 35.0004615,64.1911664 C33.3971911,63.2655074 32.3829544,61.7114905 32.0889359,60.0198831 L29.7684892,58.6655723 C27.8947605,60.1770473 25.2103474,60.467059 23.0004615,59.1911664 C22.6912715,59.0126535 22.4039883,58.8107714 22.1395527,58.5890399 L10.4635835,65.1128771 C10.0015835,65.3718771 9.49858349,65.4948771 9.00358349,65.4948771 C7.95158349,65.4948771 6.93158349,64.9408771 6.38158349,63.9578771 C5.57358349,62.5118771 6.09058349,60.6838771 7.53758349,59.8758771 L20.1098608,52.8492813 C20.2335061,52.214102 20.4628285,51.5882981 20.8044285,50.9965625 C22.4611201,48.1272511 26.1305086,47.1439253 28.9998851,48.8005793 C30.6015182,49.7251357 31.6154624,51.2774743 31.9103795,52.9676405 L34.2345675,54.3237436 C36.1084641,52.8143879 38.7911839,52.5253707 40.9998851,53.8005793 C41.2785598,53.9614467 41.5394428,54.1413194 41.7818423,54.3376168 C58.1405221,44.8634424 71.1820346,37.3102659 80.9064969,31.6782059 L74.2622808,29.8985221 C72.6618825,29.4696966 71.712135,27.8246858 72.1409604,26.2242874 C72.5697859,24.6238891 74.2147968,23.6741417 75.8151951,24.1029671 Z" id="path-8"></path>
        <filter x="-8.9%" y="-18.1%" width="117.8%" height="136.1%" filterUnits="objectBoundingBox" id="filter-9">
            <feOffset dx="0" dy="0" in="SourceAlpha" result="shadowOffsetOuter1"></feOffset>
            <feGaussianBlur stdDeviation="2.5" in="shadowOffsetOuter1" result="shadowBlurOuter1"></feGaussianBlur>
            <feColorMatrix values="0 0 0 0 0.062745098   0 0 0 0 0.117647059   0 0 0 0 0.117647059  0 0 0 0.3 0" type="matrix" in="shadowBlurOuter1"></feColorMatrix>
        </filter>
        <linearGradient x1="0%" y1="62.401674%" x2="100%" y2="37.598326%" id="linearGradient-10">
            <stop stop-color="#FDCA40" offset="0%"></stop>
            <stop stop-color="#FDCA40" offset="24.6093781%"></stop>
            <stop stop-color="#FFA400" offset="100%"></stop>
        </linearGradient>
    </defs>
    <g id="Icons-(Solution)/TraceDock/1.-Light-positive/2.-TraceDock-light-positive-96px" stroke="none" stroke-width="1" fill="none" fill-rule="evenodd">
        <path d="M88,48 C88,70.0911111 70.0911111,88 48,88 C25.9088889,88 8,70.0911111 8,48 C8,25.9088889 25.9088889,8 48,8 C70.0911111,8 88,25.9088889 88,48" id="Gradient" fill="url(#linearGradient-1)"></path>
        <g id="Shadow" style="mix-blend-mode: multiply;" fill="black" fill-opacity="1">
            <use filter="url(#filter-3)" xlink:href="#path-2"></use>
        </g>
        <path d="M16,26 L64,26 C68.418278,26 72,29.581722 72,34 L72,74 C72,78.418278 68.418278,82 64,82 L16,82 C11.581722,82 8,78.418278 8,74 L8,34 C8,29.581722 11.581722,26 16,26 Z" id="Solid" fill="#101E1E"></path>
        <path d="M12,36 L12,74 C12,75.1045695 12.8954305,76 14,76 L66,76 C67.1045695,76 68,75.1045695 68,74 L68,36 C68,34.8954305 67.1045695,34 66,34 L14,34 C12.8954305,34 12,34.8954305 12,36 Z" id="Solid" fill="url(#linearGradient-4)"></path>
        <path d="M12,56.83759 L26,49.6622703 L38,54.3576307 L68,38 L68,74 C68,75.1045695 67.1045695,76 66,76 L14,76 C12.8954305,76 12,75.1045695 12,74 L12,56.83759 L12,56.83759 Z" id="Solid" fill="url(#linearGradient-5)"></path>
        <path d="M70.7533,58.853 L41.6266116,70.6864095 C41.5772872,70.7921388 41.5229431,70.8966132 41.463501,70.9995402 C40.3594844,72.9124145 37.9132253,73.567965 36.0003077,72.463529 C35.0543487,71.9173732 34.4159729,71.0431 34.1458064,70.0675154 L28.7410248,66.9137471 C27.4891603,68.0923873 25.5660709,68.367533 24.0003077,67.463529 C23.7058534,67.2935238 23.4412016,67.0917264 23.208181,66.8649774 L10.9813,73.743 C10.6703,73.917 10.3343,74 10.0023,74 C9.3033,74 8.0573,70.798 9.0203,70.256 L22.1651753,62.8612979 C22.2528329,62.5669289 22.3760252,62.2780705 22.5362856,62.0004598 C23.6407467,60.0875855 26.0870057,59.432035 27.9999234,60.536471 C28.9452353,61.0821603 29.5834591,61.9558879 29.853836,62.9309938 L35.2603373,66.0849594 C36.5124781,64.9074115 38.4347331,64.6327978 39.9999234,65.536471 C40.4655286,65.8052455 40.8566351,66.1536012 41.165983,66.5544545 L69.2473,55.146 C70.2703,54.732 71.7763,58.437 70.7533,58.853 Z" id="Solid" fill="url(#linearGradient-6)"></path>
        <path d="M66,24 C69.3137085,24 72,26.6862915 72,30 L72,74 C72,77.3137085 69.3137085,80 66,80 L14,80 C10.6862915,80 8,77.3137085 8,74 L8,30 C8,26.6862915 10.6862915,24 14,24 L66,24 Z M66,34 L14,34 C12.8954305,34 12,34.8954305 12,36 L12,74 C12,75.1045695 12.8954305,76 14,76 L66,76 C67.1045695,76 68,75.1045695 68,74 L68,36 C68,34.8954305 67.1045695,34 66,34 Z" id="Solid" fill="url(#linearGradient-7)"></path>
        <path d="M28,31 C26.8953448,31 26,30.1046552 26,29 C26,27.8953448 26.8953448,27 28,27 C29.1046552,27 30,27.8953448 30,29 C30,30.1046552 29.1046552,31 28,31 M22,31 C20.8953448,31 20,30.1046552 20,29 C20,27.8953448 20.8953448,27 22,27 C23.1046552,27 24,27.8953448 24,29 C24,30.1046552 23.1046552,31 22,31 M16,31 C14.8953448,31 14,30.1046552 14,29 C14,27.8953448 14.8953448,27 16,27 C17.1046552,27 18,27.8953448 18,29 C18,30.1046552 17.1046552,31 16,31" id="Solid" fill="#FFFFFF"></path>
        <g id="Shadow" style="mix-blend-mode: multiply;" fill="black" fill-opacity="1">
            <use filter="url(#filter-9)" xlink:href="#path-8"></use>
        </g>
        <path d="M77.8151951,22.1070942 L90.1007343,25.3989945 L90.1155885,25.4029747 C90.746498,25.5720264 91.27629,25.930085 91.6603681,26.399907 L92.34,26.4 L92.34,28.4 C92.3306113,28.6237679 92.297539,28.8509345 92.2369088,29.0772093 L88.9447306,41.3637858 C88.5159052,42.9641842 86.8708943,43.9139316 85.270496,43.4851062 C83.8815789,43.112947 82.9827164,41.824786 83.0497142,40.444743 L83.05,38.65 L83.46,38.6491271 L84.574,34.4911271 L43.9093656,58.0425989 C43.7910604,58.713434 43.5556114,59.3753291 43.1952515,59.9993104 C41.5392266,62.8686217 37.869838,63.8519475 35.0004615,62.1952935 C33.3971911,61.2696345 32.3829544,59.7156176 32.0889359,58.0240102 L29.7684892,56.6696995 C27.8947605,58.1811744 25.2103474,58.4711862 23.0004615,57.1952935 C22.6908812,57.0165552 22.4032629,56.8143887 22.1385511,56.5923271 L15.9999725,60.0237703 C15.996907,61.0356522 15.7374869,62.0604025 15.1952515,62.9993104 C13.5392266,65.8686217 9.86983801,66.8519475 7.0004615,65.1952935 C5.08754383,64.0908576 4.01315729,62.0919099 4.00012006,60.0320244 L4,58 L4.34317042,57.9993813 C4.46397776,57.6589714 4.61736916,57.3247226 4.80442846,57.0006896 C6.46112005,54.1313783 10.1305086,53.1480525 12.9998851,54.8047065 L13.019,54.8161271 L20.1098608,50.8534084 C20.2335061,50.2182291 20.4628285,49.5924252 20.8044285,49.0006896 C22.4611201,46.1313783 26.1305086,45.1480525 28.9998851,46.8047065 C30.6015182,47.7292629 31.6154624,49.2816014 31.9103795,50.9717676 L34.2345675,52.3278707 C36.1084641,50.8185151 38.7911839,50.5294978 40.9998851,51.8047065 C41.2785598,51.9655738 41.5394428,52.1454466 41.7818423,52.341744 L81.538,29.3151271 L76.2622808,27.9026492 C74.8848285,27.533562 73.9893739,26.2635329 74.040037,24.8964415 L74.04,23 L74.8067846,22.9993223 C75.5376828,22.1872288 76.6875139,21.804933 77.8151951,22.1070942 Z" id="Solid" fill="#9D8532"></path>
        <path d="M77.8151951,20.1029671 L90.1007343,23.3948674 L90.1155885,23.3988476 C91.7159868,23.827673 92.6657343,25.4726839 92.2369088,27.0730822 L88.9447306,39.3596587 C88.5159052,40.960057 86.8708943,41.9098045 85.270496,41.4809791 C83.6700977,41.0521536 82.7203502,39.4071428 83.1491756,37.8067444 L84.574,32.487 L43.9093656,56.0384718 C43.7910604,56.7093068 43.5556114,57.371202 43.1952515,57.9951832 C41.5392266,60.8644946 37.869838,61.8478204 35.0004615,60.1911664 C33.3971911,59.2655074 32.3829544,57.7114905 32.0889359,56.0198831 L29.7684892,54.6655723 C27.8947605,56.1770473 25.2103474,56.467059 23.0004615,55.1911664 C22.6908812,55.0124281 22.4032629,54.8102615 22.1385511,54.5881999 L15.9999725,58.0196431 C15.996907,59.0315251 15.7374869,60.0562754 15.1952515,60.9951832 C13.5392266,63.8644946 9.86983801,64.8478204 7.0004615,63.1911664 C4.13108499,61.5345124 3.14840354,57.8652072 4.80442846,54.9965625 C6.46112005,52.1272511 10.1305086,51.1439253 12.9998851,52.8005793 L13.019,52.812 L20.1098608,48.8492813 C20.2335061,48.214102 20.4628285,47.5882981 20.8044285,46.9965625 C22.4611201,44.1272511 26.1305086,43.1439253 28.9998851,44.8005793 C30.6015182,45.7251357 31.6154624,47.2774743 31.9103795,48.9676405 L34.2345675,50.3237436 C36.1084641,48.8143879 38.7911839,48.5253707 40.9998851,49.8005793 C41.2785598,49.9614467 41.5394428,50.1413194 41.7818423,50.3376168 L81.538,27.311 L76.2622808,25.8985221 C74.6618825,25.4696966 73.712135,23.8246858 74.1409604,22.2242874 C74.5697859,20.6238891 76.2147968,19.6741417 77.8151951,20.1029671 Z" id="Solid" fill="url(#linearGradient-10)"></path>
    </g>
</svg>