<?xml version="1.0" encoding="UTF-8"?>
<svg width="96px" height="96px" viewBox="0 0 96 96" version="1.1" xmlns="http://www.w3.org/2000/svg" xmlns:xlink="http://www.w3.org/1999/xlink">
    <title>Icons (Solution)/PSP/4. Dark diapositive/2. PSP dark diapositive96px</title>
    <defs>
        <linearGradient x1="0%" y1="100%" x2="100%" y2="0%" id="linearGradient-1">
            <stop stop-color="#007FFF" offset="0%"></stop>
            <stop stop-color="#007FFF" offset="24.6495927%"></stop>
            <stop stop-color="#6610F2" offset="100%"></stop>
        </linearGradient>
        <path d="M49.3066221,22.703492 L63.3066221,46.9522033 C64.9634764,49.8219591 63.9802255,53.4915015 61.1104697,55.1483557 L54.0073501,59.249127 L60.376765,60.9551956 C61.211815,61.1084783 61.9768524,61.6133426 62.4346176,62.4062151 C62.8614055,63.1454335 62.9378396,63.9907871 62.715441,64.7499969 L59.4375603,76.9794716 C59.0087349,78.5798699 57.363724,79.5296174 55.7633257,79.100792 C54.1629274,78.6719665 53.2131799,77.0269556 53.6420054,75.4265573 L55.0617124,70.1259687 L38.8198809,79.5042914 C37.385003,80.3327185 35.5502318,79.841093 34.7218047,78.4062151 C33.8933775,76.9713373 34.385003,75.1365661 35.8198809,74.3081389 L52.049588,64.9368163 L46.7551105,63.518335 L46.6613501,63.490127 L23.005352,77.1483557 C20.1355962,78.80521 16.4660538,77.8219591 14.8091995,74.9522033 L0.80919953,50.703492 C-0.847654719,47.8337363 0.135596212,44.1641938 3.00535195,42.5073396 L41.1104697,20.5073396 C43.9802255,18.8504853 47.6497679,19.8337363 49.3066221,22.703492 Z M69.6413342,9.7070941 L81.7100744,12.9395097 C82.5451244,13.0927924 83.3101618,13.5976567 83.767927,14.3905293 C84.1947149,15.1297476 84.271149,15.9751012 84.0487503,16.734311 L80.7708697,28.9637857 C80.3420443,30.564184 78.6970334,31.5139315 77.0966351,31.0851061 C75.4962368,30.6562806 74.5464893,29.0112698 74.9753147,27.4108714 L76.3950218,22.1102829 L60.1531902,31.4886055 C58.7183124,32.3170326 56.8835412,31.8254071 56.055114,30.3905293 C55.2266869,28.9556514 55.7183124,27.1208802 57.1531902,26.292453 L73.3828974,16.9211304 L68.0884199,15.5026491 C66.4880216,15.0738236 65.5382741,13.4288128 65.9670995,11.8284144 C66.395925,10.2280161 68.0409359,9.27826867 69.6413342,9.7070941 Z" id="path-2"></path>
        <filter x="-8.9%" y="-10.7%" width="117.8%" height="121.3%" filterUnits="objectBoundingBox" id="filter-3">
            <feOffset dx="0" dy="0" in="SourceAlpha" result="shadowOffsetOuter1"></feOffset>
            <feGaussianBlur stdDeviation="2.5" in="shadowOffsetOuter1" result="shadowBlurOuter1"></feGaussianBlur>
            <feColorMatrix values="0 0 0 0 0.062745098   0 0 0 0 0.117647059   0 0 0 0 0.117647059  0 0 0 0.3 0" type="matrix" in="shadowBlurOuter1"></feColorMatrix>
        </filter>
        <linearGradient x1="0%" y1="78.1224482%" x2="100%" y2="21.8775518%" id="linearGradient-4">
            <stop stop-color="#FDCA40" offset="0%"></stop>
            <stop stop-color="#FDCA40" offset="24.6093781%"></stop>
            <stop stop-color="#FFA400" offset="100%"></stop>
        </linearGradient>
        <linearGradient x1="-2.22044605e-13%" y1="91.281928%" x2="99.0041453%" y2="9.54028806%" id="linearGradient-5">
            <stop stop-color="#101E1E" offset="0%"></stop>
            <stop stop-color="#101E1E" offset="25%"></stop>
            <stop stop-color="#344055" offset="100%"></stop>
        </linearGradient>
        <linearGradient x1="0%" y1="83.6835216%" x2="100%" y2="16.3164784%" id="linearGradient-6">
            <stop stop-color="#EFF0F2" offset="0%"></stop>
            <stop stop-color="#EFF0F2" offset="24.7309791%"></stop>
            <stop stop-color="#FFFFFF" offset="100%"></stop>
        </linearGradient>
    </defs>
    <g id="Icons-(Solution)/PSP/4.-Dark-diapositive/2.-PSP-dark-diapositive96px" stroke="none" stroke-width="1" fill="none" fill-rule="evenodd">
        <g id="Icons-(Solution)/PSP/1.-3D/1.-Primary/2.-PSP-96px" transform="translate(6.177170, -1.600000)">
            <path d="M81.8228297,49.595686 C81.8228297,71.6867971 63.9139408,89.595686 41.8228297,89.595686 C19.7317186,89.595686 1.82282972,71.6867971 1.82282972,49.595686 C1.82282972,27.5045749 19.7317186,9.595686 41.8228297,9.595686 C63.9139408,9.595686 81.8228297,27.5045749 81.8228297,49.595686" id="Gradient" fill="url(#linearGradient-1)"></path>
            <g id="Shadow" style="mix-blend-mode: multiply;" fill="black" fill-opacity="1">
                <use filter="url(#filter-3)" xlink:href="#path-2"></use>
            </g>
            <path d="M71.6413342,6.70709423 L83.7100744,9.93950981 C84.5451244,10.0927925 85.3101618,10.5976569 85.767927,11.3905294 C85.8465747,11.5267513 85.913325,11.6665774 85.9685002,11.8088045 L86.1679667,11.8082223 L86.1679667,12.8082223 L86.1696299,12.9535082 C86.1638125,13.2185997 86.1228832,13.4812412 86.0487503,13.7343111 L82.7708697,25.9637858 C82.3420443,27.5641842 80.6970334,28.5139316 79.0966351,28.0851062 C77.7608404,27.7271811 76.8783307,26.5219837 76.8723779,25.2026428 L76.8720458,24.2028124 L77.0304561,24.2021271 L78.3950218,19.110283 L62.1531902,28.4886056 C60.7183124,29.3170327 58.8835412,28.8254073 58.055114,27.3905294 C57.7850368,26.9227419 57.6552599,26.4124522 57.6527271,25.9083862 L57.6514561,24.9085059 L57.8183662,24.9086661 C58.0460279,24.2504458 58.5026729,23.6680295 59.1531902,23.2924532 L75.3828974,13.9211306 L70.0884199,12.5026492 C68.7531763,12.1448718 67.8708437,10.9405209 67.8641706,9.62181865 L67.863941,8.62115782 L68.030644,8.62105133 C68.5405652,7.14712599 70.1113366,6.29713263 71.6413342,6.70709423 Z" id="Combined-Shape" fill="#9D8532"></path>
            <path d="M78.0200027,7.27105744 L86.8556305,16.1047816 C87.5021637,16.6550533 87.9122734,17.4747973 87.9122734,18.3903277 C87.9122734,19.2439035 87.5557904,20.0142182 86.9835827,20.5605139 L78.0301174,29.5126093 C76.8585445,30.6841822 74.9590496,30.6841822 73.7874767,29.5126093 C72.6159038,28.3410365 72.6159038,26.4415415 73.7874767,25.2699686 L77.6672734,21.3893778 L58.9122734,21.3903277 C57.2554191,21.3903277 55.9122734,20.0471819 55.9122734,18.3903277 C55.9122734,16.7334734 57.2554191,15.3903277 58.9122734,15.3903277 L77.6532734,15.3893778 L73.777362,11.5136981 C72.6057891,10.3421252 72.6057891,8.44263031 73.777362,7.27105744 C74.9489349,6.09948456 76.8484298,6.09948456 78.0200027,7.27105744 Z" id="Solid" fill="url(#linearGradient-4)" transform="translate(71.912273, 18.391833) rotate(-30.000000) translate(-71.912273, -18.391833) "></path>
            <path d="M41.1104697,18.50734 C43.9802255,16.8504858 47.6497679,17.8337367 49.3066221,20.7034924 L63.3066221,44.9522037 C63.520228,45.3221799 63.6899526,45.7054494 63.8174108,46.0959855 L64.1128426,46.0956862 L64.1128426,48.0956862 C64.0591854,50.1167616 62.9890127,52.0637789 61.1104697,53.1483562 L23.005352,75.1483562 C20.1355962,76.8052104 16.4660538,75.8219595 14.8091995,72.9522037 L0.80919953,48.7034924 C0.242569722,47.7220608 -0.0152784584,46.6470877 0.00551199107,45.5910682 L0,43.5909455 L0.389374581,43.5909382 C0.860724281,42.3357333 1.7535653,41.2300594 3.00535195,40.50734 Z" id="Combined-Shape" fill="#101E1E"></path>
            <path d="M0.80919953,46.7034924 L14.8091995,70.9522037 C16.4660538,73.8219595 20.1355962,74.8052104 23.005352,73.1483562 L61.1104697,51.1483562 C63.9802255,49.4915019 64.9634764,45.8219595 63.3066221,42.9522037 L49.3066221,18.7034924 C47.6497679,15.8337367 43.9802255,14.8504858 41.1104697,16.50734 L3.00535195,38.50734 C0.135596212,40.1641942 -0.847654719,43.8337367 0.80919953,46.7034924 Z" id="Solid" fill="url(#linearGradient-5)"></path>
            <path d="M20.8176348,51.3591188 C18.8930467,48.0256346 20.0287757,43.7633677 23.3569015,41.8295281 L33.7638081,35.7824948 C37.0247378,33.8877001 41.1843085,34.9299048 43.1769261,38.0968048 L43.3162411,38.3278481 C45.2492377,41.6758964 44.1021116,45.9570293 40.7540633,47.8900259 L30.3304877,53.9080801 C26.9997097,55.8311057 22.7406603,54.6898968 20.8176348,51.3591188 Z" id="Solid" fill="url(#linearGradient-6)"></path>
            <path d="M48.3080248,54.7227802 L60.376765,57.9551958 C61.211815,58.1084785 61.9768524,58.6133429 62.4346176,59.4062154 C62.5132654,59.5424373 62.5800156,59.6822634 62.6351908,59.8244905 L62.8346573,59.8239083 L62.8346573,60.8239083 L62.8363205,60.9691942 C62.8305031,61.2342857 62.7895738,61.4969272 62.715441,61.7499971 L59.4375603,73.9794718 C59.0087349,75.5798702 57.363724,76.5296176 55.7633257,76.1007922 C54.4275311,75.7428671 53.5450213,74.5376697 53.5390686,73.2183288 L53.5387364,72.2184984 L53.6971467,72.2178131 L55.0617124,67.125969 L38.8198809,76.5042916 C37.385003,77.3327187 35.5502318,76.8410933 34.7218047,75.4062154 C34.4517274,74.9384279 34.3219505,74.4281382 34.3194178,73.9240722 L34.3181467,72.9241919 L34.4850568,72.9243521 C34.7127185,72.2661318 35.1693635,71.6837155 35.8198809,71.3081392 L52.049588,61.9368166 L46.7551105,60.5183352 C45.419867,60.1605578 44.5375343,58.9562069 44.5308612,57.6375046 L44.5306316,56.6368438 L44.6973346,56.6367373 C45.2072558,55.162812 46.7780273,54.3128186 48.3080248,54.7227802 Z" id="Combined-Shape" fill="#9D8532"></path>
            <path d="M54.6866933,55.2867434 L63.5223212,64.1204676 C64.1688543,64.6707393 64.578964,65.4904833 64.578964,66.4060137 C64.578964,67.2595895 64.2224811,68.0299042 63.6502733,68.5761999 L54.696808,77.5282953 C53.5252351,78.6998682 51.6257402,78.6998682 50.4541673,77.5282953 C49.2825945,76.3567225 49.2825945,74.4572275 50.4541673,73.2856546 L54.333964,69.4050638 L35.578964,69.4060137 C33.9221097,69.4060137 32.578964,68.0628679 32.578964,66.4060137 C32.578964,64.7491594 33.9221097,63.4060137 35.578964,63.4060137 L54.319964,63.4050638 L50.4440526,59.5293841 C49.2724798,58.3578112 49.2724798,56.4583163 50.4440526,55.2867434 C51.6156255,54.1151706 53.5151205,54.1151706 54.6866933,55.2867434 Z" id="Solid" fill="url(#linearGradient-4)" transform="translate(48.578964, 66.407519) rotate(-30.000000) translate(-48.578964, -66.407519) "></path>
        </g>
    </g>
</svg>