<?xml version="1.0" encoding="UTF-8"?>
<svg width="160px" height="128px" viewBox="0 0 160 128" version="1.1" xmlns="http://www.w3.org/2000/svg" xmlns:xlink="http://www.w3.org/1999/xlink">
    <title>Icons (Solution)/PSP/3. Dark positive/1. PSP dark positive 160px</title>
    <defs>
        <linearGradient x1="-2.22044605e-13%" y1="100%" x2="99.0041453%" y2="0.995854731%" id="linearGradient-1">
            <stop stop-color="#101E1E" offset="0%"></stop>
            <stop stop-color="#101E1E" offset="25%"></stop>
            <stop stop-color="#344055" offset="100%"></stop>
        </linearGradient>
        <path d="M74.8267384,22.5474411 L96.8267384,60.6525589 C99.0358774,64.4788999 97.7248762,69.3716231 93.8985352,71.5807621 L80.3324719,79.4124501 L91.7524218,82.4729256 C91.8933623,82.5106905 92.0326599,82.5545867 92.1698802,82.6044978 C92.2027754,82.6167278 92.2351025,82.6288496 92.2672399,82.6412789 C92.3131104,82.65882 92.3590106,82.6773803 92.4046437,82.6966234 C92.4209205,82.703627 92.4370135,82.7105057 92.4530558,82.7174626 C92.9307807,82.9247008 93.3784633,83.2074704 93.7762884,83.56031 C93.7910178,83.5744894 93.8056178,83.5876156 93.8201344,83.6008226 C93.8611655,83.6369395 93.9015334,83.6748591 93.9413341,83.7135259 L93.9750272,83.7479276 C94.2852668,84.0538383 94.5597501,84.4065948 94.7882812,84.8024224 C95.2242707,85.5575784 95.4408734,86.3791949 95.4578647,87.1934686 L95.458042,87.2098764 L95.4585477,87.2446331 L95.45881,87.2794225 C95.4590946,87.328683 95.4585494,87.3776342 95.4572874,87.4265332 L95.4553822,87.4849521 C95.4533287,87.5412718 95.4502506,87.5977738 95.4462203,87.6541721 C95.4447533,87.6738579 95.4432222,87.6935953 95.4415717,87.7133414 C95.4374077,87.7640815 95.432419,87.814607 95.426668,87.8650237 C95.4231864,87.8944639 95.4195032,87.9242836 95.4155445,87.9541151 C95.3958543,88.1041408 95.3692923,88.2529151 95.3361151,88.4001467 L95.2872483,88.5965948 L89.5930824,109.847511 C88.8784139,112.51469 86.1368848,114.097513 83.4697057,113.382845 C80.8019782,112.668029 79.2191556,109.9265 79.9338241,107.259321 L82.5023961,97.6686452 L60.0488011,110.632446 C57.6574737,112.013079 54.5996953,111.19375 53.2190618,108.802422 C51.8384284,106.411095 52.6577576,103.353317 55.049085,101.972683 L77.5032621,89.0078912 L68.0854719,86.4834501 L35.0088077,105.580762 C31.2589936,107.745718 26.4850259,106.529932 24.2163431,102.879113 L24.0806045,102.652559 L2.0806045,64.5474411 C-0.128534503,60.7211001 1.18246674,55.8283769 5.00880773,53.6192379 L63.8985352,19.6192379 C67.7248762,17.4100989 72.6175994,18.7211001 74.8267384,22.5474411 Z M113.483842,15.7790522 L134.735265,21.4729256 C134.876205,21.5106905 135.015503,21.5545867 135.152723,21.6044978 C135.185618,21.6167278 135.217945,21.6288496 135.250083,21.6412789 C135.295953,21.65882 135.341854,21.6773803 135.387487,21.6966234 C135.403763,21.703627 135.419857,21.7105057 135.435899,21.7174626 C135.913624,21.9247008 136.361306,22.2074704 136.759131,22.56031 C136.773861,22.5744894 136.788461,22.5876156 136.802977,22.6008226 C136.844009,22.6369395 136.884376,22.6748591 136.924177,22.7135259 L136.95787,22.7479276 C137.26811,23.0538383 137.542593,23.4065948 137.771124,23.8024224 C138.207114,24.5575784 138.423716,25.3791949 138.440708,26.1934686 L138.440885,26.2098764 C138.441303,26.2330364 138.441559,26.2562188 138.441653,26.2794225 L138.44013,26.4265332 L138.438225,26.4849521 C138.436172,26.5412718 138.433094,26.5977738 138.429063,26.6541721 C138.427596,26.6738579 138.426065,26.6935953 138.424415,26.7133414 C138.420251,26.7640815 138.415262,26.814607 138.409511,26.8650237 C138.406029,26.8944639 138.402346,26.9242836 138.398388,26.9541151 C138.378697,27.1041408 138.352135,27.2529151 138.318958,27.4001467 L138.270091,27.5965948 L132.575925,48.8475114 C131.861257,51.5146905 129.119728,53.097513 126.452549,52.3828446 C123.784821,51.6680291 122.201999,48.9265 122.916667,46.2593209 L125.485239,36.6686452 L103.031644,49.6324455 C100.640317,51.013079 97.5825383,50.1937498 96.2019048,47.8024224 C94.8212714,45.4110951 95.6406006,42.3533167 98.031928,40.9726832 L120.486105,28.0078912 L110.895798,25.437762 C108.228619,24.7230935 106.645796,21.9815644 107.360465,19.3143853 C108.075133,16.6472063 110.816662,15.0643837 113.483842,15.7790522 Z" id="path-2"></path>
        <filter x="-8.7%" y="-12.3%" width="117.5%" height="124.5%" filterUnits="objectBoundingBox" id="filter-3">
            <feOffset dx="0" dy="0" in="SourceAlpha" result="shadowOffsetOuter1"></feOffset>
            <feGaussianBlur stdDeviation="4" in="shadowOffsetOuter1" result="shadowBlurOuter1"></feGaussianBlur>
            <feColorMatrix values="0 0 0 0 0.062745098   0 0 0 0 0.117647059   0 0 0 0 0.117647059  0 0 0 0.3 0" type="matrix" in="shadowBlurOuter1"></feColorMatrix>
        </filter>
        <linearGradient x1="0%" y1="91.3363991%" x2="100%" y2="8.6636009%" id="linearGradient-4">
            <stop stop-color="#0658A5" offset="0%"></stop>
            <stop stop-color="#0658A5" offset="24.6495927%"></stop>
            <stop stop-color="#43159D" offset="100%"></stop>
        </linearGradient>
        <linearGradient x1="0%" y1="91.3446382%" x2="100%" y2="8.65536181%" id="linearGradient-5">
            <stop stop-color="#007FFF" offset="0%"></stop>
            <stop stop-color="#007FFF" offset="24.6495927%"></stop>
            <stop stop-color="#6610F2" offset="100%"></stop>
        </linearGradient>
        <linearGradient x1="0%" y1="82.3735942%" x2="100%" y2="17.6264058%" id="linearGradient-6">
            <stop stop-color="#EFF0F2" offset="0%"></stop>
            <stop stop-color="#EFF0F2" offset="24.7309791%"></stop>
            <stop stop-color="#FFFFFF" offset="100%"></stop>
        </linearGradient>
        <linearGradient x1="0%" y1="87.0697701%" x2="100%" y2="12.9302299%" id="linearGradient-7">
            <stop stop-color="#FDCA40" offset="0%"></stop>
            <stop stop-color="#FDCA40" offset="24.6093781%"></stop>
            <stop stop-color="#FFA400" offset="100%"></stop>
        </linearGradient>
        <linearGradient x1="0%" y1="87.0681094%" x2="100%" y2="12.9318906%" id="linearGradient-8">
            <stop stop-color="#FDCA40" offset="0%"></stop>
            <stop stop-color="#FDCA40" offset="24.6093781%"></stop>
            <stop stop-color="#FFA400" offset="100%"></stop>
        </linearGradient>
        <linearGradient x1="0.101753715%" y1="80.4759245%" x2="100%" y2="19.4619282%" id="linearGradient-9">
            <stop stop-color="#FFC866" offset="0%"></stop>
            <stop stop-color="#FFDB99" offset="100%"></stop>
        </linearGradient>
    </defs>
    <g id="Icons-(Solution)/PSP/3.-Dark-positive/1.-PSP-dark-positive-160px" stroke="none" stroke-width="1" fill="none" fill-rule="evenodd">
        <g id="Icons-(Solution)/PSP/1.-3D/1.-Primary/1.-PSP-160px" transform="translate(7.546329, 3.400000)">
            <path d="M116.453671,60.6 C116.453671,91.5275556 91.381227,116.6 60.4536715,116.6 C29.5261159,116.6 4.45367146,91.5275556 4.45367146,60.6 C4.45367146,29.6724444 29.5261159,4.6 60.4536715,4.6 C91.381227,4.6 116.453671,29.6724444 116.453671,60.6" id="Gradient" fill="url(#linearGradient-1)"></path>
            <g id="Shadow" style="mix-blend-mode: multiply;" fill="black" fill-opacity="1">
                <use filter="url(#filter-3)" xlink:href="#path-2"></use>
            </g>
            <path d="M73.8267384,16.5474411 L95.8267384,54.6525589 C96.1881355,55.278517 96.4553256,55.933014 96.6327078,56.5996321 L96.9020548,56.6 L96.9020548,58.6 C96.9155439,61.380436 95.4790691,64.0908902 92.8985352,65.5807621 L34.0088077,99.5807621 C30.1824667,101.789901 25.2897435,100.4789 23.0806045,96.6525589 L1.0806045,58.5474411 C0.361158581,57.3013242 0.0150575314,55.9421072 0.00759529924,54.5993148 L0,52.6 L0.249636103,52.5992739 C0.758690076,50.5726559 2.05625314,48.7465458 4.00880773,47.6192379 L62.8985352,13.6192379 C66.7248762,11.4100989 71.6175994,12.7211001 73.8267384,16.5474411 Z" id="Combined-Shape" fill="url(#linearGradient-4)"></path>
            <path d="M1.0806045,56.5474411 L23.0806045,94.6525589 C25.2897435,98.4788999 30.1824667,99.7899011 34.0088077,97.5807621 L92.8985352,63.5807621 C96.7248762,61.3716231 98.0358774,56.4788999 95.8267384,52.6525589 L73.8267384,14.5474411 C71.6175994,10.7211001 66.7248762,9.41009889 62.8985352,11.6192379 L4.00880773,45.6192379 C0.182466739,47.8283769 -1.1285345,52.7211001 1.0806045,56.5474411 Z" id="Solid" fill="url(#linearGradient-5)"></path>
            <path d="M31.158955,64.6446725 C28.4097028,59.8828279 30.0327324,53.7942028 34.7874703,51.0326782 L52.1268501,40.9620655 C56.8067667,38.2439967 62.7809076,39.7588015 65.6126207,44.3299385 L65.7741795,44.6 C68.5356033,49.3829262 66.8968517,55.4988303 62.1139255,58.260254 L44.7487449,68.2860457 C39.9904906,71.0332251 33.9061345,69.4029268 31.158955,64.6446725 Z" id="Solid" fill="url(#linearGradient-6)"></path>
            <path d="M79.762951,100.411372 L83.762951,100.411372 L83.762951,102.482032 L79.762951,102.482032 Z M52.553136,98.3739298 L56.553136,98.3739298 L56.553136,100.444589 L52.553136,100.444589 Z M91.4583465,79.2485784 L95.4583465,79.2485784 L95.4583465,81.4290131 L91.4583465,81.4290131 Z M64.2047702,73.5886155 L68.2047702,73.5886155 L68.2047702,75.6592751 L64.2047702,75.6592751 Z" id="Combined-Shape" fill="#9D8532"></path>
            <path d="M70.5009985,70.7790522 L91.7524218,76.4729256 L91.908186,76.5177723 L92.1759685,76.6067168 L92.3954308,76.6927492 L92.4806938,76.7295474 L92.6660051,76.8157744 L92.8990639,76.9379582 L93.0138033,77.0039235 L93.1317929,77.0763724 C93.6961142,77.4324555 94.1959163,77.9065149 94.59076,78.4874918 L94.7662264,78.7647445 L94.8650737,78.9403179 L94.9613027,79.1306363 C95.2221719,79.6688608 95.3773716,80.2339457 95.4341775,80.80118 L95.4559848,81.1300665 L95.4579654,81.3968414 L95.4486885,81.6177686 L95.4247991,81.8802648 L95.3737202,82.2173787 L95.3078966,82.5184744 L89.5930824,103.847511 C88.8784139,106.51469 86.1368848,108.097513 83.4697057,107.382845 C80.8019782,106.668029 79.2191556,103.9265 79.9338241,101.259321 L82.5023961,91.6686452 L60.0488011,104.632446 C57.6574737,106.013079 54.5996953,105.19375 53.2190618,102.802422 C51.8384284,100.411095 52.6577576,97.3533167 55.049085,95.9726832 L77.5032621,83.0078912 L67.912955,80.437762 C65.2457759,79.7230935 63.6629534,76.9815644 64.3776219,74.3143853 C65.0922903,71.6472063 67.8338194,70.0643837 70.5009985,70.7790522 Z" id="Path" fill="#9D8532"></path>
            <path d="M70.5009985,68.7790522 L91.7524218,74.4729256 L91.908186,74.5177723 L92.1759685,74.6067168 L92.3954308,74.6927492 L92.4806938,74.7295474 L92.6660051,74.8157744 L92.8990639,74.9379582 L93.0138033,75.0039235 L93.1317929,75.0763724 C93.6961142,75.4324555 94.1959163,75.9065149 94.59076,76.4874918 L94.7081388,76.6683953 L94.863793,76.9392361 L94.9613027,77.1306363 C95.2221719,77.6688608 95.3773716,78.2339457 95.4341775,78.80118 L95.4559848,79.1300665 L95.4579654,79.3968414 L95.4486885,79.6177686 L95.4247991,79.8802648 L95.3737202,80.2173787 L95.3078966,80.5184744 L89.5930824,101.847511 C88.8784139,104.51469 86.1368848,106.097513 83.4697057,105.382845 C80.8019782,104.668029 79.2191556,101.9265 79.9338241,99.2593209 L82.5023961,89.6686452 L60.0488011,102.632446 C57.6574737,104.013079 54.5996953,103.19375 53.2190618,100.802422 C51.8384284,98.4110951 52.6577576,95.3533167 55.049085,93.9726832 L77.5032621,81.0078912 L67.912955,78.437762 C65.2457759,77.7230935 63.6629534,74.9815644 64.3776219,72.3143853 C65.0922903,69.6472063 67.8338194,68.0643837 70.5009985,68.7790522 Z" id="Path" fill="url(#linearGradient-7)"></path>
            <path d="M122.745794,39.4113725 L126.745794,39.4113725 L126.745794,41.4820321 L122.745794,41.4820321 Z M95.535979,37.3739298 L99.535979,37.3739298 L99.535979,39.4445894 L95.535979,39.4445894 Z M134.441189,18.2485784 L138.441189,18.2485784 L138.441189,20.4290131 L134.441189,20.4290131 Z M107.187613,12.5886155 L111.187613,12.5886155 L111.187613,14.6592751 L107.187613,14.6592751 Z" id="Combined-Shape" fill="#9D8532"></path>
            <path d="M123.964796,10.7103386 L139.522132,26.2670893 C139.625307,26.3702649 139.723994,26.4779289 139.817875,26.5897634 C139.840248,26.6168025 139.862183,26.6434638 139.8838,26.6702966 C139.914755,26.7084229 139.945226,26.7474467 139.975123,26.7869282 C139.985718,26.8011319 139.996215,26.8151356 140.00663,26.8291815 C140.316733,27.2475176 140.563052,27.7162445 140.731159,28.2207251 C140.736826,28.2403695 140.742906,28.2590372 140.748875,28.277733 C140.76635,28.3295267 140.78235,28.38255 140.797485,28.4359368 C140.801011,28.4518632 140.805274,28.4672116 140.809463,28.4825761 C140.925183,28.9026224 140.986515,29.3453601 140.986515,29.8024224 C140.986515,30.6744015 140.76329,31.4942436 140.370868,32.2079209 L140.362817,32.2222191 C140.3516,32.2424853 140.34023,32.2626901 140.328709,32.2828318 C140.304326,32.325635 140.279378,32.3677553 140.253835,32.4094721 C140.243441,32.426329 140.23326,32.4427437 140.222976,32.4591118 C140.193038,32.5068594 140.162121,32.5542524 140.130432,32.6010796 C140.119318,32.6173945 140.108124,32.633722 140.096821,32.6499974 C140.067845,32.6918576 140.038262,32.7331197 140.008073,32.7739063 C139.990338,32.7976615 139.972238,32.8216445 139.953894,32.8455 C139.861829,32.9655809 139.764439,33.0811423 139.66209,33.19206 L139.521547,33.3377556 L123.964796,48.8945063 C122.012285,50.8470169 118.84664,50.8470169 116.89413,48.8945063 C114.941217,46.9415942 114.941217,43.7759491 116.893728,41.8234385 L123.913515,34.8019557 L97.9862306,34.8021386 C95.2249637,34.8021386 92.9865145,32.5636894 92.9865145,29.8024224 C92.9865145,27.0411555 95.2249637,24.8027063 97.9862306,24.8027063 L123.914515,24.8019557 L116.89413,17.7810049 C114.941619,15.8284943 114.941619,12.6628492 116.89413,10.7103386 C118.84664,8.75782802 122.012285,8.75782802 123.964796,10.7103386 Z" id="Solid" fill="#9D8532" transform="translate(116.986515, 29.802422) rotate(-30.000000) translate(-116.986515, -29.802422) "></path>
            <path d="M113.483842,7.77905217 L134.735265,13.4729256 L134.891029,13.5177723 L135.158812,13.6067168 L135.378274,13.6927492 L135.463537,13.7295474 L135.648848,13.8157744 L135.881907,13.9379582 L136.114636,14.0763724 C136.59834,14.3815865 137.034642,14.7734771 137.398076,15.2450799 L137.605204,15.5358105 L137.690982,15.6683953 L137.847917,15.9403179 L137.944146,16.1306363 C138.205015,16.6688608 138.360215,17.2339457 138.41702,17.80118 L138.438828,18.1300665 L138.44177,18.2819942 L138.440808,18.3968414 L138.431532,18.6177686 L138.402397,18.9231581 L138.370433,19.138401 L138.324355,19.3742028 L138.29074,19.5184744 L132.575925,40.8475114 C131.861257,43.5146905 129.119728,45.097513 126.452549,44.3828446 C123.784821,43.6680291 122.201999,40.9265 122.916667,38.2593209 L125.485239,28.6686452 L103.031644,41.6324455 C100.640317,43.013079 97.5825383,42.1937498 96.2019048,39.8024224 C94.8212714,37.4110951 95.6406006,34.3533167 98.031928,32.9726832 L120.486105,20.0078912 L110.895798,17.437762 C108.228619,16.7230935 106.645796,13.9815644 107.360465,11.3143853 C108.075133,8.64720626 110.816662,7.06438369 113.483842,7.77905217 Z" id="Path" fill="url(#linearGradient-8)"></path>
            <path d="M20.3833876,4.70523661 L32.4521278,7.9376522 C33.2871778,8.09093488 34.0522152,8.59579925 34.5099804,9.38867176 C34.9367683,10.1278901 35.0132024,10.9732437 34.7908037,11.7324535 L31.5129231,23.9619282 C31.0840977,25.5623265 29.4390868,26.512074 27.8386885,26.0832486 C26.2382902,25.6544231 25.2885427,24.0094123 25.7173681,22.409014 L27.1370752,17.1084254 L10.8952437,26.486748 C9.46036578,27.3151751 7.62559457,26.8235496 6.79716744,25.3886718 C5.96874032,23.9537939 6.46036578,22.1190227 7.89524365,21.2905956 L24.1249508,11.9192729 L18.8304733,10.5007916 C17.230075,10.0719661 16.2803275,8.42695527 16.709153,6.82655696 C17.1379784,5.22615865 18.7829893,4.27641118 20.3833876,4.70523661 Z" id="Path" fill="url(#linearGradient-9)"></path>
        </g>
    </g>
</svg>