<?xml version="1.0" encoding="UTF-8"?>
<svg width="160px" height="128px" viewBox="0 0 160 128" version="1.1" xmlns="http://www.w3.org/2000/svg" xmlns:xlink="http://www.w3.org/1999/xlink">
    <title>Icons (Solution)/Sign/2. Light diapositive/1. Sign light diapositive 160px</title>
    <defs>
        <linearGradient x1="0%" y1="100%" x2="100%" y2="0%" id="linearGradient-1">
            <stop stop-color="#EFF0F2" offset="0%"></stop>
            <stop stop-color="#EFF0F2" offset="24.7309791%"></stop>
            <stop stop-color="#FFFFFF" offset="100%"></stop>
        </linearGradient>
        <path d="M52,14 C58.627417,14 64,19.372583 64,26 L64,64.187 L83.8497277,98.5675898 L84.0031993,98.8164347 C85.4403345,101.001471 88.3606431,101.706327 90.6666968,100.374927 C93.05816,98.9942148 93.8834267,95.9464663 92.5099818,93.5675898 L79.2468239,70.5951265 L79.0323909,70.2109273 C75.2164087,63.1335473 77.7304033,54.2412848 84.7766786,50.1731158 C91.951068,46.0309802 101.107251,48.4584971 105.227586,55.5951265 L112.688112,68.5171371 L112.841584,68.7659819 C114.278719,70.9510184 117.199028,71.6558747 119.505081,70.324474 C121.896545,68.9437621 122.721811,65.8960136 121.348366,63.5171371 L121.209596,63.2598044 C120.035867,60.9226906 120.885598,58.041201 123.191651,56.7098002 C125.583114,55.3290883 128.635175,56.1382606 130.00862,58.5171371 C134.128955,65.6537665 131.653155,74.7970121 124.478766,78.9391477 C117.304376,83.0812833 108.148193,80.6537665 104.027858,73.5171371 L96.5673319,60.5951265 L96.4138604,60.3462816 C94.9767252,58.1612452 92.0564165,57.4563889 89.7503628,58.7877896 C87.3588997,60.1685015 86.5336329,63.21625 87.9070779,65.5951265 L101.170236,88.5675898 L101.384669,88.9517889 C105.200651,96.029169 102.686656,104.921432 95.6403811,108.9896 C88.4659917,113.131736 79.3098086,110.704219 75.1894737,103.56759 L64,84.188 L64,86 C64,92.5254567 58.7914556,97.8343928 52.3049748,97.9962001 L52,98 L14,98 C7.372583,98 2,92.627417 2,86 L2,38 L14.3043478,27.599937 L26,14 Z" id="path-2"></path>
        <filter x="-9.2%" y="-12.4%" width="118.5%" height="124.7%" filterUnits="objectBoundingBox" id="filter-3">
            <feOffset dx="0" dy="0" in="SourceAlpha" result="shadowOffsetOuter1"></feOffset>
            <feGaussianBlur stdDeviation="4" in="shadowOffsetOuter1" result="shadowBlurOuter1"></feGaussianBlur>
            <feColorMatrix values="0 0 0 0 0.062745098   0 0 0 0 0.117647059   0 0 0 0 0.117647059  0 0 0 0.3 0" type="matrix" in="shadowBlurOuter1"></feColorMatrix>
        </filter>
        <linearGradient x1="20.9750567%" y1="100%" x2="78.4468508%" y2="0.995854731%" id="linearGradient-4">
            <stop stop-color="#344055" offset="0%"></stop>
            <stop stop-color="#344055" offset="25%"></stop>
            <stop stop-color="#5D6677" offset="100%"></stop>
        </linearGradient>
        <linearGradient x1="25.3899173%" y1="100%" x2="74.6100827%" y2="0%" id="linearGradient-5">
            <stop stop-color="#EFF0F2" offset="0%"></stop>
            <stop stop-color="#EFF0F2" offset="24.7309791%"></stop>
            <stop stop-color="#FFFFFF" offset="100%"></stop>
        </linearGradient>
        <linearGradient x1="0%" y1="100%" x2="100%" y2="0%" id="linearGradient-6">
            <stop stop-color="#04E4F4" offset="0%"></stop>
            <stop stop-color="#04E4F4" offset="24.7220569%"></stop>
            <stop stop-color="#007FFF" offset="100%"></stop>
        </linearGradient>
        <linearGradient x1="0%" y1="81.6329266%" x2="100%" y2="18.3670734%" id="linearGradient-7">
            <stop stop-color="#FDCA40" offset="0%"></stop>
            <stop stop-color="#FDCA40" offset="24.6093781%"></stop>
            <stop stop-color="#FFA400" offset="100%"></stop>
        </linearGradient>
        <linearGradient x1="7.38601794%" y1="99.8982463%" x2="92.7008815%" y2="0%" id="linearGradient-8">
            <stop stop-color="#FFC866" offset="0%"></stop>
            <stop stop-color="#FFDB99" offset="100%"></stop>
        </linearGradient>
    </defs>
    <g id="Icons-(Solution)/Sign/2.-Light-diapositive/1.-Sign-light-diapositive-160px" stroke="none" stroke-width="1" fill="none" fill-rule="evenodd">
        <g id="Icons-(Solution)/Sign/1.-3D/1.-Primary/1.-Sign-160px" transform="translate(12.000000, 8.000000)">
            <path d="M56,112 C25.0724444,112 1.77635684e-15,86.9275556 1.77635684e-15,56 C1.77635684e-15,25.0724444 25.0724444,0 56,0 C86.9275556,0 112,25.0724444 112,56 C112,86.9275556 86.9275556,112 56,112 Z" id="Gradient" fill="url(#linearGradient-1)"></path>
            <g id="Shadow" style="mix-blend-mode: multiply;" fill="black" fill-opacity="1">
                <use filter="url(#filter-3)" xlink:href="#path-2"></use>
            </g>
            <path d="M4.26325641e-14,32 L4.26325641e-14,80 C4.34441886e-14,86.627417 5.372583,92 12,92 L52,92 C58.627417,92 64,86.627417 64,80 L64,20 C64,13.372583 58.627417,8 52,8 L24,8 L24,8 L12.3043478,21.599937 L4.26325641e-14,32 Z" id="Solid" fill="#101E1E"></path>
            <path d="M4.26325641e-14,30 L4.26325641e-14,78 C4.34441886e-14,84.627417 5.372583,90 12,90 L52,90 C58.627417,90 64,84.627417 64,78 L64,18 C64,11.372583 58.627417,6 52,6 L24,6 L24,6 L12.3043478,19.599937 L4.26325641e-14,30 Z" id="Solid" fill="url(#linearGradient-4)"></path>
            <path d="M25.4870364,63.2490956 C27.17319,64.2137642 28.3751718,65.6880407 29.0062682,67.3572884 L24.1220664,70.1746198 C22.8486437,70.8939345 21.2166961,70.4542901 20.4770095,69.1926464 C20.243135,68.7937392 20.1187696,68.3422303 20.1162876,67.8830448 L20.1371821,62.283093 C21.9116496,61.9902785 23.8010245,62.2846587 25.4870364,63.2490956 Z M42.527477,33.8303644 C46.2533695,35.9084969 47.6466824,40.4971025 45.7313277,44.2000572 L45.5424441,44.5437965 L34.6987365,63.3238687 C34.5206104,63.6295163 34.2820786,63.89509 33.9983195,64.1056431 C32.8529191,61.6119476 30.9452212,59.5064261 28.4850912,58.0990663 C26.0249772,56.6917155 23.2307454,56.107403 20.4797272,56.3705939 C20.5203239,56.0229197 20.6332494,55.6852544 20.8113624,55.3793558 L31.6577286,36.5993263 L31.7294941,36.4838283 C34.0008406,32.9127732 38.7482769,31.7224994 42.527477,33.8303644 Z" id="Shape" fill="url(#linearGradient-5)"></path>
            <path d="M24,6 L24,14 C24,22.836556 16.836556,30 8,30 L4.92050845e-13,30 L4.92050845e-13,30 L24,6 Z" id="Solid" fill="url(#linearGradient-6)"></path>
            <path d="M86.7766786,49.1731158 C93.951068,45.0309802 103.107251,47.4584971 107.227586,54.5951265 L114.688112,67.5171371 L114.841584,67.7659819 C116.278719,69.9510184 119.199028,70.6558747 121.505081,69.324474 C123.896545,67.9437621 124.721811,64.8960136 123.348366,62.5171371 L123.209596,62.2598044 C122.847121,61.5380487 122.677627,60.7643748 122.684411,60.0004711 L122.68,58 L123.121578,58.0006572 C123.537471,57.071372 124.24075,56.2588033 125.191651,55.7098002 C127.583114,54.3290883 130.635175,55.1382606 132.00862,57.5171371 C133.014412,59.2592196 133.62716,61.1208703 133.874466,63.0001587 L134,63 L133.999879,64.7463287 C134.066329,69.9876005 131.360075,75.1209225 126.478766,77.9391477 C119.304376,82.0812833 110.148193,79.6537665 106.027858,72.5171371 L98.5673319,59.5951265 L98.4138604,59.3462816 C96.9767252,57.1612452 94.0564165,56.4563889 91.7503628,57.7877896 C89.3588997,59.1685015 88.5336329,62.21625 89.9070779,64.5951265 L103.170236,87.5675898 L103.384669,87.9517889 C107.200651,95.029169 104.686656,103.921432 97.6403811,107.9896 C90.4659917,112.131736 81.3098086,109.704219 77.1894737,102.56759 L55.6368421,65.2373369 L55.4980719,64.9800042 C55.1797778,64.3462213 55.0102881,63.6724053 54.9782927,63.0003251 L54.97,61 L55.2950993,60.9999389 C55.689222,59.954923 56.4351549,59.033315 57.480127,58.43 C59.8715901,57.0492881 62.9236512,57.8584604 64.2970961,60.2373369 L85.8497277,97.5675898 L86.0031993,97.8164347 C87.4403345,100.001471 90.3606431,100.706327 92.6666968,99.3749267 C95.05816,97.9942148 95.8834267,94.9464663 94.5099818,92.5675898 L81.2468239,69.5951265 L81.0323909,69.2109273 C79.7984179,66.9223172 79.2263577,64.4439285 79.2554227,62.0002523 L79.25,60 L79.413966,60.0005054 C80.0583966,55.623405 82.6343765,51.5646751 86.7766786,49.1731158 Z" id="Combined-Shape" fill="#9D8532"></path>
            <path d="M57.480127,56.43 C55.1740733,57.7614007 54.3243425,60.6428904 55.4980719,62.9800042 L55.6368421,63.2373369 L77.1894737,100.56759 C81.3098086,107.704219 90.4659917,110.131736 97.6403811,105.9896 C104.686656,101.921432 107.200651,93.029169 103.384669,85.9517889 L103.170236,85.5675898 L89.9070779,62.5951265 C88.5336329,60.21625 89.3588997,57.1685015 91.7503628,55.7877896 C94.0564165,54.4563889 96.9767252,55.1612452 98.4138604,57.3462816 L98.5673319,57.5951265 L106.027858,70.5171371 C110.148193,77.6537665 119.304376,80.0812833 126.478766,75.9391477 C133.653155,71.7970121 136.128955,62.6537665 132.00862,55.5171371 C130.635175,53.1382606 127.583114,52.3290883 125.191651,53.7098002 C122.885598,55.041201 122.035867,57.9226906 123.209596,60.2598044 L123.348366,60.5171371 C124.721811,62.8960136 123.896545,65.9437621 121.505081,67.324474 C119.199028,68.6558747 116.278719,67.9510184 114.841584,65.7659819 L114.688112,65.5171371 L107.227586,52.5951265 C103.107251,45.4584971 93.951068,43.0309802 86.7766786,47.1731158 C79.7304033,51.2412848 77.2164087,60.1335473 81.0323909,67.2109273 L81.2468239,67.5951265 L94.5099818,90.5675898 C95.8834267,92.9464663 95.05816,95.9942148 92.6666968,97.3749267 C90.3606431,98.7063274 87.4403345,98.0014711 86.0031993,95.8164347 L85.8497277,95.5675898 L64.2970961,58.2373369 C62.9236512,55.8584604 59.8715901,55.0492881 57.480127,56.43 Z" id="Path" fill="url(#linearGradient-7)"></path>
            <path d="M115.000668,6.53656629 C116.913838,7.64113579 117.569339,10.0874974 116.46477,12.0006679 L105.46477,31.0532268 C104.3602,32.9663973 101.913838,33.6218979 100.000668,32.5173284 C99.3075857,32.1171772 98.7795585,31.5409308 98.4404723,30.8777329 L92.5365663,20.6506679 C91.4319968,18.7374974 92.0874974,16.2911358 94.0006679,15.1865663 C95.9138384,14.0819968 98.3602,14.7374974 99.4647695,16.6506679 L102.003,21.048 L109.536566,8.0006679 C110.641136,6.08749741 113.087497,5.43199679 115.000668,6.53656629 Z" id="Solid" fill="url(#linearGradient-8)"></path>
        </g>
    </g>
</svg>