<?xml version="1.0" encoding="UTF-8"?>
<svg width="96px" height="96px" viewBox="0 0 96 96" version="1.1" xmlns="http://www.w3.org/2000/svg" xmlns:xlink="http://www.w3.org/1999/xlink">
    <title>Icons (Solution)/Sign/2. Light diapositive/2. Sign light diapositive 96px</title>
    <defs>
        <linearGradient x1="0%" y1="100%" x2="100%" y2="0%" id="linearGradient-1">
            <stop stop-color="#EFF0F2" offset="0%"></stop>
            <stop stop-color="#EFF0F2" offset="24.7309791%"></stop>
            <stop stop-color="#FFFFFF" offset="100%"></stop>
        </linearGradient>
        <path d="M38,10 C42.418278,10 46,13.581722 46,18 L46,62.0003 C46,62.055541 45.9994401,62.1106513 45.9983257,62.1656254 L53.1161524,74.4947367 L53.2086992,74.6448471 C54.0751246,75.9630469 55.8305964,76.3916534 57.2142286,75.5928129 C58.6491065,74.7643858 59.140732,72.9296146 58.3123048,71.4947367 L50.3123048,57.6383302 L50.1829468,57.4066012 C47.8806,53.1380767 49.3787683,47.785003 53.6065335,45.3441016 C57.9111671,42.8588202 63.4154807,44.3336966 65.9007621,48.6383302 L70.4007621,56.4325589 L70.4933089,56.5826692 C71.3597343,57.9008691 73.1152061,58.3294755 74.4988383,57.5306351 C75.9337162,56.702208 76.4253417,54.8674368 75.5969145,53.4325589 L75.5131885,53.2773558 C74.8048066,51.8679095 75.3113585,50.1333231 76.6949907,49.3344827 C78.1298686,48.5060555 79.9646398,48.997681 80.793067,50.4325589 C83.2783483,54.7371925 81.8034719,60.2415061 77.4988383,62.7267875 C73.1942047,65.2120689 67.6898911,63.7371925 65.2046097,59.4325589 L60.7046097,51.6383302 L60.6120629,51.4882199 C59.7456375,50.17002 57.9901657,49.7414136 56.6065335,50.540254 C55.1716556,51.3686812 54.6800301,53.2034524 55.5084573,54.6383302 L63.5084573,68.4947367 L63.6378154,68.7264657 C65.9401621,72.9949902 64.4419938,78.348064 60.2142286,80.7889653 C55.909595,83.2742467 50.4052814,81.7993703 47.92,77.4947367 L42.7093722,68.4679689 C41.3881783,69.4316341 39.7604987,70.0003 38,70.0003 L8,70.0003 C3.581722,70.0003 7.87007839e-14,66.418578 7.81597009e-14,62.0003 L7.81597009e-14,26 L8,19 L16,10 Z" id="path-2"></path>
        <filter x="-9.1%" y="-10.4%" width="118.3%" height="120.8%" filterUnits="objectBoundingBox" id="filter-3">
            <feOffset dx="0" dy="0" in="SourceAlpha" result="shadowOffsetOuter1"></feOffset>
            <feGaussianBlur stdDeviation="2.5" in="shadowOffsetOuter1" result="shadowBlurOuter1"></feGaussianBlur>
            <feColorMatrix values="0 0 0 0 0.062745098   0 0 0 0 0.117647059   0 0 0 0 0.117647059  0 0 0 0.3 0" type="matrix" in="shadowBlurOuter1"></feColorMatrix>
        </filter>
        <linearGradient x1="20.611405%" y1="100%" x2="78.8032596%" y2="0.995854731%" id="linearGradient-4">
            <stop stop-color="#344055" offset="0%"></stop>
            <stop stop-color="#344055" offset="25%"></stop>
            <stop stop-color="#5D6677" offset="100%"></stop>
        </linearGradient>
        <linearGradient x1="25.7358024%" y1="100%" x2="74.2641976%" y2="0%" id="linearGradient-5">
            <stop stop-color="#EFF0F2" offset="0%"></stop>
            <stop stop-color="#EFF0F2" offset="24.7309791%"></stop>
            <stop stop-color="#FFFFFF" offset="100%"></stop>
        </linearGradient>
        <linearGradient x1="0%" y1="100%" x2="100%" y2="0%" id="linearGradient-6">
            <stop stop-color="#04E4F4" offset="0%"></stop>
            <stop stop-color="#04E4F4" offset="24.7220569%"></stop>
            <stop stop-color="#007FFF" offset="100%"></stop>
        </linearGradient>
        <linearGradient x1="0%" y1="81.7867201%" x2="100%" y2="18.2132799%" id="linearGradient-7">
            <stop stop-color="#FDCA40" offset="0%"></stop>
            <stop stop-color="#FDCA40" offset="24.6093781%"></stop>
            <stop stop-color="#FFA400" offset="100%"></stop>
        </linearGradient>
    </defs>
    <g id="Icons-(Solution)/Sign/2.-Light-diapositive/2.-Sign-light-diapositive-96px" stroke="none" stroke-width="1" fill="none" fill-rule="evenodd">
        <g id="Icons-(Solution)/Sign/1.-3D/1.-Primary/2.-Sign-96px" transform="translate(8.000000, 8.000000)">
            <path d="M80,40 C80,62.0911111 62.0911111,80 40,80 C17.9088889,80 0,62.0911111 0,40 C0,17.9088889 17.9088889,0 40,0 C62.0911111,0 80,17.9088889 80,40" id="Gradient" fill="url(#linearGradient-1)"></path>
            <g id="Shadow" style="mix-blend-mode: multiply;" fill="black" fill-opacity="1">
                <use filter="url(#filter-3)" xlink:href="#path-2"></use>
            </g>
            <path d="M0,24 L0,60.0003 C5.41083001e-16,64.418578 3.581722,68.0003 8,68.0003 L38,68.0003 C42.418278,68.0003 46,64.418578 46,60.0003 L46,16 C46,11.581722 42.418278,8 38,8 L16,8 L16,8 L8,17 L0,24 Z" id="Solid" fill="#101E1E"></path>
            <path d="M0,22 L0,58.0003 C5.41083001e-16,62.418578 3.581722,66.0003 8,66.0003 L38,66.0003 C42.418278,66.0003 46,62.418578 46,58.0003 L46,14 C46,9.581722 42.418278,6 38,6 L16,6 L16,6 L8,15 L0,22 Z" id="Solid" fill="url(#linearGradient-4)"></path>
            <path d="M18.0097954,47.2402211 C19.2715291,47.9686834 20.16859,49.0862106 20.6369294,50.3537702 L17.0027966,52.4457942 C16.7292739,52.6032209 16.4340853,52.6887788 16.1390884,52.7083561 L15.9917071,52.7126737 C15.304947,52.7074177 14.6390651,52.3482777 14.271736,51.710058 C14.0975225,51.407369 14.0056074,51.0643372 14.0051362,50.7150941 L14,46.5217993 C15.3318549,46.293665 16.7481198,46.5117924 18.0097954,47.2402211 Z M30.9767821,24.7807414 C33.7651556,26.3499552 34.7963381,29.8357323 33.3484824,32.6580066 L33.2057662,32.9200276 L32.2066903,34.6520124 L24.6546202,47.731047 C24.5201977,47.9638735 24.3406618,48.1664542 24.1274148,48.3274024 C23.2753493,46.4346574 21.8508142,44.8390322 20.0097954,43.7761195 C18.1690491,42.7133641 16.0752665,42.2774582 14.0112857,42.4858501 C14.0421803,42.2207677 14.1278612,41.9639284 14.2623153,41.731047 L22.8153661,26.92 L22.8695448,26.8319344 C24.5840186,24.1088931 28.1485144,23.1890763 30.9767821,24.7807414 Z" id="Solid" fill="url(#linearGradient-5)"></path>
            <path d="M15.9998,6 L15.9998,9.9997 C15.9998,16.627117 10.627217,21.9997 3.9998,21.9997 L2.57571742e-13,21.9997 L2.57571742e-13,21.9997 L15.9998,6 Z" id="Solid" fill="url(#linearGradient-6)"></path>
            <path d="M54.6065335,43.3441016 C58.9111671,40.8588202 64.4154807,42.3336966 66.9007621,46.6383302 L71.4007621,54.4325589 L71.4933089,54.5826692 C72.3597343,55.9008691 74.1152061,56.3294755 75.4988383,55.5306351 C76.9337162,54.702208 77.4253417,52.8674368 76.5969145,51.4325589 L76.5131885,51.2773558 C76.3078239,50.868748 76.2045695,50.4328135 76.1951932,50.0002744 L76.195,49 L76.3436249,48.9998869 C76.5652608,48.3215388 77.0283138,47.7193888 77.6949907,47.3344827 C79.1298686,46.5060555 80.9646398,46.997681 81.793067,48.4325589 C82.4464969,49.5643327 82.8261735,50.7790367 82.9526416,51.9999964 L83,52 L82.9997724,52.8230469 C83.035163,55.9688775 81.417412,59.0417482 78.4988383,60.7267875 C74.1942047,63.2120689 68.6898911,61.7371925 66.2046097,57.4325589 L61.7046097,49.6383302 L61.6120629,49.4882199 C60.7456375,48.17002 58.9901657,47.7414136 57.6065335,48.540254 C56.1716556,49.3686812 55.6800301,51.2034524 56.5084573,52.6383302 L64.5084573,66.4947367 L64.6378154,66.7264657 C66.9401621,70.9949902 65.4419938,76.348064 61.2142286,78.7889653 C56.909595,81.2742467 51.4052814,79.7993703 48.92,75.4947367 L35.92,52.9780762 L35.836274,52.8228732 C35.6236961,52.3999132 35.5205274,51.9476732 35.5176378,51.5002275 L35.515,50.5 L35.6819715,50.4999233 C35.9091988,49.8401816 36.3663368,49.2562819 37.0180762,48.88 C38.4529541,48.0515729 40.2877253,48.5431983 41.1161524,49.9780762 L54.1161524,72.4947367 L54.2086992,72.6448471 C55.0751246,73.9630469 56.8305964,74.3916534 58.2142286,73.5928129 C59.6491065,72.7643858 60.140732,70.9296146 59.3123048,69.4947367 L51.3123048,55.6383302 L51.1829468,55.4066012 C50.4282943,54.0074842 50.0819565,52.4918467 50.1062209,51.0004338 L50.105,50 L50.1782845,50.0003415 C50.5232636,47.3096245 52.0759042,44.8051611 54.6065335,43.3441016 Z" id="Solid" fill="#9D8532"></path>
            <path d="M37.0180762,47.88 C35.634444,48.6788404 35.1278921,50.4134269 35.836274,51.8228732 L35.92,51.9780762 L48.92,74.4947367 C51.4052814,78.7993703 56.909595,80.2742467 61.2142286,77.7889653 C65.4419938,75.348064 66.9401621,69.9949902 64.6378154,65.7264657 L64.5084573,65.4947367 L56.5084573,51.6383302 C55.6800301,50.2034524 56.1716556,48.3686812 57.6065335,47.540254 C58.9901657,46.7414136 60.7456375,47.17002 61.6120629,48.4882199 L61.7046097,48.6383302 L66.2046097,56.4325589 C68.6898911,60.7371925 74.1942047,62.2120689 78.4988383,59.7267875 C82.8034719,57.2415061 84.2783483,51.7371925 81.793067,47.4325589 C80.9646398,45.997681 79.1298686,45.5060555 77.6949907,46.3344827 C76.3113585,47.1333231 75.8048066,48.8679095 76.5131885,50.2773558 L76.5969145,50.4325589 C77.4253417,51.8674368 76.9337162,53.702208 75.4988383,54.5306351 C74.1152061,55.3294755 72.3597343,54.9008691 71.4933089,53.5826692 L71.4007621,53.4325589 L66.9007621,45.6383302 C64.4154807,41.3336966 58.9111671,39.8588202 54.6065335,42.3441016 C50.3787683,44.785003 48.8806,50.1380767 51.1829468,54.4066012 L51.3123048,54.6383302 L59.3123048,68.4947367 C60.140732,69.9296146 59.6491065,71.7643858 58.2142286,72.5928129 C56.8305964,73.3916534 55.0751246,72.9630469 54.2086992,71.6448471 L54.1161524,71.4947367 L41.1161524,48.9780762 C40.2877253,47.5431983 38.4529541,47.0515729 37.0180762,47.88 Z" id="Solid" fill="url(#linearGradient-7)"></path>
        </g>
    </g>
</svg>