<?xml version="1.0" encoding="UTF-8"?>
<svg width="160px" height="128px" viewBox="0 0 160 128" version="1.1" xmlns="http://www.w3.org/2000/svg" xmlns:xlink="http://www.w3.org/1999/xlink">
    <title>Icons (Solution)/MSC/1. Light positive/1. MSC light positive 160px</title>
    <defs>
        <linearGradient x1="0%" y1="100%" x2="100%" y2="0%" id="linearGradient-1">
            <stop stop-color="#007FFF" offset="0%"></stop>
            <stop stop-color="#007FFF" offset="24.6495927%"></stop>
            <stop stop-color="#6610F2" offset="100%"></stop>
        </linearGradient>
        <path d="M25.3487113,102.937169 L25.3487113,26.9371686 C25.3487113,22.5188906 28.9304333,18.9371686 33.3487113,18.9371686 L71.3487113,18.9371686 C75.7669893,18.9371686 79.3487113,22.5188906 79.3487113,26.9371686 L79.3487113,102.937169 C79.3487113,107.355447 75.7669893,110.937169 71.3487113,110.937169 L33.3487113,110.937169 C28.9304333,110.937169 25.3487113,107.355447 25.3487113,102.937169 Z" id="path-2"></path>
        <filter x="-22.2%" y="-13.0%" width="144.4%" height="126.1%" filterUnits="objectBoundingBox" id="filter-3">
            <feOffset dx="0" dy="0" in="SourceAlpha" result="shadowOffsetOuter1"></feOffset>
            <feGaussianBlur stdDeviation="4" in="shadowOffsetOuter1" result="shadowBlurOuter1"></feGaussianBlur>
            <feColorMatrix values="0 0 0 0 0.062745098   0 0 0 0 0.117647059   0 0 0 0 0.117647059  0 0 0 0.3 0" type="matrix" in="shadowBlurOuter1"></feColorMatrix>
        </filter>
        <linearGradient x1="12.103918%" y1="100%" x2="87.1413022%" y2="0.995854731%" id="linearGradient-4">
            <stop stop-color="#344055" offset="0%"></stop>
            <stop stop-color="#344055" offset="25%"></stop>
            <stop stop-color="#5D6677" offset="100%"></stop>
        </linearGradient>
        <linearGradient x1="13.539179%" y1="100%" x2="85.7346274%" y2="0.995854731%" id="linearGradient-5">
            <stop stop-color="#101E1E" offset="0%"></stop>
            <stop stop-color="#101E1E" offset="25%"></stop>
            <stop stop-color="#344055" offset="100%"></stop>
        </linearGradient>
        <path d="M3.00100185,18.8048494 L34.1779164,0.804849429 C37.0476721,-0.852004821 40.7172146,0.131246111 42.3740688,3.00100185 L78.3740688,65.3548309 C80.0309231,68.2245867 79.0476721,71.8941291 76.1779164,73.5509833 L44.1349764,92.0509833 C41.7435133,93.4316952 38.6855613,92.6123194 37.3048494,90.2208563 L0.804849429,27.0010019 C-0.852004821,24.1312461 0.131246111,20.4617037 3.00100185,18.8048494 Z" id="path-6"></path>
        <linearGradient x1="0%" y1="100%" x2="100%" y2="0%" id="linearGradient-8">
            <stop stop-color="#EFF0F2" offset="0%"></stop>
            <stop stop-color="#EFF0F2" offset="24.7309791%"></stop>
            <stop stop-color="#FFFFFF" offset="100%"></stop>
        </linearGradient>
        <linearGradient x1="2.95388631%" y1="100%" x2="97.0461137%" y2="0%" id="linearGradient-9">
            <stop stop-color="#FDCA40" offset="0%"></stop>
            <stop stop-color="#FDCA40" offset="24.6093781%"></stop>
            <stop stop-color="#FFA400" offset="100%"></stop>
        </linearGradient>
        <linearGradient x1="2.80826476%" y1="100%" x2="97.1917352%" y2="0%" id="linearGradient-10">
            <stop stop-color="#FDCA40" offset="0%"></stop>
            <stop stop-color="#FDCA40" offset="24.6093781%"></stop>
            <stop stop-color="#FFA400" offset="100%"></stop>
        </linearGradient>
        <linearGradient x1="2.71582192%" y1="100%" x2="97.2841781%" y2="0%" id="linearGradient-11">
            <stop stop-color="#FDCA40" offset="0%"></stop>
            <stop stop-color="#FDCA40" offset="24.6093781%"></stop>
            <stop stop-color="#FFA400" offset="100%"></stop>
        </linearGradient>
        <linearGradient x1="2.9185067%" y1="100%" x2="97.0814933%" y2="0%" id="linearGradient-12">
            <stop stop-color="#FDCA40" offset="0%"></stop>
            <stop stop-color="#FDCA40" offset="24.6093781%"></stop>
            <stop stop-color="#FFA400" offset="100%"></stop>
        </linearGradient>
        <linearGradient x1="2.87152415%" y1="100%" x2="97.1284759%" y2="0%" id="linearGradient-13">
            <stop stop-color="#FDCA40" offset="0%"></stop>
            <stop stop-color="#FDCA40" offset="24.6093781%"></stop>
            <stop stop-color="#FFA400" offset="100%"></stop>
        </linearGradient>
        <linearGradient x1="0.101753715%" y1="99.8982463%" x2="100%" y2="0%" id="linearGradient-14">
            <stop stop-color="#FFC866" offset="0%"></stop>
            <stop stop-color="#FFDB99" offset="100%"></stop>
        </linearGradient>
    </defs>
    <g id="Icons-(Solution)/MSC/1.-Light-positive/1.-MSC-light-positive-160px" stroke="none" stroke-width="1" fill="none" fill-rule="evenodd">
        <path d="M124,64 C124,94.9275556 98.9275556,120 68,120 C37.0724444,120 12,94.9275556 12,64 C12,33.0724444 37.0724444,8 68,8 C98.9275556,8 124,33.0724444 124,64" id="Gradient" fill="url(#linearGradient-1)"></path>
        <g id="Shadow" style="mix-blend-mode: multiply;" transform="translate(52.348711, 64.937169) rotate(-30.000000) translate(-52.348711, -64.937169) " fill="black" fill-opacity="1">
            <use filter="url(#filter-3)" xlink:href="#path-2"></use>
        </g>
        <path d="M55.5974226,12.0282032 L93.5974226,77.8461339 C93.9847884,78.5170711 94.263922,79.2207958 94.4402406,79.9370909 L94.6687113,79.9371686 L94.669157,81.6892039 C94.7218746,84.5062249 93.2819314,87.2658872 90.6692194,88.7743371 L56.0282032,108.774337 C52.2018622,110.983476 47.309139,109.672475 45.1,105.846134 L7.1,40.0282032 C6.35497458,38.7377814 6.01031412,37.3260739 6.02747754,35.9369183 L6.02104216,33.9371686 L6.30621144,33.9375465 C6.83941176,31.9680057 8.12151806,30.2008252 10.0282032,29.1 L44.6692194,9.1 C48.4955604,6.890861 53.3882836,8.20186224 55.5974226,12.0282032 Z" id="Combined-Shape" fill="#101E1E"></path>
        <path d="M45.1,103.846134 L7.1,38.0282032 C4.890861,34.2018622 6.20186224,29.309139 10.0282032,27.1 L44.6692194,7.1 C48.4955604,4.890861 53.3882836,6.20186224 55.5974226,10.0282032 L93.5974226,75.8461339 C95.8065616,79.6724749 94.4955604,84.5651981 90.6692194,86.7743371 L56.0282032,106.774337 C52.2018622,108.983476 47.309139,107.672475 45.1,103.846134 Z" id="Solid" fill="url(#linearGradient-4)"></path>
        <g id="new-screen" transform="translate(10.755151, 10.755151)">
            <mask id="mask-7" fill="white">
                <use xlink:href="#path-6"></use>
            </mask>
            <use fill="url(#linearGradient-5)" xlink:href="#path-6"></use>
            <path d="M60.0894591,76.4888055 C60.0894591,74.832016 58.746092,73.4888055 57.0891091,73.4888055 C55.4321263,73.4888055 54.0894591,74.832016 54.0894591,76.4888055 C54.0894591,78.1455951 55.4321263,79.4888055 57.0891091,79.4888055 C58.746092,79.4888055 60.0894591,78.1455951 60.0894591,76.4888055" id="new-button" fill="url(#linearGradient-8)" mask="url(#mask-7)"></path>
            <path d="M34.1794513,0.804849429 C37.049207,-0.852004821 40.7187495,0.131246111 42.3756037,3.00100185 L72.3241925,54.8739262 C55.2509361,63.5257878 34.3742197,63.8509991 16.4196117,54.0474496 L0.806384342,27.0010019 C-0.850469907,24.1312461 0.132781024,20.4617037 3.00253676,18.8048494 L34.1794513,0.804849429 Z" id="Path" fill-opacity="0.05" fill="#FFFFFF" mask="url(#mask-7)"></path>
        </g>
        <path d="M133.674623,45.9951245 C134.156486,46.0193219 134.597295,46.2738233 134.859182,46.6790299 L141.068548,56.2865229 L152.003146,53.3302024 L152.003693,52.7861512 L154.003693,52.7861512 L154.003693,54.7867144 C153.994427,55.1149684 153.878735,55.4355555 153.666721,55.696204 L146.448252,64.5705408 L151.951146,73.0042024 L152.94138,73.0048792 L152.94243,74.9121032 C152.961789,75.4214344 152.720971,75.9279168 152.263046,76.2267219 C151.858988,76.4903775 151.352774,76.5435828 150.902728,76.369697 L140.232103,72.2468457 L133.052496,81.1526524 C132.532558,81.7975991 131.588233,81.898939 130.943286,81.3790014 C130.58828,81.0928059 130.383867,80.6617288 130.384714,80.2085572 L130.381956,78.2084439 L130.491146,78.2082024 L131.010607,68.7070452 L120.322061,64.6308788 C119.684608,64.3877806 119.308844,63.7570227 119.360942,63.1096515 L119.360636,61.2341161 L121.360636,61.2341161 L121.360146,61.5432024 L131.527559,58.8430233 L132.101281,47.4180072 C132.142829,46.5906226 132.847238,45.9535763 133.674623,45.9951245 Z" id="Combined-Shape" fill="#9D8532"></path>
        <path d="M140.232103,70.2468457 L133.052496,79.1526524 C132.532558,79.7975991 131.588233,79.898939 130.943286,79.3790014 C130.567674,79.0761935 130.360644,78.6111964 130.386947,78.1294441 L131.010607,66.7070452 L120.322061,62.6308788 C119.548011,62.3356882 119.159818,61.4688971 119.455009,60.6948467 C119.626926,60.2440455 120.005188,59.9034562 120.47149,59.7796027 L131.527559,56.8430233 L132.101281,45.4180072 C132.142829,44.5906226 132.847238,43.9535763 133.674623,43.9951245 C134.156486,44.0193219 134.597295,44.2738233 134.859182,44.6790299 L141.068548,54.2865229 L152.111674,51.3016411 C152.911402,51.0854799 153.734944,51.5585547 153.951105,52.3582833 C154.076996,52.8240393 153.971168,53.3219191 153.666721,53.696204 L146.448252,62.5705408 L152.699557,72.1507984 C153.152268,72.844588 152.956836,73.7740106 152.263046,74.2267219 C151.858988,74.4903775 151.352774,74.5435828 150.902728,74.369697 L140.232103,70.2468457 Z" id="Colour" fill="url(#linearGradient-9)"></path>
        <path d="M78.9770354,22.2206177 C79.382242,22.4825045 79.6367434,22.9233138 79.6609408,23.4051765 L79.9925663,30.0091163 L85.4935292,31.4702269 L85.4942392,31.0543199 L87.4942392,31.0543199 L87.4942392,33.054883 C87.5059618,33.2141894 87.4912487,33.3781894 87.4479184,33.5413259 C87.3240649,34.0076278 86.9834756,34.3858906 86.5326744,34.5578074 L80.3544323,36.9139316 L80.6075292,41.5562269 L80.7167676,41.5568068 L80.7167676,43.5573699 L80.7145292,43.5572269 L80.7159425,43.6609782 C80.6848355,44.4244615 80.0774683,45.0533977 79.2989318,45.0959056 C78.8171796,45.1222092 78.3521824,44.9151791 78.0493746,44.5395669 L73.8993855,39.391792 L67.731502,41.7749013 C66.9587494,42.0734727 66.0902696,41.6890729 65.7916982,40.9163203 C65.7337363,40.7663052 65.7010067,40.6100491 65.6928931,40.4534159 L65.6927417,38.3969357 L66.6905292,38.3962269 L69.5480811,34.0183785 L65.3756286,28.888794 C65.1625799,28.6268734 65.0525063,28.3147758 65.0403641,28.0015183 L65.0385292,26.0010245 L67.0385292,26.0010245 L67.0385292,26.5232269 L73.3138739,28.2195661 L76.90304,22.6661992 C77.3527141,21.9704372 78.2812735,21.7709436 78.9770354,22.2206177 Z" id="Combined-Shape" fill="#9D8532"></path>
        <path d="M73.8993855,37.391792 L67.731502,39.7749013 C66.9587494,40.0734727 66.0902696,39.6890729 65.7916982,38.9163203 C65.6178124,38.466275 65.6710177,37.9600606 65.9346733,37.5560027 L69.5480811,32.0183785 L65.3756286,26.888794 C64.8528766,26.2461263 64.9500875,25.3013669 65.5927553,24.7786149 C65.9670402,24.474168 66.46492,24.3683404 66.930676,24.4942311 L73.3138739,26.2195661 L76.90304,20.6661992 C77.3527141,19.9704372 78.2812735,19.7709436 78.9770354,20.2206177 C79.382242,20.4825045 79.6367434,20.9233138 79.6609408,21.4051765 L79.9925663,28.0091163 L86.3832454,29.7065313 C87.1839112,29.9191945 87.6605816,30.74066 87.4479184,31.5413259 C87.3240649,32.0076278 86.9834756,32.3858906 86.5326744,32.5578074 L80.3544323,34.9139316 L80.7149232,41.5163587 C80.7600878,42.3435537 80.1261269,43.050741 79.2989318,43.0959056 C78.8171796,43.1222092 78.3521824,42.9151791 78.0493746,42.5395669 L73.8993855,37.391792 Z" id="Colour" fill="url(#linearGradient-10)"></path>
        <path d="M60.7695469,52.0080169 C61.2514096,52.0322143 61.6922189,52.2867157 61.9541057,52.6919223 L64.6698718,56.8939138 L69.3843847,55.6190948 L69.3849157,54.8928734 L71.3849157,54.8928734 L71.3849157,56.8934365 C71.4216163,57.2824614 71.3056047,57.6746626 71.0548077,57.9829907 L67.8976942,61.8643245 L69.9153847,64.9570948 L70.8723887,64.9573983 L70.8740299,66.8006887 C70.8987484,67.315063 70.6577183,67.8285853 70.1952919,68.1303275 C69.791234,68.3939832 69.2850196,68.4471885 68.8349742,68.2733027 L64.1680047,66.4701074 L61.0278882,70.3652051 C60.5079506,71.0101518 59.5636252,71.1114917 58.9186784,70.5915541 C58.5571516,70.3001015 58.3518004,69.8583958 58.3603615,69.3961156 L58.3610853,67.3947307 L58.4673847,67.3940948 L58.6351074,64.3462271 L53.9603,62.5634502 C53.3202262,62.3193527 52.9439974,61.6844015 52.9998449,61.0342381 L53.0001076,59.0970584 L55.0001076,59.0970584 L54.9993847,59.4750948 L58.9452783,58.427814 L59.1962049,53.4308996 C59.2377531,52.603515 59.9421624,51.9664687 60.7695469,52.0080169 Z" id="Combined-Shape" fill="#9D8532"></path>
        <path d="M64.1680047,64.4701074 L61.0278882,68.3652051 C60.5079506,69.0101518 59.5636252,69.1114917 58.9186784,68.5915541 C58.5430662,68.2887462 58.3360361,67.8237491 58.3623397,67.3419968 L58.6351074,62.3462271 L53.9603,60.5634502 C53.1862496,60.2682596 52.798057,59.4014686 53.0932476,58.6274182 C53.2651644,58.1766169 53.6434272,57.8360276 54.1097291,57.7121742 L58.9452783,56.427814 L59.1962049,51.4308996 C59.2377531,50.603515 59.9421624,49.9664687 60.7695469,50.0080169 C61.2514096,50.0322143 61.6922189,50.2867157 61.9541057,50.6919223 L64.6698718,54.8939138 L69.4997604,53.5884277 C70.299489,53.3722665 71.1230304,53.8453414 71.3391916,54.64507 C71.4650822,55.110826 71.3592546,55.6087058 71.0548077,55.9829907 L67.8976942,59.8643245 L70.6318029,64.0544041 C71.0845141,64.7481937 70.8890815,65.6776163 70.1952919,66.1303275 C69.791234,66.3939832 69.2850196,66.4471885 68.8349742,66.2733027 L64.1680047,64.4701074 Z" id="Colour" fill="url(#linearGradient-11)"></path>
        <path d="M120.141107,35.2751611 L110.971396,38.8180984 C110.198643,39.1166699 109.330164,38.7322701 109.031592,37.9595175 C108.857706,37.5094721 108.910912,37.0032578 109.174567,36.5991998 L114.546573,28.3664867 L108.343443,20.7404007 C107.820691,20.097733 107.917902,19.1529736 108.56057,18.6302216 C108.934854,18.3257747 109.432734,18.2199471 109.89849,18.3458377 L119.388307,20.9108706 L124.724273,12.654753 C125.173947,11.958991 126.102506,11.7594974 126.798268,12.2091715 C127.203475,12.4710583 127.457976,12.9118676 127.482174,13.3937303 L127.975197,23.2117209 L137.476136,25.7352456 C138.276802,25.9479088 138.753472,26.7693743 138.540809,27.5700402 C138.416955,28.0363421 138.076366,28.4146048 137.625565,28.5865216 L128.440453,32.0893407 L128.97639,41.9050823 C129.021555,42.7322774 128.387594,43.4394646 127.560399,43.4846293 C127.078647,43.5109328 126.61365,43.3039028 126.310842,42.9282905 L120.141107,35.2751611 Z" id="Colour" fill="url(#linearGradient-12)"></path>
        <path d="M102.018196,60.3534765 L96.8583346,66.7539287 C96.3383969,67.3988755 95.3940715,67.5002154 94.7491247,66.9802777 C94.3735125,66.6774699 94.1664825,66.2124728 94.192786,65.7307205 L94.6409999,57.5216361 L86.9593232,54.5921645 C86.1852728,54.2969739 85.7970802,53.4301828 86.0922708,52.6561324 C86.2641876,52.2053312 86.6424503,51.8647419 87.1087522,51.7408884 L95.0545611,49.6304186 L95.4668855,41.4194534 C95.5084337,40.5920688 96.2128429,39.9550225 97.0402275,39.9965707 C97.5220902,40.0207681 97.9628995,40.2752695 98.2247863,40.6804761 L102.687352,47.5852183 L110.62386,45.4400344 C111.423588,45.2238732 112.24713,45.696948 112.463291,46.4966766 C112.589182,46.9624326 112.483354,47.4603124 112.178907,47.8345974 L106.991116,54.2124326 L111.483822,61.0976013 C111.936534,61.7913909 111.741101,62.7208134 111.047311,63.1735247 C110.643254,63.4371804 110.137039,63.4903856 109.686994,63.3164998 L102.018196,60.3534765 Z" id="Colour" fill="url(#linearGradient-13)"></path>
        <path d="M104.500212,78.5977092 C103.065699,77.7694929 102.574074,75.9347246 103.402291,74.5002119 C104.230507,73.0656991 106.065275,72.5740744 107.499788,73.4022908 C108.934301,74.2305071 109.425926,76.0652754 108.597709,77.4997881 C107.769493,78.9343009 105.934725,79.4259256 104.500212,78.5977092 Z" id="Fill-16-Copy-3" fill="url(#linearGradient-14)"></path>
        <path d="M148.500212,36.5977092 C147.065699,35.7694929 146.574074,33.9347246 147.402291,32.5002119 C148.230507,31.0656991 150.065275,30.5740744 151.499788,31.4022908 C152.934301,32.2305071 153.425926,34.0652754 152.597709,35.4997881 C151.769493,36.9343009 149.934725,37.4259256 148.500212,36.5977092 Z" id="Fill-16-Copy-4" fill="url(#linearGradient-14)"></path>
        <path d="M92.5002119,17.5977092 C91.0656991,16.7694929 90.5740744,14.9347246 91.4022908,13.5002119 C92.2305071,12.0656991 94.0652754,11.5740744 95.4997881,12.4022908 C96.9343009,13.2305071 97.4259256,15.0652754 96.5977092,16.4997881 C95.7694929,17.9343009 93.9347246,18.4259256 92.5002119,17.5977092 Z" id="Fill-16-Copy-5" fill="url(#linearGradient-14)"></path>
        <path d="M44.5002119,46.0391943 C43.0656991,45.210978 42.5740744,43.3762097 43.4022908,41.941697 C44.2305071,40.5071842 46.0652754,40.0155595 47.4997881,40.8437759 C48.9343009,41.6719922 49.4259256,43.5067604 48.5977092,44.9412732 C47.7694929,46.375786 45.9347246,46.8674107 44.5002119,46.0391943 Z" id="Fill-16-Copy-6" fill="url(#linearGradient-14)"></path>
    </g>
</svg>