<?xml version="1.0" encoding="UTF-8"?>
<svg width="96px" height="96px" viewBox="0 0 96 96" version="1.1" xmlns="http://www.w3.org/2000/svg" xmlns:xlink="http://www.w3.org/1999/xlink">
    <title>Icons (Solution)/MSC/1. Light positive/2. MSC light positive 96px</title>
    <defs>
        <linearGradient x1="0%" y1="100%" x2="100%" y2="0%" id="linearGradient-1">
            <stop stop-color="#007FFF" offset="0%"></stop>
            <stop stop-color="#007FFF" offset="24.6495927%"></stop>
            <stop stop-color="#6610F2" offset="100%"></stop>
        </linearGradient>
        <path d="M17.2644827,73.0128129 L17.2644827,21.0128129 C17.2644827,17.6991044 19.9507742,15.0128129 23.2644827,15.0128129 L47.2644827,15.0128129 C50.5781912,15.0128129 53.2644827,17.6991044 53.2644827,21.0128129 L53.2644827,73.0128129 C53.2644827,76.3265214 50.5781912,79.0128129 47.2644827,79.0128129 L23.2644827,79.0128129 C19.9507742,79.0128129 17.2644827,76.3265214 17.2644827,73.0128129 Z" id="path-2"></path>
        <filter x="-20.8%" y="-11.7%" width="141.7%" height="123.4%" filterUnits="objectBoundingBox" id="filter-3">
            <feOffset dx="0" dy="0" in="SourceAlpha" result="shadowOffsetOuter1"></feOffset>
            <feGaussianBlur stdDeviation="2.5" in="shadowOffsetOuter1" result="shadowBlurOuter1"></feGaussianBlur>
            <feColorMatrix values="0 0 0 0 0.062745098   0 0 0 0 0.117647059   0 0 0 0 0.117647059  0 0 0 0.3 0" type="matrix" in="shadowBlurOuter1"></feColorMatrix>
        </filter>
        <linearGradient x1="12.6651528%" y1="100%" x2="86.5912455%" y2="0.995854731%" id="linearGradient-4">
            <stop stop-color="#344055" offset="0%"></stop>
            <stop stop-color="#344055" offset="25%"></stop>
            <stop stop-color="#5D6677" offset="100%"></stop>
        </linearGradient>
        <linearGradient x1="13.7147927%" y1="100%" x2="85.5625114%" y2="0.995854731%" id="linearGradient-5">
            <stop stop-color="#101E1E" offset="0%"></stop>
            <stop stop-color="#101E1E" offset="25%"></stop>
            <stop stop-color="#344055" offset="100%"></stop>
        </linearGradient>
        <path d="M2.50083488,12.6707079 L23.2854446,0.670707857 C25.6769077,-0.710004017 28.7348597,0.109371759 30.1155716,2.50083488 L55.1155716,45.8021051 C56.4962835,48.1935682 55.6769077,51.2515202 53.2854446,52.6322321 L32.0678222,64.8822321 C29.9155054,66.1248728 27.1633485,65.3874346 25.9207079,63.2351178 L0.670707857,19.5008349 C-0.710004017,17.1093718 0.109371759,14.0514197 2.50083488,12.6707079 Z" id="path-6"></path>
        <linearGradient x1="0%" y1="100%" x2="100%" y2="0%" id="linearGradient-8">
            <stop stop-color="#EFF0F2" offset="0%"></stop>
            <stop stop-color="#EFF0F2" offset="24.7309791%"></stop>
            <stop stop-color="#FFFFFF" offset="100%"></stop>
        </linearGradient>
        <linearGradient x1="0%" y1="96.3648834%" x2="100%" y2="3.6351166%" id="linearGradient-9">
            <stop stop-color="#FDCA40" offset="0%"></stop>
            <stop stop-color="#FDCA40" offset="24.6093781%"></stop>
            <stop stop-color="#FFA400" offset="100%"></stop>
        </linearGradient>
    </defs>
    <g id="Icons-(Solution)/MSC/1.-Light-positive/2.-MSC-light-positive-96px" stroke="none" stroke-width="1" fill="none" fill-rule="evenodd">
        <path d="M88,48 C88,70.0911111 70.0911111,88 48,88 C25.9088889,88 8,70.0911111 8,48 C8,25.9088889 25.9088889,8 48,8 C70.0911111,8 88,25.9088889 88,48" id="Gradient" fill="url(#linearGradient-1)"></path>
        <g id="Shadow" style="mix-blend-mode: multiply;" transform="translate(35.264483, 47.012813) rotate(-30.000000) translate(-35.264483, -47.012813) " fill="black" fill-opacity="1">
            <use filter="url(#filter-3)" xlink:href="#path-2"></use>
        </g>
        <path d="M37.7189653,12.9961524 L63.7189653,58.0294734 C63.9031826,58.348547 64.0547626,58.6775077 64.1747412,59.0124897 L64.5282585,59.0128129 L64.5282585,61.0128129 C64.5276753,63.0902428 63.451133,65.1123098 61.5228129,66.2256258 L39.4391651,78.9756258 C36.3302631,80.7705513 32.3549254,79.7053628 30.56,76.5964607 L4.81,31.9961524 C4.25771525,31.0395672 3.99877552,29.9941167 4.00526969,28.9639669 L4.005,27.0128129 L4.34332095,27.0128264 C4.8009073,25.7044273 5.71157814,24.5474228 7.00615242,23.8 L29.5228129,10.8 C32.3925687,9.14314575 36.0621111,10.1263967 37.7189653,12.9961524 Z" id="Combined-Shape" fill="#101E1E"></path>
        <path d="M30.81,75.0294734 L4.81,29.9961524 C3.15314575,27.1263967 4.13639668,23.4568542 7.00615242,21.8 L29.5228129,8.8 C32.3925687,7.14314575 36.0621111,8.12639668 37.7189653,10.9961524 L63.7189653,56.0294734 C65.3758196,58.8992292 64.3925687,62.5687716 61.5228129,64.2256258 L39.0061524,77.2256258 C36.1363967,78.8824801 32.4668542,77.8992292 30.81,75.0294734 Z" id="Solid" fill="url(#linearGradient-4)"></path>
        <g id="new-screen" transform="translate(6.349292, 10.349292)">
            <mask id="mask-7" fill="white">
                <use xlink:href="#path-6"></use>
            </mask>
            <use fill="url(#linearGradient-5)" xlink:href="#path-6"></use>
            <path d="M41.8931397,53.4360797 C41.8931397,52.3315533 40.9975616,51.4360797 39.8929064,51.4360797 C38.7882511,51.4360797 37.8931397,52.3315533 37.8931397,53.4360797 C37.8931397,54.540606 38.7882511,55.4360797 39.8929064,55.4360797 C40.9975616,55.4360797 41.8931397,54.540606 41.8931397,53.4360797" id="new-button" fill="url(#linearGradient-8)" mask="url(#mask-7)"></path>
            <path d="M30.1376224,2.51288568 L50.7707502,38.2502095 C45.4502819,41.0969781 39.3712406,42.7111446 32.9151905,42.7111446 C24.0022866,42.7111446 15.8079313,39.6346725 9.33610354,34.4857073 L0.692758665,19.5128857 C-0.68795321,17.1214226 0.131422566,14.0634705 2.52288568,12.6827587 L23.3074954,0.682758665 C25.6989585,-0.69795321 28.7569105,0.121422566 30.1376224,2.51288568 Z" id="Combined-Shape" fill-opacity="0.05" fill="#FFFFFF" mask="url(#mask-7)"></path>
        </g>
        <path d="M83.5604363,13.0592942 C83.9465705,13.1822846 84.2491201,13.4848342 84.3721105,13.8709684 L85.8638118,18.5542332 L90.7669788,18.5433822 C91.0460868,18.5427645 91.3040318,18.633671 91.512405,18.7878187 L92.020624,18.7893109 L92.020624,19.8336222 L92.016847,19.833 L92.0130443,19.9227315 C91.9767524,20.2718635 91.794729,20.5921203 91.5082471,20.8019002 L87.5218381,23.7209974 L88.842847,27.808 L89.1027015,27.8083653 L89.1039689,28.7654713 C89.1253618,29.3113148 88.7844055,29.8268664 88.2391013,30.0031581 C87.8555836,30.1271457 87.4358119,30.0585943 87.1116629,29.8190401 L83.1810688,26.9142332 L79.2504748,29.8190401 C78.695279,30.2293436 77.9125872,30.1118852 77.5022837,29.5566894 C77.333139,29.327814 77.2492478,29.0512658 77.2581913,28.7734677 L77.2596906,27.7291564 L77.543847,27.729 L78.8402996,23.7209974 L74.8538906,20.8019002 C74.5159248,20.5544206 74.338518,20.1691326 74.3423691,19.7799581 L74.339847,18.7356829 L74.9283649,18.7343339 C75.1255722,18.6107005 75.3561342,18.5428532 75.5951589,18.5433822 L80.4983259,18.5542332 L81.9900271,13.8709684 C82.199546,13.2131742 82.9026421,12.8497753 83.5604363,13.0592942 Z" id="Combined-Shape" fill="#9D8532"></path>
        <path d="M83.1810688,25.9142332 L79.2504748,28.8190401 C78.695279,29.2293436 77.9125872,29.1118852 77.5022837,28.5566894 C77.2627295,28.2325405 77.1941781,27.8127688 77.3181657,27.4292511 L78.8402996,22.7209974 L78.8402996,22.7209974 L74.8538906,19.8019002 C74.2968997,19.3940368 74.1760081,18.6118679 74.5838715,18.0548771 C74.8198738,17.732585 75.1956986,17.5424981 75.5951589,17.5433822 L80.4983259,17.5542332 L80.4983259,17.5542332 L81.9900271,12.8709684 C82.199546,12.2131742 82.9026421,11.8497753 83.5604363,12.0592942 C83.9465705,12.1822846 84.2491201,12.4848342 84.3721105,12.8709684 L85.8638118,17.5542332 L85.8638118,17.5542332 L90.7669788,17.5433822 C91.457333,17.5418544 92.0182142,18.1002585 92.019742,18.7906128 C92.0206261,19.1900731 91.8305392,19.5658978 91.5082471,19.8019002 L87.5218381,22.7209974 L87.5218381,22.7209974 L89.0439719,27.4292511 C89.2563355,28.0861324 88.8959826,28.7907945 88.2391013,29.0031581 C87.8555836,29.1271457 87.4358119,29.0585943 87.1116629,28.8190401 L83.1810688,25.9142332 L83.1810688,25.9142332 Z" id="Colour" fill="url(#linearGradient-9)"></path>
        <path d="M41.8681286,13.0592942 C42.2542628,13.1822846 42.5568124,13.4848342 42.6798028,13.8709684 L44.1715041,18.5542332 L49.0746711,18.5433822 C49.3537791,18.5427645 49.6117241,18.633671 49.8200973,18.7878187 L50.3283163,18.7893109 L50.3283163,19.8336222 L50.3245393,19.833 L50.3207366,19.9227315 C50.2844447,20.2718635 50.1024213,20.5921203 49.8159394,20.8019002 L45.8295304,23.7209974 L47.1505393,27.808 L47.4103938,27.8083653 L47.4116612,28.7654713 C47.4330541,29.3113148 47.0920978,29.8268664 46.5467936,30.0031581 C46.1632759,30.1271457 45.7435042,30.0585943 45.4193552,29.8190401 L41.4887611,26.9142332 L37.5581671,29.8190401 C37.0029713,30.2293436 36.2202795,30.1118852 35.809976,29.5566894 C35.6408313,29.327814 35.5569401,29.0512658 35.5658836,28.7734677 L35.5673829,27.7291564 L35.8515393,27.729 L37.1479919,23.7209974 L33.1615829,20.8019002 C32.8236171,20.5544206 32.6462103,20.1691326 32.6500614,19.7799581 L32.6475393,18.7356829 L33.2360573,18.7343339 C33.4332645,18.6107005 33.6638265,18.5428532 33.9028512,18.5433822 L38.8060182,18.5542332 L40.2977194,13.8709684 C40.5072383,13.2131742 41.2103344,12.8497753 41.8681286,13.0592942 Z" id="Combined-Shape" fill="#9D8532"></path>
        <path d="M41.4887611,25.9142332 L37.5581671,28.8190401 C37.0029713,29.2293436 36.2202795,29.1118852 35.809976,28.5566894 C35.5704218,28.2325405 35.5018704,27.8127688 35.625858,27.4292511 L37.1479919,22.7209974 L37.1479919,22.7209974 L33.1615829,19.8019002 C32.604592,19.3940368 32.4837004,18.6118679 32.8915638,18.0548771 C33.1275662,17.732585 33.5033909,17.5424981 33.9028512,17.5433822 L38.8060182,17.5542332 L38.8060182,17.5542332 L40.2977194,12.8709684 C40.5072383,12.2131742 41.2103344,11.8497753 41.8681286,12.0592942 C42.2542628,12.1822846 42.5568124,12.4848342 42.6798028,12.8709684 L44.1715041,17.5542332 L44.1715041,17.5542332 L49.0746711,17.5433822 C49.7650253,17.5418544 50.3259065,18.1002585 50.3274344,18.7906128 C50.3283184,19.1900731 50.1382315,19.5658978 49.8159394,19.8019002 L45.8295304,22.7209974 L45.8295304,22.7209974 L47.3516643,27.4292511 C47.5640278,28.0861324 47.2036749,28.7907945 46.5467936,29.0031581 C46.1632759,29.1271457 45.7435042,29.0585943 45.4193552,28.8190401 L41.4887611,25.9142332 L41.4887611,25.9142332 Z" id="Colour" fill="url(#linearGradient-9)"></path>
        <path d="M74.1373594,33.0592942 C74.5234935,33.1822846 74.8260432,33.4848342 74.9490336,33.8709684 L76.4407348,38.5542332 L81.3439018,38.5433822 C81.6230099,38.5427645 81.8809548,38.633671 82.0893281,38.7878187 L82.5975471,38.7893109 L82.5975471,39.8336222 L82.59377,39.833 L82.5899674,39.9227315 C82.5536755,40.2718635 82.3716521,40.5921203 82.0851702,40.8019002 L78.0987611,43.7209974 L79.41977,47.808 L79.6796246,47.8083653 L79.6808919,48.7654713 C79.7022848,49.3113148 79.3613286,49.8268664 78.8160244,50.0031581 C78.4325067,50.1271457 78.012735,50.0585943 77.688586,49.8190401 L73.7579919,46.9142332 L69.8273978,49.8190401 C69.2722021,50.2293436 68.4895102,50.1118852 68.0792067,49.5566894 C67.9100621,49.327814 67.8261709,49.0512658 67.8351144,48.7734677 L67.8366137,47.7291564 L68.12077,47.729 L69.4172227,43.7209974 L65.4308136,40.8019002 C65.0928478,40.5544206 64.9154411,40.1691326 64.9192922,39.7799581 L64.91677,38.7356829 L65.505288,38.7343339 C65.7024952,38.6107005 65.9330573,38.5428532 66.172082,38.5433822 L71.075249,38.5542332 L72.5669502,33.8709684 C72.7764691,33.2131742 73.4795652,32.8497753 74.1373594,33.0592942 Z" id="Combined-Shape" fill="#9D8532"></path>
        <path d="M73.7579919,45.9142332 L69.8273978,48.8190401 C69.2722021,49.2293436 68.4895102,49.1118852 68.0792067,48.5566894 C67.8396526,48.2325405 67.7711012,47.8127688 67.8950888,47.4292511 L69.4172227,42.7209974 L69.4172227,42.7209974 L65.4308136,39.8019002 C64.8738228,39.3940368 64.7529312,38.6118679 65.1607945,38.0548771 C65.3967969,37.732585 65.7726216,37.5424981 66.172082,37.5433822 L71.075249,37.5542332 L71.075249,37.5542332 L72.5669502,32.8709684 C72.7764691,32.2131742 73.4795652,31.8497753 74.1373594,32.0592942 C74.5234935,32.1822846 74.8260432,32.4848342 74.9490336,32.8709684 L76.4407348,37.5542332 L76.4407348,37.5542332 L81.3439018,37.5433822 C82.0342561,37.5418544 82.5951373,38.1002585 82.5966651,38.7906128 C82.5975492,39.1900731 82.4074623,39.5658978 82.0851702,39.8019002 L78.0987611,42.7209974 L78.0987611,42.7209974 L79.620895,47.4292511 C79.8332585,48.0861324 79.4729057,48.7907945 78.8160244,49.0031581 C78.4325067,49.1271457 78.012735,49.0585943 77.688586,48.8190401 L73.7579919,45.9142332 L73.7579919,45.9142332 Z" id="Colour" fill="url(#linearGradient-9)"></path>
        <path d="M62.334915,25.9142332 L58.4043209,28.8190401 C57.8491251,29.2293436 57.0664333,29.1118852 56.6561298,28.5566894 C56.4165757,28.2325405 56.3480242,27.8127688 56.4720119,27.4292511 L57.9941458,22.7209974 L57.9941458,22.7209974 L54.0077367,19.8019002 C53.4507459,19.3940368 53.3298542,18.6118679 53.7377176,18.0548771 C53.97372,17.732585 54.3495447,17.5424981 54.749005,17.5433822 L59.6521721,17.5542332 L59.6521721,17.5542332 L61.1438733,12.8709684 C61.3533922,12.2131742 62.0564883,11.8497753 62.7142825,12.0592942 C63.1004166,12.1822846 63.4029662,12.4848342 63.5259567,12.8709684 L65.0176579,17.5542332 L65.0176579,17.5542332 L69.9208249,17.5433822 C70.6111792,17.5418544 71.1720604,18.1002585 71.1735882,18.7906128 C71.1744722,19.1900731 70.9843854,19.5658978 70.6620933,19.8019002 L66.6756842,22.7209974 L66.6756842,22.7209974 L68.1978181,27.4292511 C68.4101816,28.0861324 68.0498287,28.7907945 67.3929474,29.0031581 C67.0094298,29.1271457 66.589658,29.0585943 66.2655091,28.8190401 L62.334915,25.9142332 L62.334915,25.9142332 Z" id="Colour" fill="url(#linearGradient-9)"></path>
        <path d="M52.9118381,45.9142332 L48.981244,48.8190401 C48.4260482,49.2293436 47.6433564,49.1118852 47.2330529,48.5566894 C46.9934987,48.2325405 46.9249473,47.8127688 47.0489349,47.4292511 L48.5710688,42.7209974 L48.5710688,42.7209974 L44.5846598,39.8019002 C44.027669,39.3940368 43.9067773,38.6118679 44.3146407,38.0548771 C44.5506431,37.732585 44.9264678,37.5424981 45.3259281,37.5433822 L50.2290951,37.5542332 L50.2290951,37.5542332 L51.7207964,32.8709684 C51.9303152,32.2131742 52.6334114,31.8497753 53.2912055,32.0592942 C53.6773397,32.1822846 53.9798893,32.4848342 54.1028798,32.8709684 L55.594581,37.5542332 L55.594581,37.5542332 L60.497748,37.5433822 C61.1881022,37.5418544 61.7489835,38.1002585 61.7505113,38.7906128 C61.7513953,39.1900731 61.5613085,39.5658978 61.2390163,39.8019002 L57.2526073,42.7209974 L57.2526073,42.7209974 L58.7747412,47.4292511 C58.9871047,48.0861324 58.6267518,48.7907945 57.9698705,49.0031581 C57.5863528,49.1271457 57.1665811,49.0585943 56.8424321,48.8190401 L52.9118381,45.9142332 L52.9118381,45.9142332 Z" id="Colour" fill="url(#linearGradient-9)"></path>
    </g>
</svg>