<?xml version="1.0" encoding="UTF-8"?>
<svg width="160px" height="128px" viewBox="0 0 160 128" version="1.1" xmlns="http://www.w3.org/2000/svg" xmlns:xlink="http://www.w3.org/1999/xlink">
    <title>Icons (Solution)/PSP/1. Light positive/1. PSP light positive 160px</title>
    <defs>
        <linearGradient x1="0%" y1="100%" x2="100%" y2="0%" id="linearGradient-1">
            <stop stop-color="#007FFF" offset="0%"></stop>
            <stop stop-color="#007FFF" offset="24.6495927%"></stop>
            <stop stop-color="#6610F2" offset="100%"></stop>
        </linearGradient>
        <path d="M82.373067,25.9474411 L104.373067,64.0525589 C106.582206,67.8788999 105.271205,72.7716231 101.444864,74.9807621 L87.8788005,82.8124501 L99.2987504,85.8729256 C99.4396908,85.9106905 99.5789885,85.9545867 99.7162088,86.0044978 C99.7491039,86.0167278 99.781431,86.0288496 99.8135684,86.0412789 C99.8594389,86.05882 99.9053392,86.0773803 99.9509722,86.0966234 C99.967249,86.103627 99.9833421,86.1105057 99.9993843,86.1174626 C100.477109,86.3247008 100.924792,86.6074704 101.322617,86.96031 C101.337346,86.9744894 101.351946,86.9876156 101.366463,87.0008226 C101.407494,87.0369395 101.447862,87.0748591 101.487663,87.1135259 L101.521356,87.1479276 C101.831595,87.4538383 102.106079,87.8065948 102.33461,88.2024224 C102.770599,88.9575784 102.987202,89.7791949 103.004193,90.5934686 L103.004371,90.6098764 L103.004876,90.6446331 L103.005139,90.6794225 C103.005423,90.728683 103.004878,90.7776342 103.003616,90.8265332 L103.001711,90.8849521 C102.999657,90.9412718 102.996579,90.9977738 102.992549,91.0541721 C102.991082,91.0738579 102.989551,91.0935953 102.9879,91.1133414 C102.983736,91.1640815 102.978748,91.214607 102.972997,91.2650237 C102.969515,91.2944639 102.965832,91.3242836 102.961873,91.3541151 C102.942183,91.5041408 102.915621,91.6529151 102.882444,91.8001467 L102.833577,91.9965948 L97.1394109,113.247511 C96.4247424,115.91469 93.6832133,117.497513 91.0160342,116.782845 C88.3483067,116.068029 86.7654842,113.3265 87.4801526,110.659321 L90.0487247,101.068645 L67.5951296,114.032446 C65.2038023,115.413079 62.1460239,114.59375 60.7653904,112.202422 C59.3847569,109.811095 60.2040862,106.753317 62.5954135,105.372683 L85.0495907,92.4078912 L75.6318005,89.8834501 L42.5551363,108.980762 C38.8053221,111.145718 34.0313544,109.929932 31.7626717,106.279113 L31.626933,106.052559 L9.62693304,67.9474411 C7.41779404,64.1211001 8.72879528,59.2283769 12.5551363,57.0192379 L71.4448637,23.0192379 C75.2712047,20.8100989 80.163928,22.1211001 82.373067,25.9474411 Z M121.03017,19.1790522 L142.281593,24.8729256 L142.391662,24.9037629 L142.4508,24.9214501 L142.591051,24.9669445 C142.629011,24.9794347 142.667155,24.9928452 142.70514,25.0067168 C142.738157,25.0190369 142.770449,25.0311938 142.80255,25.0436577 C142.843186,25.0592357 142.884,25.0757225 142.924602,25.0927492 C142.953366,25.1049506 142.981695,25.1171283 143.009865,25.1295474 C143.134349,25.1843553 143.25706,25.244575 143.377322,25.3098569 C143.411341,25.3284038 143.445231,25.3473272 143.478845,25.3666155 C143.521809,25.3911395 143.564337,25.4163687 143.606517,25.4422483 C143.624691,25.4536017 143.642871,25.4649327 143.660964,25.4763724 C144.225286,25.8324555 144.725088,26.3065149 145.119932,26.8874918 C145.130416,26.904194 145.14102,26.9199729 145.151533,26.9358105 C145.183108,26.9821699 145.213708,27.0300355 145.243601,27.0785846 C145.252998,27.0950013 145.262882,27.1112446 145.272672,27.1275431 L145.295398,27.1647445 L145.317453,27.2024224 L145.3688,27.2964501 L145.3598,27.2784501 L145.394245,27.3403179 C145.419041,27.3865158 145.443037,27.4329411 145.466238,27.4795772 C145.473845,27.4964428 145.482208,27.5135155 145.490474,27.5306363 C145.794822,28.1585648 145.955341,28.8230535 145.983586,29.4848618 C145.984677,29.5147639 145.985718,29.5452204 145.986479,29.5757173 L145.988098,29.6819942 C145.988116,29.7164326 145.987873,29.7514093 145.987259,29.7864288 L145.987137,29.7968414 C145.984206,29.9443855 145.974748,30.0914846 145.958881,30.237697 C145.955709,30.2658987 145.952344,30.2945225 145.948726,30.3231581 C145.942108,30.376805 145.934515,30.4301479 145.92607,30.4833381 C145.922907,30.5018024 145.919887,30.5201006 145.916762,30.538401 C145.908044,30.5911076 145.898224,30.6437187 145.887569,30.6961502 C145.881966,30.7219894 145.876433,30.7480969 145.870683,30.7742028 C145.849848,30.8707161 145.825794,30.9665888 145.798936,31.0616774 L140.122254,52.2475114 C139.407585,54.9146905 136.666056,56.497513 133.998877,55.7828446 C131.33115,55.0680291 129.748327,52.3265 130.462996,49.6593209 L133.031568,40.0686452 L110.577973,53.0324455 C108.186645,54.413079 105.128867,53.5937498 103.748233,51.2024224 C102.3676,48.8110951 103.186929,45.7533167 105.578256,44.3726832 L128.032434,31.4078912 L118.442127,28.837762 C115.774947,28.1230935 114.192125,25.3815644 114.906793,22.7143853 C115.621462,20.0472063 118.362991,18.4643837 121.03017,19.1790522 Z" id="path-2"></path>
        <filter x="-8.7%" y="-12.3%" width="117.5%" height="124.5%" filterUnits="objectBoundingBox" id="filter-3">
            <feOffset dx="0" dy="0" in="SourceAlpha" result="shadowOffsetOuter1"></feOffset>
            <feGaussianBlur stdDeviation="4" in="shadowOffsetOuter1" result="shadowBlurOuter1"></feGaussianBlur>
            <feColorMatrix values="0 0 0 0 0.062745098   0 0 0 0 0.117647059   0 0 0 0 0.117647059  0 0 0 0.3 0" type="matrix" in="shadowBlurOuter1"></feColorMatrix>
        </filter>
        <linearGradient x1="3.57353036e-13%" y1="91.3446382%" x2="99.0041453%" y2="9.47882688%" id="linearGradient-4">
            <stop stop-color="#344055" offset="0%"></stop>
            <stop stop-color="#344055" offset="25%"></stop>
            <stop stop-color="#5D6677" offset="100%"></stop>
        </linearGradient>
        <linearGradient x1="0%" y1="82.3735942%" x2="100%" y2="17.6264058%" id="linearGradient-5">
            <stop stop-color="#EFF0F2" offset="0%"></stop>
            <stop stop-color="#EFF0F2" offset="24.7309791%"></stop>
            <stop stop-color="#FFFFFF" offset="100%"></stop>
        </linearGradient>
        <linearGradient x1="0%" y1="87.0697701%" x2="100%" y2="12.9302299%" id="linearGradient-6">
            <stop stop-color="#FDCA40" offset="0%"></stop>
            <stop stop-color="#FDCA40" offset="24.6093781%"></stop>
            <stop stop-color="#FFA400" offset="100%"></stop>
        </linearGradient>
        <linearGradient x1="0%" y1="87.0681094%" x2="100%" y2="12.9318906%" id="linearGradient-7">
            <stop stop-color="#FDCA40" offset="0%"></stop>
            <stop stop-color="#FDCA40" offset="24.6093781%"></stop>
            <stop stop-color="#FFA400" offset="100%"></stop>
        </linearGradient>
        <linearGradient x1="0.101753715%" y1="80.4759245%" x2="100%" y2="19.4619282%" id="linearGradient-8">
            <stop stop-color="#FFC866" offset="0%"></stop>
            <stop stop-color="#FFDB99" offset="100%"></stop>
        </linearGradient>
    </defs>
    <g id="Icons-(Solution)/PSP/1.-Light-positive/1.-PSP-light-positive-160px" stroke="none" stroke-width="1" fill="none" fill-rule="evenodd">
        <path d="M124,64 C124,94.9275556 98.9275556,120 68,120 C37.0724444,120 12,94.9275556 12,64 C12,33.0724444 37.0724444,8 68,8 C98.9275556,8 124,33.0724444 124,64" id="Gradient" fill="url(#linearGradient-1)"></path>
        <g id="Shadow" style="mix-blend-mode: multiply;" fill="black" fill-opacity="1">
            <use filter="url(#filter-3)" xlink:href="#path-2"></use>
        </g>
        <path d="M81.373067,19.9474411 L103.373067,58.0525589 C103.734464,58.678517 104.001654,59.333014 104.179036,59.9996321 L104.448383,60 L104.448383,62 C104.461872,64.780436 103.025398,67.4908902 100.444864,68.9807621 L41.5551363,102.980762 C37.7287953,105.189901 32.836072,103.8789 30.626933,100.052559 L8.62693304,61.9474411 C7.90748713,60.7013242 7.56138608,59.3421072 7.55392384,57.9993148 L7.54632854,56 L7.79596465,55.9992739 C8.30501862,53.9726559 9.60258168,52.1465458 11.5551363,51.0192379 L70.4448637,17.0192379 C74.2712047,14.8100989 79.163928,16.1211001 81.373067,19.9474411 Z" id="Combined-Shape" fill="#101E1E"></path>
        <path d="M8.62693304,59.9474411 L30.626933,98.0525589 C32.836072,101.8789 37.7287953,103.189901 41.5551363,100.980762 L100.444864,66.9807621 C104.271205,64.7716231 105.582206,59.8788999 103.373067,56.0525589 L81.373067,17.9474411 C79.163928,14.1211001 74.2712047,12.8100989 70.4448637,15.0192379 L11.5551363,49.0192379 C7.72879528,51.2283769 6.41779404,56.1211001 8.62693304,59.9474411 Z" id="Solid" fill="url(#linearGradient-4)"></path>
        <path d="M38.7052836,68.0446725 C35.9560314,63.2828279 37.5790609,57.1942028 42.3337989,54.4326782 L59.6731786,44.3620655 C64.3530952,41.6439967 70.3272361,43.1588015 73.1589493,47.7299385 L73.3205081,48 C76.0819318,52.7829262 74.4431803,58.8988303 69.660254,61.660254 L52.2950735,71.6860457 C47.5368192,74.4332251 41.452463,72.8029268 38.7052836,68.0446725 Z" id="Solid" fill="url(#linearGradient-5)"></path>
        <path d="M87.3092796,103.811372 L91.3092796,103.811372 L91.3092796,105.882032 L87.3092796,105.882032 Z M60.0994645,101.77393 L64.0994645,101.77393 L64.0994645,103.844589 L60.0994645,103.844589 Z M99.004675,82.6485784 L103.004675,82.6485784 L103.004675,84.8290131 L99.004675,84.8290131 Z M71.7510988,76.9886155 L75.7510988,76.9886155 L75.7510988,79.0592751 L71.7510988,79.0592751 Z" id="Combined-Shape" fill="#9D8532"></path>
        <path d="M78.0473271,74.1790522 L99.2987504,79.8729256 L99.4545146,79.9177723 L99.7222971,80.0067168 L99.9417594,80.0927492 L100.027022,80.1295474 L100.212334,80.2157744 L100.445392,80.3379582 L100.560132,80.4039235 L100.678121,80.4763724 C101.242443,80.8324555 101.742245,81.3065149 102.137089,81.8874918 L102.312555,82.1647445 L102.411402,82.3403179 L102.507631,82.5306363 C102.7685,83.0688608 102.9237,83.6339457 102.980506,84.20118 L103.002313,84.5300665 L103.004294,84.7968414 L102.995017,85.0177686 L102.971128,85.2802648 L102.920049,85.6173787 L102.854225,85.9184744 L97.1394109,107.247511 C96.4247424,109.91469 93.6832133,111.497513 91.0160342,110.782845 C88.3483067,110.068029 86.7654842,107.3265 87.4801526,104.659321 L90.0487247,95.0686452 L67.5951296,108.032446 C65.2038023,109.413079 62.1460239,108.59375 60.7653904,106.202422 C59.3847569,103.811095 60.2040862,100.753317 62.5954135,99.3726832 L85.0495907,86.4078912 L75.4592836,83.837762 C72.7921045,83.1230935 71.2092819,80.3815644 71.9239504,77.7143853 C72.6386189,75.0472063 75.380148,73.4643837 78.0473271,74.1790522 Z" id="Path" fill="#9D8532"></path>
        <path d="M78.0473271,72.1790522 L99.2987504,77.8729256 L99.4545146,77.9177723 L99.7222971,78.0067168 L99.9417594,78.0927492 L100.027022,78.1295474 L100.212334,78.2157744 L100.445392,78.3379582 L100.560132,78.4039235 L100.678121,78.4763724 C101.242443,78.8324555 101.742245,79.3065149 102.137089,79.8874918 L102.254467,80.0683953 L102.410122,80.3392361 L102.507631,80.5306363 C102.7685,81.0688608 102.9237,81.6339457 102.980506,82.20118 L103.002313,82.5300665 L103.004294,82.7968414 L102.995017,83.0177686 L102.971128,83.2802648 L102.920049,83.6173787 L102.854225,83.9184744 L97.1394109,105.247511 C96.4247424,107.91469 93.6832133,109.497513 91.0160342,108.782845 C88.3483067,108.068029 86.7654842,105.3265 87.4801526,102.659321 L90.0487247,93.0686452 L67.5951296,106.032446 C65.2038023,107.413079 62.1460239,106.59375 60.7653904,104.202422 C59.3847569,101.811095 60.2040862,98.7533167 62.5954135,97.3726832 L85.0495907,84.4078912 L75.4592836,81.837762 C72.7921045,81.1230935 71.2092819,78.3815644 71.9239504,75.7143853 C72.6386189,73.0472063 75.380148,71.4643837 78.0473271,72.1790522 Z" id="Path" fill="url(#linearGradient-6)"></path>
        <path d="M130.292123,42.8113725 L134.292123,42.8113725 L134.292123,44.8820321 L130.292123,44.8820321 Z M103.082308,40.7739298 L107.082308,40.7739298 L107.082308,42.8445894 L103.082308,42.8445894 Z M141.987518,21.6485784 L145.987518,21.6485784 L145.987518,23.8290131 L141.987518,23.8290131 Z M114.733942,15.9886155 L118.733942,15.9886155 L118.733942,18.0592751 L114.733942,18.0592751 Z" id="Combined-Shape" fill="#9D8532"></path>
        <path d="M131.511124,14.1103386 L147.06846,29.6670893 C147.122345,29.7209745 147.175006,29.776084 147.226398,29.8323725 L147.067875,29.6670893 C147.144761,29.7439747 147.218618,29.8227413 147.289449,29.9032407 C147.316078,29.9330378 147.342407,29.9637238 147.368367,29.9947292 C147.3908,30.0219073 147.412687,30.0485812 147.434256,30.075426 C147.461659,30.1092351 147.488761,30.1439196 147.51541,30.1789666 C147.53422,30.2039152 147.552665,30.2286258 147.570851,30.2534663 C147.651253,30.3631731 147.727414,30.4766803 147.798923,30.593347 C147.819111,30.6264188 147.838999,30.6597521 147.858466,30.6932632 C147.883411,30.7359835 147.907627,30.7790965 147.931216,30.8225988 C147.941279,30.8415184 147.951358,30.8604216 147.961307,30.8793751 C148.271982,31.4699128 148.467794,32.1303613 148.51925,32.8309239 C148.519978,32.8506305 148.521272,32.8695974 148.522458,32.8885697 C148.526378,32.9405491 148.528826,32.993311 148.530451,33.0462803 C148.530889,33.0802059 148.5316,33.1142382 148.531967,33.1482735 C148.532747,33.1662798 148.532843,33.1843399 148.532843,33.2024224 L148.531967,33.2565714 C148.5316,33.2906067 148.530889,33.3246389 148.529831,33.3586625 L148.532843,33.2024224 C148.532843,33.3080243 148.529569,33.4128614 148.523117,33.5168379 C148.521272,33.5352475 148.519978,33.5542143 148.518577,33.5731748 C148.468185,34.2691505 148.274955,34.9248743 147.968512,35.5121396 C147.954505,35.538581 147.940179,35.5654777 147.925589,35.5922693 C147.908498,35.6239295 147.891331,35.6546242 147.873853,35.6851172 C147.856649,35.7149506 147.838951,35.7451201 147.820909,35.7751409 L147.815597,35.7840973 C147.739287,35.9104088 147.657546,36.0330713 147.570699,36.1517614 C147.553851,36.1745987 147.536625,36.1977053 147.519174,36.2206953 C147.486619,36.263846 147.453372,36.3062459 147.419463,36.3480873 C147.407492,36.3624963 147.395727,36.376833 147.383871,36.3911191 C147.349968,36.4324055 147.315157,36.4730579 147.279714,36.5131373 C147.261942,36.5327134 147.244097,36.5525566 147.226065,36.5722902 C147.159764,36.6454555 147.090996,36.7164567 147.020193,36.785377 L131.511124,52.2945063 C129.558614,54.2470169 126.392969,54.2470169 124.440458,52.2945063 C122.487546,50.3415942 122.487546,47.1759491 124.440057,45.2234385 L131.459843,38.2019557 L105.532559,38.2021386 C102.771292,38.2021386 100.532843,35.9636894 100.532843,33.2024224 C100.532843,30.4411555 102.771292,28.2027063 105.532559,28.2027063 L131.460843,28.2019557 L124.440458,21.1810049 C122.487947,19.2284943 122.487947,16.0628492 124.440458,14.1103386 C126.392969,12.157828 129.558614,12.157828 131.511124,14.1103386 Z" id="Solid" fill="#9D8532" transform="translate(124.532843, 33.202422) rotate(-30.000000) translate(-124.532843, -33.202422) "></path>
        <path d="M121.03017,11.1790522 L142.281593,16.8729256 L142.437358,16.9177723 L142.70514,17.0067168 L142.924602,17.0927492 L143.009865,17.1295474 L143.195177,17.2157744 L143.428235,17.3379582 L143.660964,17.4763724 C144.144668,17.7815865 144.580971,18.1734771 144.944405,18.6450799 L145.151533,18.9358105 L145.23731,19.0683953 L145.394245,19.3403179 L145.490474,19.5306363 C145.751343,20.0688608 145.906543,20.6339457 145.963349,21.20118 L145.985156,21.5300665 L145.988098,21.6819942 L145.987137,21.7968414 L145.97786,22.0177686 L145.948726,22.3231581 L145.916762,22.538401 L145.870683,22.7742028 L145.837068,22.9184744 L140.122254,44.2475114 C139.407585,46.9146905 136.666056,48.497513 133.998877,47.7828446 C131.33115,47.0680291 129.748327,44.3265 130.462996,41.6593209 L133.031568,32.0686452 L110.577973,45.0324455 C108.186645,46.413079 105.128867,45.5937498 103.748233,43.2024224 C102.3676,40.8110951 103.186929,37.7533167 105.578256,36.3726832 L128.032434,23.4078912 L118.442127,20.837762 C115.774947,20.1230935 114.192125,17.3815644 114.906793,14.7143853 C115.621462,12.0472063 118.362991,10.4643837 121.03017,11.1790522 Z" id="Path" fill="url(#linearGradient-7)"></path>
        <path d="M27.9297161,8.10523661 L39.9984563,11.3376522 C40.8335063,11.4909349 41.5985437,11.9957993 42.0563089,12.7886718 C42.4830968,13.5278901 42.5595309,14.3732437 42.3371323,15.1324535 L39.0592516,27.3619282 C38.6304262,28.9623265 36.9854153,29.912074 35.385017,29.4832486 C33.7846187,29.0544231 32.8348712,27.4094123 33.2636967,25.809014 L34.6834037,20.5084254 L18.4415722,29.886748 C17.0066943,30.7151751 15.1719231,30.2235496 14.343496,28.7886718 C13.5150689,27.3537939 14.0066943,25.5190227 15.4415722,24.6905956 L31.6712794,15.3192729 L26.3768018,13.9007916 C24.7764035,13.4719661 23.8266561,11.8269553 24.2554815,10.226557 C24.6843069,8.62615865 26.3293178,7.67641118 27.9297161,8.10523661 Z" id="Path" fill="url(#linearGradient-8)"></path>
    </g>
</svg>