<?xml version="1.0" encoding="UTF-8"?>
<svg width="96px" height="96px" viewBox="0 0 96 96" version="1.1" xmlns="http://www.w3.org/2000/svg" xmlns:xlink="http://www.w3.org/1999/xlink">
    <title>Icons (Solution)/PSP/1. Light positive/2. PSP light positive 96px</title>
    <defs>
        <linearGradient x1="0%" y1="100%" x2="100%" y2="0%" id="linearGradient-1">
            <stop stop-color="#007FFF" offset="0%"></stop>
            <stop stop-color="#007FFF" offset="24.6495927%"></stop>
            <stop stop-color="#6610F2" offset="100%"></stop>
        </linearGradient>
        <path d="M55.4837924,21.103492 L69.4837924,45.3522033 C71.1406467,48.2219591 70.1573957,51.8915015 67.28764,53.5483557 L60.1845204,57.649127 L66.5539353,59.3551956 C67.3889853,59.5084783 68.1540227,60.0133426 68.6117879,60.8062151 C69.0385758,61.5454335 69.1150099,62.3907871 68.8926112,63.1499969 L65.6147306,75.3794716 C65.1859052,76.9798699 63.5408943,77.9296174 61.940496,77.500792 C60.3400977,77.0719665 59.3903502,75.4269556 59.8191756,73.8265573 L61.2388827,68.5259687 L44.9970511,77.9042914 C43.5621733,78.7327185 41.7274021,78.241093 40.8989749,76.8062151 C40.0705478,75.3713373 40.5621733,73.5365661 41.9970511,72.7081389 L58.2267583,63.3368163 L52.9322808,61.918335 L52.8385204,61.890127 L29.1825222,75.5483557 C26.3127665,77.20521 22.6432241,76.2219591 20.9863698,73.3522033 L6.98636981,49.103492 C5.32951556,46.2337363 6.31276649,42.5641938 9.18252223,40.9073396 L47.28764,18.9073396 C50.1573957,17.2504853 53.8269382,18.2337363 55.4837924,21.103492 Z M75.8185044,8.1070941 L87.8872447,11.3395097 C88.7222947,11.4927924 89.4873321,11.9976567 89.9450972,12.7905293 C90.3718851,13.5297476 90.4483193,14.3751012 90.2259206,15.134311 L86.94804,27.3637857 C86.5192145,28.964184 84.8742037,29.9139315 83.2738054,29.4851061 C81.673407,29.0562806 80.7236596,27.4112698 81.152485,25.8108714 L82.572192,20.5102829 L66.3303605,29.8886055 C64.8954827,30.7170326 63.0607114,30.2254071 62.2322843,28.7905293 C61.4038572,27.3556514 61.8954827,25.5208802 63.3303605,24.692453 L79.5600677,15.3211304 L74.2655902,13.9026491 C72.6651919,13.4738236 71.7154444,11.8288128 72.1442698,10.2284144 C72.5730953,8.62801614 74.2181061,7.67826867 75.8185044,8.1070941 Z" id="path-2"></path>
        <filter x="-8.9%" y="-10.7%" width="117.8%" height="121.3%" filterUnits="objectBoundingBox" id="filter-3">
            <feOffset dx="0" dy="0" in="SourceAlpha" result="shadowOffsetOuter1"></feOffset>
            <feGaussianBlur stdDeviation="2.5" in="shadowOffsetOuter1" result="shadowBlurOuter1"></feGaussianBlur>
            <feColorMatrix values="0 0 0 0 0.062745098   0 0 0 0 0.117647059   0 0 0 0 0.117647059  0 0 0 0.3 0" type="matrix" in="shadowBlurOuter1"></feColorMatrix>
        </filter>
        <linearGradient x1="0%" y1="78.1224482%" x2="100%" y2="21.8775518%" id="linearGradient-4">
            <stop stop-color="#FDCA40" offset="0%"></stop>
            <stop stop-color="#FDCA40" offset="24.6093781%"></stop>
            <stop stop-color="#FFA400" offset="100%"></stop>
        </linearGradient>
        <linearGradient x1="3.57353036e-13%" y1="91.281928%" x2="99.0041453%" y2="9.54028806%" id="linearGradient-5">
            <stop stop-color="#344055" offset="0%"></stop>
            <stop stop-color="#344055" offset="25%"></stop>
            <stop stop-color="#5D6677" offset="100%"></stop>
        </linearGradient>
        <linearGradient x1="0%" y1="83.6835216%" x2="100%" y2="16.3164784%" id="linearGradient-6">
            <stop stop-color="#EFF0F2" offset="0%"></stop>
            <stop stop-color="#EFF0F2" offset="24.7309791%"></stop>
            <stop stop-color="#FFFFFF" offset="100%"></stop>
        </linearGradient>
    </defs>
    <g id="Icons-(Solution)/PSP/1.-Light-positive/2.-PSP-light-positive-96px" stroke="none" stroke-width="1" fill="none" fill-rule="evenodd">
        <path d="M88,47.995686 C88,70.0867971 70.0911111,87.995686 48,87.995686 C25.9088889,87.995686 8,70.0867971 8,47.995686 C8,25.9045749 25.9088889,7.995686 48,7.995686 C70.0911111,7.995686 88,25.9045749 88,47.995686" id="Gradient" fill="url(#linearGradient-1)"></path>
        <g id="Shadow" style="mix-blend-mode: multiply;" fill="black" fill-opacity="1">
            <use filter="url(#filter-3)" xlink:href="#path-2"></use>
        </g>
        <path d="M77.8185044,5.10709423 L89.8872447,8.33950981 C90.7222947,8.4927925 91.4873321,8.99765687 91.9450972,9.79052938 C92.023745,9.92675132 92.0904953,10.0665774 92.1456705,10.2088045 L92.345137,10.2082223 L92.345137,11.2082223 L92.3468001,11.3535082 C92.3409827,11.6185997 92.3000535,11.8812412 92.2259206,12.1343111 L88.94804,24.3637858 C88.5192145,25.9641842 86.8742037,26.9139316 85.2738054,26.4851062 C83.9380107,26.1271811 83.0555009,24.9219837 83.0495482,23.6026428 L83.049216,22.6028124 L83.2076264,22.6021271 L84.572192,17.510283 L68.3303605,26.8886056 C66.8954827,27.7170327 65.0607114,27.2254073 64.2322843,25.7905294 C63.9622071,25.3227419 63.8324301,24.8124522 63.8298974,24.3083862 L63.8286264,23.3085059 L63.9955364,23.3086661 C64.2231982,22.6504458 64.6798432,22.0680295 65.3303605,21.6924532 L81.5600677,12.3211306 L76.2655902,10.9026492 C74.9303466,10.5448718 74.048014,9.34052093 74.0413408,8.02181865 L74.0411112,7.02115782 L74.2078143,7.02105133 C74.7177355,5.54712599 76.2885069,4.69713263 77.8185044,5.10709423 Z" id="Combined-Shape" fill="#9D8532"></path>
        <path d="M84.197173,5.67105744 L93.0328008,14.5047816 C93.679334,15.0550533 94.0894436,15.8747973 94.0894436,16.7903277 C94.0894436,17.6439035 93.7329607,18.4142182 93.1607529,18.9605139 L84.2072877,27.9126093 C83.0357148,29.0841822 81.1362199,29.0841822 79.964647,27.9126093 C78.7930741,26.7410365 78.7930741,24.8415415 79.964647,23.6699686 L83.8444436,19.7893778 L65.0894436,19.7903277 C63.4325894,19.7903277 62.0894436,18.4471819 62.0894436,16.7903277 C62.0894436,15.1334734 63.4325894,13.7903277 65.0894436,13.7903277 L83.8304436,13.7893778 L79.9545323,9.91369812 C78.7829594,8.74212525 78.7829594,6.84263031 79.9545323,5.67105744 C81.1261052,4.49948456 83.0256001,4.49948456 84.197173,5.67105744 Z" id="Solid" fill="url(#linearGradient-4)" transform="translate(78.089444, 16.791833) rotate(-30.000000) translate(-78.089444, -16.791833) "></path>
        <path d="M47.28764,16.90734 C50.1573957,15.2504858 53.8269382,16.2337367 55.4837924,19.1034924 L69.4837924,43.3522037 C69.6973983,43.7221799 69.8671229,44.1054494 69.9945811,44.4959855 L70.2900128,44.4956862 L70.2900128,46.4956862 C70.2363557,48.5167616 69.166183,50.4637789 67.28764,51.5483562 L29.1825222,73.5483562 C26.3127665,75.2052104 22.6432241,74.2219595 20.9863698,71.3522037 L6.98636981,47.1034924 C6.41974,46.1220608 6.16189182,45.0470877 6.18268227,43.9910682 L6.17717028,41.9909455 L6.56654486,41.9909382 C7.03789456,40.7357333 7.93073557,39.6300594 9.18252223,38.90734 Z" id="Combined-Shape" fill="#101E1E"></path>
        <path d="M6.98636981,45.1034924 L20.9863698,69.3522037 C22.6432241,72.2219595 26.3127665,73.2052104 29.1825222,71.5483562 L67.28764,49.5483562 C70.1573957,47.8915019 71.1406467,44.2219595 69.4837924,41.3522037 L55.4837924,17.1034924 C53.8269382,14.2337367 50.1573957,13.2504858 47.28764,14.90734 L9.18252223,36.90734 C6.31276649,38.5641942 5.32951556,42.2337367 6.98636981,45.1034924 Z" id="Solid" fill="url(#linearGradient-5)"></path>
        <path d="M26.994805,49.7591188 C25.070217,46.4256346 26.205946,42.1633677 29.5340717,40.2295281 L39.9409784,34.1824948 C43.2019081,32.2877001 47.3614788,33.3299048 49.3540963,36.4968048 L49.4934114,36.7278481 C51.426408,40.0758964 50.2792819,44.3570293 46.9312335,46.2900259 L36.507658,52.3080801 C33.1768799,54.2311057 28.9178306,53.0898968 26.994805,49.7591188 Z" id="Solid" fill="url(#linearGradient-6)"></path>
        <path d="M54.4851951,53.1227802 L66.5539353,56.3551958 C67.3889853,56.5084785 68.1540227,57.0133429 68.6117879,57.8062154 C68.6904356,57.9424373 68.7571859,58.0822634 68.8123611,58.2244905 L69.0118276,58.2239083 L69.0118276,59.2239083 L69.0134908,59.3691942 C69.0076734,59.6342857 68.9667441,59.8969272 68.8926112,60.1499971 L65.6147306,72.3794718 C65.1859052,73.9798702 63.5408943,74.9296176 61.940496,74.5007922 C60.6047013,74.1428671 59.7221916,72.9376697 59.7162388,71.6183288 L59.7159067,70.6184984 L59.874317,70.6178131 L61.2388827,65.525969 L44.9970511,74.9042916 C43.5621733,75.7327187 41.7274021,75.2410933 40.8989749,73.8062154 C40.6288977,73.3384279 40.4991208,72.8281382 40.496588,72.3240722 L40.495317,71.3241919 L40.6622271,71.3243521 C40.8898888,70.6661318 41.3465338,70.0837155 41.9970511,69.7081392 L58.2267583,60.3368166 L52.9322808,58.9183352 C51.5970372,58.5605578 50.7147046,57.3562069 50.7080315,56.0375046 L50.7078019,55.0368438 L50.8745049,55.0367373 C51.3844261,53.562812 52.9551975,52.7128186 54.4851951,53.1227802 Z" id="Combined-Shape" fill="#9D8532"></path>
        <path d="M60.8638636,53.6867434 L69.6994914,62.5204676 C70.3460246,63.0707393 70.7561343,63.8904833 70.7561343,64.8060137 C70.7561343,65.6595895 70.3996513,66.4299042 69.8274436,66.9761999 L60.8739783,75.9282953 C59.7024054,77.0998682 57.8029105,77.0998682 56.6313376,75.9282953 C55.4597647,74.7567225 55.4597647,72.8572275 56.6313376,71.6856546 L60.5111343,67.8050638 L41.7561343,67.8060137 C40.09928,67.8060137 38.7561343,66.4628679 38.7561343,64.8060137 C38.7561343,63.1491594 40.09928,61.8060137 41.7561343,61.8060137 L60.4971343,61.8050638 L56.6212229,57.9293841 C55.44965,56.7578112 55.44965,54.8583163 56.6212229,53.6867434 C57.7927958,52.5151706 59.6922907,52.5151706 60.8638636,53.6867434 Z" id="Solid" fill="url(#linearGradient-4)" transform="translate(54.756134, 64.807519) rotate(-30.000000) translate(-54.756134, -64.807519) "></path>
    </g>
</svg>