<svg width="96" height="96" viewBox="0 0 96 96" fill="none" xmlns="http://www.w3.org/2000/svg">
<circle cx="14" cy="69" r="7" fill="url(#paint0_radial_201_36406)"/>
<path fill-rule="evenodd" clip-rule="evenodd" d="M88 48C88 70.0911 70.0911 88 48 88C25.9089 88 8 70.0911 8 48C8 25.9089 25.9089 8 48 8C70.0911 8 88 25.9089 88 48" fill="url(#paint1_radial_201_36406)"/>
<mask id="mask0_201_36406" style="mask-type:alpha" maskUnits="userSpaceOnUse" x="8" y="8" width="80" height="80">
<path fill-rule="evenodd" clip-rule="evenodd" d="M88 48C88 70.0911 70.0911 88 48 88C25.9089 88 8 70.0911 8 48C8 25.9089 25.9089 8 48 8C70.0911 8 88 25.9089 88 48" fill="url(#paint2_radial_201_36406)"/>
</mask>
<g mask="url(#mask0_201_36406)">
<g style="mix-blend-mode:multiply" filter="url(#filter0_d_201_36406)">
<circle cx="12" cy="32" r="9" transform="rotate(180 12 32)" fill="white" fill-opacity="0.01"/>
</g>
</g>
<path d="M84.1538 48C84.1538 67.8823 68.0361 84 48.1538 84V12C68.0361 12 84.1538 28.1177 84.1538 48Z" fill="url(#paint3_linear_201_36406)"/>
<path d="M64 48C64 67.8823 67.8823 84 48 84C36.1177 84 26 67.8823 26 48C26 28.1177 36.1177 12 48 12C58.9013 12 64.6584 19.8454 65.8283 27.5C66.7921 33.8062 64 39.019 64 48Z" fill="url(#paint4_linear_201_36406)"/>
<path d="M84 48C84 67.8823 67.8822 84 48 84V12C67.8822 12 84 28.1177 84 48Z" fill="url(#paint5_linear_201_36406)"/>
<path d="M48.1538 83C42.513 83 37.2476 79.281 33.3404 72.9317C29.4431 66.5987 27 57.7865 27 48C27 38.2135 29.4431 29.4013 33.3404 23.0683C37.2476 16.719 42.513 13 48.1538 13C67.4838 13 83.1538 28.67 83.1538 48C83.1538 67.33 67.4838 83 48.1538 83Z" stroke="url(#paint6_linear_201_36406)" stroke-width="2"/>
<g style="mix-blend-mode:multiply" filter="url(#filter1_d_201_36406)">
<circle cx="48" cy="52" r="14" transform="rotate(180 48 52)" fill="white" fill-opacity="0.01"/>
</g>
<circle cx="48" cy="48" r="14" transform="rotate(180 48 48)" fill="url(#paint7_radial_201_36406)"/>
<circle cx="89" cy="25" r="4" fill="url(#paint8_radial_201_36406)"/>
<circle cx="12" cy="28" r="9" transform="rotate(180 12 28)" fill="url(#paint9_radial_201_36406)"/>
<defs>
<filter id="filter0_d_201_36406" x="-5" y="15" width="34" height="34" filterUnits="userSpaceOnUse" color-interpolation-filters="sRGB">
<feFlood flood-opacity="0" result="BackgroundImageFix"/>
<feColorMatrix in="SourceAlpha" type="matrix" values="0 0 0 0 0 0 0 0 0 0 0 0 0 0 0 0 0 0 127 0" result="hardAlpha"/>
<feOffset/>
<feGaussianBlur stdDeviation="4"/>
<feColorMatrix type="matrix" values="0 0 0 0 0.0627451 0 0 0 0 0.117647 0 0 0 0 0.117647 0 0 0 0.3 0"/>
<feBlend mode="normal" in2="BackgroundImageFix" result="effect1_dropShadow_201_36406"/>
<feBlend mode="normal" in="SourceGraphic" in2="effect1_dropShadow_201_36406" result="shape"/>
</filter>
<filter id="filter1_d_201_36406" x="29" y="33" width="38" height="38" filterUnits="userSpaceOnUse" color-interpolation-filters="sRGB">
<feFlood flood-opacity="0" result="BackgroundImageFix"/>
<feColorMatrix in="SourceAlpha" type="matrix" values="0 0 0 0 0 0 0 0 0 0 0 0 0 0 0 0 0 0 127 0" result="hardAlpha"/>
<feOffset/>
<feGaussianBlur stdDeviation="2.5"/>
<feColorMatrix type="matrix" values="0 0 0 0 0.0627451 0 0 0 0 0.117647 0 0 0 0 0.117647 0 0 0 0.3 0"/>
<feBlend mode="normal" in2="BackgroundImageFix" result="effect1_dropShadow_201_36406"/>
<feBlend mode="normal" in="SourceGraphic" in2="effect1_dropShadow_201_36406" result="shape"/>
</filter>
<radialGradient id="paint0_radial_201_36406" cx="0" cy="0" r="1" gradientUnits="userSpaceOnUse" gradientTransform="translate(7 76) rotate(-45) scale(19.799)">
<stop stop-color="#04E4F4"/>
<stop offset="0.247221" stop-color="#04E4F4"/>
<stop offset="1" stop-color="#007FFF"/>
</radialGradient>
<radialGradient id="paint1_radial_201_36406" cx="0" cy="0" r="1" gradientUnits="userSpaceOnUse" gradientTransform="translate(8 88) rotate(-45) scale(113.137)">
<stop stop-color="#101E1E"/>
<stop offset="0.25" stop-color="#101E1E"/>
<stop offset="1" stop-color="#344055"/>
</radialGradient>
<radialGradient id="paint2_radial_201_36406" cx="0" cy="0" r="1" gradientUnits="userSpaceOnUse" gradientTransform="translate(8 88) rotate(-45) scale(113.137)">
<stop stop-color="#101E1E"/>
<stop offset="0.25" stop-color="#101E1E"/>
<stop offset="1" stop-color="#344055"/>
</radialGradient>
<linearGradient id="paint3_linear_201_36406" x1="48.1538" y1="84" x2="105.754" y2="55.2" gradientUnits="userSpaceOnUse">
<stop stop-color="#101E1E"/>
<stop offset="0.25" stop-color="#101E1E"/>
<stop offset="1" stop-color="#344055"/>
</linearGradient>
<linearGradient id="paint4_linear_201_36406" x1="26" y1="84" x2="87.1568" y2="49.9979" gradientUnits="userSpaceOnUse">
<stop stop-color="#007FFF"/>
<stop offset="0.246496" stop-color="#007FFF"/>
<stop offset="1" stop-color="#6610F2"/>
</linearGradient>
<linearGradient id="paint5_linear_201_36406" x1="48" y1="84" x2="105.6" y2="55.2" gradientUnits="userSpaceOnUse">
<stop stop-color="#007FFF"/>
<stop offset="0.246496" stop-color="#007FFF"/>
<stop offset="1" stop-color="#6610F2"/>
</linearGradient>
<linearGradient id="paint6_linear_201_36406" x1="26" y1="84" x2="96.3885" y2="27.1477" gradientUnits="userSpaceOnUse">
<stop stop-color="#0658A5"/>
<stop offset="0.246496" stop-color="#0658A5"/>
<stop offset="1" stop-color="#43159D"/>
</linearGradient>
<radialGradient id="paint7_radial_201_36406" cx="0" cy="0" r="1" gradientUnits="userSpaceOnUse" gradientTransform="translate(34 62) rotate(-45) scale(39.598)">
<stop stop-color="#FDCA40"/>
<stop offset="0.246094" stop-color="#FDCA40"/>
<stop offset="1" stop-color="#FFA400"/>
</radialGradient>
<radialGradient id="paint8_radial_201_36406" cx="0" cy="0" r="1" gradientUnits="userSpaceOnUse" gradientTransform="translate(85 29) rotate(-45) scale(11.3137)">
<stop stop-color="#04E4F4"/>
<stop offset="0.247221" stop-color="#04E4F4"/>
<stop offset="1" stop-color="#007FFF"/>
</radialGradient>
<radialGradient id="paint9_radial_201_36406" cx="0" cy="0" r="1" gradientUnits="userSpaceOnUse" gradientTransform="translate(3 37) rotate(-45) scale(25.4558)">
<stop stop-color="white"/>
<stop offset="0.25" stop-color="white"/>
<stop offset="1" stop-color="#AEB3BB"/>
</radialGradient>
</defs>
</svg>
