<?xml version="1.0" encoding="UTF-8"?>
<svg width="160px" height="128px" viewBox="0 0 160 128" version="1.1" xmlns="http://www.w3.org/2000/svg" xmlns:xlink="http://www.w3.org/1999/xlink">
    <title>Icons (Solution)/MMC/2. Light diapositive/1. MMC light diapositive 160px</title>
    <defs>
        <linearGradient x1="0%" y1="100%" x2="100%" y2="0%" id="linearGradient-1">
            <stop stop-color="#EFF0F2" offset="0%"></stop>
            <stop stop-color="#EFF0F2" offset="24.7309791%"></stop>
            <stop stop-color="#FFFFFF" offset="100%"></stop>
        </linearGradient>
        <path d="M19.3826859,96.9103011 L19.3826859,20.9103011 C19.3826859,16.4920231 22.9644079,12.9103011 27.3826859,12.9103011 L65.3826859,12.9103011 C69.8009639,12.9103011 73.3826859,16.4920231 73.3826859,20.9103011 L73.3826859,96.9103011 C73.3826859,101.328579 69.8009639,104.910301 65.3826859,104.910301 L27.3826859,104.910301 C22.9644079,104.910301 19.3826859,101.328579 19.3826859,96.9103011 Z" id="path-2"></path>
        <filter x="-22.2%" y="-13.0%" width="144.4%" height="126.1%" filterUnits="objectBoundingBox" id="filter-3">
            <feOffset dx="0" dy="0" in="SourceAlpha" result="shadowOffsetOuter1"></feOffset>
            <feGaussianBlur stdDeviation="4" in="shadowOffsetOuter1" result="shadowBlurOuter1"></feGaussianBlur>
            <feColorMatrix values="0 0 0 0 0.062745098   0 0 0 0 0.117647059   0 0 0 0 0.117647059  0 0 0 0.3 0" type="matrix" in="shadowBlurOuter1"></feColorMatrix>
        </filter>
        <linearGradient x1="12.103918%" y1="100%" x2="87.1413022%" y2="0.995854731%" id="linearGradient-4">
            <stop stop-color="#344055" offset="0%"></stop>
            <stop stop-color="#344055" offset="25%"></stop>
            <stop stop-color="#5D6677" offset="100%"></stop>
        </linearGradient>
        <linearGradient x1="13.539179%" y1="100%" x2="85.7346274%" y2="0.995854731%" id="linearGradient-5">
            <stop stop-color="#101E1E" offset="0%"></stop>
            <stop stop-color="#101E1E" offset="25%"></stop>
            <stop stop-color="#344055" offset="100%"></stop>
        </linearGradient>
        <path d="M3.00100185,18.8048494 L34.1779164,0.804849429 C37.0476721,-0.852004821 40.7172146,0.131246111 42.3740688,3.00100185 L78.3740688,65.3548309 C80.0309231,68.2245867 79.0476721,71.8941291 76.1779164,73.5509833 L44.1349764,92.0509833 C41.7435133,93.4316952 38.6855613,92.6123194 37.3048494,90.2208563 L0.804849429,27.0010019 C-0.852004821,24.1312461 0.131246111,20.4617037 3.00100185,18.8048494 Z" id="path-6"></path>
        <linearGradient x1="0.101753715%" y1="59.164984%" x2="100%" y2="40.8163265%" id="linearGradient-8">
            <stop stop-color="#FFC866" offset="0%"></stop>
            <stop stop-color="#FFDB99" offset="100%"></stop>
        </linearGradient>
        <linearGradient x1="0.101753715%" y1="99.8982463%" x2="100%" y2="0%" id="linearGradient-9">
            <stop stop-color="#FFC866" offset="0%"></stop>
            <stop stop-color="#FFDB99" offset="100%"></stop>
        </linearGradient>
        <linearGradient x1="0%" y1="100%" x2="100%" y2="0%" id="linearGradient-10">
            <stop stop-color="#FDCA40" offset="0%"></stop>
            <stop stop-color="#FDCA40" offset="24.6093781%"></stop>
            <stop stop-color="#FFA400" offset="100%"></stop>
        </linearGradient>
        <linearGradient x1="0%" y1="80.6298834%" x2="100%" y2="19.3701166%" id="linearGradient-11">
            <stop stop-color="#FDCA40" offset="0%"></stop>
            <stop stop-color="#FDCA40" offset="24.6093781%"></stop>
            <stop stop-color="#FFA400" offset="100%"></stop>
        </linearGradient>
    </defs>
    <g id="Icons-(Solution)/MMC/2.-Light-diapositive/1.-MMC-light-diapositive-160px" stroke="none" stroke-width="1" fill="none" fill-rule="evenodd">
        <g id="Icons-(Solution)/MMC/1.-3D/1.-Primary/1.-MMC-160px" transform="translate(5.966025, 6.026867)">
            <path d="M62.0339746,113.973133 C31.106419,113.973133 6.0339746,88.9006881 6.0339746,57.9731326 C6.0339746,27.045577 31.106419,1.97313257 62.0339746,1.97313257 C92.9615302,1.97313257 118.033975,27.045577 118.033975,57.9731326 C118.033975,88.9006881 92.9615302,113.973133 62.0339746,113.973133 Z" id="Gradient" fill="url(#linearGradient-1)"></path>
            <g id="Shadow" style="mix-blend-mode: multiply;" transform="translate(46.382686, 58.910301) rotate(-30.000000) translate(-46.382686, -58.910301) " fill="black" fill-opacity="1">
                <use filter="url(#filter-3)" xlink:href="#path-2"></use>
            </g>
            <path d="M49.6313972,6.0013358 L87.6313972,71.8192665 C88.018763,72.4902037 88.2978966,73.1939284 88.4742152,73.9102235 L88.7026859,73.9103011 L88.7031316,75.6623365 C88.7558492,78.4793575 87.315906,81.2390197 84.703194,82.7474697 L50.0621778,102.74747 C46.2358368,104.956609 41.3431136,103.645607 39.1339746,99.8192665 L1.1339746,34.0013358 C0.388949177,32.7109139 0.0442887182,31.2992065 0.0614521317,29.9100509 L0.0550167585,27.9103011 L0.340186038,27.9106791 C0.873386361,25.9411383 2.15549266,24.1739578 4.06217783,23.0731326 L38.703194,3.07313257 C42.529535,0.863993572 47.4222582,2.17499481 49.6313972,6.0013358 Z" id="Combined-Shape" fill="#101E1E"></path>
            <path d="M39.1339746,97.8192665 L1.1339746,32.0013358 C-1.0751644,28.1749948 0.235836839,23.2822716 4.06217783,21.0731326 L38.703194,1.07313257 C42.529535,-1.13600643 47.4222582,0.174994814 49.6313972,4.0013358 L87.6313972,69.8192665 C89.8405362,73.6456075 88.529535,78.5383307 84.703194,80.7474697 L50.0621778,100.74747 C46.2358368,102.956609 41.3431136,101.645607 39.1339746,97.8192665 Z" id="Solid" fill="url(#linearGradient-4)"></path>
            <g id="new-screen" transform="translate(4.789125, 4.728283)">
                <mask id="mask-7" fill="white">
                    <use xlink:href="#path-6"></use>
                </mask>
                <use fill="url(#linearGradient-5)" xlink:href="#path-6"></use>
                <path d="M60.0894591,76.4888055 C60.0894591,74.832016 58.746092,73.4888055 57.0891091,73.4888055 C55.4321263,73.4888055 54.0894591,74.832016 54.0894591,76.4888055 C54.0894591,78.1455951 55.4321263,79.4888055 57.0891091,79.4888055 C58.746092,79.4888055 60.0894591,78.1455951 60.0894591,76.4888055" id="new-button" fill="url(#linearGradient-1)" mask="url(#mask-7)"></path>
                <path d="M34.1794513,0.804849429 C37.049207,-0.852004821 40.7187495,0.131246111 42.3756037,3.00100185 L72.3241925,54.8739262 C55.2509361,63.5257878 34.3742197,63.8509991 16.4196117,54.0474496 L0.806384342,27.0010019 C-0.850469907,24.1312461 0.132781024,20.4617037 3.00253676,18.8048494 L34.1794513,0.804849429 Z" id="Path" fill-opacity="0.05" fill="#FFFFFF" mask="url(#mask-7)"></path>
            </g>
            <path d="M81.9890924,38.4179963 C81.9890924,36.7611421 83.3322381,35.4179963 84.9890924,35.4179963 L92.9890924,35.4179963 C94.6459466,35.4179963 95.9890924,36.7611421 95.9890924,38.4179963 C95.9890924,40.0748505 94.6459466,41.4179963 92.9890924,41.4179963 L84.9890924,41.4179963 C83.3322381,41.4179963 81.9890924,40.0748505 81.9890924,38.4179963 Z" id="Fill-8-Copy-2" fill="url(#linearGradient-8)" transform="translate(88.989092, 38.417996) rotate(-30.000000) translate(-88.989092, -38.417996) "></path>
            <path d="M100.871778,9.92761524 C100.871778,8.27076099 102.214924,6.92761524 103.871778,6.92761524 L111.871778,6.92761524 C113.528633,6.92761524 114.871778,8.27076099 114.871778,9.92761524 C114.871778,11.5844695 113.528633,12.9276152 111.871778,12.9276152 L103.871778,12.9276152 C102.214924,12.9276152 100.871778,11.5844695 100.871778,9.92761524 Z" id="Fill-8-Copy-3" fill="url(#linearGradient-8)" transform="translate(107.871778, 9.927615) rotate(-30.000000) translate(-107.871778, -9.927615) "></path>
            <path d="M52.6326859,19.5712088 C52.6326859,17.9143545 53.9758317,16.5712088 55.6326859,16.5712088 L63.6326859,16.5712088 C65.2895402,16.5712088 66.6326859,17.9143545 66.6326859,19.5712088 C66.6326859,21.228063 65.2895402,22.5712088 63.6326859,22.5712088 L55.6326859,22.5712088 C53.9758317,22.5712088 52.6326859,21.228063 52.6326859,19.5712088 Z" id="Fill-8-Copy-4" fill="url(#linearGradient-8)" transform="translate(59.632686, 19.571209) rotate(-30.000000) translate(-59.632686, -19.571209) "></path>
            <path d="M143.548905,12.1137817 C142.114392,11.2855654 141.622767,9.45079715 142.450984,8.01628439 C143.2792,6.58177162 145.113968,6.09014695 146.548481,6.91836328 C147.982994,7.74657961 148.474618,9.58134787 147.646402,11.0158606 C146.818186,12.4503734 144.983417,12.9419981 143.548905,12.1137817 Z" id="Fill-16-Copy" fill="url(#linearGradient-9)" transform="translate(145.048693, 9.516073) rotate(-30.000000) translate(-145.048693, -9.516073) "></path>
            <path d="M64.4189232,59.5439088 C62.9844104,58.7156924 62.4927857,56.8809242 63.3210021,55.4464114 C64.1492184,54.0118986 65.9839867,53.520274 67.4184994,54.3484903 C68.8530122,55.1767066 69.3446369,57.0114749 68.5164205,58.4459877 C67.6882042,59.8805004 65.8534359,60.3721251 64.4189232,59.5439088 Z" id="Fill-16-Copy-2" fill="url(#linearGradient-9)" transform="translate(65.918711, 56.946200) rotate(-30.000000) translate(-65.918711, -56.946200) "></path>
            <path d="M143.534186,35.5708418 C142.099674,34.7426255 141.608049,32.9078572 142.436265,31.4733444 C143.264482,30.0388317 145.09925,29.547207 146.533763,30.3754233 C147.968275,31.2036397 148.4599,33.0384079 147.631684,34.4729207 C146.803467,35.9074335 144.968699,36.3990581 143.534186,35.5708418 Z" id="Fill-16-Copy-3" fill="url(#linearGradient-9)"></path>
            <path d="M131.320476,53.8120038 C127.973279,51.879499 126.826155,47.5983731 128.75866,44.2511766 C130.691165,40.9039802 134.972291,39.7568559 138.319487,41.6893607 C141.666684,43.6218655 142.813808,47.9029914 140.881303,51.2501879 C138.948798,54.5973843 134.667672,55.7445086 131.320476,53.8120038 Z" id="Fill-12" fill="url(#linearGradient-10)"></path>
            <path d="M101.145365,47.8327138 C103.513535,49.1999772 105.025242,51.4805695 105.492396,53.9725335 L105.647048,53.9731326 L105.647048,55.9731326 C105.587389,57.3892342 105.197709,58.8138486 104.439594,60.1269424 C101.954094,64.4319547 96.4503776,65.9066711 92.1453653,63.4211711 C89.3674878,61.8173627 87.768055,58.9568654 87.6506407,55.9726313 L87.6436828,53.9731326 L87.7961874,53.9722464 C87.9786298,52.9968557 88.3267424,52.03522 88.8511367,51.1269424 C91.3366367,46.8219302 96.8403531,45.3472138 101.145365,47.8327138 Z" id="Combined-Shape" fill="#9D8532"></path>
            <path d="M92.1453653,61.4211711 C87.8403531,58.9356711 86.3656367,53.4319547 88.8511367,49.1269424 C91.3366367,44.8219302 96.8403531,43.3472138 101.145365,45.8327138 C105.450378,48.3182138 106.925094,53.8219302 104.439594,58.1269424 C101.954094,62.4319547 96.4503776,63.9066711 92.1453653,61.4211711 Z" id="Fill-14" fill="url(#linearGradient-10)"></path>
            <path d="M83.5358662,17.0344541 C80.1886697,15.1019493 79.0415455,10.8208234 80.9740502,7.47362695 C82.906555,4.12643049 87.187681,2.97930625 90.5348774,4.91181103 C93.8820739,6.8443158 95.0291981,11.1254417 93.0966933,14.4726382 C91.1641886,17.8198347 86.8830626,18.9669589 83.5358662,17.0344541 Z" id="Fill-16" fill="url(#linearGradient-10)"></path>
            <path d="M134.758074,28.2685639 L115.705236,39.2687247 C111.400679,41.7539616 105.896464,40.2791116 103.411227,35.9745549 C102.582815,34.5397027 102.194412,32.9715551 102.204153,31.4263578 L102.203975,29.4731326 L102.431038,29.4721772 C102.969101,27.1170264 104.448215,24.9837306 106.705397,23.680546 L125.758234,12.6803851 C130.062791,10.1951482 135.567006,11.6699982 138.052243,15.9745549 C138.51427,16.7748089 138.839428,17.6165254 139.034981,18.4725983 L139.258975,18.4731326 L139.259317,20.522752 C139.239835,23.6131464 137.627778,26.6117392 134.758074,28.2685639 Z" id="Combined-Shape" fill="#9D8532"></path>
            <path d="M103.411227,33.9745549 C100.92599,29.6699982 102.40084,24.1657829 106.705397,21.680546 L125.758234,10.6803851 C130.062791,8.19514818 135.567006,9.66999822 138.052243,13.9745549 C140.53748,18.2791116 139.06263,23.7833269 134.758074,26.2685639 L115.705236,37.2687247 C111.400679,39.7539616 105.896464,38.2791116 103.411227,33.9745549 Z" id="Fill-8-Copy-5" fill="url(#linearGradient-11)"></path>
            <path d="M74.7880735,41.6685639 L55.7352361,52.6687247 C51.4306794,55.1539616 45.9264641,53.6791116 43.4412272,49.3745549 C42.6128148,47.9397027 42.2244122,46.3715551 42.2341533,44.8263578 L42.2339746,42.8731326 L42.4610375,42.8721772 C42.9991012,40.5170264 44.4782149,38.3837306 46.7353969,37.080546 L65.7882344,26.0803851 C70.0927911,23.5951482 75.5970064,25.0699982 78.0822433,29.3745549 C78.5442702,30.1748089 78.8694285,31.0165254 79.0649814,31.8725983 L79.2889746,31.8731326 L79.2893172,33.922752 C79.2698351,37.0131464 77.657778,40.0117392 74.7880735,41.6685639 Z" id="Combined-Shape" fill="#9D8532"></path>
            <path d="M43.4412272,47.3745549 C40.9559902,43.0699982 42.4308402,37.5657829 46.7353969,35.080546 L65.7882344,24.0803851 C70.0927911,21.5951482 75.5970064,23.0699982 78.0822433,27.3745549 C80.5674803,31.6791116 79.0926302,37.1833269 74.7880735,39.6685639 L55.7352361,50.6687247 C51.4306794,53.1539616 45.9264641,51.6791116 43.4412272,47.3745549 Z" id="Fill-8-Copy-5" fill="url(#linearGradient-11)"></path>
        </g>
    </g>
</svg>