<?xml version="1.0" encoding="UTF-8"?>
<svg width="160px" height="128px" viewBox="0 0 160 128" version="1.1" xmlns="http://www.w3.org/2000/svg" xmlns:xlink="http://www.w3.org/1999/xlink">
    <title>Icons (Solution)/Sign/1. Light positive/1. Sign light positive 160px</title>
    <defs>
        <linearGradient x1="0%" y1="100%" x2="100%" y2="0%" id="linearGradient-1">
            <stop stop-color="#007FFF" offset="0%"></stop>
            <stop stop-color="#007FFF" offset="24.6495927%"></stop>
            <stop stop-color="#6610F2" offset="100%"></stop>
        </linearGradient>
        <path d="M64,22 C70.627417,22 76,27.372583 76,34 L76,72.187 L95.8497277,106.56759 L96.0031993,106.816435 C97.4403345,109.001471 100.360643,109.706327 102.666697,108.374927 C105.05816,106.994215 105.883427,103.946466 104.509982,101.56759 L91.2468239,78.5951265 L91.0323909,78.2109273 C87.2164087,71.1335473 89.7304033,62.2412848 96.7766786,58.1731158 C103.951068,54.0309802 113.107251,56.4584971 117.227586,63.5951265 L124.688112,76.5171371 L124.841584,76.7659819 C126.278719,78.9510184 129.199028,79.6558747 131.505081,78.324474 C133.896545,76.9437621 134.721811,73.8960136 133.348366,71.5171371 L133.209596,71.2598044 C132.035867,68.9226906 132.885598,66.041201 135.191651,64.7098002 C137.583114,63.3290883 140.635175,64.1382606 142.00862,66.5171371 C146.128955,73.6537665 143.653155,82.7970121 136.478766,86.9391477 C129.304376,91.0812833 120.148193,88.6537665 116.027858,81.5171371 L108.567332,68.5951265 L108.41386,68.3462816 C106.976725,66.1612452 104.056417,65.4563889 101.750363,66.7877896 C99.3588997,68.1685015 98.5336329,71.21625 99.9070779,73.5951265 L113.170236,96.5675898 L113.384669,96.9517889 C117.200651,104.029169 114.686656,112.921432 107.640381,116.9896 C100.465992,121.131736 91.3098086,118.704219 87.1894737,111.56759 L76,92.188 L76,94 C76,100.525457 70.7914556,105.834393 64.3049748,105.9962 L64,106 L26,106 C19.372583,106 14,100.627417 14,94 L14,46 L26.3043478,35.599937 L38,22 Z" id="path-2"></path>
        <filter x="-9.2%" y="-12.4%" width="118.5%" height="124.7%" filterUnits="objectBoundingBox" id="filter-3">
            <feOffset dx="0" dy="0" in="SourceAlpha" result="shadowOffsetOuter1"></feOffset>
            <feGaussianBlur stdDeviation="4" in="shadowOffsetOuter1" result="shadowBlurOuter1"></feGaussianBlur>
            <feColorMatrix values="0 0 0 0 0.062745098   0 0 0 0 0.117647059   0 0 0 0 0.117647059  0 0 0 0.3 0" type="matrix" in="shadowBlurOuter1"></feColorMatrix>
        </filter>
        <linearGradient x1="20.9750567%" y1="100%" x2="78.4468508%" y2="0.995854731%" id="linearGradient-4">
            <stop stop-color="#344055" offset="0%"></stop>
            <stop stop-color="#344055" offset="25%"></stop>
            <stop stop-color="#5D6677" offset="100%"></stop>
        </linearGradient>
        <linearGradient x1="25.3899173%" y1="100%" x2="74.6100827%" y2="0%" id="linearGradient-5">
            <stop stop-color="#EFF0F2" offset="0%"></stop>
            <stop stop-color="#EFF0F2" offset="24.7309791%"></stop>
            <stop stop-color="#FFFFFF" offset="100%"></stop>
        </linearGradient>
        <linearGradient x1="0%" y1="100%" x2="100%" y2="0%" id="linearGradient-6">
            <stop stop-color="#04E4F4" offset="0%"></stop>
            <stop stop-color="#04E4F4" offset="24.7220569%"></stop>
            <stop stop-color="#007FFF" offset="100%"></stop>
        </linearGradient>
        <linearGradient x1="0%" y1="81.6329266%" x2="100%" y2="18.3670734%" id="linearGradient-7">
            <stop stop-color="#FDCA40" offset="0%"></stop>
            <stop stop-color="#FDCA40" offset="24.6093781%"></stop>
            <stop stop-color="#FFA400" offset="100%"></stop>
        </linearGradient>
        <linearGradient x1="7.38601794%" y1="99.8982463%" x2="92.7008815%" y2="0%" id="linearGradient-8">
            <stop stop-color="#FFC866" offset="0%"></stop>
            <stop stop-color="#FFDB99" offset="100%"></stop>
        </linearGradient>
    </defs>
    <g id="Icons-(Solution)/Sign/1.-Light-positive/1.-Sign-light-positive-160px" stroke="none" stroke-width="1" fill="none" fill-rule="evenodd">
        <path d="M68,120 C37.0724444,120 12,94.9275556 12,64 C12,33.0724444 37.0724444,8 68,8 C98.9275556,8 124,33.0724444 124,64 C124,94.9275556 98.9275556,120 68,120 Z" id="Gradient" fill="url(#linearGradient-1)"></path>
        <g id="Shadow" style="mix-blend-mode: multiply;" fill="black" fill-opacity="1">
            <use filter="url(#filter-3)" xlink:href="#path-2"></use>
        </g>
        <path d="M12,40 L12,88 C12,94.627417 17.372583,100 24,100 L64,100 C70.627417,100 76,94.627417 76,88 L76,28 C76,21.372583 70.627417,16 64,16 L36,16 L36,16 L24.3043478,29.599937 L12,40 Z" id="Solid" fill="#101E1E"></path>
        <path d="M12,38 L12,86 C12,92.627417 17.372583,98 24,98 L64,98 C70.627417,98 76,92.627417 76,86 L76,26 C76,19.372583 70.627417,14 64,14 L36,14 L36,14 L24.3043478,27.599937 L12,38 Z" id="Solid" fill="url(#linearGradient-4)"></path>
        <path d="M37.4870364,71.2490956 C39.17319,72.2137642 40.3751718,73.6880407 41.0062682,75.3572884 L36.1220664,78.1746198 C34.8486437,78.8939345 33.2166961,78.4542901 32.4770095,77.1926464 C32.243135,76.7937392 32.1187696,76.3422303 32.1162876,75.8830448 L32.1371821,70.283093 C33.9116496,69.9902785 35.8010245,70.2846587 37.4870364,71.2490956 Z M54.527477,41.8303644 C58.2533695,43.9084969 59.6466824,48.4971025 57.7313277,52.2000572 L57.5424441,52.5437965 L46.6987365,71.3238687 C46.5206104,71.6295163 46.2820786,71.89509 45.9983195,72.1056431 C44.8529191,69.6119476 42.9452212,67.5064261 40.4850912,66.0990663 C38.0249772,64.6917155 35.2307454,64.107403 32.4797272,64.3705939 C32.5203239,64.0229197 32.6332494,63.6852544 32.8113624,63.3793558 L43.6577286,44.5993263 L43.7294941,44.4838283 C46.0008406,40.9127732 50.7482769,39.7224994 54.527477,41.8303644 Z" id="Shape" fill="url(#linearGradient-5)"></path>
        <path d="M36,14 L36,22 C36,30.836556 28.836556,38 20,38 L12,38 L12,38 L36,14 Z" id="Solid" fill="url(#linearGradient-6)"></path>
        <path d="M98.7766786,57.1731158 C105.951068,53.0309802 115.107251,55.4584971 119.227586,62.5951265 L126.688112,75.5171371 L126.841584,75.7659819 C128.278719,77.9510184 131.199028,78.6558747 133.505081,77.324474 C135.896545,75.9437621 136.721811,72.8960136 135.348366,70.5171371 L135.209596,70.2598044 C134.847121,69.5380487 134.677627,68.7643748 134.684411,68.0004711 L134.68,66 L135.121578,66.0006572 C135.537471,65.071372 136.24075,64.2588033 137.191651,63.7098002 C139.583114,62.3290883 142.635175,63.1382606 144.00862,65.5171371 C145.014412,67.2592196 145.62716,69.1208703 145.874466,71.0001587 L146,71 L145.999879,72.7463287 C146.066329,77.9876005 143.360075,83.1209225 138.478766,85.9391477 C131.304376,90.0812833 122.148193,87.6537665 118.027858,80.5171371 L110.567332,67.5951265 L110.41386,67.3462816 C108.976725,65.1612452 106.056417,64.4563889 103.750363,65.7877896 C101.3589,67.1685015 100.533633,70.21625 101.907078,72.5951265 L115.170236,95.5675898 L115.384669,95.9517889 C119.200651,103.029169 116.686656,111.921432 109.640381,115.9896 C102.465992,120.131736 93.3098086,117.704219 89.1894737,110.56759 L67.6368421,73.2373369 L67.4980719,72.9800042 C67.1797778,72.3462213 67.0102881,71.6724053 66.9782927,71.0003251 L66.97,69 L67.2950993,68.9999389 C67.689222,67.954923 68.4351549,67.033315 69.480127,66.43 C71.8715901,65.0492881 74.9236512,65.8584604 76.2970961,68.2373369 L97.8497277,105.56759 L98.0031993,105.816435 C99.4403345,108.001471 102.360643,108.706327 104.666697,107.374927 C107.05816,105.994215 107.883427,102.946466 106.509982,100.56759 L93.2468239,77.5951265 L93.0323909,77.2109273 C91.7984179,74.9223172 91.2263577,72.4439285 91.2554227,70.0002523 L91.25,68 L91.413966,68.0005054 C92.0583966,63.623405 94.6343765,59.5646751 98.7766786,57.1731158 Z" id="Combined-Shape" fill="#9D8532"></path>
        <path d="M69.480127,64.43 C67.1740733,65.7614007 66.3243425,68.6428904 67.4980719,70.9800042 L67.6368421,71.2373369 L89.1894737,108.56759 C93.3098086,115.704219 102.465992,118.131736 109.640381,113.9896 C116.686656,109.921432 119.200651,101.029169 115.384669,93.9517889 L115.170236,93.5675898 L101.907078,70.5951265 C100.533633,68.21625 101.3589,65.1685015 103.750363,63.7877896 C106.056417,62.4563889 108.976725,63.1612452 110.41386,65.3462816 L110.567332,65.5951265 L118.027858,78.5171371 C122.148193,85.6537665 131.304376,88.0812833 138.478766,83.9391477 C145.653155,79.7970121 148.128955,70.6537665 144.00862,63.5171371 C142.635175,61.1382606 139.583114,60.3290883 137.191651,61.7098002 C134.885598,63.041201 134.035867,65.9226906 135.209596,68.2598044 L135.348366,68.5171371 C136.721811,70.8960136 135.896545,73.9437621 133.505081,75.324474 C131.199028,76.6558747 128.278719,75.9510184 126.841584,73.7659819 L126.688112,73.5171371 L119.227586,60.5951265 C115.107251,53.4584971 105.951068,51.0309802 98.7766786,55.1731158 C91.7304033,59.2412848 89.2164087,68.1335473 93.0323909,75.2109273 L93.2468239,75.5951265 L106.509982,98.5675898 C107.883427,100.946466 107.05816,103.994215 104.666697,105.374927 C102.360643,106.706327 99.4403345,106.001471 98.0031993,103.816435 L97.8497277,103.56759 L76.2970961,66.2373369 C74.9236512,63.8584604 71.8715901,63.0492881 69.480127,64.43 Z" id="Path" fill="url(#linearGradient-7)"></path>
        <path d="M127.000668,14.5365663 C128.913838,15.6411358 129.569339,18.0874974 128.46477,20.0006679 L117.46477,39.0532268 C116.3602,40.9663973 113.913838,41.6218979 112.000668,40.5173284 C111.307586,40.1171772 110.779558,39.5409308 110.440472,38.8777329 L104.536566,28.6506679 C103.431997,26.7374974 104.087497,24.2911358 106.000668,23.1865663 C107.913838,22.0819968 110.3602,22.7374974 111.46477,24.6506679 L114.003,29.048 L121.536566,16.0006679 C122.641136,14.0874974 125.087497,13.4319968 127.000668,14.5365663 Z" id="Solid" fill="url(#linearGradient-8)"></path>
    </g>
</svg>