<?xml version="1.0" encoding="UTF-8"?>
<svg width="96px" height="96px" viewBox="0 0 96 96" version="1.1" xmlns="http://www.w3.org/2000/svg" xmlns:xlink="http://www.w3.org/1999/xlink">
    <title>Icons (Solution)/Sign/1. Light positive/2. Sign light positive 96px</title>
    <defs>
        <linearGradient x1="0%" y1="100%" x2="100%" y2="0%" id="linearGradient-1">
            <stop stop-color="#007FFF" offset="0%"></stop>
            <stop stop-color="#007FFF" offset="24.6495927%"></stop>
            <stop stop-color="#6610F2" offset="100%"></stop>
        </linearGradient>
        <path d="M46,18 C50.418278,18 54,21.581722 54,26 L54,70.0003 C54,70.055541 53.9994401,70.1106513 53.9983257,70.1656254 L61.1161524,82.4947367 L61.2086992,82.6448471 C62.0751246,83.9630469 63.8305964,84.3916534 65.2142286,83.5928129 C66.6491065,82.7643858 67.140732,80.9296146 66.3123048,79.4947367 L58.3123048,65.6383302 L58.1829468,65.4066012 C55.8806,61.1380767 57.3787683,55.785003 61.6065335,53.3441016 C65.9111671,50.8588202 71.4154807,52.3336966 73.9007621,56.6383302 L78.4007621,64.4325589 L78.4933089,64.5826692 C79.3597343,65.9008691 81.1152061,66.3294755 82.4988383,65.5306351 C83.9337162,64.702208 84.4253417,62.8674368 83.5969145,61.4325589 L83.5131885,61.2773558 C82.8048066,59.8679095 83.3113585,58.1333231 84.6949907,57.3344827 C86.1298686,56.5060555 87.9646398,56.997681 88.793067,58.4325589 C91.2783483,62.7371925 89.8034719,68.2415061 85.4988383,70.7267875 C81.1942047,73.2120689 75.6898911,71.7371925 73.2046097,67.4325589 L68.7046097,59.6383302 L68.6120629,59.4882199 C67.7456375,58.17002 65.9901657,57.7414136 64.6065335,58.540254 C63.1716556,59.3686812 62.6800301,61.2034524 63.5084573,62.6383302 L71.5084573,76.4947367 L71.6378154,76.7264657 C73.9401621,80.9949902 72.4419938,86.348064 68.2142286,88.7889653 C63.909595,91.2742467 58.4052814,89.7993703 55.92,85.4947367 L50.7093722,76.4679689 C49.3881783,77.4316341 47.7604987,78.0003 46,78.0003 L16,78.0003 C11.581722,78.0003 8,74.418578 8,70.0003 L8,34 L16,27 L24,18 Z" id="path-2"></path>
        <filter x="-9.1%" y="-10.4%" width="118.3%" height="120.8%" filterUnits="objectBoundingBox" id="filter-3">
            <feOffset dx="0" dy="0" in="SourceAlpha" result="shadowOffsetOuter1"></feOffset>
            <feGaussianBlur stdDeviation="2.5" in="shadowOffsetOuter1" result="shadowBlurOuter1"></feGaussianBlur>
            <feColorMatrix values="0 0 0 0 0.062745098   0 0 0 0 0.117647059   0 0 0 0 0.117647059  0 0 0 0.3 0" type="matrix" in="shadowBlurOuter1"></feColorMatrix>
        </filter>
        <linearGradient x1="20.611405%" y1="100%" x2="78.8032596%" y2="0.995854731%" id="linearGradient-4">
            <stop stop-color="#344055" offset="0%"></stop>
            <stop stop-color="#344055" offset="25%"></stop>
            <stop stop-color="#5D6677" offset="100%"></stop>
        </linearGradient>
        <linearGradient x1="25.7358024%" y1="100%" x2="74.2641976%" y2="0%" id="linearGradient-5">
            <stop stop-color="#EFF0F2" offset="0%"></stop>
            <stop stop-color="#EFF0F2" offset="24.7309791%"></stop>
            <stop stop-color="#FFFFFF" offset="100%"></stop>
        </linearGradient>
        <linearGradient x1="0%" y1="100%" x2="100%" y2="0%" id="linearGradient-6">
            <stop stop-color="#04E4F4" offset="0%"></stop>
            <stop stop-color="#04E4F4" offset="24.7220569%"></stop>
            <stop stop-color="#007FFF" offset="100%"></stop>
        </linearGradient>
        <linearGradient x1="0%" y1="81.7867201%" x2="100%" y2="18.2132799%" id="linearGradient-7">
            <stop stop-color="#FDCA40" offset="0%"></stop>
            <stop stop-color="#FDCA40" offset="24.6093781%"></stop>
            <stop stop-color="#FFA400" offset="100%"></stop>
        </linearGradient>
    </defs>
    <g id="Icons-(Solution)/Sign/1.-Light-positive/2.-Sign-light-positive-96px" stroke="none" stroke-width="1" fill="none" fill-rule="evenodd">
        <path d="M88,48 C88,70.0911111 70.0911111,88 48,88 C25.9088889,88 8,70.0911111 8,48 C8,25.9088889 25.9088889,8 48,8 C70.0911111,8 88,25.9088889 88,48" id="Gradient" fill="url(#linearGradient-1)"></path>
        <g id="Shadow" style="mix-blend-mode: multiply;" fill="black" fill-opacity="1">
            <use filter="url(#filter-3)" xlink:href="#path-2"></use>
        </g>
        <path d="M8,32 L8,68.0003 C8,72.418578 11.581722,76.0003 16,76.0003 L46,76.0003 C50.418278,76.0003 54,72.418578 54,68.0003 L54,24 C54,19.581722 50.418278,16 46,16 L24,16 L24,16 L16,25 L8,32 Z" id="Solid" fill="#101E1E"></path>
        <path d="M8,30 L8,66.0003 C8,70.418578 11.581722,74.0003 16,74.0003 L46,74.0003 C50.418278,74.0003 54,70.418578 54,66.0003 L54,22 C54,17.581722 50.418278,14 46,14 L24,14 L24,14 L16,23 L8,30 Z" id="Solid" fill="url(#linearGradient-4)"></path>
        <path d="M26.0097954,55.2402211 C27.2715291,55.9686834 28.16859,57.0862106 28.6369294,58.3537702 L25.0027966,60.4457942 C24.7292739,60.6032209 24.4340853,60.6887788 24.1390884,60.7083561 L23.9917071,60.7126737 C23.304947,60.7074177 22.6390651,60.3482777 22.271736,59.710058 C22.0975225,59.407369 22.0056074,59.0643372 22.0051362,58.7150941 L22,54.5217993 C23.3318549,54.293665 24.7481198,54.5117924 26.0097954,55.2402211 Z M38.9767821,32.7807414 C41.7651556,34.3499552 42.7963381,37.8357323 41.3484824,40.6580066 L41.2057662,40.9200276 L40.2066903,42.6520124 L32.6546202,55.731047 C32.5201977,55.9638735 32.3406618,56.1664542 32.1274148,56.3274024 C31.2753493,54.4346574 29.8508142,52.8390322 28.0097954,51.7761195 C26.1690491,50.7133641 24.0752665,50.2774582 22.0112857,50.4858501 C22.0421803,50.2207677 22.1278612,49.9639284 22.2623153,49.731047 L30.8153661,34.92 L30.8695448,34.8319344 C32.5840186,32.1088931 36.1485144,31.1890763 38.9767821,32.7807414 Z" id="Solid" fill="url(#linearGradient-5)"></path>
        <path d="M23.9998,14 L23.9998,17.9997 C23.9998,24.627117 18.627217,29.9997 11.9998,29.9997 L8,29.9997 L8,29.9997 L23.9998,14 Z" id="Solid" fill="url(#linearGradient-6)"></path>
        <path d="M62.6065335,51.3441016 C66.9111671,48.8588202 72.4154807,50.3336966 74.9007621,54.6383302 L79.4007621,62.4325589 L79.4933089,62.5826692 C80.3597343,63.9008691 82.1152061,64.3294755 83.4988383,63.5306351 C84.9337162,62.702208 85.4253417,60.8674368 84.5969145,59.4325589 L84.5131885,59.2773558 C84.3078239,58.868748 84.2045695,58.4328135 84.1951932,58.0002744 L84.195,57 L84.3436249,56.9998869 C84.5652608,56.3215388 85.0283138,55.7193888 85.6949907,55.3344827 C87.1298686,54.5060555 88.9646398,54.997681 89.793067,56.4325589 C90.4464969,57.5643327 90.8261735,58.7790367 90.9526416,59.9999964 L91,60 L90.9997724,60.8230469 C91.035163,63.9688775 89.417412,67.0417482 86.4988383,68.7267875 C82.1942047,71.2120689 76.6898911,69.7371925 74.2046097,65.4325589 L69.7046097,57.6383302 L69.6120629,57.4882199 C68.7456375,56.17002 66.9901657,55.7414136 65.6065335,56.540254 C64.1716556,57.3686812 63.6800301,59.2034524 64.5084573,60.6383302 L72.5084573,74.4947367 L72.6378154,74.7264657 C74.9401621,78.9949902 73.4419938,84.348064 69.2142286,86.7889653 C64.909595,89.2742467 59.4052814,87.7993703 56.92,83.4947367 L43.92,60.9780762 L43.836274,60.8228732 C43.6236961,60.3999132 43.5205274,59.9476732 43.5176378,59.5002275 L43.515,58.5 L43.6819715,58.4999233 C43.9091988,57.8401816 44.3663368,57.2562819 45.0180762,56.88 C46.4529541,56.0515729 48.2877253,56.5431983 49.1161524,57.9780762 L62.1161524,80.4947367 L62.2086992,80.6448471 C63.0751246,81.9630469 64.8305964,82.3916534 66.2142286,81.5928129 C67.6491065,80.7643858 68.140732,78.9296146 67.3123048,77.4947367 L59.3123048,63.6383302 L59.1829468,63.4066012 C58.4282943,62.0074842 58.0819565,60.4918467 58.1062209,59.0004338 L58.105,58 L58.1782845,58.0003415 C58.5232636,55.3096245 60.0759042,52.8051611 62.6065335,51.3441016 Z" id="Solid" fill="#9D8532"></path>
        <path d="M45.0180762,55.88 C43.634444,56.6788404 43.1278921,58.4134269 43.836274,59.8228732 L43.92,59.9780762 L56.92,82.4947367 C59.4052814,86.7993703 64.909595,88.2742467 69.2142286,85.7889653 C73.4419938,83.348064 74.9401621,77.9949902 72.6378154,73.7264657 L72.5084573,73.4947367 L64.5084573,59.6383302 C63.6800301,58.2034524 64.1716556,56.3686812 65.6065335,55.540254 C66.9901657,54.7414136 68.7456375,55.17002 69.6120629,56.4882199 L69.7046097,56.6383302 L74.2046097,64.4325589 C76.6898911,68.7371925 82.1942047,70.2120689 86.4988383,67.7267875 C90.8034719,65.2415061 92.2783483,59.7371925 89.793067,55.4325589 C88.9646398,53.997681 87.1298686,53.5060555 85.6949907,54.3344827 C84.3113585,55.1333231 83.8048066,56.8679095 84.5131885,58.2773558 L84.5969145,58.4325589 C85.4253417,59.8674368 84.9337162,61.702208 83.4988383,62.5306351 C82.1152061,63.3294755 80.3597343,62.9008691 79.4933089,61.5826692 L79.4007621,61.4325589 L74.9007621,53.6383302 C72.4154807,49.3336966 66.9111671,47.8588202 62.6065335,50.3441016 C58.3787683,52.785003 56.8806,58.1380767 59.1829468,62.4066012 L59.3123048,62.6383302 L67.3123048,76.4947367 C68.140732,77.9296146 67.6491065,79.7643858 66.2142286,80.5928129 C64.8305964,81.3916534 63.0751246,80.9630469 62.2086992,79.6448471 L62.1161524,79.4947367 L49.1161524,56.9780762 C48.2877253,55.5431983 46.4529541,55.0515729 45.0180762,55.88 Z" id="Solid" fill="url(#linearGradient-7)"></path>
    </g>
</svg>