<?xml version="1.0" encoding="UTF-8"?>
<svg width="96px" height="96px" viewBox="0 0 96 96" version="1.1" xmlns="http://www.w3.org/2000/svg" xmlns:xlink="http://www.w3.org/1999/xlink">
    <title>Icons (Solution)/TraceDock/4. Dark diapositive/2. TraceDock dark diapositive96px</title>
    <defs>
        <linearGradient x1="0%" y1="100%" x2="100%" y2="0%" id="linearGradient-1">
            <stop stop-color="#007FFF" offset="0%"></stop>
            <stop stop-color="#007FFF" offset="24.6495927%"></stop>
            <stop stop-color="#6610F2" offset="100%"></stop>
        </linearGradient>
        <path d="M14,20 L58,20 C61.3137085,20 64,22.6862915 64,26 L64,70 C64,73.3137085 61.3137085,76 58,76 L14,76 C10.6862915,76 8,73.3137085 8,70 L8,26 C8,22.6862915 10.6862915,20 14,20 Z" id="path-2"></path>
        <filter x="-13.4%" y="-13.4%" width="126.8%" height="126.8%" filterUnits="objectBoundingBox" id="filter-3">
            <feOffset dx="0" dy="0" in="SourceAlpha" result="shadowOffsetOuter1"></feOffset>
            <feGaussianBlur stdDeviation="2.5" in="shadowOffsetOuter1" result="shadowBlurOuter1"></feGaussianBlur>
            <feColorMatrix values="0 0 0 0 0.062745098   0 0 0 0 0.117647059   0 0 0 0 0.117647059  0 0 0 0.3 0" type="matrix" in="shadowBlurOuter1"></feColorMatrix>
        </filter>
        <linearGradient x1="3.57353036e-13%" y1="78.125%" x2="99.0041453%" y2="22.4351683%" id="linearGradient-4">
            <stop stop-color="#344055" offset="0%"></stop>
            <stop stop-color="#344055" offset="25%"></stop>
            <stop stop-color="#5D6677" offset="100%"></stop>
        </linearGradient>
        <linearGradient x1="0%" y1="73.0229592%" x2="100%" y2="26.9770408%" id="linearGradient-5">
            <stop stop-color="#04E4F4" offset="0%"></stop>
            <stop stop-color="#04E4F4" offset="24.7220569%"></stop>
            <stop stop-color="#007FFF" offset="100%"></stop>
        </linearGradient>
        <linearGradient x1="0%" y1="54.5764668%" x2="100%" y2="45.4235332%" id="linearGradient-6">
            <stop stop-color="#EFF0F2" offset="0%"></stop>
            <stop stop-color="#EFF0F2" offset="24.7309791%"></stop>
            <stop stop-color="#FFFFFF" offset="100%"></stop>
        </linearGradient>
        <linearGradient x1="-3.48308193%" y1="88.28125%" x2="98.7772481%" y2="12.6549194%" id="linearGradient-7">
            <stop stop-color="#101E1E" offset="0%"></stop>
            <stop stop-color="#344055" offset="100%"></stop>
        </linearGradient>
        <path d="M71.8151951,16.1029671 L84.1155885,19.3988476 C85.7159868,19.827673 86.6657343,21.4726839 86.2369088,23.0730822 L82.9447306,35.3596587 C82.5159052,36.960057 80.8708943,37.9098045 79.270496,37.4809791 C77.6700977,37.0521536 76.7203502,35.4071428 77.1491756,33.8067444 L78.2066622,29.8592325 C70.5217556,34.3099744 57.7563205,41.7031229 39.9103568,52.0386782 C39.7908272,52.7099625 39.5554329,53.3715111 39.1952515,53.9951832 C37.5392266,56.8644946 33.869838,57.8478204 31.0004615,56.1911664 C29.3971911,55.2655074 28.3829544,53.7114905 28.0889359,52.0198831 L25.7684892,50.6655723 C23.8947605,52.1770473 21.2103474,52.467059 19.0004615,51.1911664 C18.6912715,51.0126535 18.4039883,50.8107714 18.1395527,50.5890399 L6.46358349,57.1128771 C6.00158349,57.3718771 5.49858349,57.4948771 5.00358349,57.4948771 C3.95158349,57.4948771 2.93158349,56.9408771 2.38158349,55.9578771 C1.57358349,54.5118771 2.09058349,52.6838771 3.53758349,51.8758771 L16.1098608,44.8492813 C16.2335061,44.214102 16.4628285,43.5882981 16.8044285,42.9965625 C18.4611201,40.1272511 22.1305086,39.1439253 24.9998851,40.8005793 C26.6015182,41.7251357 27.6154624,43.2774743 27.9103795,44.9676405 L30.2345675,46.3237436 C32.1084641,44.8143879 34.7911839,44.5253707 36.9998851,45.8005793 C37.2785598,45.9614467 37.5394428,46.1413194 37.7818423,46.3376168 C54.1405221,36.8634424 67.1820346,29.3102659 76.9064969,23.6782059 L70.2622808,21.8985221 C68.6618825,21.4696966 67.712135,19.8246858 68.1409604,18.2242874 C68.5697859,16.6238891 70.2147968,15.6741417 71.8151951,16.1029671 Z" id="path-8"></path>
        <filter x="-8.9%" y="-18.1%" width="117.8%" height="136.1%" filterUnits="objectBoundingBox" id="filter-9">
            <feOffset dx="0" dy="0" in="SourceAlpha" result="shadowOffsetOuter1"></feOffset>
            <feGaussianBlur stdDeviation="2.5" in="shadowOffsetOuter1" result="shadowBlurOuter1"></feGaussianBlur>
            <feColorMatrix values="0 0 0 0 0.062745098   0 0 0 0 0.117647059   0 0 0 0 0.117647059  0 0 0 0.3 0" type="matrix" in="shadowBlurOuter1"></feColorMatrix>
        </filter>
        <linearGradient x1="0%" y1="62.401674%" x2="100%" y2="37.598326%" id="linearGradient-10">
            <stop stop-color="#FDCA40" offset="0%"></stop>
            <stop stop-color="#FDCA40" offset="24.6093781%"></stop>
            <stop stop-color="#FFA400" offset="100%"></stop>
        </linearGradient>
    </defs>
    <g id="Icons-(Solution)/TraceDock/4.-Dark-diapositive/2.-TraceDock-dark-diapositive96px" stroke="none" stroke-width="1" fill="none" fill-rule="evenodd">
        <g id="Icons-(Solution)/TraceDock/1.-3D/1.-Light-positive-primary/2.-TraceDock-light-positive-primary-96px" transform="translate(4.000000, 8.000000)">
            <path d="M84,40 C84,62.0911111 66.0911111,80 44,80 C21.9088889,80 4,62.0911111 4,40 C4,17.9088889 21.9088889,0 44,0 C66.0911111,0 84,17.9088889 84,40" id="Gradient" fill="url(#linearGradient-1)"></path>
            <g id="Shadow" style="mix-blend-mode: multiply;" fill="black" fill-opacity="1">
                <use filter="url(#filter-3)" xlink:href="#path-2"></use>
            </g>
            <path d="M12,18 L60,18 C64.418278,18 68,21.581722 68,26 L68,66 C68,70.418278 64.418278,74 60,74 L12,74 C7.581722,74 4,70.418278 4,66 L4,26 C4,21.581722 7.581722,18 12,18 Z" id="Solid" fill="#101E1E"></path>
            <path d="M8,28 L8,66 C8,67.1045695 8.8954305,68 10,68 L62,68 C63.1045695,68 64,67.1045695 64,66 L64,28 C64,26.8954305 63.1045695,26 62,26 L10,26 C8.8954305,26 8,26.8954305 8,28 Z" id="Solid" fill="url(#linearGradient-4)"></path>
            <path d="M8,48.83759 L22,41.6622703 L34,46.3576307 L64,30 L64,66 C64,67.1045695 63.1045695,68 62,68 L10,68 C8.8954305,68 8,67.1045695 8,66 L8,48.83759 L8,48.83759 Z" id="Solid" fill="url(#linearGradient-5)"></path>
            <path d="M66.7533,50.853 L37.6266116,62.6864095 C37.5772872,62.7921388 37.5229431,62.8966132 37.463501,62.9995402 C36.3594844,64.9124145 33.9132253,65.567965 32.0003077,64.463529 C31.0543487,63.9173732 30.4159729,63.0431 30.1458064,62.0675154 L24.7410248,58.9137471 C23.4891603,60.0923873 21.5660709,60.367533 20.0003077,59.463529 C19.7058534,59.2935238 19.4412016,59.0917264 19.208181,58.8649774 L6.9813,65.743 C6.6703,65.917 6.3343,66 6.0023,66 C5.3033,66 4.0573,62.798 5.0203,62.256 L18.1651753,54.8612979 C18.2528329,54.5669289 18.3760252,54.2780705 18.5362856,54.0004598 C19.6407467,52.0875855 22.0870057,51.432035 23.9999234,52.536471 C24.9452353,53.0821603 25.5834591,53.9558879 25.853836,54.9309938 L31.2603373,58.0849594 C32.5124781,56.9074115 34.4347331,56.6327978 35.9999234,57.536471 C36.4655286,57.8052455 36.8566351,58.1536012 37.165983,58.5544545 L65.2473,47.146 C66.2703,46.732 67.7763,50.437 66.7533,50.853 Z" id="Solid" fill="url(#linearGradient-6)"></path>
            <path d="M62,16 C65.3137085,16 68,18.6862915 68,22 L68,66 C68,69.3137085 65.3137085,72 62,72 L10,72 C6.6862915,72 4,69.3137085 4,66 L4,22 C4,18.6862915 6.6862915,16 10,16 L62,16 Z M62,26 L10,26 C8.8954305,26 8,26.8954305 8,28 L8,66 C8,67.1045695 8.8954305,68 10,68 L62,68 C63.1045695,68 64,67.1045695 64,66 L64,28 C64,26.8954305 63.1045695,26 62,26 Z" id="Solid" fill="url(#linearGradient-7)"></path>
            <path d="M24,23 C22.8953448,23 22,22.1046552 22,21 C22,19.8953448 22.8953448,19 24,19 C25.1046552,19 26,19.8953448 26,21 C26,22.1046552 25.1046552,23 24,23 M18,23 C16.8953448,23 16,22.1046552 16,21 C16,19.8953448 16.8953448,19 18,19 C19.1046552,19 20,19.8953448 20,21 C20,22.1046552 19.1046552,23 18,23 M12,23 C10.8953448,23 10,22.1046552 10,21 C10,19.8953448 10.8953448,19 12,19 C13.1046552,19 14,19.8953448 14,21 C14,22.1046552 13.1046552,23 12,23" id="Solid" fill="#FFFFFF"></path>
            <g id="Shadow" style="mix-blend-mode: multiply;" fill="black" fill-opacity="1">
                <use filter="url(#filter-9)" xlink:href="#path-8"></use>
            </g>
            <path d="M73.8151951,14.1070942 L86.1155885,17.4029747 C86.746498,17.5720264 87.27629,17.930085 87.6603681,18.399907 L88.34,18.4 L88.34,20.4 C88.3306113,20.6237679 88.297539,20.8509345 88.2369088,21.0772093 L84.9447306,33.3637858 C84.5159052,34.9641842 82.8708943,35.9139316 81.270496,35.4851062 C79.8815789,35.112947 78.9827164,33.824786 79.0497142,32.444743 L79.05,30.65 L79.46,30.6491271 L80.574,26.4911271 L39.9093656,50.0425989 C39.7910604,50.713434 39.5556114,51.3753291 39.1952515,51.9993104 C37.5392266,54.8686217 33.869838,55.8519475 31.0004615,54.1952935 C29.3971911,53.2696345 28.3829544,51.7156176 28.0889359,50.0240102 L25.7684892,48.6696995 C23.8947605,50.1811744 21.2103474,50.4711862 19.0004615,49.1952935 C18.6908812,49.0165552 18.4032629,48.8143887 18.1385511,48.5923271 L11.9999725,52.0237703 C11.996907,53.0356522 11.7374869,54.0604025 11.1952515,54.9993104 C9.53922656,57.8686217 5.86983801,58.8519475 3.0004615,57.1952935 C1.08754383,56.0908576 0.0131572902,54.0919099 0.000120056941,52.0320244 L0,50 L0.343170418,49.9993813 C0.463977761,49.6589714 0.617369163,49.3247226 0.804428456,49.0006896 C2.46112005,46.1313783 6.1305086,45.1480525 8.99988511,46.8047065 L9.019,46.8161271 L16.1098608,42.8534084 C16.2335061,42.2182291 16.4628285,41.5924252 16.8044285,41.0006896 C18.4611201,38.1313783 22.1305086,37.1480525 24.9998851,38.8047065 C26.6015182,39.7292629 27.6154624,41.2816014 27.9103795,42.9717676 L30.2345675,44.3278707 C32.1084641,42.8185151 34.7911839,42.5294978 36.9998851,43.8047065 C37.2785598,43.9655738 37.5394428,44.1454466 37.7818423,44.341744 L77.538,21.3151271 L72.2622808,19.9026492 C70.8848285,19.533562 69.9893739,18.2635329 70.040037,16.8964415 L70.04,15 L70.8067846,14.9993223 C71.5376828,14.1872288 72.6875139,13.804933 73.8151951,14.1070942 Z" id="Solid" fill="#9D8532"></path>
            <path d="M73.8151951,12.1029671 L86.1007343,15.3948674 L86.1155885,15.3988476 C87.7159868,15.827673 88.6657343,17.4726839 88.2369088,19.0730822 L84.9447306,31.3596587 C84.5159052,32.960057 82.8708943,33.9098045 81.270496,33.4809791 C79.6700977,33.0521536 78.7203502,31.4071428 79.1491756,29.8067444 L80.574,24.487 L39.9093656,48.0384718 C39.7910604,48.7093068 39.5556114,49.371202 39.1952515,49.9951832 C37.5392266,52.8644946 33.869838,53.8478204 31.0004615,52.1911664 C29.3971911,51.2655074 28.3829544,49.7114905 28.0889359,48.0198831 L25.7684892,46.6655723 C23.8947605,48.1770473 21.2103474,48.467059 19.0004615,47.1911664 C18.6908812,47.0124281 18.4032629,46.8102615 18.1385511,46.5881999 L11.9999725,50.0196431 C11.996907,51.0315251 11.7374869,52.0562754 11.1952515,52.9951832 C9.53922656,55.8644946 5.86983801,56.8478204 3.0004615,55.1911664 C0.131084991,53.5345124 -0.851596463,49.8652072 0.804428456,46.9965625 C2.46112005,44.1272511 6.1305086,43.1439253 8.99988511,44.8005793 L9.019,44.812 L16.1098608,40.8492813 C16.2335061,40.214102 16.4628285,39.5882981 16.8044285,38.9965625 C18.4611201,36.1272511 22.1305086,35.1439253 24.9998851,36.8005793 C26.6015182,37.7251357 27.6154624,39.2774743 27.9103795,40.9676405 L30.2345675,42.3237436 C32.1084641,40.8143879 34.7911839,40.5253707 36.9998851,41.8005793 C37.2785598,41.9614467 37.5394428,42.1413194 37.7818423,42.3376168 L77.538,19.311 L72.2622808,17.8985221 C70.6618825,17.4696966 69.712135,15.8246858 70.1409604,14.2242874 C70.5697859,12.6238891 72.2147968,11.6741417 73.8151951,12.1029671 Z" id="Solid" fill="url(#linearGradient-10)"></path>
        </g>
    </g>
</svg>