<?xml version="1.0" encoding="UTF-8"?>
<svg width="160px" height="128px" viewBox="0 0 160 128" version="1.1" xmlns="http://www.w3.org/2000/svg" xmlns:xlink="http://www.w3.org/1999/xlink">
    <title>Icons (Solution)/CAIC/2. Light diapositive/1. CAIC light diapositive 160px</title>
    <defs>
        <linearGradient x1="0%" y1="100%" x2="100%" y2="0%" id="linearGradient-1">
            <stop stop-color="#EFF0F2" offset="0%"></stop>
            <stop stop-color="#EFF0F2" offset="24.7309791%"></stop>
            <stop stop-color="#FFFFFF" offset="100%"></stop>
        </linearGradient>
        <linearGradient x1="1.21207615%" y1="100%" x2="98.7879239%" y2="0%" id="linearGradient-2">
            <stop stop-color="#FDCA40" offset="0%"></stop>
            <stop stop-color="#FDCA40" offset="24.6093781%"></stop>
            <stop stop-color="#FFA400" offset="100%"></stop>
        </linearGradient>
        <path d="M46,8 C50.3172,8 53.8181818,11.5824 53.8181818,16 C53.8181818,19.3566282 51.7969155,22.2310597 48.9321422,23.4181454 L48.931,31 L64,31 C77.8071187,31 89,42.1928813 89,56 C89,69.8071187 77.8071187,81 64,81 L28,81 C14.1928813,81 3,69.8071187 3,56 C3,42.1928813 14.1928813,31 28,31 L43.068,31 L43.0678578,23.4181454 C40.2030845,22.2310597 38.1818182,19.3566282 38.1818182,16 C38.1818182,11.5824 41.6828,8 46,8 Z" id="path-3"></path>
        <filter x="-14.0%" y="-16.4%" width="127.9%" height="132.9%" filterUnits="objectBoundingBox" id="filter-4">
            <feOffset dx="0" dy="0" in="SourceAlpha" result="shadowOffsetOuter1"></feOffset>
            <feGaussianBlur stdDeviation="4" in="shadowOffsetOuter1" result="shadowBlurOuter1"></feGaussianBlur>
            <feColorMatrix values="0 0 0 0 0.062745098   0 0 0 0 0.117647059   0 0 0 0 0.117647059  0 0 0 0.3 0" type="matrix" in="shadowBlurOuter1"></feColorMatrix>
        </filter>
        <linearGradient x1="0.101753715%" y1="67.2576936%" x2="100%" y2="32.7071141%" id="linearGradient-5">
            <stop stop-color="#FFC866" offset="0%"></stop>
            <stop stop-color="#FFDB99" offset="100%"></stop>
        </linearGradient>
        <linearGradient x1="3.57353036e-13%" y1="82.5477789%" x2="99.0041453%" y2="18.1004783%" id="linearGradient-6">
            <stop stop-color="#344055" offset="0%"></stop>
            <stop stop-color="#344055" offset="25%"></stop>
            <stop stop-color="#5D6677" offset="100%"></stop>
        </linearGradient>
        <linearGradient x1="-2.22044605e-13%" y1="59.8765432%" x2="99.0041453%" y2="40.3201688%" id="linearGradient-7">
            <stop stop-color="#101E1E" offset="0%"></stop>
            <stop stop-color="#101E1E" offset="25%"></stop>
            <stop stop-color="#344055" offset="100%"></stop>
        </linearGradient>
        <linearGradient x1="-2.22044605e-13%" y1="100%" x2="99.0041453%" y2="0.995854731%" id="linearGradient-8">
            <stop stop-color="#FFFFFF" offset="0%"></stop>
            <stop stop-color="#FFFFFF" offset="25%"></stop>
            <stop stop-color="#AEB3BB" offset="100%"></stop>
        </linearGradient>
    </defs>
    <g id="Icons-(Solution)/CAIC/2.-Light-diapositive/1.-CAIC-light-diapositive-160px" stroke="none" stroke-width="1" fill="none" fill-rule="evenodd">
        <g id="Icons-(Solution)/CAIC/1.-3D/1.-Primary/1.-CAIC-160px" transform="translate(6.000000, 6.000000)">
            <path d="M118,58 C118,88.9275556 92.9275556,114 62,114 C31.0724444,114 6,88.9275556 6,58 C6,27.0724444 31.0724444,2 62,2 C92.9275556,2 118,27.0724444 118,58" id="Gradient" fill="url(#linearGradient-1)"></path>
            <path d="M109,78 L109.061869,78.0005814 C109.190722,76.9730003 109.522509,75.9536545 110.072775,75.000565 C112.281352,71.1751976 117.174068,69.8641985 120.999435,72.0727754 C123.252012,73.3733013 124.632739,75.6045448 124.936369,78.0005162 L125,78 L125,79 C125.001266,80.3598059 124.655699,81.7376808 123.927225,82.999435 C121.718648,86.8248024 116.825932,88.1358015 113.000565,85.9272246 C110.399315,84.4253923 108.960709,81.6824144 109.000817,78.8778783 L109,78 Z" id="Combined-Shape" fill="#9D8532"></path>
            <path d="M65,78 L65.1663368,78.0006474 C65.3977197,76.629495 65.8731502,75.2756591 66.6091631,74.0008475 C69.9220284,68.2627964 77.2611014,66.2962977 82.9991525,69.6091631 C86.2206804,71.469113 88.253391,74.5981493 88.8304513,78.0004375 L89,78 L89,80 C89.0018896,82.0397442 88.4835388,84.1065373 87.3908369,85.9991525 C84.0779716,91.7372036 76.7388986,93.7037023 71.0008475,90.3908369 C67.1754801,88.1822601 65.0263582,84.1842575 65.0002409,80.0641566 L65,78 Z" id="Combined-Shape" fill="#9D8532"></path>
            <path d="M142.999576,32.8045815 C145.868602,34.4610142 146.851851,38.1305507 145.195418,40.9995763 C143.889454,43.2615731 141.332132,44.3513603 138.902368,43.8994586 L122.545239,72.2327524 C125.138483,74.7225653 125.805118,78.7468275 123.927225,81.999435 C123.452264,82.8220903 122.853169,83.5284621 122.16725,84.1085527 L132.508695,102.020635 C133.684362,101.922943 134.900688,102.170138 135.999576,102.804582 C138.868602,104.461014 139.851851,108.130551 138.195418,110.999576 C136.538986,113.868602 132.869449,114.851851 130.000424,113.195418 C127.131398,111.538986 126.148149,107.869449 127.804582,105.000424 C128.094203,104.498784 128.445368,104.054796 128.843037,103.672487 L118.550979,85.8469073 C116.716394,86.2103203 114.747218,85.9356553 113.000565,84.9272246 C111.227818,83.9037286 109.995049,82.303795 109.402299,80.500781 L88.7379054,80.5009866 C88.4822291,81.7001092 88.0369345,82.8800787 87.3908369,83.9991525 C84.0779716,89.7372036 76.7388986,91.7037023 71.0008475,88.3908369 C65.2627964,85.0779716 63.2962977,77.7388986 66.6091631,72.0008475 C69.9220284,66.2627964 77.2611014,64.2962977 82.9991525,67.6091631 C86.3778827,69.5598739 88.4489424,72.9065492 88.9044989,76.5003428 L109.140825,76.5005495 C109.304319,75.6434707 109.611925,74.7987813 110.072775,74.000565 C110.338272,73.5407113 110.642557,73.1171924 110.979113,72.7317543 L101.242683,55.8688871 C99.8442902,56.1654769 98.3356634,55.9663194 97.0004237,55.1954185 C94.1313982,53.5389858 93.1481489,49.8694493 94.8045815,47.0004237 C96.4610142,44.1313982 100.130551,43.1481489 102.999576,44.8045815 C105.868602,46.4610142 106.851851,50.1305507 105.195418,52.9995763 C105.034283,53.2786719 104.854096,53.5399222 104.65745,53.7826329 L114.293196,70.4731343 C115.801999,69.9314177 117.465767,69.8432645 119.059753,70.2688962 L135.438698,41.8990939 C133.833351,40.0208319 133.498898,37.2619337 134.804582,35.0004237 C136.461014,32.1313982 140.130551,31.1481489 142.999576,32.8045815 Z" id="Combined-Shape" fill="url(#linearGradient-2)"></path>
            <g id="Shadow" style="mix-blend-mode: multiply;" fill="black" fill-opacity="1">
                <use filter="url(#filter-4)" xlink:href="#path-3"></use>
            </g>
            <path d="M114,4 C118.418278,4 122,7.581722 122,12 C122,16.418278 118.418278,20 114,20 L99.314,20 C97.9136986,20.0021488 96.5120496,20.6351246 95.4739804,21.6077666 L95.2836939,21.7940458 L94.7744835,22.3142684 C93.7213652,23.391595 92.3006401,23.9952875 90.8198977,23.9952875 C90.2881808,23.9952875 90.0499866,23.3304494 90.4363488,22.9519293 C91.1462424,22.2570051 91.588871,21.2728526 91.588871,20.1819381 C91.588871,19.2362703 91.2521266,18.5789698 90.7002169,17.9917562 C89.0434769,16.5258451 88,14.3847811 88,12 C88,7.581722 91.581722,4 96,4 L114,4 Z" id="Colour" fill="url(#linearGradient-5)"></path>
            <path d="M0,47 L0.0821052599,47.0005127 C1.098163,34.6812076 11.4184979,25 24,25 L64,25 C76.5815021,25 86.901837,34.6812076 87.9178947,47.0005127 L88,47 L88,49 C88,62.254834 77.254834,73 64,73 L24,73 C10.745166,73 1.623249e-15,62.254834 0,49 L0,47 Z" id="Combined-Shape" fill="#101E1E"></path>
            <path d="M44,0 C48.4176,0 52,3.5824 52,8 C52,11.356493 49.931894,14.2308282 47.0006857,15.418002 L47,23 L64,23 C77.254834,23 88,33.745166 88,47 C88,60.254834 77.254834,71 64,71 L24,71 C10.745166,71 1.623249e-15,60.254834 0,47 C-1.623249e-15,33.745166 10.745166,23 24,23 L41,23 L41.0003115,15.4184058 C38.068575,14.2314801 36,11.3568736 36,8 C36,3.5824 39.5824,0 44,0 Z" id="Combined-Shape" fill="url(#linearGradient-6)"></path>
            <path d="M24,31 L64,31 C72.836556,31 80,38.163444 80,47 C80,55.836556 72.836556,63 64,63 L24,63 C15.163444,63 8,55.836556 8,47 C8,38.163444 15.163444,31 24,31 Z" id="Solid" fill="url(#linearGradient-7)"></path>
            <path d="M64,31 C72.836556,31 80,38.163444 80,47 C80,47.335952 79.9896459,47.6694857 79.9692396,48.0002994 C79.4534509,39.6296415 72.5009433,33 64,33 L24,33 C15.4990567,33 8.54654908,39.6296415 8.03069864,48.0007031 C8.01035405,47.6694857 8,47.335952 8,47 C8,38.163444 15.163444,31 24,31 L64,31 Z" id="Combined-Shape" fill="#101E1E"></path>
            <path d="M20,47 C20,42.5824 23.5824,39 28,39 C32.4176,39 36,42.5824 36,47 C36,51.4176 32.4176,55 28,55 C23.5824,55 20,51.4176 20,47 Z" id="Path" fill="url(#linearGradient-8)"></path>
            <path d="M60,55 C55.5824,55 52,51.4176 52,47 C52,42.5824 55.5824,39 60,39 C64.4176,39 68,42.5824 68,47 C68,51.4176 64.4176,55 60,55" id="Path-Copy" fill="url(#linearGradient-8)"></path>
            <path d="M30,48 C28.3434,48 27,46.6566 27,45 C27,43.3434 28.3434,42 30,42 C31.6566,42 33,43.3434 33,45 C33,46.6566 31.6566,48 30,48" id="Path" fill="#FFFFFF" transform="translate(30.000000, 45.000000) scale(-1, -1) translate(-30.000000, -45.000000) "></path>
            <path d="M62,48 C60.3434,48 59,46.6566 59,45 C59,43.3434 60.3434,42 62,42 C63.6566,42 65,43.3434 65,45 C65,46.6566 63.6566,48 62,48" id="Path-Copy-2" fill="#FFFFFF" transform="translate(62.000000, 45.000000) scale(-1, -1) translate(-62.000000, -45.000000) "></path>
        </g>
    </g>
</svg>