<?xml version="1.0" encoding="utf-8"?>
<!-- Generator: Adobe Illustrator 27.5.0, SVG Export Plug-In . SVG Version: 6.00 Build 0)  -->
<svg version="1.1" xmlns="http://www.w3.org/2000/svg" xmlns:xlink="http://www.w3.org/1999/xlink" x="0px" y="0px"
	 viewBox="0 0 186.3 183.9" style="enable-background:new 0 0 186.3 183.9;" xml:space="preserve">
<style type="text/css">
	.st0{fill:#101E1E;}
	.st1{fill:#007FFF;}
	.st2{fill:#FFFFFF;}
</style>
<g id="Layer_2">
</g>
<g id="Layer_1">
	<g>
		<g>
			<g>
				<path class="st0" d="M93.6,30.9c-33.7,0-61.1,27.4-61.1,61.1c0,33.7,27.4,61.1,61.1,61.1s61.1-27.4,61.1-61.1
					C154.7,58.3,127.3,30.9,93.6,30.9z"/>
			</g>
		</g>
		<g>
			<path class="st1" d="M134.2,105.3c0-2.7,2.2-4.9,4.9-4.9c2.7,0,4.9,2.2,4.9,4.9c0,2.7-2.2,4.9-4.9,4.9
				C136.4,110.2,134.2,108,134.2,105.3"/>
			<path class="st2" d="M67.8,112.7c-11.4,0-20.7-9.3-20.7-20.7s9.3-20.7,20.7-20.7c2.2,0,4.4,0.3,6.5,1c2.3,0.8,3.5,3.2,2.8,5.5
				c-0.8,2.3-3.2,3.5-5.5,2.8c-1.2-0.4-2.5-0.6-3.7-0.6c-6.6,0-12,5.4-12,12c0,6.6,5.4,12,12,12c6.1,0,9.6-3.2,12.5-11.5l6.5-18.2
				c0.6-1.7,2.2-2.9,4-2.9c1.8,0,3.5,1.1,4.1,2.8l7.5,19.4l7.6-19.5c0.7-1.7,2.3-2.8,4.1-2.8c0,0,0,0,0.1,0c1.8,0,3.4,1.2,4,2.9
				l10.8,30.2c0.8,2.3-0.4,4.8-2.6,5.6c-2.3,0.8-4.8-0.4-5.6-2.6L114,88.2l-7.4,19c-0.7,1.7-2.3,2.8-4.1,2.8l0,0
				c-1.8,0-3.4-1.1-4.1-2.8l-7.3-19l-2.6,7.2C85.9,102.8,80.9,112.7,67.8,112.7"/>
		</g>
	</g>
</g>
</svg>
