<?xml version="1.0" encoding="UTF-8"?>
<svg width="160px" height="128px" viewBox="0 0 160 128" version="1.1" xmlns="http://www.w3.org/2000/svg" xmlns:xlink="http://www.w3.org/1999/xlink">
    <title>Icons (Solution)/CPaaS/1. Light positive/1. CPaaS light positive 160px</title>
    <defs>
        <linearGradient x1="0%" y1="100%" x2="100%" y2="0%" id="linearGradient-1">
            <stop stop-color="#007FFF" offset="0%"></stop>
            <stop stop-color="#007FFF" offset="24.6495927%"></stop>
            <stop stop-color="#6610F2" offset="100%"></stop>
        </linearGradient>
        <path d="M91,79.999625 C91,91.0451129 82.0458629,99.99925 71.000375,99.99925 L32.199174,99.9992308 C29.351579,100.111288 26.5211637,101.514213 24.4959112,103.586021 L23.4745801,104.629439 C21.3623245,106.79025 18.5127543,108.001085 15.5428063,108.001085 C14.4763335,108.001085 13.9985838,106.667609 14.7735164,105.908405 C16.197361,104.514585 17.0851479,102.540655 17.0851479,100.352591 C17.0851479,98.3541491 16.3353624,95.9364799 15.1210107,94.39734 C11.346753,90.7608373 9,85.6542879 9,79.999625 C9,68.9541371 17.9541371,60 28.999625,60 L35.4002331,60.0003782 C35.1377773,58.707706 35,57.3697553 35,55.999625 C35,44.9541371 43.9541371,36 54.999625,36 L97.000375,36 C99.0986932,36 101.121537,36.3231444 103.021856,36.9223831 C103.007031,36.6173905 103,36.3095163 103,36 C103,24.954305 111.954305,16 123,16 C134.045695,16 143,24.954305 143,36 C143,47.045695 134.045695,56 123,56 C120.901642,56 118.878761,55.6768496 116.978406,55.0775996 C116.992969,55.3822461 117,55.6901145 117,55.999625 C117,61.6542879 114.653247,66.7608373 110.878989,70.39734 C109.664638,71.9364799 108.914852,74.3541491 108.914852,76.3525914 C108.914852,78.5406555 109.802639,80.5145852 111.226484,81.9084054 C112.001416,82.6676092 111.523667,84.0010851 110.457194,84.0010851 C107.487246,84.0010851 104.637676,82.7902498 102.52542,80.6294391 L101.504089,79.5860206 C99.4788363,77.5142131 96.648421,76.1112879 93.800826,75.9992308 L90.5997855,75.9989634 C90.8622292,77.2916073 91,78.6295271 91,79.999625 Z" id="path-2"></path>
        <filter x="-9.0%" y="-13.0%" width="117.9%" height="126.1%" filterUnits="objectBoundingBox" id="filter-3">
            <feOffset dx="0" dy="0" in="SourceAlpha" result="shadowOffsetOuter1"></feOffset>
            <feGaussianBlur stdDeviation="4" in="shadowOffsetOuter1" result="shadowBlurOuter1"></feGaussianBlur>
            <feColorMatrix values="0 0 0 0 0.062745098   0 0 0 0 0.117647059   0 0 0 0 0.117647059  0 0 0 0.3 0" type="matrix" in="shadowBlurOuter1"></feColorMatrix>
        </filter>
        <linearGradient x1="0%" y1="67.1334337%" x2="100%" y2="32.8665663%" id="linearGradient-4">
            <stop stop-color="#FDCA40" offset="0%"></stop>
            <stop stop-color="#FDCA40" offset="24.6093781%"></stop>
            <stop stop-color="#FFA400" offset="100%"></stop>
        </linearGradient>
        <linearGradient x1="3.57353036e-13%" y1="67.1334337%" x2="99.0041453%" y2="33.2078145%" id="linearGradient-5">
            <stop stop-color="#344055" offset="0%"></stop>
            <stop stop-color="#344055" offset="25%"></stop>
            <stop stop-color="#5D6677" offset="100%"></stop>
        </linearGradient>
        <linearGradient x1="0.101753715%" y1="67.2655054%" x2="100%" y2="32.6992863%" id="linearGradient-6">
            <stop stop-color="#FFC866" offset="0%"></stop>
            <stop stop-color="#FFDB99" offset="100%"></stop>
        </linearGradient>
        <linearGradient x1="0%" y1="72.2222222%" x2="100%" y2="27.7777778%" id="linearGradient-7">
            <stop stop-color="#EFF0F2" offset="0%"></stop>
            <stop stop-color="#EFF0F2" offset="24.7309791%"></stop>
            <stop stop-color="#FFFFFF" offset="100%"></stop>
        </linearGradient>
        <linearGradient x1="0%" y1="100%" x2="100%" y2="0%" id="linearGradient-8">
            <stop stop-color="#04E4F4" offset="0%"></stop>
            <stop stop-color="#04E4F4" offset="24.7220569%"></stop>
            <stop stop-color="#007FFF" offset="100%"></stop>
        </linearGradient>
    </defs>
    <g id="Icons-(Solution)/CPaaS/1.-Light-positive/1.-CPaaS-light-positive-160px" stroke="none" stroke-width="1" fill="none" fill-rule="evenodd">
        <path d="M124,64 C124,94.9275556 98.9275556,120 68,120 C37.0724444,120 12,94.9275556 12,64 C12,33.0724444 37.0724444,8 68,8 C98.9275556,8 124,33.0724444 124,64" id="Gradient" fill="url(#linearGradient-1)"></path>
        <g id="Shadow" style="mix-blend-mode: multiply;" fill="black" fill-opacity="1">
            <use filter="url(#filter-3)" xlink:href="#path-2"></use>
        </g>
        <path d="M66.000375,54 C76.371225,54 84.898394,61.8937368 85.9013524,72.0006807 L86,72 L86,73.999625 C86,85.0451129 77.0458629,93.99925 66.000375,93.99925 L27.199174,93.9992308 C24.351579,94.1112879 21.5211637,95.5142131 19.4959112,97.5860206 L18.4745801,98.6294391 C16.3623245,100.79025 13.5127543,102.001085 10.5428063,102.001085 C9.85323644,102.001085 9.40979856,101.443589 9.39197712,100.844307 L9.39141909,98.7542288 L10.3914191,98.7542288 L10.3921864,99.224176 C11.4498559,97.9012391 12.0851479,96.2035315 12.0851479,94.3525914 C12.0851479,92.3541491 11.3353624,89.9364799 10.1210107,88.39734 C6.34675298,84.7608373 4,79.6542879 4,73.999625 L4,72 L4.09864756,72.0006807 C5.10160595,61.8937368 13.628775,54 23.999625,54 L66.000375,54 Z" id="Combined-Shape" fill="#9D8532"></path>
        <path d="M66.000375,52 C77.0458629,52 86,60.9541371 86,71.999625 C86,83.0451129 77.0458629,91.99925 66.000375,91.99925 L27.199174,91.9992308 C24.351579,92.1112879 21.5211637,93.5142131 19.4959112,95.5860206 L18.4745801,96.6294391 C16.3623245,98.7902498 13.5127543,100.001085 10.5428063,100.001085 C9.4763335,100.001085 8.99858378,98.6676092 9.77351639,97.9084054 C11.197361,96.5145852 12.0851479,94.5406555 12.0851479,92.3525914 C12.0851479,90.3541491 11.3353624,87.9364799 10.1210107,86.39734 C6.34675298,82.7608373 4,77.6542879 4,71.999625 C4,60.9541371 12.9541371,52 23.999625,52 L66.000375,52 Z" id="Colour" fill="url(#linearGradient-4)"></path>
        <path d="M97.000375,30 C108.045863,30 117,38.9541371 117,49.999625 C117,55.6542879 114.653247,60.7608373 110.878989,64.39734 C109.664638,65.9364799 108.914852,68.3541491 108.914852,70.3525914 C108.914852,72.2035315 109.550144,73.9012391 110.607814,75.224176 L110.608581,74.7523682 L111.608581,74.7523682 L111.608581,76.8427243 C111.591197,77.4423365 111.147537,78.0010851 110.457194,78.0010851 C107.487246,78.0010851 104.637676,76.7902498 102.52542,74.6294391 L101.504089,73.5860206 C99.4788363,71.5142131 96.648421,70.1112879 93.800826,69.9992308 L54.999625,69.99925 C43.9541371,69.99925 35,61.0451129 35,49.999625 C35,38.9541371 43.9541371,30 54.999625,30 Z" id="Combined-Shape" fill="#101E1E"></path>
        <rect id="Rectangle-Copy-53" fill="#101E1E" x="35" y="48" width="82" height="2"></rect>
        <path d="M54.999625,28 C43.9541371,28 35,36.9541371 35,47.999625 C35,59.0451129 43.9541371,67.99925 54.999625,67.99925 L93.800826,67.9992308 C96.5388981,68.106978 99.2610866,69.4082053 101.266877,71.3499697 L101.504089,71.5860206 L102.52542,72.6294391 C104.637676,74.7902498 107.487246,76.0010851 110.457194,76.0010851 C111.523667,76.0010851 112.001416,74.6676092 111.226484,73.9084054 C109.802639,72.5145852 108.914852,70.5406555 108.914852,68.3525914 C108.914852,66.3541491 109.664638,63.9364799 110.878989,62.39734 C114.653247,58.7608373 117,53.6542879 117,47.999625 C117,36.9541371 108.045863,28 97.000375,28 L54.999625,28 Z" id="Path" fill="url(#linearGradient-5)"></path>
        <path d="M130.12132,94.8786797 L137.121188,101.878547 C138.29276,103.05012 138.29276,104.949615 137.121188,106.121188 L130.12132,113.121055 C128.949747,114.292628 127.050253,114.292628 125.87868,113.121055 C124.707107,111.949482 124.707107,110.049987 125.87868,108.878414 L130.757,104 L125.87868,99.1213203 C124.707107,97.9497475 124.707107,96.0502525 125.87868,94.8786797 C127.050253,93.7071068 128.949747,93.7071068 130.12132,94.8786797 Z M111.878547,94.8786797 L104.87868,101.878547 C103.707107,103.05012 103.707107,104.949615 104.87868,106.121188 L111.878547,113.121055 C113.05012,114.292628 114.949615,114.292628 116.121188,113.121055 C117.29276,111.949482 117.29276,110.049987 116.121188,108.878414 L111.242867,104 L116.121188,99.1213203 C117.29276,97.9497475 117.29276,96.0502525 116.121188,94.8786797 C114.949615,93.7071068 113.05012,93.7071068 111.878547,94.8786797 Z" id="Combined-Shape" fill="url(#linearGradient-6)"></path>
        <path d="M76,36 C78.209139,36 80,37.790861 80,40 L80,56 C80,58.209139 78.209139,60 76,60 C73.790861,60 72,58.209139 72,56 L72,40 C72,37.790861 73.790861,36 76,36 Z M62,40 C64.209139,40 66,41.790861 66,44 L66,52 C66,54.209139 64.209139,56 62,56 C59.790861,56 58,54.209139 58,52 L58,44 C58,41.790861 59.790861,40 62,40 Z M90,40 C92.209139,40 94,41.790861 94,44 L94,52 C94,54.209139 92.209139,56 90,56 C87.790861,56 86,54.209139 86,52 L86,44 C86,41.790861 87.790861,40 90,40 Z" id="Shape" fill="url(#linearGradient-7)"></path>
        <path d="M104,28 L104.098748,28.0000201 C105.102188,17.8933651 113.629297,10 124,10 C134.370703,10 142.897812,17.8933651 143.901252,28.0000201 L144,28 L144,30 C144,41.045695 135.045695,50 124,50 C112.954305,50 104,41.045695 104,30 L104,28 Z" id="Combined-Shape" fill="#08949E"></path>
        <circle id="Oval-Copy" fill="url(#linearGradient-8)" cx="124" cy="28" r="20"></circle>
    </g>
</svg>