<?xml version="1.0" encoding="UTF-8"?>
<svg width="96px" height="96px" viewBox="0 0 96 96" version="1.1" xmlns="http://www.w3.org/2000/svg" xmlns:xlink="http://www.w3.org/1999/xlink">
    <title>Icons (Solution)/CPaaS/1. Light positive/2. CPaaS light positive 96px</title>
    <defs>
        <linearGradient x1="0%" y1="100%" x2="100%" y2="0%" id="linearGradient-1">
            <stop stop-color="#007FFF" offset="0%"></stop>
            <stop stop-color="#007FFF" offset="24.6495927%"></stop>
            <stop stop-color="#6610F2" offset="100%"></stop>
        </linearGradient>
        <path d="M79,8 C85.627417,8 91,13.372583 91,20 C91,26.4657563 85.886324,31.7371496 79.4826824,31.9904696 C81.0693157,34.2585934 82,37.0206102 82,40 C82,43.7851168 80.4978741,47.2193934 78.0572227,49.7392292 L78.0840886,49.7308588 C77.1796848,50.5432096 76.5976481,52.2166464 76.5976481,53.5731934 C76.5976481,54.8396044 77.0986794,55.9820784 77.90224,56.7887957 C78.3395809,57.2282088 78.0699581,58 77.4680837,58 C75.7919644,58 74.1837815,57.2991909 72.9917093,56.0485537 L72.4153111,55.4446424 C71.240415,54.2120252 69.7824456,54.003961 68.1359683,53.9982211 L68,54 L63.6528812,54.000302 C64.5166714,55.818736 65,57.8529243 65,60 C65,67.7319865 58.7319865,74 51,74 L21,74 L20.8650346,73.9982176 C19.2181465,74.0038765 17.7598235,74.2117749 16.5846889,75.4446424 L16.0082907,76.0485537 C14.8162185,77.2991909 13.2080356,78 11.5319163,78 C10.9300419,78 10.6604191,77.2282088 11.09776,76.7887957 C11.9013206,75.9820784 12.4023519,74.8396044 12.4023519,73.5731934 C12.4023519,72.2166464 11.8203152,70.5427576 10.9159114,69.7304068 L10.9427773,69.7392292 C8.50212588,67.2193934 7,63.7851168 7,60 C7,52.2680135 13.2680135,46 21,46 L25.347593,46.000696 C24.4835054,44.1820083 24,42.1474685 24,40 C24,32.2680135 30.2680135,26 38,26 L68,26 C68.2056129,26 68.4101906,26.0044325 68.6136426,26.0132072 C67.5874731,24.2458412 67,22.1915264 67,20 C67,13.372583 72.372583,8 79,8 Z" id="path-2"></path>
        <filter x="-8.9%" y="-10.7%" width="117.9%" height="121.4%" filterUnits="objectBoundingBox" id="filter-3">
            <feOffset dx="0" dy="0" in="SourceAlpha" result="shadowOffsetOuter1"></feOffset>
            <feGaussianBlur stdDeviation="2.5" in="shadowOffsetOuter1" result="shadowBlurOuter1"></feGaussianBlur>
            <feColorMatrix values="0 0 0 0 0.062745098   0 0 0 0 0.117647059   0 0 0 0 0.117647059  0 0 0 0.3 0" type="matrix" in="shadowBlurOuter1"></feColorMatrix>
        </filter>
        <linearGradient x1="0%" y1="65.2199762%" x2="100%" y2="34.7800238%" id="linearGradient-4">
            <stop stop-color="#FDCA40" offset="0%"></stop>
            <stop stop-color="#FDCA40" offset="24.6093781%"></stop>
            <stop stop-color="#FFA400" offset="100%"></stop>
        </linearGradient>
        <linearGradient x1="3.57353036e-13%" y1="65.2199762%" x2="99.0041453%" y2="35.0831615%" id="linearGradient-5">
            <stop stop-color="#344055" offset="0%"></stop>
            <stop stop-color="#344055" offset="25%"></stop>
            <stop stop-color="#5D6677" offset="100%"></stop>
        </linearGradient>
        <linearGradient x1="0%" y1="100%" x2="100%" y2="0%" id="linearGradient-6">
            <stop stop-color="#04E4F4" offset="0%"></stop>
            <stop stop-color="#04E4F4" offset="24.7220569%"></stop>
            <stop stop-color="#007FFF" offset="100%"></stop>
        </linearGradient>
        <linearGradient x1="0%" y1="68.9349112%" x2="100%" y2="31.0650888%" id="linearGradient-7">
            <stop stop-color="#EFF0F2" offset="0%"></stop>
            <stop stop-color="#EFF0F2" offset="24.7309791%"></stop>
            <stop stop-color="#FFFFFF" offset="100%"></stop>
        </linearGradient>
    </defs>
    <g id="Icons-(Solution)/CPaaS/1.-Light-positive/2.-CPaaS-light-positive-96px" stroke="none" stroke-width="1" fill="none" fill-rule="evenodd">
        <path d="M88,48 C88,70.0911111 70.0911111,88 48,88 C25.9088889,88 8,70.0911111 8,48 C8,25.9088889 25.9088889,8 48,8 C70.0911111,8 88,25.9088889 88,48" id="Gradient" fill="url(#linearGradient-1)"></path>
        <g id="Shadow" style="mix-blend-mode: multiply;" fill="black" fill-opacity="1">
            <use filter="url(#filter-3)" xlink:href="#path-2"></use>
        </g>
        <path d="M48,44 C55.0529991,44 60.8878544,49.2154935 61.8582451,56.0001595 L62,56 L62,58 C62,65.7319865 55.7319865,72 48,72 L18,72 L17.8650346,71.9982176 C16.2181465,72.0038765 14.7598235,72.2117749 13.5846889,73.4446424 L13.0082907,74.0485537 C11.8162185,75.2991909 10.2080356,76 8.53191626,76 C8.14945176,76 7.90115178,75.6883477 7.88316721,75.3483724 L7.88211959,73.3369551 L8.88211959,73.3369551 L8.88272024,73.7146511 C9.21387507,73.0800352 9.40235189,72.3499255 9.40235189,71.5731934 C9.40235189,70.2166464 8.82031521,68.5427576 7.91591136,67.7304068 L7.94277726,67.7392292 C5.50212588,65.2193934 4,61.7851168 4,58 L4,56 L4.1417549,56.0001595 C5.11214559,49.2154935 10.9470009,44 18,44 L48,44 Z" id="Combined-Shape" fill="#9D8532"></path>
        <path d="M48,42 C55.7319865,42 62,48.2680135 62,56 C62,63.7319865 55.7319865,70 48,70 L18,70 L17.8650346,69.9982176 C16.2181465,70.0038765 14.7598235,70.2117749 13.5846889,71.4446424 L13.0082907,72.0485537 C11.8162185,73.2991909 10.2080356,74 8.53191626,74 C7.93004187,74 7.66041913,73.2282088 8.09775996,72.7887957 C8.90132065,71.9820784 9.40235189,70.8396044 9.40235189,69.5731934 C9.40235189,68.2166464 8.82031521,66.5427576 7.91591136,65.7304068 L7.94277726,65.7392292 C5.50212588,63.2193934 4,59.7851168 4,56 C4,48.2680135 10.2680135,42 18,42 L48,42 Z" id="Colour" fill="url(#linearGradient-4)"></path>
        <path d="M24,36 L24.1417549,36.0001595 C25.1121456,29.2154935 30.9470009,24 38,24 L68,24 C75.0529991,24 80.8878544,29.2154935 81.8582451,36.0001595 L82,36 L82,38 C82,41.7760747 80.5050423,45.2029834 78.0746977,47.721155 L78.0840886,47.7170458 L77.9507171,47.848008 C77.9389273,47.8599201 77.9271162,47.8718111 77.9152575,47.8826149 C77.1078989,48.7429986 76.5976481,50.3030536 76.5976481,51.5731934 C76.5976481,52.3499255 76.7861249,53.0800352 77.1172798,53.7146511 L77.1178804,53.3067279 L78.1178804,53.3067279 L78.1178804,55.3268299 C78.1095176,55.6747319 77.8588137,56 77.4680837,56 C75.7919644,56 74.1837815,55.2991909 72.9917093,54.0485537 L72.4153111,53.4446424 C71.2401765,52.2117749 69.7818535,52.0038765 68.1349654,51.9982176 L68,52 L38,52 C30.2680135,52 24,45.7319865 24,38 L24,36 Z" id="Combined-Shape" fill="#101E1E"></path>
        <path d="M38,22 C30.2680135,22 24,28.2680135 24,36 C24,43.7319865 30.2680135,50 38,50 L68,50 L68.1359683,49.9982211 C69.6957889,50.0036589 71.0864224,50.1906842 72.2274626,51.2584131 L72.4153111,51.4446424 L72.9917093,52.0485537 C74.1837815,53.2991909 75.7919644,54 77.4680837,54 C78.0699581,54 78.3395809,53.2282088 77.90224,52.7887957 C77.0986794,51.9820784 76.5976481,50.8396044 76.5976481,49.5731934 C76.5976481,48.2964432 77.1132239,46.738988 77.9278872,45.8829137 L78.0840886,45.7308588 L78.0572227,45.7392292 C80.4978741,43.2193934 82,39.7851168 82,36 C82,28.2680135 75.7319865,22 68,22 L38,22 Z" id="Path" fill="url(#linearGradient-5)"></path>
        <path d="M68,16 L68.1658855,16.0001873 C69.1179645,10.3246685 74.053942,6 80,6 C85.946058,6 90.8820355,10.3246685 91.8341145,16.0001873 L92,16 L92,18 C92,24.627417 86.627417,30 80,30 C73.372583,30 68,24.627417 68,18 L68,16 Z" id="Combined-Shape" fill="#08949E"></path>
        <circle id="Oval-Copy" fill="url(#linearGradient-6)" cx="80" cy="16" r="12"></circle>
        <path d="M53,44 C51.3431458,44 50,42.6568542 50,41 L50,31 C50,29.3431458 51.3431458,28 53,28 C54.6568542,28 56,29.3431458 56,31 L56,41 C56,42.6568542 54.6568542,44 53,44 Z M63,31 C64.6568542,31 66,32.3431458 66,34 L66,38 C66,39.6568542 64.6568542,41 63,41 C61.3431458,41 60,39.6568542 60,38 L60,34 C60,32.3431458 61.3431458,31 63,31 Z M43,31 C44.6568542,31 46,32.3431458 46,34 L46,38 C46,39.6568542 44.6568542,41 43,41 C41.3431458,41 40,39.6568542 40,38 L40,34 C40,32.3431458 41.3431458,31 43,31 Z" id="Combined-Shape" fill="url(#linearGradient-7)"></path>
    </g>
</svg>