<?xml version="1.0" encoding="UTF-8"?>
<svg width="160px" height="128px" viewBox="0 0 160 128" version="1.1" xmlns="http://www.w3.org/2000/svg" xmlns:xlink="http://www.w3.org/1999/xlink">
    <title>Icons (Solution)/Ticketing/1. Light positive/1. Ticketing light positive 160px</title>
    <defs>
        <linearGradient x1="0%" y1="100%" x2="100%" y2="0%" id="linearGradient-1">
            <stop stop-color="#007FFF" offset="0%"></stop>
            <stop stop-color="#007FFF" offset="24.6495927%"></stop>
            <stop stop-color="#6610F2" offset="100%"></stop>
        </linearGradient>
        <path d="M138.487169,92.9923048 C141.800877,98.7318163 139.834375,106.070901 134.094864,109.38461 L116.774356,119.38461 C111.034844,122.698318 103.695759,120.731816 100.382051,114.992305 C97.0683423,109.252793 99.0348442,101.913708 104.774356,98.6 L122.094864,88.6 C127.834375,85.2862915 135.17346,87.2527934 138.487169,92.9923048 Z M103.150744,37.2026859 C107.938042,45.4945301 107.827314,55.2701699 103.716267,63.1793166 C104.675135,64.1878594 105.531381,65.326071 106.258439,66.5853718 C111.229002,75.194639 108.279249,86.2032663 99.6699815,91.1738291 C99.6094103,91.0567578 99.5468462,90.9396419 99.4799818,90.8238294 C97.8232318,87.9542542 94.1534046,86.970927 91.2838294,88.627677 C88.4142542,90.284427 87.430927,93.9542542 89.087677,96.8238294 C89.1545413,96.9396419 89.2246847,97.052382 89.297922,97.1620001 L63.2969145,112.173829 C54.6876473,117.144392 43.67902,114.194639 38.7084573,105.585372 C38.2483023,104.78836 37.856027,103.970785 37.5298376,103.139341 C27.5461584,103.847305 17.5586367,98.952808 12.2180762,89.7026859 C4.76223209,76.7887851 9.18686128,60.2758441 22.1007621,52.82 L53.2776766,34.82 C54.9344266,37.6895752 58.6042539,38.6729024 61.4738291,37.0161524 C64.3434042,35.3594024 65.3267315,31.6895752 63.6699815,28.82 L66.2680577,27.32 C79.1819585,19.8641559 95.6948995,24.2887851 103.150744,37.2026859 Z M82.4738291,73.3892194 C79.7073957,74.9864204 78.6940514,78.4545865 80.1092271,81.2729755 L80.087677,81.2353714 C81.744427,84.1049466 85.4142542,85.0882738 88.2838294,83.4315238 C91.0504294,81.8342266 92.0637291,78.365739 90.6481757,75.5472585 L90.6699815,75.5853718 C89.0132315,72.7157966 85.3434042,71.7324694 82.4738291,73.3892194 Z M73.4738291,57.8007621 C70.6042539,59.4575121 69.6209266,63.1273394 71.2776766,65.9969145 C72.9344266,68.8664897 76.6042539,69.849817 79.4738291,68.193067 C82.3434042,66.536317 83.3267315,62.8664897 81.6699815,59.9969145 C80.0132315,57.1273394 76.3434042,56.1440121 73.4738291,57.8007621 Z M64.4738291,42.2123048 C61.6042539,43.8690548 60.6209266,47.5388821 62.2776766,50.4084573 C63.9344266,53.2780324 67.6042539,54.2613597 70.4738291,52.6046097 C73.3434042,50.9478597 74.3267315,47.2780324 72.6699815,44.4084573 C71.0132315,41.5388821 67.3434042,40.5555548 64.4738291,42.2123048 Z" id="path-2"></path>
        <filter x="-9.1%" y="-12.3%" width="118.3%" height="124.7%" filterUnits="objectBoundingBox" id="filter-3">
            <feOffset dx="0" dy="0" in="SourceAlpha" result="shadowOffsetOuter1"></feOffset>
            <feGaussianBlur stdDeviation="4" in="shadowOffsetOuter1" result="shadowBlurOuter1"></feGaussianBlur>
            <feColorMatrix values="0 0 0 0 0.062745098   0 0 0 0 0.117647059   0 0 0 0 0.117647059  0 0 0 0.3 0" type="matrix" in="shadowBlurOuter1"></feColorMatrix>
        </filter>
        <linearGradient x1="7.3964497%" y1="100%" x2="92.6035503%" y2="0%" id="linearGradient-4">
            <stop stop-color="#EFF0F2" offset="0%"></stop>
            <stop stop-color="#EFF0F2" offset="24.7309791%"></stop>
            <stop stop-color="#FFFFFF" offset="100%"></stop>
        </linearGradient>
        <linearGradient x1="0%" y1="83.0465977%" x2="100%" y2="16.9534023%" id="linearGradient-5">
            <stop stop-color="#FDCA40" offset="0%"></stop>
            <stop stop-color="#FDCA40" offset="24.6093781%"></stop>
            <stop stop-color="#FFA400" offset="100%"></stop>
        </linearGradient>
        <linearGradient x1="0.101753715%" y1="88.2033448%" x2="100%" y2="11.71875%" id="linearGradient-6">
            <stop stop-color="#FFC866" offset="0%"></stop>
            <stop stop-color="#FFDB99" offset="100%"></stop>
        </linearGradient>
        <linearGradient x1="0%" y1="81.0159592%" x2="100%" y2="18.9840408%" id="linearGradient-7">
            <stop stop-color="#04E4F4" offset="0%"></stop>
            <stop stop-color="#04E4F4" offset="24.7220569%"></stop>
            <stop stop-color="#007FFF" offset="100%"></stop>
        </linearGradient>
        <linearGradient x1="3.57353036e-13%" y1="82.3099572%" x2="99.0041453%" y2="18.3335633%" id="linearGradient-8">
            <stop stop-color="#344055" offset="0%"></stop>
            <stop stop-color="#344055" offset="25%"></stop>
            <stop stop-color="#5D6677" offset="100%"></stop>
        </linearGradient>
    </defs>
    <g id="Icons-(Solution)/Ticketing/1.-Light-positive/1.-Ticketing-light-positive-160px" stroke="none" stroke-width="1" fill="none" fill-rule="evenodd">
        <path d="M124,64 C124,94.9275556 98.9275556,120 68,120 C37.0724444,120 12,94.9275556 12,64 C12,33.0724444 37.0724444,8 68,8 C98.9275556,8 124,33.0724444 124,64" id="Gradient" fill="url(#linearGradient-1)"></path>
        <g id="Shadow" style="mix-blend-mode: multiply;" fill="black" fill-opacity="1">
            <use filter="url(#filter-3)" xlink:href="#path-2"></use>
        </g>
        <path d="M62.001832,34.486777 C50.5252836,41.664931 46.5925751,57.565088 53.2185634,69.9980153 C59.8445517,82.4309427 74.5216197,86.6913769 85.998168,79.513223 C97.4747164,72.335069 101.407425,56.434912 94.7814366,44.0019847 C88.1554483,31.5690573 73.4783803,27.3086231 62.001832,34.486777 Z" id="Path" fill="url(#linearGradient-4)"></path>
        <path d="M139.447169,90.9923048 C140.184622,92.2696111 140.660563,93.6261391 140.891605,94.9998906 L141.06,95 L141.06,97 C141.050394,101.14045 138.898808,105.165308 135.054864,107.38461 L116.002305,118.38461 C110.262793,121.698318 102.923708,119.731816 99.61,113.992305 C98.5054305,112.079134 97.987551,109.988233 98.0005394,107.927934 L98,106 L98.1686327,105.999303 C98.7441019,102.593957 100.77775,99.4616974 104.002305,97.6 L123.054864,86.6 C128.794375,83.2862915 136.13346,85.2527934 139.447169,90.9923048 Z" id="Combined-Shape" fill="#9D8532"></path>
        <path d="M104.002305,95.6 L123.054864,84.6 C128.794375,81.2862915 136.13346,83.2527934 139.447169,88.9923048 C142.760877,94.7318163 140.794375,102.070901 135.054864,105.38461 L116.002305,116.38461 C110.262793,119.698318 102.923708,117.731816 99.61,111.992305 C96.2962915,106.252793 98.2627934,98.9137085 104.002305,95.6 Z" id="Rectangle-Copy" fill="url(#linearGradient-5)"></path>
        <path d="M144,38 C144,41.3137085 141.313708,44 138,44 C134.686292,44 132,41.3137085 132,38 C132,34.6862915 134.686292,32 138,32 C138.701527,32 139.374934,32.1203964 140.000686,32.3416539 L140,24 L124,24 L124,38 C124,41.3137085 121.313708,44 118,44 C114.686292,44 112,41.3137085 112,38 C112,34.6862915 114.686292,32 118,32 C118.701527,32 119.374934,32.1203964 120.000686,32.3416539 L120,20 C120,17.790861 121.790861,16 124,16 L140,16 C142.209139,16 144,17.790861 144,20 L144,38 Z" id="Solid" fill="url(#linearGradient-6)"></path>
        <path d="M69.0993127,61.2545935 L74.8293016,67.7917132 L85.6569581,60.9025606 L85.6479787,60.1301052 C85.6162227,54.8433878 86.2375737,52.086545 87.5120316,51.8595768 C94.7619618,50.5684365 102.363745,53.8395651 106.258439,60.5853718 C111.229002,69.194639 108.279249,80.2032663 99.6699815,85.1738291 C99.6094103,85.0567578 99.5468462,84.9396419 99.4799818,84.8238294 C97.8232318,81.9542542 94.1534046,80.970927 91.2838294,82.627677 C88.4142542,84.284427 87.430927,87.9542542 89.087677,90.8238294 C89.1545413,90.9396419 89.2246847,91.052382 89.297922,91.1620001 L63.2969145,106.173829 C54.6876473,111.144392 43.67902,108.194639 38.7084573,99.5853718 C33.7378945,90.9761046 36.6876473,79.9674773 45.2969145,74.9969145 L69.0993127,61.2545935 Z M82.2838294,67.039219 C79.4142542,68.695969 78.430927,72.3657962 80.087677,75.2353714 C81.744427,78.1049466 85.4142542,79.0882738 88.2838294,77.4315238 C91.1534046,75.7747738 92.1367318,72.1049466 90.4799818,69.2353714 C88.8232318,66.3657962 85.1534046,65.382469 82.2838294,67.039219 Z" id="Shape" fill="url(#linearGradient-7)"></path>
        <path d="M103.152566,31.2045083 C110.60841,44.1184092 106.183781,60.6313501 93.2698801,68.0871942 L90.6718039,69.5871942 C89.0150539,66.7176191 85.3452267,65.7342918 82.4756515,67.3910418 C80.2421034,68.6805814 79.151313,71.1897167 79.5587531,73.5918056 L80.2818224,73.5918224 L80.2818224,75.5918224 L80.272,75.591 L46.5045083,95.0871942 C33.5906075,102.543038 17.0776666,98.1184092 9.62182243,85.2045083 C2.16597831,72.2906075 6.5906075,55.7776666 19.5045083,48.3218224 L53.2794991,28.8218224 C54.9362491,31.6913976 58.6060763,32.6747249 61.4756515,31.0179749 C64.3386254,29.3650361 65.3240198,25.7082714 63.6831958,22.8416389 L63.6718224,22.8418224 L63.6718224,20.8418224 L65.6718224,20.8418224 L65.671,21.666 L66.2698801,21.3218224 C79.183781,13.8659783 95.6967219,18.2906075 103.152566,31.2045083 Z M73.4756515,51.8025845 C70.6060763,53.4593345 69.6227491,57.1291618 71.2794991,59.998737 C72.9362491,62.8683121 76.6060763,63.8516394 79.4756515,62.1948894 C82.3452267,60.5381394 83.3285539,56.8683121 81.6718039,53.998737 C80.0150539,51.1291618 76.3452267,50.1458345 73.4756515,51.8025845 Z M64.4756515,36.2141273 C61.6060763,37.8708773 60.6227491,41.5407045 62.2794991,44.4102797 C63.9362491,47.2798549 67.6060763,48.2631821 70.4756515,46.6064321 C73.3452267,44.9496821 74.3285539,41.2798549 72.6718039,38.4102797 C71.0150539,35.5407045 67.3452267,34.5573773 64.4756515,36.2141273 Z" id="Solid" fill="#101E1E"></path>
        <path d="M53.2776766,26.82 C54.9344266,29.6895752 58.6042539,30.6729024 61.4738291,29.0161524 C64.3434042,27.3594024 65.3267315,23.6895752 63.6699815,20.82 L66.2680577,19.32 C79.1819585,11.8641559 95.6948995,16.2887851 103.150744,29.2026859 C110.606588,42.1165867 106.181959,58.6295277 93.2680577,66.0853718 L90.6699815,67.5853718 C89.0132315,64.7157966 85.3434042,63.7324694 82.4738291,65.3892194 C79.6042539,67.0459694 78.6209266,70.7157966 80.2776766,73.5853718 L46.5026859,93.0853718 C33.5887851,100.541216 17.0758441,96.1165867 9.62,83.2026859 C2.16415588,70.2887851 6.58878507,53.7758441 19.5026859,46.32 L53.2776766,26.82 Z M73.4738291,49.8007621 C70.6042539,51.4575121 69.6209266,55.1273394 71.2776766,57.9969145 C72.9344266,60.8664897 76.6042539,61.849817 79.4738291,60.193067 C82.3434042,58.536317 83.3267315,54.8664897 81.6699815,51.9969145 C80.0132315,49.1273394 76.3434042,48.1440121 73.4738291,49.8007621 Z M64.4738291,34.2123048 C61.6042539,35.8690548 60.6209266,39.5388821 62.2776766,42.4084573 C63.9344266,45.2780324 67.6042539,46.2613597 70.4738291,44.6046097 C73.3434042,42.9478597 74.3267315,39.2780324 72.6699815,36.4084573 C71.0132315,33.5388821 67.3434042,32.5555548 64.4738291,34.2123048 Z" id="Shape" fill="url(#linearGradient-8)"></path>
    </g>
</svg>