<?xml version="1.0" encoding="UTF-8"?>
<svg width="96px" height="96px" viewBox="0 0 96 96" version="1.1" xmlns="http://www.w3.org/2000/svg" xmlns:xlink="http://www.w3.org/1999/xlink">
    <title>Icons (Solution)/Ticketing/1. Light positive/2. Ticketing light positive 96px</title>
    <defs>
        <linearGradient x1="0%" y1="100%" x2="100%" y2="0%" id="linearGradient-1">
            <stop stop-color="#007FFF" offset="0%"></stop>
            <stop stop-color="#007FFF" offset="24.6495927%"></stop>
            <stop stop-color="#6610F2" offset="100%"></stop>
        </linearGradient>
        <linearGradient x1="0%" y1="78.6960514%" x2="100%" y2="21.3039486%" id="linearGradient-2">
            <stop stop-color="#EFF0F2" offset="0%"></stop>
            <stop stop-color="#EFF0F2" offset="24.7309791%"></stop>
            <stop stop-color="#FFFFFF" offset="100%"></stop>
        </linearGradient>
        <linearGradient x1="0%" y1="81.0158403%" x2="100%" y2="18.9841597%" id="linearGradient-3">
            <stop stop-color="#04E4F4" offset="0%"></stop>
            <stop stop-color="#04E4F4" offset="24.7220569%"></stop>
            <stop stop-color="#007FFF" offset="100%"></stop>
        </linearGradient>
        <path d="M64.3742286,73.18 L76.4985843,66.18 C80.8032179,63.6947186 86.3075315,65.169595 88.7928129,69.4742286 C91.2780943,73.7788622 89.8032179,79.2831759 85.4985843,81.7684573 L73.3742286,88.7684573 C69.069595,91.2537386 63.5652814,89.7788622 61.08,85.4742286 C58.5947186,81.169595 60.069595,75.6652814 64.3742286,73.18 Z M35.5351178,24.42 C36.6396873,26.3331705 39.0860489,26.9886711 40.9992194,25.8841016 C42.9123899,24.7795321 43.5678905,22.3331705 42.463321,20.42 L44.1953718,19.42 C52.804639,14.4494373 63.8132663,17.39919 68.7838291,26.0084573 C73.7543918,34.6177245 70.804639,45.6263518 62.1953718,50.5969145 L60.463321,51.5969145 C59.3587515,49.683744 56.9123899,49.0282434 54.9992194,50.1328129 C53.0860489,51.2373824 52.4305483,53.683744 53.5351178,55.5969145 L31.0184573,68.5969145 C22.40919,73.5674773 11.4005627,70.6177245 6.43,62.0084573 C1.45943725,53.39919 4.40919005,42.3905627 13.0184573,37.42 Z M48.9992194,39.7405081 C47.0860489,40.8450776 46.4305483,43.2914392 47.5351178,45.2046097 C48.6396873,47.1177802 51.0860489,47.7732808 52.9992194,46.6687113 C54.9123899,45.5641418 55.5678905,43.1177802 54.463321,41.2046097 C53.3587515,39.2914392 50.9123899,38.6359386 48.9992194,39.7405081 Z M42.9992194,29.3482032 C41.0860489,30.4527727 40.4305483,32.8991344 41.5351178,34.8123048 C42.6396873,36.7254753 45.0860489,37.380976 46.9992194,36.2764065 C48.9123899,35.171837 49.5678905,32.7254753 48.463321,30.8123048 C47.3587515,28.8991344 44.9123899,28.2436337 42.9992194,29.3482032 Z" id="path-4"></path>
        <filter x="-8.7%" y="-10.3%" width="117.4%" height="120.6%" filterUnits="objectBoundingBox" id="filter-5">
            <feOffset dx="0" dy="0" in="SourceAlpha" result="shadowOffsetOuter1"></feOffset>
            <feGaussianBlur stdDeviation="2.5" in="shadowOffsetOuter1" result="shadowBlurOuter1"></feGaussianBlur>
            <feColorMatrix values="0 0 0 0 0.062745098   0 0 0 0 0.117647059   0 0 0 0 0.117647059  0 0 0 0.3 0" type="matrix" in="shadowBlurOuter1"></feColorMatrix>
        </filter>
        <linearGradient x1="0%" y1="84.4375503%" x2="100%" y2="15.5624497%" id="linearGradient-6">
            <stop stop-color="#FDCA40" offset="0%"></stop>
            <stop stop-color="#FDCA40" offset="24.6093781%"></stop>
            <stop stop-color="#FFA400" offset="100%"></stop>
        </linearGradient>
        <linearGradient x1="3.57353036e-13%" y1="82.3099572%" x2="99.0041453%" y2="18.3335633%" id="linearGradient-7">
            <stop stop-color="#344055" offset="0%"></stop>
            <stop stop-color="#344055" offset="25%"></stop>
            <stop stop-color="#5D6677" offset="100%"></stop>
        </linearGradient>
    </defs>
    <g id="Icons-(Solution)/Ticketing/1.-Light-positive/2.-Ticketing-light-positive-96px" stroke="none" stroke-width="1" fill="none" fill-rule="evenodd">
        <path d="M88,48 C88,70.0911111 70.0911111,88 48,88 C25.9088889,88 8,70.0911111 8,48 C8,25.9088889 25.9088889,8 48,8 C70.0911111,8 88,25.9088889 88,48" id="Gradient" fill="url(#linearGradient-1)"></path>
        <path d="M42.2512595,34.6763351 C34.3611325,38.1273707 31.6573954,45.7716769 36.2127623,51.7490458 C40.7681293,57.7264148 50.8586135,59.7747005 58.7487405,56.3236649 C66.6388675,52.8726293 69.3426046,45.2283231 64.7872377,39.2509542 C60.2318707,33.2735852 50.1413865,31.2252995 42.2512595,34.6763351 Z" id="Path" fill="url(#linearGradient-2)"></path>
        <path d="M47.5351178,43.2046097 C48.6396178,45.1176598 51.0861693,45.7732113 52.9992194,44.6687113 C54.9122695,43.5642113 56.0790037,38.3901198 56.917812,38.1299565 C62.1529046,36.5062494 67.9997216,38.6503433 70.8556258,43.5969145 C74.1691258,49.3360649 72.2024713,56.6757194 66.463321,59.9892194 C65.358821,58.0761693 62.9122695,57.4206178 60.9992194,58.5251178 C59.0861693,59.6296178 58.4306178,62.0761693 59.5351178,63.9892194 L42.2146097,73.9892194 C36.4754593,77.3027194 29.1358048,75.3360649 25.8223048,69.5969145 C22.5088048,63.8577642 24.4754593,56.5181097 30.2146097,53.2046097 L47.5351178,43.2046097 Z M54.9992194,48.1328129 C53.0861693,49.2373129 52.4306178,51.6838644 53.5351178,53.5969145 C54.6396178,55.5099647 57.0861693,56.1655162 58.9992194,55.0610162 C60.9122695,53.9565162 61.567821,51.5099647 60.463321,49.5969145 C59.358821,47.6838644 56.9122695,47.0283129 54.9992194,48.1328129 Z" id="Shape" fill="url(#linearGradient-3)"></path>
        <g id="Shadow" style="mix-blend-mode: multiply;" fill="black" fill-opacity="1">
            <use filter="url(#filter-5)" xlink:href="#path-4"></use>
        </g>
        <path d="M88.7928129,68.4742286 C89.438929,69.5933345 89.8173857,70.7935244 89.9480457,72.0006699 L90,72 L90,73 C89.9880854,76.0986883 88.3751639,79.1076632 85.4985843,80.7684573 L73.3742286,87.7684573 C69.069595,90.2537386 63.5652814,88.7788622 61.08,84.4742286 C60.2648248,83.0623038 59.8757023,81.5213118 59.8727429,80.000122 L59.87,79 L59.926521,78.9998199 C60.2285169,76.2473172 61.7923863,73.6706274 64.3742286,72.18 L76.4985843,65.18 C80.8032179,62.6947186 86.3075315,64.169595 88.7928129,68.4742286 Z" id="Combined-Shape" fill="#9D8532"></path>
        <path d="M64.3742286,71.18 L76.4985843,64.18 C80.8032179,61.6947186 86.3075315,63.169595 88.7928129,67.4742286 C91.2780943,71.7788622 89.8032179,77.2831759 85.4985843,79.7684573 L73.3742286,86.7684573 C69.069595,89.2537386 63.5652814,87.7788622 61.08,83.4742286 C58.5947186,79.169595 60.069595,73.6652814 64.3742286,71.18 Z" id="Rectangle-Copy" fill="url(#linearGradient-6)"></path>
        <path d="M35.2512595,23.6763351 C27.3611325,27.1273707 24.6573954,34.7716769 29.2127623,40.7490458 C33.7681293,46.7264148 43.8586135,48.7747005 51.7487405,45.3236649 C59.6388675,41.8726293 62.3426046,34.2283231 57.7872377,28.2509542 C53.2318707,22.2735852 43.1413865,20.2252995 35.2512595,23.6763351 Z" id="Path" fill="url(#linearGradient-2)"></path>
        <path d="M68.7838291,24.0084573 C70.0651796,26.2278216 70.8201891,28.6066343 71.0875876,31.0003524 L71.2,31 L71.2,33 C71.1954236,39.2180287 67.9673256,45.2644754 62.1953718,48.5969145 L60.463321,49.5969145 C59.3587515,47.683744 56.9123899,47.0282434 54.9992194,48.1328129 C53.7193272,48.871759 53.0023024,50.2112211 52.9985662,51.5898199 L53.54,51.59 L53.54,53.59 L31.0184573,66.5969145 C22.40919,71.5674773 11.4005627,68.6177245 6.43,60.0084573 C4.78884377,57.1658913 4.01112565,54.0617576 4.01546981,50.9997549 L4,51 L4,49 L4.12972919,48.9996168 C4.74980124,43.5171949 7.87354416,38.390417 13.0184573,35.42 L35.5351178,22.42 C36.6396873,24.3331705 39.0860489,24.9886711 40.9992194,23.8841016 C42.9123899,22.7795321 43.5678905,20.3331705 42.463321,18.42 L42.47,18.4154517 L42.47,16.42 L45.47,16.42 L45.4703165,16.7494007 C53.8633957,12.7504177 64.0555268,15.8187976 68.7838291,24.0084573 Z M48.9992194,37.7405081 C47.0860489,38.8450776 46.4305483,41.2914392 47.5351178,43.2046097 C48.6396873,45.1177802 51.0860489,45.7732808 52.9992194,44.6687113 C54.9123899,43.5641418 55.5678905,41.1177802 54.463321,39.2046097 C53.3587515,37.2914392 50.9123899,36.6359386 48.9992194,37.7405081 Z M42.9992194,27.3482032 C41.0860489,28.4527727 40.4305483,30.8991344 41.5351178,32.8123048 C42.6396873,34.7254753 45.0860489,35.380976 46.9992194,34.2764065 C48.9123899,33.171837 49.5678905,30.7254753 48.463321,28.8123048 C47.3587515,26.8991344 44.9123899,26.2436337 42.9992194,27.3482032 Z" id="Combined-Shape" fill="#101E1E"></path>
        <path d="M35.5351178,20.42 C36.6396873,22.3331705 39.0860489,22.9886711 40.9992194,21.8841016 C42.9123899,20.7795321 43.5678905,18.3331705 42.463321,16.42 L44.1953718,15.42 C52.804639,10.4494373 63.8132663,13.39919 68.7838291,22.0084573 C73.7543918,30.6177245 70.804639,41.6263518 62.1953718,46.5969145 L60.463321,47.5969145 C59.3587515,45.683744 56.9123899,45.0282434 54.9992194,46.1328129 C53.0860489,47.2373824 52.4305483,49.683744 53.5351178,51.5969145 L31.0184573,64.5969145 C22.40919,69.5674773 11.4005627,66.6177245 6.43,58.0084573 C1.45943725,49.39919 4.40919005,38.3905627 13.0184573,33.42 L35.5351178,20.42 Z M48.9992194,35.7405081 C47.0860489,36.8450776 46.4305483,39.2914392 47.5351178,41.2046097 C48.6396873,43.1177802 51.0860489,43.7732808 52.9992194,42.6687113 C54.9123899,41.5641418 55.5678905,39.1177802 54.463321,37.2046097 C53.3587515,35.2914392 50.9123899,34.6359386 48.9992194,35.7405081 Z M42.9992194,25.3482032 C41.0860489,26.4527727 40.4305483,28.8991344 41.5351178,30.8123048 C42.6396873,32.7254753 45.0860489,33.380976 46.9992194,32.2764065 C48.9123899,31.171837 49.5678905,28.7254753 48.463321,26.8123048 C47.3587515,24.8991344 44.9123899,24.2436337 42.9992194,25.3482032 Z" id="Shape" fill="url(#linearGradient-7)"></path>
    </g>
</svg>