<?xml version="1.0" encoding="UTF-8"?>
<svg width="160px" height="128px" viewBox="0 0 160 128" version="1.1" xmlns="http://www.w3.org/2000/svg" xmlns:xlink="http://www.w3.org/1999/xlink">
    <title>Icons (Solution)/Ticketing/2. Light diapositive/1. Ticketing light diapositive 160px</title>
    <defs>
        <linearGradient x1="0%" y1="100%" x2="100%" y2="0%" id="linearGradient-1">
            <stop stop-color="#EFF0F2" offset="0%"></stop>
            <stop stop-color="#EFF0F2" offset="24.7309791%"></stop>
            <stop stop-color="#FFFFFF" offset="100%"></stop>
        </linearGradient>
        <path d="M132.488991,84.9923048 C135.8027,90.7318163 133.836198,98.0709012 128.096686,101.38461 L110.776178,111.38461 C105.036667,114.698318 97.6975817,112.731816 94.3838732,106.992305 C91.0701647,101.252793 93.0366666,93.9137085 98.7761781,90.6 L116.096686,80.6 C121.836198,77.2862915 129.175283,79.2527934 132.488991,84.9923048 Z M97.152566,29.2026859 C101.939865,37.4945301 101.829137,47.2701699 97.7180896,55.1793166 C98.6769572,56.1878594 99.5332035,57.326071 100.260261,58.5853718 C105.230824,67.194639 102.281071,78.2032663 93.6718039,83.1738291 C93.6112327,83.0567578 93.5486686,82.9396419 93.4818043,82.8238294 C91.8250543,79.9542542 88.155227,78.970927 85.2856519,80.627677 C82.4160767,82.284427 81.4327494,85.9542542 83.0894994,88.8238294 C83.1563638,88.9396419 83.2265071,89.052382 83.2997444,89.1620001 L57.298737,104.173829 C48.6894697,109.144392 37.6808424,106.194639 32.7102797,97.5853718 C32.2501247,96.78836 31.8578494,95.970785 31.53166,95.1393409 C21.5479809,95.8473053 11.5604591,90.952808 6.21989864,81.7026859 C-1.23594548,68.7887851 3.18868371,52.2758441 16.1025845,44.82 L47.2794991,26.82 C48.9362491,29.6895752 52.6060763,30.6729024 55.4756515,29.0161524 C58.3452267,27.3594024 59.3285539,23.6895752 57.6718039,20.82 L60.2698801,19.32 C73.183781,11.8641559 89.6967219,16.2887851 97.152566,29.2026859 Z M76.4756515,65.3892194 C73.7092181,66.9864204 72.6958739,70.4545865 74.1110495,73.2729755 L74.0894994,73.2353714 C75.7462494,76.1049466 79.4160767,77.0882738 82.2856519,75.4315238 C85.0522518,73.8342266 86.0655515,70.365739 84.6499981,67.5472585 L84.6718039,67.5853718 C83.0150539,64.7157966 79.3452267,63.7324694 76.4756515,65.3892194 Z M67.4756515,49.8007621 C64.6060763,51.4575121 63.6227491,55.1273394 65.2794991,57.9969145 C66.9362491,60.8664897 70.6060763,61.849817 73.4756515,60.193067 C76.3452267,58.536317 77.3285539,54.8664897 75.6718039,51.9969145 C74.0150539,49.1273394 70.3452267,48.1440121 67.4756515,49.8007621 Z M58.4756515,34.2123048 C55.6060763,35.8690548 54.6227491,39.5388821 56.2794991,42.4084573 C57.9362491,45.2780324 61.6060763,46.2613597 64.4756515,44.6046097 C67.3452267,42.9478597 68.3285539,39.2780324 66.6718039,36.4084573 C65.0150539,33.5388821 61.3452267,32.5555548 58.4756515,34.2123048 Z" id="path-2"></path>
        <filter x="-9.1%" y="-12.3%" width="118.3%" height="124.7%" filterUnits="objectBoundingBox" id="filter-3">
            <feOffset dx="0" dy="0" in="SourceAlpha" result="shadowOffsetOuter1"></feOffset>
            <feGaussianBlur stdDeviation="4" in="shadowOffsetOuter1" result="shadowBlurOuter1"></feGaussianBlur>
            <feColorMatrix values="0 0 0 0 0.062745098   0 0 0 0 0.117647059   0 0 0 0 0.117647059  0 0 0 0.3 0" type="matrix" in="shadowBlurOuter1"></feColorMatrix>
        </filter>
        <linearGradient x1="7.3964497%" y1="100%" x2="92.6035503%" y2="0%" id="linearGradient-4">
            <stop stop-color="#EFF0F2" offset="0%"></stop>
            <stop stop-color="#EFF0F2" offset="24.7309791%"></stop>
            <stop stop-color="#FFFFFF" offset="100%"></stop>
        </linearGradient>
        <linearGradient x1="0%" y1="83.0465977%" x2="100%" y2="16.9534023%" id="linearGradient-5">
            <stop stop-color="#FDCA40" offset="0%"></stop>
            <stop stop-color="#FDCA40" offset="24.6093781%"></stop>
            <stop stop-color="#FFA400" offset="100%"></stop>
        </linearGradient>
        <linearGradient x1="0.101753715%" y1="88.2033448%" x2="100%" y2="11.71875%" id="linearGradient-6">
            <stop stop-color="#FFC866" offset="0%"></stop>
            <stop stop-color="#FFDB99" offset="100%"></stop>
        </linearGradient>
        <linearGradient x1="0%" y1="81.0159592%" x2="100%" y2="18.9840408%" id="linearGradient-7">
            <stop stop-color="#04E4F4" offset="0%"></stop>
            <stop stop-color="#04E4F4" offset="24.7220569%"></stop>
            <stop stop-color="#007FFF" offset="100%"></stop>
        </linearGradient>
        <linearGradient x1="3.57353036e-13%" y1="82.3099572%" x2="99.0041453%" y2="18.3335633%" id="linearGradient-8">
            <stop stop-color="#344055" offset="0%"></stop>
            <stop stop-color="#344055" offset="25%"></stop>
            <stop stop-color="#5D6677" offset="100%"></stop>
        </linearGradient>
    </defs>
    <g id="Icons-(Solution)/Ticketing/2.-Light-diapositive/1.-Ticketing-light-diapositive-160px" stroke="none" stroke-width="1" fill="none" fill-rule="evenodd">
        <g id="Icons-(Solution)/Ticketing/1.-3D/1.-Primary/1.-Ticketing-160px" transform="translate(5.998178, 8.000000)">
            <path d="M118.001822,56 C118.001822,86.9275556 92.929378,112 62.0018224,112 C31.0742669,112 6.00182243,86.9275556 6.00182243,56 C6.00182243,25.0724444 31.0742669,-7.10542736e-15 62.0018224,-7.10542736e-15 C92.929378,-7.10542736e-15 118.001822,25.0724444 118.001822,56" id="Gradient" fill="url(#linearGradient-1)"></path>
            <g id="Shadow" style="mix-blend-mode: multiply;" fill="black" fill-opacity="1">
                <use filter="url(#filter-3)" xlink:href="#path-2"></use>
            </g>
            <path d="M56.0036544,26.486777 C44.5271061,33.664931 40.5943976,49.565088 47.2203858,61.9980153 C53.8463741,74.4309427 68.5234421,78.6913769 79.9999904,71.513223 C91.4765388,64.335069 95.4092473,48.434912 88.783259,36.0019847 C82.1572707,23.5690573 67.4802028,19.3086231 56.0036544,26.486777 Z" id="Path" fill="url(#linearGradient-4)"></path>
            <path d="M133.448991,82.9923048 C134.186444,84.2696111 134.662385,85.6261391 134.893427,86.9998906 L135.061822,87 L135.061822,89 C135.052216,93.1404504 132.90063,97.1653076 129.056686,99.3846097 L110.004127,110.38461 C104.264616,113.698318 96.9255309,111.731816 93.6118224,105.992305 C92.5072529,104.079134 91.9893735,101.988233 92.0023618,99.9279337 L92.0018224,98 L92.1704552,97.9993027 C92.7459244,94.5939574 94.7795728,91.4616974 98.0041273,89.6 L117.056686,78.6 C122.796198,75.2862915 130.135283,77.2527934 133.448991,82.9923048 Z" id="Combined-Shape" fill="#9D8532"></path>
            <path d="M98.0041273,87.6 L117.056686,76.6 C122.796198,73.2862915 130.135283,75.2527934 133.448991,80.9923048 C136.7627,86.7318163 134.796198,94.0709012 129.056686,97.3846097 L110.004127,108.38461 C104.264616,111.698318 96.9255309,109.731816 93.6118224,103.992305 C90.2981139,98.2527934 92.2646158,90.9137085 98.0041273,87.6 Z" id="Rectangle-Copy" fill="url(#linearGradient-5)"></path>
            <path d="M138.001822,30 C138.001822,33.3137085 135.315531,36 132.001822,36 C128.688114,36 126.001822,33.3137085 126.001822,30 C126.001822,26.6862915 128.688114,24 132.001822,24 C132.70335,24 133.376757,24.1203964 134.002508,24.3416539 L134.001822,16 L118.001822,16 L118.001822,30 C118.001822,33.3137085 115.315531,36 112.001822,36 C108.688114,36 106.001822,33.3137085 106.001822,30 C106.001822,26.6862915 108.688114,24 112.001822,24 C112.70335,24 113.376757,24.1203964 114.002508,24.3416539 L114.001822,12 C114.001822,9.790861 115.792683,8 118.001822,8 L134.001822,8 C136.210961,8 138.001822,9.790861 138.001822,12 L138.001822,30 Z" id="Solid" fill="url(#linearGradient-6)"></path>
            <path d="M63.1011352,53.2545935 L68.8311241,59.7917132 L79.6587805,52.9025606 L79.6498011,52.1301052 C79.6180452,46.8433878 80.2393962,44.086545 81.513854,43.8595768 C88.7637842,42.5684365 96.3655679,45.8395651 100.260261,52.5853718 C105.230824,61.194639 102.281071,72.2032663 93.6718039,77.1738291 C93.6112327,77.0567578 93.5486686,76.9396419 93.4818043,76.8238294 C91.8250543,73.9542542 88.155227,72.970927 85.2856519,74.627677 C82.4160767,76.284427 81.4327494,79.9542542 83.0894994,82.8238294 C83.1563638,82.9396419 83.2265071,83.052382 83.2997444,83.1620001 L57.298737,98.1738291 C48.6894697,103.144392 37.6808424,100.194639 32.7102797,91.5853718 C27.7397169,82.9761046 30.6894697,71.9674773 39.298737,66.9969145 L63.1011352,53.2545935 Z M76.2856519,59.039219 C73.4160767,60.695969 72.4327494,64.3657962 74.0894994,67.2353714 C75.7462494,70.1049466 79.4160767,71.0882738 82.2856519,69.4315238 C85.155227,67.7747738 86.1385543,64.1049466 84.4818043,61.2353714 C82.8250543,58.3657962 79.155227,57.382469 76.2856519,59.039219 Z" id="Shape" fill="url(#linearGradient-7)"></path>
            <path d="M97.1543885,23.2045083 C104.610233,36.1184092 100.185603,52.6313501 87.2717026,60.0871942 L84.6736264,61.5871942 C83.0168764,58.7176191 79.3470491,57.7342918 76.4774739,59.3910418 C74.2439258,60.6805814 73.1531355,63.1897167 73.5605755,65.5918056 L74.2836449,65.5918224 L74.2836449,67.5918224 L74.2738224,67.591 L40.5063308,87.0871942 C27.5924299,94.5430384 11.079489,90.1184092 3.62364486,77.2045083 C-3.83219926,64.2906075 0.592429928,47.7776666 13.5063308,40.3218224 L47.2813215,20.8218224 C48.9380715,23.6913976 52.6078988,24.6747249 55.4774739,23.0179749 C58.3404478,21.3650361 59.3258422,17.7082714 57.6850182,14.8416389 L57.6736449,14.8418224 L57.6736449,12.8418224 L59.6736449,12.8418224 L59.6728224,13.666 L60.2717026,13.3218224 C73.1856034,5.86597831 89.6985443,10.2906075 97.1543885,23.2045083 Z M67.4774739,43.8025845 C64.6078988,45.4593345 63.6245715,49.1291618 65.2813215,51.998737 C66.9380715,54.8683121 70.6078988,55.8516394 73.4774739,54.1948894 C76.3470491,52.5381394 77.3303764,48.8683121 75.6736264,45.998737 C74.0168764,43.1291618 70.3470491,42.1458345 67.4774739,43.8025845 Z M58.4774739,28.2141273 C55.6078988,29.8708773 54.6245715,33.5407045 56.2813215,36.4102797 C57.9380715,39.2798549 61.6078988,40.2631821 64.4774739,38.6064321 C67.3470491,36.9496821 68.3303764,33.2798549 66.6736264,30.4102797 C65.0168764,27.5407045 61.3470491,26.5573773 58.4774739,28.2141273 Z" id="Solid" fill="#101E1E"></path>
            <path d="M47.2794991,18.82 C48.9362491,21.6895752 52.6060763,22.6729024 55.4756515,21.0161524 C58.3452267,19.3594024 59.3285539,15.6895752 57.6718039,12.82 L60.2698801,11.32 C73.183781,3.86415588 89.6967219,8.28878507 97.152566,21.2026859 C104.60841,34.1165867 100.183781,50.6295277 87.2698801,58.0853718 L84.6718039,59.5853718 C83.0150539,56.7157966 79.3452267,55.7324694 76.4756515,57.3892194 C73.6060763,59.0459694 72.6227491,62.7157966 74.2794991,65.5853718 L40.5045083,85.0853718 C27.5906075,92.5412159 11.0776666,88.1165867 3.62182243,75.2026859 C-3.83402169,62.2887851 0.590607498,45.7758441 13.5045083,38.32 L47.2794991,18.82 Z M67.4756515,41.8007621 C64.6060763,43.4575121 63.6227491,47.1273394 65.2794991,49.9969145 C66.9362491,52.8664897 70.6060763,53.849817 73.4756515,52.193067 C76.3452267,50.536317 77.3285539,46.8664897 75.6718039,43.9969145 C74.0150539,41.1273394 70.3452267,40.1440121 67.4756515,41.8007621 Z M58.4756515,26.2123048 C55.6060763,27.8690548 54.6227491,31.5388821 56.2794991,34.4084573 C57.9362491,37.2780324 61.6060763,38.2613597 64.4756515,36.6046097 C67.3452267,34.9478597 68.3285539,31.2780324 66.6718039,28.4084573 C65.0150539,25.5388821 61.3452267,24.5555548 58.4756515,26.2123048 Z" id="Shape" fill="url(#linearGradient-8)"></path>
        </g>
    </g>
</svg>