<?xml version="1.0" encoding="UTF-8"?>
<svg width="160px" height="128px" viewBox="0 0 160 128" version="1.1" xmlns="http://www.w3.org/2000/svg" xmlns:xlink="http://www.w3.org/1999/xlink">
    <title>Icons (Solution)/MSC/2. Light diapositive/1. MSC light diapositive 160px</title>
    <defs>
        <linearGradient x1="0%" y1="100%" x2="100%" y2="0%" id="linearGradient-1">
            <stop stop-color="#EFF0F2" offset="0%"></stop>
            <stop stop-color="#EFF0F2" offset="24.7309791%"></stop>
            <stop stop-color="#FFFFFF" offset="100%"></stop>
        </linearGradient>
        <path d="M19.3826859,96.9103011 L19.3826859,20.9103011 C19.3826859,16.4920231 22.9644079,12.9103011 27.3826859,12.9103011 L65.3826859,12.9103011 C69.8009639,12.9103011 73.3826859,16.4920231 73.3826859,20.9103011 L73.3826859,96.9103011 C73.3826859,101.328579 69.8009639,104.910301 65.3826859,104.910301 L27.3826859,104.910301 C22.9644079,104.910301 19.3826859,101.328579 19.3826859,96.9103011 Z" id="path-2"></path>
        <filter x="-22.2%" y="-13.0%" width="144.4%" height="126.1%" filterUnits="objectBoundingBox" id="filter-3">
            <feOffset dx="0" dy="0" in="SourceAlpha" result="shadowOffsetOuter1"></feOffset>
            <feGaussianBlur stdDeviation="4" in="shadowOffsetOuter1" result="shadowBlurOuter1"></feGaussianBlur>
            <feColorMatrix values="0 0 0 0 0.062745098   0 0 0 0 0.117647059   0 0 0 0 0.117647059  0 0 0 0.3 0" type="matrix" in="shadowBlurOuter1"></feColorMatrix>
        </filter>
        <linearGradient x1="12.103918%" y1="100%" x2="87.1413022%" y2="0.995854731%" id="linearGradient-4">
            <stop stop-color="#344055" offset="0%"></stop>
            <stop stop-color="#344055" offset="25%"></stop>
            <stop stop-color="#5D6677" offset="100%"></stop>
        </linearGradient>
        <linearGradient x1="13.539179%" y1="100%" x2="85.7346274%" y2="0.995854731%" id="linearGradient-5">
            <stop stop-color="#101E1E" offset="0%"></stop>
            <stop stop-color="#101E1E" offset="25%"></stop>
            <stop stop-color="#344055" offset="100%"></stop>
        </linearGradient>
        <path d="M3.00100185,18.8048494 L34.1779164,0.804849429 C37.0476721,-0.852004821 40.7172146,0.131246111 42.3740688,3.00100185 L78.3740688,65.3548309 C80.0309231,68.2245867 79.0476721,71.8941291 76.1779164,73.5509833 L44.1349764,92.0509833 C41.7435133,93.4316952 38.6855613,92.6123194 37.3048494,90.2208563 L0.804849429,27.0010019 C-0.852004821,24.1312461 0.131246111,20.4617037 3.00100185,18.8048494 Z" id="path-6"></path>
        <linearGradient x1="2.95388631%" y1="100%" x2="97.0461137%" y2="0%" id="linearGradient-8">
            <stop stop-color="#FDCA40" offset="0%"></stop>
            <stop stop-color="#FDCA40" offset="24.6093781%"></stop>
            <stop stop-color="#FFA400" offset="100%"></stop>
        </linearGradient>
        <linearGradient x1="2.80826476%" y1="100%" x2="97.1917352%" y2="0%" id="linearGradient-9">
            <stop stop-color="#FDCA40" offset="0%"></stop>
            <stop stop-color="#FDCA40" offset="24.6093781%"></stop>
            <stop stop-color="#FFA400" offset="100%"></stop>
        </linearGradient>
        <linearGradient x1="2.71582192%" y1="100%" x2="97.2841781%" y2="0%" id="linearGradient-10">
            <stop stop-color="#FDCA40" offset="0%"></stop>
            <stop stop-color="#FDCA40" offset="24.6093781%"></stop>
            <stop stop-color="#FFA400" offset="100%"></stop>
        </linearGradient>
        <linearGradient x1="2.9185067%" y1="100%" x2="97.0814933%" y2="0%" id="linearGradient-11">
            <stop stop-color="#FDCA40" offset="0%"></stop>
            <stop stop-color="#FDCA40" offset="24.6093781%"></stop>
            <stop stop-color="#FFA400" offset="100%"></stop>
        </linearGradient>
        <linearGradient x1="2.87152415%" y1="100%" x2="97.1284759%" y2="0%" id="linearGradient-12">
            <stop stop-color="#FDCA40" offset="0%"></stop>
            <stop stop-color="#FDCA40" offset="24.6093781%"></stop>
            <stop stop-color="#FFA400" offset="100%"></stop>
        </linearGradient>
        <linearGradient x1="0.101753715%" y1="99.8982463%" x2="100%" y2="0%" id="linearGradient-13">
            <stop stop-color="#FFC866" offset="0%"></stop>
            <stop stop-color="#FFDB99" offset="100%"></stop>
        </linearGradient>
    </defs>
    <g id="Icons-(Solution)/MSC/2.-Light-diapositive/1.-MSC-light-diapositive-160px" stroke="none" stroke-width="1" fill="none" fill-rule="evenodd">
        <g id="Icons-(Solution)/MSC/1.-3D/1.-Primary/1.-MSC-160px" transform="translate(5.966025, 6.026867)">
            <path d="M118.033975,57.9731326 C118.033975,88.9006881 92.9615302,113.973133 62.0339746,113.973133 C31.106419,113.973133 6.0339746,88.9006881 6.0339746,57.9731326 C6.0339746,27.045577 31.106419,1.97313257 62.0339746,1.97313257 C92.9615302,1.97313257 118.033975,27.045577 118.033975,57.9731326" id="Gradient" fill="url(#linearGradient-1)"></path>
            <g id="Shadow" style="mix-blend-mode: multiply;" transform="translate(46.382686, 58.910301) rotate(-30.000000) translate(-46.382686, -58.910301) " fill="black" fill-opacity="1">
                <use filter="url(#filter-3)" xlink:href="#path-2"></use>
            </g>
            <path d="M49.6313972,6.0013358 L87.6313972,71.8192665 C88.018763,72.4902037 88.2978966,73.1939284 88.4742152,73.9102235 L88.7026859,73.9103011 L88.7031316,75.6623365 C88.7558492,78.4793575 87.315906,81.2390197 84.703194,82.7474697 L50.0621778,102.74747 C46.2358368,104.956609 41.3431136,103.645607 39.1339746,99.8192665 L1.1339746,34.0013358 C0.388949177,32.7109139 0.0442887182,31.2992065 0.0614521317,29.9100509 L0.0550167585,27.9103011 L0.340186038,27.9106791 C0.873386361,25.9411383 2.15549266,24.1739578 4.06217783,23.0731326 L38.703194,3.07313257 C42.529535,0.863993572 47.4222582,2.17499481 49.6313972,6.0013358 Z" id="Combined-Shape" fill="#101E1E"></path>
            <path d="M39.1339746,97.8192665 L1.1339746,32.0013358 C-1.0751644,28.1749948 0.235836839,23.2822716 4.06217783,21.0731326 L38.703194,1.07313257 C42.529535,-1.13600643 47.4222582,0.174994814 49.6313972,4.0013358 L87.6313972,69.8192665 C89.8405362,73.6456075 88.529535,78.5383307 84.703194,80.7474697 L50.0621778,100.74747 C46.2358368,102.956609 41.3431136,101.645607 39.1339746,97.8192665 Z" id="Solid" fill="url(#linearGradient-4)"></path>
            <g id="new-screen" transform="translate(4.789125, 4.728283)">
                <mask id="mask-7" fill="white">
                    <use xlink:href="#path-6"></use>
                </mask>
                <use fill="url(#linearGradient-5)" xlink:href="#path-6"></use>
                <path d="M60.0894591,76.4888055 C60.0894591,74.832016 58.746092,73.4888055 57.0891091,73.4888055 C55.4321263,73.4888055 54.0894591,74.832016 54.0894591,76.4888055 C54.0894591,78.1455951 55.4321263,79.4888055 57.0891091,79.4888055 C58.746092,79.4888055 60.0894591,78.1455951 60.0894591,76.4888055" id="new-button" fill="url(#linearGradient-1)" mask="url(#mask-7)"></path>
                <path d="M34.1794513,0.804849429 C37.049207,-0.852004821 40.7187495,0.131246111 42.3756037,3.00100185 L72.3241925,54.8739262 C55.2509361,63.5257878 34.3742197,63.8509991 16.4196117,54.0474496 L0.806384342,27.0010019 C-0.850469907,24.1312461 0.132781024,20.4617037 3.00253676,18.8048494 L34.1794513,0.804849429 Z" id="Path" fill-opacity="0.05" fill="#FFFFFF" mask="url(#mask-7)"></path>
            </g>
            <path d="M127.708598,39.9682571 C128.19046,39.9924545 128.63127,40.2469558 128.893156,40.6521624 L135.102523,50.2596555 L146.037121,47.303335 L146.037668,46.7592838 L148.037668,46.7592838 L148.037668,48.7598469 C148.028401,49.088101 147.91271,49.4086881 147.700696,49.6693366 L140.482227,58.5436733 L145.985121,66.977335 L146.975355,66.9780118 L146.976405,68.8852358 C146.995764,69.394567 146.754946,69.9010493 146.297021,70.1998544 C145.892963,70.4635101 145.386748,70.5167154 144.936703,70.3428296 L134.266077,66.2199782 L127.08647,75.1257849 C126.566533,75.7707317 125.622207,75.8720716 124.977261,75.352134 C124.622255,75.0659385 124.417842,74.6348614 124.418689,74.1816898 L124.41593,72.1815765 L124.525121,72.181335 L125.044582,62.6801777 L114.356036,58.6040113 C113.718583,58.3609132 113.342818,57.7301552 113.394917,57.082784 L113.394611,55.2072486 L115.394611,55.2072486 L115.394121,55.516335 L125.561533,52.8161558 L126.135256,41.3911397 C126.176804,40.5637552 126.881213,39.9267089 127.708598,39.9682571 Z" id="Combined-Shape" fill="#9D8532"></path>
            <path d="M134.266077,64.2199782 L127.08647,73.1257849 C126.566533,73.7707317 125.622207,73.8720716 124.977261,73.352134 C124.601648,73.0493261 124.394618,72.584329 124.420922,72.1025767 L125.044582,60.6801777 L114.356036,56.6040113 C113.581985,56.3088207 113.193793,55.4420297 113.488983,54.6679793 C113.6609,54.2171781 114.039163,53.8765888 114.505465,53.7527353 L125.561533,50.8161558 L126.135256,39.3911397 C126.176804,38.5637552 126.881213,37.9267089 127.708598,37.9682571 C128.19046,37.9924545 128.63127,38.2469558 128.893156,38.6521624 L135.102523,48.2596555 L146.145648,45.2747736 C146.945377,45.0586124 147.768918,45.5316873 147.98508,46.3314159 C148.11097,46.7971719 148.005143,47.2950517 147.700696,47.6693366 L140.482227,56.5436733 L146.733532,66.123931 C147.186243,66.8177206 146.99081,67.7471432 146.297021,68.1998544 C145.892963,68.4635101 145.386748,68.5167154 144.936703,68.3428296 L134.266077,64.2199782 Z" id="Colour" fill="url(#linearGradient-8)"></path>
            <path d="M73.01101,16.1937502 C73.4162166,16.4556371 73.670718,16.8964464 73.6949154,17.378309 L74.0265409,23.9822489 L79.5275038,25.4433595 L79.5282138,25.0274524 L81.5282138,25.0274524 L81.5282138,27.0280156 C81.5399364,27.187322 81.5252233,27.351322 81.481893,27.5144585 C81.3580395,27.9807604 81.0174502,28.3590231 80.566649,28.5309399 L74.3884069,30.8870642 L74.6415038,35.5293595 L74.7507422,35.5299394 L74.7507422,37.5305025 L74.7485038,37.5303595 L74.7499171,37.6341108 C74.7188101,38.3975941 74.1114429,39.0265303 73.3329064,39.0690382 C72.8511542,39.0953417 72.386157,38.8883117 72.0833492,38.5126995 L67.9333601,33.3649245 L61.7654766,35.7480338 C60.992724,36.0466053 60.1242442,35.6622055 59.8256728,34.8894529 C59.7677108,34.7394378 59.7349813,34.5831817 59.7268677,34.4265484 L59.7267163,32.3700683 L60.7245038,32.3693595 L63.5820557,27.9915111 L59.4096032,22.8619266 C59.1965545,22.600006 59.0864809,22.2879084 59.0743387,21.9746508 L59.0725038,19.9741571 L61.0725038,19.9741571 L61.0725038,20.4963595 L67.3478485,22.1926986 L70.9370146,16.6393318 C71.3866887,15.9435698 72.315248,15.7440762 73.01101,16.1937502 Z" id="Combined-Shape" fill="#9D8532"></path>
            <path d="M67.9333601,31.3649245 L61.7654766,33.7480338 C60.992724,34.0466053 60.1242442,33.6622055 59.8256728,32.8894529 C59.651787,32.4394075 59.7049923,31.9331932 59.9686479,31.5291352 L63.5820557,25.9915111 L59.4096032,20.8619266 C58.8868512,20.2192589 58.9840621,19.2744995 59.6267299,18.7517475 C60.0010148,18.4473006 60.4988946,18.3414729 60.9646506,18.4673636 L67.3478485,20.1926986 L70.9370146,14.6393318 C71.3866887,13.9435698 72.315248,13.7440762 73.01101,14.1937502 C73.4162166,14.4556371 73.670718,14.8964464 73.6949154,15.378309 L74.0265409,21.9822489 L80.41722,23.6796639 C81.2178858,23.8923271 81.6945562,24.7137926 81.481893,25.5144585 C81.3580395,25.9807604 81.0174502,26.3590231 80.566649,26.5309399 L74.3884069,28.8870642 L74.7488977,35.4894912 C74.7940624,36.3166863 74.1601015,37.0238736 73.3329064,37.0690382 C72.8511542,37.0953417 72.386157,36.8883117 72.0833492,36.5126995 L67.9333601,31.3649245 Z" id="Colour" fill="url(#linearGradient-9)"></path>
            <path d="M54.8035215,45.9811495 C55.2853842,46.0053469 55.7261935,46.2598482 55.9880803,46.6650549 L58.7038464,50.8670463 L63.4183593,49.5922274 L63.4188903,48.8660059 L65.4188903,48.8660059 L65.4188903,50.8665691 C65.4555909,51.255594 65.3395793,51.6477951 65.0887823,51.9561233 L61.9316688,55.837457 L63.9493593,58.9302274 L64.9063633,58.9305308 L64.9080045,60.7738213 C64.932723,61.2881956 64.6916929,61.8017179 64.2292665,62.1034601 C63.8252086,62.3671158 63.3189942,62.4203211 62.8689488,62.2464353 L58.2019793,60.44324 L55.0618628,64.3383376 C54.5419252,64.9832844 53.5975998,65.0846243 52.952653,64.5646867 C52.5911262,64.2732341 52.385775,63.8315284 52.3943361,63.3692482 L52.3950599,61.3678632 L52.5013593,61.3672274 L52.669082,58.3193597 L47.9942746,56.5365828 C47.3542008,56.2924853 46.977972,55.657534 47.0338195,55.0073707 L47.0340822,53.070191 L49.0340822,53.070191 L49.0333593,53.4482274 L52.9792529,52.4009465 L53.2301795,47.4040321 C53.2717277,46.5766476 53.9761369,45.9396013 54.8035215,45.9811495 Z" id="Combined-Shape" fill="#9D8532"></path>
            <path d="M58.2019793,58.44324 L55.0618628,62.3383376 C54.5419252,62.9832844 53.5975998,63.0846243 52.952653,62.5646867 C52.5770408,62.2618788 52.3700107,61.7968817 52.3963143,61.3151294 L52.669082,56.3193597 L47.9942746,54.5365828 C47.2202242,54.2413922 46.8320316,53.3746011 47.1272222,52.6005507 C47.299139,52.1497495 47.6774018,51.8091602 48.1437037,51.6853067 L52.9792529,50.4009465 L53.2301795,45.4040321 C53.2717277,44.5766476 53.9761369,43.9396013 54.8035215,43.9811495 C55.2853842,44.0053469 55.7261935,44.2598482 55.9880803,44.6650549 L58.7038464,48.8670463 L63.5337349,47.5615603 C64.3334636,47.3453991 65.157005,47.8184739 65.3731662,48.6182025 C65.4990568,49.0839585 65.3932292,49.5818383 65.0887823,49.9561233 L61.9316688,53.837457 L64.6657775,58.0275367 C65.1184887,58.7213263 64.9230561,59.6507489 64.2292665,60.1034601 C63.8252086,60.3671158 63.3189942,60.4203211 62.8689488,60.2464353 L58.2019793,58.44324 Z" id="Colour" fill="url(#linearGradient-10)"></path>
            <path d="M114.175082,29.2482937 L105.005371,32.791231 C104.232618,33.0898025 103.364138,32.7054027 103.065567,31.9326501 C102.891681,31.4826047 102.944886,30.9763903 103.208542,30.5723324 L108.580548,22.3396193 L102.377417,14.7135333 C101.854665,14.0708655 101.951876,13.1261061 102.594544,12.6033541 C102.968829,12.2989072 103.466709,12.1930796 103.932465,12.3189703 L113.422281,14.8840032 L118.758248,6.62788555 C119.207922,5.93212358 120.136481,5.73262995 120.832243,6.18230404 C121.23745,6.4441909 121.491951,6.88500019 121.516148,7.36686284 L122.009172,17.1848535 L131.51011,19.7083781 C132.310776,19.9210414 132.787447,20.7425069 132.574783,21.5431728 C132.45093,22.0094746 132.110341,22.3877374 131.659539,22.5596542 L122.474428,26.0624732 L123.010365,35.8782149 C123.05553,36.7054099 122.421569,37.4125972 121.594374,37.4577618 C121.112621,37.4840654 120.647624,37.2770353 120.344816,36.9014231 L114.175082,29.2482937 Z" id="Colour" fill="url(#linearGradient-11)"></path>
            <path d="M96.0521709,54.3266091 L90.8923092,60.7270613 C90.3723715,61.3720081 89.4280461,61.473348 88.7830993,60.9534103 C88.4074871,60.6506025 88.2004571,60.1856053 88.2267606,59.7038531 L88.6749745,51.4947687 L80.9932978,48.5652971 C80.2192474,48.2701065 79.8310548,47.4033154 80.1262454,46.629265 C80.2981622,46.1784638 80.6764249,45.8378745 81.1427268,45.714021 L89.0885357,43.6035512 L89.5008601,35.3925859 C89.5424083,34.5652014 90.2468175,33.9281551 91.0742021,33.9697033 C91.5560648,33.9939007 91.9968741,34.248402 92.2587609,34.6536086 L96.721327,41.5583509 L104.657834,39.413167 C105.457563,39.1970058 106.281104,39.6700806 106.497265,40.4698092 C106.623156,40.9355652 106.517329,41.433445 106.212882,41.8077299 L101.02509,48.1855652 L105.517797,55.0707338 C105.970508,55.7645234 105.775076,56.693946 105.081286,57.1466573 C104.677228,57.4103129 104.171014,57.4635182 103.720968,57.2896324 L96.0521709,54.3266091 Z" id="Colour" fill="url(#linearGradient-12)"></path>
            <path d="M98.5341865,72.5708418 C97.0996737,71.7426255 96.608049,69.9078572 97.4362654,68.4733444 C98.2644817,67.0388317 100.09925,66.547207 101.533763,67.3754233 C102.968275,68.2036397 103.4599,70.0384079 102.631684,71.4729207 C101.803467,72.9074335 99.9686992,73.3990581 98.5341865,72.5708418 Z" id="Fill-16-Copy-3" fill="url(#linearGradient-13)"></path>
            <path d="M142.534186,30.5708418 C141.099674,29.7426255 140.608049,27.9078572 141.436265,26.4733444 C142.264482,25.0388317 144.09925,24.547207 145.533763,25.3754233 C146.968275,26.2036397 147.4599,28.0384079 146.631684,29.4729207 C145.803467,30.9074335 143.968699,31.3990581 142.534186,30.5708418 Z" id="Fill-16-Copy-4" fill="url(#linearGradient-13)"></path>
            <path d="M86.5341865,11.5708418 C85.0996737,10.7426255 84.608049,8.90785721 85.4362654,7.47334445 C86.2644817,6.03883168 88.09925,5.54720701 89.5337627,6.37542334 C90.9682755,7.20363967 91.4599002,9.03840793 90.6316838,10.4729207 C89.8034675,11.9074335 87.9686992,12.3990581 86.5341865,11.5708418 Z" id="Fill-16-Copy-5" fill="url(#linearGradient-13)"></path>
            <path d="M38.5341865,40.0123269 C37.0996737,39.1841106 36.608049,37.3493423 37.4362654,35.9148295 C38.2644817,34.4803168 40.09925,33.9886921 41.5337627,34.8169084 C42.9682755,35.6451248 43.4599002,37.479893 42.6316838,38.9144058 C41.8034675,40.3489185 39.9686992,40.8405432 38.5341865,40.0123269 Z" id="Fill-16-Copy-6" fill="url(#linearGradient-13)"></path>
        </g>
    </g>
</svg>