<?xml version="1.0" encoding="UTF-8"?>
<svg width="96px" height="96px" viewBox="0 0 96 96" version="1.1" xmlns="http://www.w3.org/2000/svg" xmlns:xlink="http://www.w3.org/1999/xlink">
    <title>Icons (Solution)/MSC/2. Light diapositive/2. MSC light diapositive 96px</title>
    <defs>
        <linearGradient x1="0%" y1="100%" x2="100%" y2="0%" id="linearGradient-1">
            <stop stop-color="#EFF0F2" offset="0%"></stop>
            <stop stop-color="#EFF0F2" offset="24.7309791%"></stop>
            <stop stop-color="#FFFFFF" offset="100%"></stop>
        </linearGradient>
        <path d="M13.5884573,65.0176623 L13.5884573,13.0176623 C13.5884573,9.70395385 16.2747488,7.01766235 19.5884573,7.01766235 L43.5884573,7.01766235 C46.9021658,7.01766235 49.5884573,9.70395385 49.5884573,13.0176623 L49.5884573,65.0176623 C49.5884573,68.3313708 46.9021658,71.0176623 43.5884573,71.0176623 L19.5884573,71.0176623 C16.2747488,71.0176623 13.5884573,68.3313708 13.5884573,65.0176623 Z" id="path-2"></path>
        <filter x="-20.8%" y="-11.7%" width="141.7%" height="123.4%" filterUnits="objectBoundingBox" id="filter-3">
            <feOffset dx="0" dy="0" in="SourceAlpha" result="shadowOffsetOuter1"></feOffset>
            <feGaussianBlur stdDeviation="2.5" in="shadowOffsetOuter1" result="shadowBlurOuter1"></feGaussianBlur>
            <feColorMatrix values="0 0 0 0 0.062745098   0 0 0 0 0.117647059   0 0 0 0 0.117647059  0 0 0 0.3 0" type="matrix" in="shadowBlurOuter1"></feColorMatrix>
        </filter>
        <linearGradient x1="12.6651528%" y1="100%" x2="86.5912455%" y2="0.995854731%" id="linearGradient-4">
            <stop stop-color="#344055" offset="0%"></stop>
            <stop stop-color="#344055" offset="25%"></stop>
            <stop stop-color="#5D6677" offset="100%"></stop>
        </linearGradient>
        <linearGradient x1="13.7147927%" y1="100%" x2="85.5625114%" y2="0.995854731%" id="linearGradient-5">
            <stop stop-color="#101E1E" offset="0%"></stop>
            <stop stop-color="#101E1E" offset="25%"></stop>
            <stop stop-color="#344055" offset="100%"></stop>
        </linearGradient>
        <path d="M2.50083488,12.6707079 L23.2854446,0.670707857 C25.6769077,-0.710004017 28.7348597,0.109371759 30.1155716,2.50083488 L55.1155716,45.8021051 C56.4962835,48.1935682 55.6769077,51.2515202 53.2854446,52.6322321 L32.0678222,64.8822321 C29.9155054,66.1248728 27.1633485,65.3874346 25.9207079,63.2351178 L0.670707857,19.5008349 C-0.710004017,17.1093718 0.109371759,14.0514197 2.50083488,12.6707079 Z" id="path-6"></path>
        <linearGradient x1="0%" y1="96.3648834%" x2="100%" y2="3.6351166%" id="linearGradient-8">
            <stop stop-color="#FDCA40" offset="0%"></stop>
            <stop stop-color="#FDCA40" offset="24.6093781%"></stop>
            <stop stop-color="#FFA400" offset="100%"></stop>
        </linearGradient>
    </defs>
    <g id="Icons-(Solution)/MSC/2.-Light-diapositive/2.-MSC-light-diapositive-96px" stroke="none" stroke-width="1" fill="none" fill-rule="evenodd">
        <g id="Icons-(Solution)/MSC/1.-3D/1.-Primary/2.-MSC-96px" transform="translate(3.676025, 7.995151)">
            <path d="M84.3239746,40.0048494 C84.3239746,62.0959605 66.4150857,80.0048494 44.3239746,80.0048494 C22.2328635,80.0048494 4.3239746,62.0959605 4.3239746,40.0048494 C4.3239746,17.9137383 22.2328635,0.00484942882 44.3239746,0.00484942882 C66.4150857,0.00484942882 84.3239746,17.9137383 84.3239746,40.0048494" id="Gradient" fill="url(#linearGradient-1)"></path>
            <g id="Shadow" style="mix-blend-mode: multiply;" transform="translate(31.588457, 39.017662) rotate(-30.000000) translate(-31.588457, -39.017662) " fill="black" fill-opacity="1">
                <use filter="url(#filter-3)" xlink:href="#path-2"></use>
            </g>
            <path d="M34.0429399,5.00100185 L60.0429399,50.0343228 C60.2271572,50.3533965 60.3787372,50.6823571 60.4987158,51.0173391 L60.8522331,51.0176623 L60.8522331,53.0176623 C60.8516499,55.0950922 59.7751076,57.1171592 57.8467875,58.2304753 L35.7631397,70.9804753 C32.6542377,72.7754007 28.6789,71.7102122 26.8839746,68.6013101 L1.1339746,24.0010019 C0.581689846,23.0444166 0.322750117,21.9989662 0.329244282,20.9688163 L0.328974596,19.0176623 L0.66729555,19.0176758 C1.1248819,17.7092768 2.03555274,16.5522722 3.33012702,15.8048494 L25.8467875,2.80484943 C28.7165433,1.14799518 32.3860857,2.13124611 34.0429399,5.00100185 Z" id="Combined-Shape" fill="#101E1E"></path>
            <path d="M27.1339746,67.0343228 L1.1339746,22.0010019 C-0.522879653,19.1312461 0.460371278,15.4617037 3.33012702,13.8048494 L25.8467875,0.804849429 C28.7165433,-0.852004821 32.3860857,0.131246111 34.0429399,3.00100185 L60.0429399,48.0343228 C61.6997942,50.9040786 60.7165433,54.573621 57.8467875,56.2304753 L35.330127,69.2304753 C32.4603713,70.8873295 28.7908288,69.9040786 27.1339746,67.0343228 Z" id="Solid" fill="url(#linearGradient-4)"></path>
            <g id="new-screen" transform="translate(2.673267, 2.354142)">
                <mask id="mask-7" fill="white">
                    <use xlink:href="#path-6"></use>
                </mask>
                <use fill="url(#linearGradient-5)" xlink:href="#path-6"></use>
                <path d="M41.8931397,53.4360797 C41.8931397,52.3315533 40.9975616,51.4360797 39.8929064,51.4360797 C38.7882511,51.4360797 37.8931397,52.3315533 37.8931397,53.4360797 C37.8931397,54.540606 38.7882511,55.4360797 39.8929064,55.4360797 C40.9975616,55.4360797 41.8931397,54.540606 41.8931397,53.4360797" id="new-button" fill="url(#linearGradient-1)" mask="url(#mask-7)"></path>
                <path d="M30.1376224,2.51288568 L50.7707502,38.2502095 C45.4502819,41.0969781 39.3712406,42.7111446 32.9151905,42.7111446 C24.0022866,42.7111446 15.8079313,39.6346725 9.33610354,34.4857073 L0.692758665,19.5128857 C-0.68795321,17.1214226 0.131422566,14.0634705 2.52288568,12.6827587 L23.3074954,0.682758665 C25.6989585,-0.69795321 28.7569105,0.121422566 30.1376224,2.51288568 Z" id="Combined-Shape" fill-opacity="0.05" fill="#FFFFFF" mask="url(#mask-7)"></path>
            </g>
            <path d="M79.8844109,5.06414359 C80.270545,5.18713403 80.5730947,5.48968367 80.6960851,5.87581781 L82.1877864,10.5590827 L87.0909534,10.5482316 C87.3700614,10.5476139 87.6280064,10.6385205 87.8363796,10.7926681 L88.3445986,10.7941603 L88.3445986,11.8384716 L88.3408216,11.8378494 L88.3370189,11.9275809 C88.300727,12.2767129 88.1187036,12.5969697 87.8322217,12.8067496 L83.8458127,15.7258468 L85.1668216,19.8128494 L85.4266761,19.8132147 L85.4279435,20.7703208 C85.4493363,21.3161642 85.1083801,21.8317158 84.5630759,22.0080075 C84.1795582,22.1319951 83.7597865,22.0634437 83.4356375,21.8238895 L79.5050434,18.9190827 L75.5744494,21.8238895 C75.0192536,22.2341931 74.2365618,22.1167347 73.8262583,21.5615389 C73.6571136,21.3326634 73.5732224,21.0561152 73.5821659,20.7783171 L73.5836652,19.7340059 L73.8678216,19.7338494 L75.1642742,15.7258468 L71.1778652,12.8067496 C70.8398994,12.55927 70.6624926,12.173982 70.6663437,11.7848075 L70.6638216,10.7405323 L71.2523395,10.7391833 C71.4495468,10.6155499 71.6801088,10.5477026 71.9191335,10.5482316 L76.8223005,10.5590827 L78.3140017,5.87581781 C78.5235206,5.21802365 79.2266167,4.85462472 79.8844109,5.06414359 Z" id="Combined-Shape" fill="#9D8532"></path>
            <path d="M79.5050434,17.9190827 L75.5744494,20.8238895 C75.0192536,21.2341931 74.2365618,21.1167347 73.8262583,20.5615389 C73.5867041,20.2373899 73.5181527,19.8176182 73.6421403,19.4341005 L75.1642742,14.7258468 L75.1642742,14.7258468 L71.1778652,11.8067496 C70.6208743,11.3988862 70.4999827,10.6167174 70.9078461,10.0597265 C71.1438484,9.73743442 71.5196732,9.54734757 71.9191335,9.54823161 L76.8223005,9.55908267 L76.8223005,9.55908267 L78.3140017,4.87581781 C78.5235206,4.21802365 79.2266167,3.85462472 79.8844109,4.06414359 C80.270545,4.18713403 80.5730947,4.48968367 80.6960851,4.87581781 L82.1877864,9.55908267 L82.1877864,9.55908267 L87.0909534,9.54823161 C87.7813076,9.5467038 88.3421888,10.105108 88.3437166,10.7954622 C88.3446007,11.1949225 88.1545138,11.5707473 87.8322217,11.8067496 L83.8458127,14.7258468 L83.8458127,14.7258468 L85.3679465,19.4341005 C85.5803101,20.0909818 85.2199572,20.795644 84.5630759,21.0080075 C84.1795582,21.1319951 83.7597865,21.0634437 83.4356375,20.8238895 L79.5050434,17.9190827 L79.5050434,17.9190827 Z" id="Colour" fill="url(#linearGradient-8)"></path>
            <path d="M38.1921032,5.06414359 C38.5782374,5.18713403 38.880787,5.48968367 39.0037774,5.87581781 L40.4954787,10.5590827 L45.3986457,10.5482316 C45.6777537,10.5476139 45.9356987,10.6385205 46.1440719,10.7926681 L46.6522909,10.7941603 L46.6522909,11.8384716 L46.6485139,11.8378494 L46.6447112,11.9275809 C46.6084193,12.2767129 46.4263959,12.5969697 46.139914,12.8067496 L42.153505,15.7258468 L43.4745139,19.8128494 L43.7343684,19.8132147 L43.7356358,20.7703208 C43.7570287,21.3161642 43.4160724,21.8317158 42.8707682,22.0080075 C42.4872505,22.1319951 42.0674788,22.0634437 41.7433298,21.8238895 L37.8127357,18.9190827 L33.8821417,21.8238895 C33.3269459,22.2341931 32.5442541,22.1167347 32.1339506,21.5615389 C31.9648059,21.3326634 31.8809147,21.0561152 31.8898582,20.7783171 L31.8913575,19.7340059 L32.1755139,19.7338494 L33.4719665,15.7258468 L29.4855575,12.8067496 C29.1475917,12.55927 28.9701849,12.173982 28.974036,11.7848075 L28.9715139,10.7405323 L29.5600319,10.7391833 C29.7572391,10.6155499 29.9878011,10.5477026 30.2268258,10.5482316 L35.1299928,10.5590827 L36.621694,5.87581781 C36.8312129,5.21802365 37.534309,4.85462472 38.1921032,5.06414359 Z" id="Combined-Shape" fill="#9D8532"></path>
            <path d="M37.8127357,17.9190827 L33.8821417,20.8238895 C33.3269459,21.2341931 32.5442541,21.1167347 32.1339506,20.5615389 C31.8943964,20.2373899 31.825845,19.8176182 31.9498326,19.4341005 L33.4719665,14.7258468 L33.4719665,14.7258468 L29.4855575,11.8067496 C28.9285666,11.3988862 28.807675,10.6167174 29.2155384,10.0597265 C29.4515408,9.73743442 29.8273655,9.54734757 30.2268258,9.54823161 L35.1299928,9.55908267 L35.1299928,9.55908267 L36.621694,4.87581781 C36.8312129,4.21802365 37.534309,3.85462472 38.1921032,4.06414359 C38.5782374,4.18713403 38.880787,4.48968367 39.0037774,4.87581781 L40.4954787,9.55908267 L40.4954787,9.55908267 L45.3986457,9.54823161 C46.0889999,9.5467038 46.6498811,10.105108 46.6514089,10.7954622 C46.652293,11.1949225 46.4622061,11.5707473 46.139914,11.8067496 L42.153505,14.7258468 L42.153505,14.7258468 L43.6756389,19.4341005 C43.8880024,20.0909818 43.5276495,20.795644 42.8707682,21.0080075 C42.4872505,21.1319951 42.0674788,21.0634437 41.7433298,20.8238895 L37.8127357,17.9190827 L37.8127357,17.9190827 Z" id="Colour" fill="url(#linearGradient-8)"></path>
            <path d="M70.461334,25.0641436 C70.8474681,25.187134 71.1500178,25.4896837 71.2730082,25.8758178 L72.7647094,30.5590827 L77.6678764,30.5482316 C77.9469845,30.5476139 78.2049294,30.6385205 78.4133027,30.7926681 L78.9215217,30.7941603 L78.9215217,31.8384716 L78.9177446,31.8378494 L78.913942,31.9275809 C78.8776501,32.2767129 78.6956267,32.5969697 78.4091448,32.8067496 L74.4227357,35.7258468 L75.7437446,39.8128494 L76.0035992,39.8132147 L76.0048665,40.7703208 C76.0262594,41.3161642 75.6853031,41.8317158 75.139999,42.0080075 C74.7564813,42.1319951 74.3367095,42.0634437 74.0125606,41.8238895 L70.0819665,38.9190827 L66.1513724,41.8238895 C65.5961766,42.2341931 64.8134848,42.1167347 64.4031813,41.5615389 C64.2340367,41.3326634 64.1501455,41.0561152 64.159089,40.7783171 L64.1605883,39.7340059 L64.4447446,39.7338494 L65.7411973,35.7258468 L61.7547882,32.8067496 C61.4168224,32.55927 61.2394157,32.173982 61.2432668,31.7848075 L61.2407446,30.7405323 L61.8292626,30.7391833 C62.0264698,30.6155499 62.2570319,30.5477026 62.4960566,30.5482316 L67.3992236,30.5590827 L68.8909248,25.8758178 C69.1004437,25.2180236 69.8035398,24.8546247 70.461334,25.0641436 Z" id="Combined-Shape" fill="#9D8532"></path>
            <path d="M70.0819665,37.9190827 L66.1513724,40.8238895 C65.5961766,41.2341931 64.8134848,41.1167347 64.4031813,40.5615389 C64.1636272,40.2373899 64.0950757,39.8176182 64.2190634,39.4341005 L65.7411973,34.7258468 L65.7411973,34.7258468 L61.7547882,31.8067496 C61.1977974,31.3988862 61.0769057,30.6167174 61.4847691,30.0597265 C61.7207715,29.7374344 62.0965962,29.5473476 62.4960566,29.5482316 L67.3992236,29.5590827 L67.3992236,29.5590827 L68.8909248,24.8758178 C69.1004437,24.2180236 69.8035398,23.8546247 70.461334,24.0641436 C70.8474681,24.187134 71.1500178,24.4896837 71.2730082,24.8758178 L72.7647094,29.5590827 L72.7647094,29.5590827 L77.6678764,29.5482316 C78.3582307,29.5467038 78.9191119,30.105108 78.9206397,30.7954622 C78.9215238,31.1949225 78.7314369,31.5707473 78.4091448,31.8067496 L74.4227357,34.7258468 L74.4227357,34.7258468 L75.9448696,39.4341005 C76.1572331,40.0909818 75.7968803,40.795644 75.139999,41.0080075 C74.7564813,41.1319951 74.3367095,41.0634437 74.0125606,40.8238895 L70.0819665,37.9190827 L70.0819665,37.9190827 Z" id="Colour" fill="url(#linearGradient-8)"></path>
            <path d="M58.6588896,17.9190827 L54.7282955,20.8238895 C54.1730997,21.2341931 53.3904079,21.1167347 52.9801044,20.5615389 C52.7405502,20.2373899 52.6719988,19.8176182 52.7959865,19.4341005 L54.3181204,14.7258468 L54.3181204,14.7258468 L50.3317113,11.8067496 C49.7747205,11.3988862 49.6538288,10.6167174 50.0616922,10.0597265 C50.2976946,9.73743442 50.6735193,9.54734757 51.0729796,9.54823161 L55.9761467,9.55908267 L55.9761467,9.55908267 L57.4678479,4.87581781 C57.6773668,4.21802365 58.3804629,3.85462472 59.0382571,4.06414359 C59.4243912,4.18713403 59.7269408,4.48968367 59.8499313,4.87581781 L61.3416325,9.55908267 L61.3416325,9.55908267 L66.2447995,9.54823161 C66.9351538,9.5467038 67.496035,10.105108 67.4975628,10.7954622 C67.4984468,11.1949225 67.30836,11.5707473 66.9860679,11.8067496 L62.9996588,14.7258468 L62.9996588,14.7258468 L64.5217927,19.4341005 C64.7341562,20.0909818 64.3738033,20.795644 63.716922,21.0080075 C63.3334043,21.1319951 62.9136326,21.0634437 62.5894837,20.8238895 L58.6588896,17.9190827 L58.6588896,17.9190827 Z" id="Colour" fill="url(#linearGradient-8)"></path>
            <path d="M49.2358127,37.9190827 L45.3052186,40.8238895 C44.7500228,41.2341931 43.967331,41.1167347 43.5570275,40.5615389 C43.3174733,40.2373899 43.2489219,39.8176182 43.3729095,39.4341005 L44.8950434,34.7258468 L44.8950434,34.7258468 L40.9086344,31.8067496 C40.3516436,31.3988862 40.2307519,30.6167174 40.6386153,30.0597265 C40.8746177,29.7374344 41.2504424,29.5473476 41.6499027,29.5482316 L46.5530697,29.5590827 L46.5530697,29.5590827 L48.044771,24.8758178 C48.2542898,24.2180236 48.957386,23.8546247 49.6151801,24.0641436 C50.0013143,24.187134 50.3038639,24.4896837 50.4268544,24.8758178 L51.9185556,29.5590827 L51.9185556,29.5590827 L56.8217226,29.5482316 C57.5120768,29.5467038 58.0729581,30.105108 58.0744859,30.7954622 C58.0753699,31.1949225 57.8852831,31.5707473 57.5629909,31.8067496 L53.5765819,34.7258468 L53.5765819,34.7258468 L55.0987158,39.4341005 C55.3110793,40.0909818 54.9507264,40.795644 54.2938451,41.0080075 C53.9103274,41.1319951 53.4905557,41.0634437 53.1664067,40.8238895 L49.2358127,37.9190827 L49.2358127,37.9190827 Z" id="Colour" fill="url(#linearGradient-8)"></path>
        </g>
    </g>
</svg>