<?xml version="1.0" encoding="UTF-8"?>
<svg width="160px" height="128px" viewBox="0 0 160 128" version="1.1" xmlns="http://www.w3.org/2000/svg" xmlns:xlink="http://www.w3.org/1999/xlink">
    <title>Icons (Solution)/MMC/1. Light positive/1. MMC light positive 160px</title>
    <defs>
        <linearGradient x1="0%" y1="100%" x2="100%" y2="0%" id="linearGradient-1">
            <stop stop-color="#007FFF" offset="0%"></stop>
            <stop stop-color="#007FFF" offset="24.6495927%"></stop>
            <stop stop-color="#6610F2" offset="100%"></stop>
        </linearGradient>
        <path d="M25.3487113,102.937169 L25.3487113,26.9371686 C25.3487113,22.5188906 28.9304333,18.9371686 33.3487113,18.9371686 L71.3487113,18.9371686 C75.7669893,18.9371686 79.3487113,22.5188906 79.3487113,26.9371686 L79.3487113,102.937169 C79.3487113,107.355447 75.7669893,110.937169 71.3487113,110.937169 L33.3487113,110.937169 C28.9304333,110.937169 25.3487113,107.355447 25.3487113,102.937169 Z" id="path-2"></path>
        <filter x="-22.2%" y="-13.0%" width="144.4%" height="126.1%" filterUnits="objectBoundingBox" id="filter-3">
            <feOffset dx="0" dy="0" in="SourceAlpha" result="shadowOffsetOuter1"></feOffset>
            <feGaussianBlur stdDeviation="4" in="shadowOffsetOuter1" result="shadowBlurOuter1"></feGaussianBlur>
            <feColorMatrix values="0 0 0 0 0.062745098   0 0 0 0 0.117647059   0 0 0 0 0.117647059  0 0 0 0.3 0" type="matrix" in="shadowBlurOuter1"></feColorMatrix>
        </filter>
        <linearGradient x1="12.103918%" y1="100%" x2="87.1413022%" y2="0.995854731%" id="linearGradient-4">
            <stop stop-color="#344055" offset="0%"></stop>
            <stop stop-color="#344055" offset="25%"></stop>
            <stop stop-color="#5D6677" offset="100%"></stop>
        </linearGradient>
        <linearGradient x1="13.539179%" y1="100%" x2="85.7346274%" y2="0.995854731%" id="linearGradient-5">
            <stop stop-color="#101E1E" offset="0%"></stop>
            <stop stop-color="#101E1E" offset="25%"></stop>
            <stop stop-color="#344055" offset="100%"></stop>
        </linearGradient>
        <path d="M3.00100185,18.8048494 L34.1779164,0.804849429 C37.0476721,-0.852004821 40.7172146,0.131246111 42.3740688,3.00100185 L78.3740688,65.3548309 C80.0309231,68.2245867 79.0476721,71.8941291 76.1779164,73.5509833 L44.1349764,92.0509833 C41.7435133,93.4316952 38.6855613,92.6123194 37.3048494,90.2208563 L0.804849429,27.0010019 C-0.852004821,24.1312461 0.131246111,20.4617037 3.00100185,18.8048494 Z" id="path-6"></path>
        <linearGradient x1="0%" y1="100%" x2="100%" y2="0%" id="linearGradient-8">
            <stop stop-color="#EFF0F2" offset="0%"></stop>
            <stop stop-color="#EFF0F2" offset="24.7309791%"></stop>
            <stop stop-color="#FFFFFF" offset="100%"></stop>
        </linearGradient>
        <linearGradient x1="0.101753715%" y1="59.164984%" x2="100%" y2="40.8163265%" id="linearGradient-9">
            <stop stop-color="#FFC866" offset="0%"></stop>
            <stop stop-color="#FFDB99" offset="100%"></stop>
        </linearGradient>
        <linearGradient x1="0.101753715%" y1="99.8982463%" x2="100%" y2="0%" id="linearGradient-10">
            <stop stop-color="#FFC866" offset="0%"></stop>
            <stop stop-color="#FFDB99" offset="100%"></stop>
        </linearGradient>
        <linearGradient x1="0%" y1="100%" x2="100%" y2="0%" id="linearGradient-11">
            <stop stop-color="#FDCA40" offset="0%"></stop>
            <stop stop-color="#FDCA40" offset="24.6093781%"></stop>
            <stop stop-color="#FFA400" offset="100%"></stop>
        </linearGradient>
        <linearGradient x1="0%" y1="80.6298834%" x2="100%" y2="19.3701166%" id="linearGradient-12">
            <stop stop-color="#FDCA40" offset="0%"></stop>
            <stop stop-color="#FDCA40" offset="24.6093781%"></stop>
            <stop stop-color="#FFA400" offset="100%"></stop>
        </linearGradient>
    </defs>
    <g id="Icons-(Solution)/MMC/1.-Light-positive/1.-MMC-light-positive-160px" stroke="none" stroke-width="1" fill="none" fill-rule="evenodd">
        <path d="M68,120 C37.0724444,120 12,94.9275556 12,64 C12,33.0724444 37.0724444,8 68,8 C98.9275556,8 124,33.0724444 124,64 C124,94.9275556 98.9275556,120 68,120 Z" id="Gradient" fill="url(#linearGradient-1)"></path>
        <g id="Shadow" style="mix-blend-mode: multiply;" transform="translate(52.348711, 64.937169) rotate(-30.000000) translate(-52.348711, -64.937169) " fill="black" fill-opacity="1">
            <use filter="url(#filter-3)" xlink:href="#path-2"></use>
        </g>
        <path d="M55.5974226,12.0282032 L93.5974226,77.8461339 C93.9847884,78.5170711 94.263922,79.2207958 94.4402406,79.9370909 L94.6687113,79.9371686 L94.669157,81.6892039 C94.7218746,84.5062249 93.2819314,87.2658872 90.6692194,88.7743371 L56.0282032,108.774337 C52.2018622,110.983476 47.309139,109.672475 45.1,105.846134 L7.1,40.0282032 C6.35497458,38.7377814 6.01031412,37.3260739 6.02747754,35.9369183 L6.02104216,33.9371686 L6.30621144,33.9375465 C6.83941176,31.9680057 8.12151806,30.2008252 10.0282032,29.1 L44.6692194,9.1 C48.4955604,6.890861 53.3882836,8.20186224 55.5974226,12.0282032 Z" id="Combined-Shape" fill="#101E1E"></path>
        <path d="M45.1,103.846134 L7.1,38.0282032 C4.890861,34.2018622 6.20186224,29.309139 10.0282032,27.1 L44.6692194,7.1 C48.4955604,4.890861 53.3882836,6.20186224 55.5974226,10.0282032 L93.5974226,75.8461339 C95.8065616,79.6724749 94.4955604,84.5651981 90.6692194,86.7743371 L56.0282032,106.774337 C52.2018622,108.983476 47.309139,107.672475 45.1,103.846134 Z" id="Solid" fill="url(#linearGradient-4)"></path>
        <g id="new-screen" transform="translate(10.755151, 10.755151)">
            <mask id="mask-7" fill="white">
                <use xlink:href="#path-6"></use>
            </mask>
            <use fill="url(#linearGradient-5)" xlink:href="#path-6"></use>
            <path d="M60.0894591,76.4888055 C60.0894591,74.832016 58.746092,73.4888055 57.0891091,73.4888055 C55.4321263,73.4888055 54.0894591,74.832016 54.0894591,76.4888055 C54.0894591,78.1455951 55.4321263,79.4888055 57.0891091,79.4888055 C58.746092,79.4888055 60.0894591,78.1455951 60.0894591,76.4888055" id="new-button" fill="url(#linearGradient-8)" mask="url(#mask-7)"></path>
            <path d="M34.1794513,0.804849429 C37.049207,-0.852004821 40.7187495,0.131246111 42.3756037,3.00100185 L72.3241925,54.8739262 C55.2509361,63.5257878 34.3742197,63.8509991 16.4196117,54.0474496 L0.806384342,27.0010019 C-0.850469907,24.1312461 0.132781024,20.4617037 3.00253676,18.8048494 L34.1794513,0.804849429 Z" id="Path" fill-opacity="0.05" fill="#FFFFFF" mask="url(#mask-7)"></path>
        </g>
        <path d="M87.9551178,44.4448637 C87.9551178,42.7880095 89.2982635,41.4448637 90.9551178,41.4448637 L98.9551178,41.4448637 C100.611972,41.4448637 101.955118,42.7880095 101.955118,44.4448637 C101.955118,46.101718 100.611972,47.4448637 98.9551178,47.4448637 L90.9551178,47.4448637 C89.2982635,47.4448637 87.9551178,46.101718 87.9551178,44.4448637 Z" id="Fill-8-Copy-2" fill="url(#linearGradient-9)" transform="translate(94.955118, 44.444864) rotate(-30.000000) translate(-94.955118, -44.444864) "></path>
        <path d="M106.837804,15.9544827 C106.837804,14.2976284 108.180949,12.9544827 109.837804,12.9544827 L117.837804,12.9544827 C119.494658,12.9544827 120.837804,14.2976284 120.837804,15.9544827 C120.837804,17.6113369 119.494658,18.9544827 117.837804,18.9544827 L109.837804,18.9544827 C108.180949,18.9544827 106.837804,17.6113369 106.837804,15.9544827 Z" id="Fill-8-Copy-3" fill="url(#linearGradient-9)" transform="translate(113.837804, 15.954483) rotate(-30.000000) translate(-113.837804, -15.954483) "></path>
        <path d="M58.5987113,25.5980762 C58.5987113,23.941222 59.9418571,22.5980762 61.5987113,22.5980762 L69.5987113,22.5980762 C71.2555656,22.5980762 72.5987113,23.941222 72.5987113,25.5980762 C72.5987113,27.2549305 71.2555656,28.5980762 69.5987113,28.5980762 L61.5987113,28.5980762 C59.9418571,28.5980762 58.5987113,27.2549305 58.5987113,25.5980762 Z" id="Fill-8-Copy-4" fill="url(#linearGradient-9)" transform="translate(65.598711, 25.598076) rotate(-30.000000) translate(-65.598711, -25.598076) "></path>
        <path d="M149.51493,18.1406492 C148.080417,17.3124328 147.588793,15.4776646 148.417009,14.0431518 C149.245225,12.608639 151.079994,12.1170144 152.514506,12.9452307 C153.949019,13.773447 154.440644,15.6082153 153.612427,17.0427281 C152.784211,18.4772408 150.949443,18.9688655 149.51493,18.1406492 Z" id="Fill-16-Copy" fill="url(#linearGradient-10)" transform="translate(151.014718, 15.542940) rotate(-30.000000) translate(-151.014718, -15.542940) "></path>
        <path d="M70.3849486,65.5707762 C68.9504358,64.7425599 68.4588111,62.9077916 69.2870275,61.4732788 C70.1152438,60.0387661 71.9500121,59.5471414 73.3845248,60.3753577 C74.8190376,61.2035741 75.3106623,63.0383423 74.4824459,64.4728551 C73.6542296,65.9073679 71.8194614,66.3989925 70.3849486,65.5707762 Z" id="Fill-16-Copy-2" fill="url(#linearGradient-10)" transform="translate(71.884737, 62.973067) rotate(-30.000000) translate(-71.884737, -62.973067) "></path>
        <path d="M149.500212,41.5977092 C148.065699,40.7694929 147.574074,38.9347246 148.402291,37.5002119 C149.230507,36.0656991 151.065275,35.5740744 152.499788,36.4022908 C153.934301,37.2305071 154.425926,39.0652754 153.597709,40.4997881 C152.769493,41.9343009 150.934725,42.4259256 149.500212,41.5977092 Z" id="Fill-16-Copy-3" fill="url(#linearGradient-10)"></path>
        <path d="M137.286501,59.8388712 C133.939305,57.9063664 132.792181,53.6252405 134.724685,50.278044 C136.65719,46.9308476 140.938316,45.7837234 144.285513,47.7162281 C147.632709,49.6487329 148.779833,53.9298588 146.847328,57.2770553 C144.914824,60.6242518 140.633698,61.771376 137.286501,59.8388712 Z" id="Fill-12" fill="url(#linearGradient-11)"></path>
        <path d="M107.111391,53.8595812 C109.47956,55.2268446 110.991267,57.5074369 111.458421,59.9994009 L111.613073,60 L111.613073,62 C111.553414,63.4161016 111.163734,64.840716 110.405619,66.1538099 C107.920119,70.4588222 102.416403,71.9335385 98.1113907,69.4480385 C95.3335132,67.8442301 93.7340804,64.9837329 93.6166661,61.9994987 L93.6097082,60 L93.7622128,59.9991139 C93.9446553,59.0237231 94.2927678,58.0620874 94.8171621,57.1538099 C97.3026621,52.8487976 102.806378,51.3740812 107.111391,53.8595812 Z" id="Combined-Shape" fill="#9D8532"></path>
        <path d="M98.1113907,67.4480385 C93.8063785,64.9625385 92.3316621,59.4588222 94.8171621,55.1538099 C97.3026621,50.8487976 102.806378,49.3740812 107.111391,51.8595812 C111.416403,54.3450812 112.891119,59.8487976 110.405619,64.1538099 C107.920119,68.4588222 102.416403,69.9335385 98.1113907,67.4480385 Z" id="Fill-14" fill="url(#linearGradient-11)"></path>
        <path d="M89.5018916,23.0613215 C86.1546951,21.1288168 85.0075709,16.8476908 86.9400757,13.5004944 C88.8725804,10.1532979 93.1537064,9.00617368 96.5009028,10.9386785 C99.8480993,12.8711832 100.995224,17.1523092 99.0627187,20.4995056 C97.130214,23.8467021 92.849088,24.9938263 89.5018916,23.0613215 Z" id="Fill-16" fill="url(#linearGradient-11)"></path>
        <path d="M140.724099,34.2954313 L121.671262,45.2955921 C117.366705,47.7808291 111.86249,46.305979 109.377253,42.0014223 C108.54884,40.5665701 108.160438,38.9984225 108.170179,37.4532253 L108.17,35.5 L108.396835,35.5000428 C108.934709,33.1444966 110.413921,31.0107821 112.671422,29.7074134 L131.72426,18.7072526 C136.028816,16.2220156 141.533032,17.6968656 144.018269,22.0014223 C144.480475,22.8019877 144.805707,23.6440479 145.001235,24.500465 L145.225,24.5 L145.225343,26.5496194 C145.20586,29.6400139 143.593803,32.6386066 140.724099,34.2954313 Z" id="Combined-Shape" fill="#9D8532"></path>
        <path d="M109.377253,40.0014223 C106.892016,35.6968656 108.366866,30.1926504 112.671422,27.7074134 L131.72426,16.7072526 C136.028816,14.2220156 141.533032,15.6968656 144.018269,20.0014223 C146.503506,24.305979 145.028656,29.8101943 140.724099,32.2954313 L121.671262,43.2955921 C117.366705,45.7808291 111.86249,44.305979 109.377253,40.0014223 Z" id="Fill-8-Copy-5" fill="url(#linearGradient-12)"></path>
        <path d="M80.754099,47.6954313 L61.7012615,58.6955921 C57.3967048,61.1808291 51.8924895,59.705979 49.4072526,55.4014223 C48.5788402,53.9665701 48.1904376,52.3984225 48.2001787,50.8532253 L48.2,48.9 L48.426835,48.9000428 C48.9647088,46.5444966 50.4439215,44.4107821 52.7014223,43.1074134 L71.7542598,32.1072526 C76.0588165,29.6220156 81.5630318,31.0968656 84.0482687,35.4014223 C84.5104753,36.2019877 84.8357069,37.0440479 85.031235,37.900465 L85.255,37.9 L85.2553426,39.9496194 C85.2358605,43.0400139 83.6238034,46.0386066 80.754099,47.6954313 Z" id="Combined-Shape" fill="#9D8532"></path>
        <path d="M49.4072526,53.4014223 C46.9220156,49.0968656 48.3968656,43.5926504 52.7014223,41.1074134 L71.7542598,30.1072526 C76.0588165,27.6220156 81.5630318,29.0968656 84.0482687,33.4014223 C86.5335057,37.705979 85.0586556,43.2101943 80.754099,45.6954313 L61.7012615,56.6955921 C57.3967048,59.1808291 51.8924895,57.705979 49.4072526,53.4014223 Z" id="Fill-8-Copy-5" fill="url(#linearGradient-12)"></path>
    </g>
</svg>