<?xml version="1.0" encoding="UTF-8"?>
<svg width="96px" height="96px" viewBox="0 0 96 96" version="1.1" xmlns="http://www.w3.org/2000/svg" xmlns:xlink="http://www.w3.org/1999/xlink">
    <title>Icons (Solution)/MMC/1. Light positive/2. MMC light positive 96px</title>
    <defs>
        <linearGradient x1="0%" y1="100%" x2="100%" y2="0%" id="linearGradient-1">
            <stop stop-color="#007FFF" offset="0%"></stop>
            <stop stop-color="#007FFF" offset="24.6495927%"></stop>
            <stop stop-color="#6610F2" offset="100%"></stop>
        </linearGradient>
        <path d="M17.2644827,73.0128129 L17.2644827,21.0128129 C17.2644827,17.6991044 19.9507742,15.0128129 23.2644827,15.0128129 L47.2644827,15.0128129 C50.5781912,15.0128129 53.2644827,17.6991044 53.2644827,21.0128129 L53.2644827,73.0128129 C53.2644827,76.3265214 50.5781912,79.0128129 47.2644827,79.0128129 L23.2644827,79.0128129 C19.9507742,79.0128129 17.2644827,76.3265214 17.2644827,73.0128129 Z" id="path-2"></path>
        <filter x="-20.8%" y="-11.7%" width="141.7%" height="123.4%" filterUnits="objectBoundingBox" id="filter-3">
            <feOffset dx="0" dy="0" in="SourceAlpha" result="shadowOffsetOuter1"></feOffset>
            <feGaussianBlur stdDeviation="2.5" in="shadowOffsetOuter1" result="shadowBlurOuter1"></feGaussianBlur>
            <feColorMatrix values="0 0 0 0 0.062745098   0 0 0 0 0.117647059   0 0 0 0 0.117647059  0 0 0 0.3 0" type="matrix" in="shadowBlurOuter1"></feColorMatrix>
        </filter>
        <linearGradient x1="12.6651528%" y1="100%" x2="86.5912455%" y2="0.995854731%" id="linearGradient-4">
            <stop stop-color="#344055" offset="0%"></stop>
            <stop stop-color="#344055" offset="25%"></stop>
            <stop stop-color="#5D6677" offset="100%"></stop>
        </linearGradient>
        <linearGradient x1="13.7147927%" y1="100%" x2="85.5625114%" y2="0.995854731%" id="linearGradient-5">
            <stop stop-color="#101E1E" offset="0%"></stop>
            <stop stop-color="#101E1E" offset="25%"></stop>
            <stop stop-color="#344055" offset="100%"></stop>
        </linearGradient>
        <path d="M2.50083488,12.6707079 L23.2854446,0.670707857 C25.6769077,-0.710004017 28.7348597,0.109371759 30.1155716,2.50083488 L55.1155716,45.8021051 C56.4962835,48.1935682 55.6769077,51.2515202 53.2854446,52.6322321 L32.0678222,64.8822321 C29.9155054,66.1248728 27.1633485,65.3874346 25.9207079,63.2351178 L0.670707857,19.5008349 C-0.710004017,17.1093718 0.109371759,14.0514197 2.50083488,12.6707079 Z" id="path-6"></path>
        <linearGradient x1="0%" y1="100%" x2="100%" y2="0%" id="linearGradient-8">
            <stop stop-color="#EFF0F2" offset="0%"></stop>
            <stop stop-color="#EFF0F2" offset="24.7309791%"></stop>
            <stop stop-color="#FFFFFF" offset="100%"></stop>
        </linearGradient>
        <linearGradient x1="0.101753715%" y1="99.8982463%" x2="100%" y2="0%" id="linearGradient-9">
            <stop stop-color="#FFC866" offset="0%"></stop>
            <stop stop-color="#FFDB99" offset="100%"></stop>
        </linearGradient>
        <linearGradient x1="0%" y1="100%" x2="100%" y2="0%" id="linearGradient-10">
            <stop stop-color="#FDCA40" offset="0%"></stop>
            <stop stop-color="#FDCA40" offset="24.6093781%"></stop>
            <stop stop-color="#FFA400" offset="100%"></stop>
        </linearGradient>
        <linearGradient x1="0%" y1="83.6449754%" x2="100%" y2="16.3550246%" id="linearGradient-11">
            <stop stop-color="#FDCA40" offset="0%"></stop>
            <stop stop-color="#FDCA40" offset="24.6093781%"></stop>
            <stop stop-color="#FFA400" offset="100%"></stop>
        </linearGradient>
    </defs>
    <g id="Icons-(Solution)/MMC/1.-Light-positive/2.-MMC-light-positive-96px" stroke="none" stroke-width="1" fill="none" fill-rule="evenodd">
        <path d="M88,48 C88,70.0911111 70.0911111,88 48,88 C25.9088889,88 8,70.0911111 8,48 C8,25.9088889 25.9088889,8 48,8 C70.0911111,8 88,25.9088889 88,48" id="Gradient" fill="url(#linearGradient-1)"></path>
        <g id="Shadow" style="mix-blend-mode: multiply;" transform="translate(35.264483, 47.012813) rotate(-30.000000) translate(-35.264483, -47.012813) " fill="black" fill-opacity="1">
            <use filter="url(#filter-3)" xlink:href="#path-2"></use>
        </g>
        <path d="M37.7189653,12.9961524 L63.7189653,58.0294734 C63.9031826,58.348547 64.0547626,58.6775077 64.1747412,59.0124897 L64.5282585,59.0128129 L64.5282585,61.0128129 C64.5276753,63.0902428 63.451133,65.1123098 61.5228129,66.2256258 L39.4391651,78.9756258 C36.3302631,80.7705513 32.3549254,79.7053628 30.56,76.5964607 L4.81,31.9961524 C4.25771525,31.0395672 3.99877552,29.9941167 4.00526969,28.9639669 L4.005,27.0128129 L4.34332095,27.0128264 C4.8009073,25.7044273 5.71157814,24.5474228 7.00615242,23.8 L29.5228129,10.8 C32.3925687,9.14314575 36.0621111,10.1263967 37.7189653,12.9961524 Z" id="Combined-Shape" fill="#101E1E"></path>
        <path d="M30.81,75.0294734 L4.81,29.9961524 C3.15314575,27.1263967 4.13639668,23.4568542 7.00615242,21.8 L29.5228129,8.8 C32.3925687,7.14314575 36.0621111,8.12639668 37.7189653,10.9961524 L63.7189653,56.0294734 C65.3758196,58.8992292 64.3925687,62.5687716 61.5228129,64.2256258 L39.0061524,77.2256258 C36.1363967,78.8824801 32.4668542,77.8992292 30.81,75.0294734 Z" id="Solid" fill="url(#linearGradient-4)"></path>
        <g id="new-screen" transform="translate(6.349292, 10.349292)">
            <mask id="mask-7" fill="white">
                <use xlink:href="#path-6"></use>
            </mask>
            <use fill="url(#linearGradient-5)" xlink:href="#path-6"></use>
            <path d="M41.8931397,53.4360797 C41.8931397,52.3315533 40.9975616,51.4360797 39.8929064,51.4360797 C38.7882511,51.4360797 37.8931397,52.3315533 37.8931397,53.4360797 C37.8931397,54.540606 38.7882511,55.4360797 39.8929064,55.4360797 C40.9975616,55.4360797 41.8931397,54.540606 41.8931397,53.4360797" id="new-button" fill="url(#linearGradient-8)" mask="url(#mask-7)"></path>
            <path d="M30.1376224,2.51288568 L50.7707502,38.2502095 C45.4502819,41.0969781 39.3712406,42.7111446 32.9151905,42.7111446 C24.0022866,42.7111446 15.8079313,39.6346725 9.33610354,34.4857073 L0.692758665,19.5128857 C-0.68795321,17.1214226 0.131422566,14.0634705 2.52288568,12.6827587 L23.3074954,0.682758665 C25.6989585,-0.69795321 28.7569105,0.121422566 30.1376224,2.51288568 Z" id="Combined-Shape" fill-opacity="0.05" fill="#FFFFFF" mask="url(#mask-7)"></path>
        </g>
        <path d="M89.3427094,37.6566885 C87.9623488,40.0475431 84.9044017,40.8669175 82.5135471,39.486557 C80.1226925,38.1061964 79.303318,35.0482493 80.6836786,32.6573947 C82.0640391,30.2665401 85.1219862,29.4471656 87.5128408,30.8275262 C89.9036955,32.2078867 90.7230699,35.2658338 89.3427094,37.6566885" id="Fill-12" fill="url(#linearGradient-9)" transform="translate(85.013194, 35.157042) rotate(-30.000000) translate(-85.013194, -35.157042) "></path>
        <path d="M63.0587113,30.1318836 C65.983551,30.1318836 68.4191304,32.2244841 68.9501237,34.9943592 L69.0614238,34.9941059 L69.0614238,36.1307621 C69.0575898,39.4441427 66.3720919,42.1296407 63.0587113,42.1296407 C59.7453307,42.1296407 57.0598328,39.4441427 57.0598328,36.1307621 L57.0608328,36.0738836 L57.0614238,34.9941059 L57.1672989,34.9943592 C57.6982922,32.2244841 60.1338716,30.1318836 63.0587113,30.1318836 Z" id="Combined-Shape" fill="#9D8532"></path>
        <path d="M69.0575898,35.1307621 C69.0575898,38.4441427 66.3720919,41.1296407 63.0587113,41.1296407 C59.7453307,41.1296407 57.0598328,38.4441427 57.0598328,35.1307621 C57.0598328,31.8173816 59.7453307,29.1318836 63.0587113,29.1318836 C66.3720919,29.1318836 69.0575898,31.8173816 69.0575898,35.1307621" id="Fill-14" fill="url(#linearGradient-10)"></path>
        <path d="M59.2183537,13.4797739 C57.8379932,15.8706285 54.7800461,16.690003 52.3891914,15.3096424 C49.9983368,13.9292819 49.1789624,10.8713348 50.5593229,8.48048017 C51.9396835,6.08962556 54.9976306,5.2702511 57.3884852,6.65061166 C59.7793398,8.03097221 60.5987143,11.0889193 59.2183537,13.4797739" id="Fill-16" fill="url(#linearGradient-9)" transform="translate(54.888838, 10.980127) rotate(-30.000000) translate(-54.888838, -10.980127) "></path>
        <path d="M91.1016512,10.7025589 C91.4748021,11.3488751 91.7140403,12.0357585 91.8279747,12.7310805 L91.905,12.730835 L91.9055067,13.5878207 C91.9439816,15.6995597 90.8641179,17.7679021 88.9054988,18.8987113 L76.7811432,25.8987113 C73.9113874,27.5555656 70.241845,26.5723147 68.5849907,23.7025589 C68.0575177,22.7889489 67.7976244,21.794279 67.7809949,20.809297 L67.78,19.7648649 L67.8547148,19.7645699 C68.1288454,18.0393158 69.1504141,16.4479084 70.7811432,15.5064065 L82.9054988,8.50640649 C85.7752546,6.84955224 89.444797,7.83280317 91.1016512,10.7025589 Z" id="Combined-Shape" fill="#9D8532"></path>
        <path d="M68.5850031,22.7025804 C66.9281548,19.8328349 67.9113984,16.1633057 70.7811408,14.5064519 L82.9055259,7.50640406 C85.7752612,5.84955434 89.4447833,6.83279234 91.101633,9.70252759 C91.1016349,9.70253089 91.1016368,9.7025342 91.1016388,9.7025375 C92.7584871,12.572283 91.7752435,16.2418122 88.9055011,17.898666 L76.781116,24.8987138 C73.9113807,26.5555635 70.2418586,25.5723255 68.5850089,22.7025903 C68.5850069,22.702587 68.585005,22.7025837 68.5850031,22.7025804 Z" id="Fill-8-Copy" fill="url(#linearGradient-11)"></path>
        <path d="M51.3266605,19.8102541 C51.6998113,20.4565703 51.9390496,21.1434536 52.052984,21.8387757 L52.13,21.8385301 L52.1305159,22.6955159 C52.1689909,24.8072548 51.0891272,26.8755972 49.1305081,28.0064065 L37.0061524,35.0064065 C34.1363967,36.6632607 30.4668542,35.6800098 28.81,32.8102541 C28.282527,31.896644 28.0226337,30.9019741 28.0060041,29.9169922 L28.0050093,28.8725601 L28.079724,28.8722651 C28.3538547,27.147011 29.3754233,25.5556035 31.0061524,24.6141016 L43.1305081,17.6141016 C46.0002638,15.9572474 49.6698062,16.9404983 51.3266605,19.8102541 Z" id="Combined-Shape" fill="#9D8532"></path>
        <path d="M28.8100124,31.8102755 C27.1531641,28.94053 28.1364077,25.2710009 31.00615,23.6141471 L43.1305352,16.6140992 C46.0002704,14.9572495 49.6697926,15.9404875 51.3266423,18.8102227 C51.3266442,18.810226 51.3266461,18.8102293 51.326648,18.8102327 C52.9834963,21.6799781 52.0002527,25.3495073 49.1305104,27.0063611 L37.0061252,34.006409 C34.13639,35.6632587 30.4668678,34.6800207 28.8100181,31.8102854 C28.8100162,31.8102821 28.8100143,31.8102788 28.8100124,31.8102755 Z" id="Fill-8-Copy" fill="url(#linearGradient-11)"></path>
    </g>
</svg>