<?xml version="1.0" encoding="utf-8"?>
<!-- Generator: Adobe Illustrator 27.1.1, SVG Export Plug-In . SVG Version: 6.00 Build 0)  -->
<svg version="1.1" xmlns="http://www.w3.org/2000/svg" xmlns:xlink="http://www.w3.org/1999/xlink" x="0px" y="0px"
	 viewBox="0 0 411 184.3" style="enable-background:new 0 0 411 184.3;" xml:space="preserve">
<style type="text/css">
	.st0{fill:#FFFFFF;}
	.st1{fill:#007FFF;}
</style>
<g id="Layer_2">
	<g>
		<path class="st0" d="M334.6,108.3c0,2.3,1.9,4.2,4.2,4.2c2.3,0,4.2-1.9,4.2-4.2V95.7c0-4,1.9-6,5.1-6s4.9,2,4.9,6v12.6
			c0,2.3,1.9,4.2,4.2,4.2c2.3,0,4.2-1.9,4.2-4.2V95.7c0-4,1.9-6,5.1-6s4.9,2,4.9,6v12.6c0,2.3,1.9,4.2,4.2,4.2
			c2.3,0,4.2-1.9,4.2-4.2V93c0-7.1-3.8-10.8-10-10.8c-4,0-7.1,1.7-9.7,4.7c-1.5-3-4.5-4.7-8.3-4.7c-4.2,0-6.8,2.3-8.7,4.7v-0.3
			c0-2.3-1.9-4.2-4.2-4.2c-2.3,0-4.2,1.9-4.2,4.2V108.3z M314.6,105.6c-4.6,0-7.8-3.8-7.8-8.2v-0.1c0-4.3,2.9-8,7.7-8
			c4.6,0,7.8,3.8,7.8,8.2v0.1C322.2,101.9,319.4,105.6,314.6,105.6 M314.5,112.8c9.2,0,16-6.9,16-15.4v-0.1
			c0-8.5-6.8-15.3-15.9-15.3c-9.2,0-16,6.9-16,15.4v0.1C298.5,106.1,305.3,112.8,314.5,112.8 M285,112.8c4.9,0,8-1.5,10.5-3.8
			c0.7-0.7,1.2-1.5,1.2-2.6c0-2-1.5-3.6-3.5-3.6c-1,0-1.8,0.4-2.3,0.8c-1.6,1.3-3.3,2-5.5,2c-4.6,0-7.5-3.6-7.5-8.2v-0.1
			c0-4.3,3-8,7.2-8c2.2,0,3.8,0.7,5.2,1.9c0.5,0.4,1.3,0.8,2.4,0.8c2.1,0,3.8-1.7,3.8-3.8c0-1.4-0.8-2.4-1.3-2.9
			c-2.5-2.1-5.6-3.3-10.1-3.3c-9,0-15.5,6.9-15.5,15.4v0.1C269.6,106,276.1,112.8,285,112.8 M257.6,107.7v0.1c0,2.6,2,4.7,4.8,4.7
			s4.8-2,4.8-4.7v-0.1c0-2.6-2-4.7-4.8-4.7C259.6,103,257.6,105.1,257.6,107.7 M214.1,108.4c0,2.3,1.8,4.1,4.1,4.1s4.2-1.8,4.2-4.1
			V89.2l7.3,11.3c0.9,1.3,2,2.2,3.5,2.2c1.5,0,2.6-0.8,3.5-2.2l7.4-11.5v19.2c0,2.3,1.9,4.2,4.2,4.2c2.4,0,4.2-1.9,4.2-4.2V77.6
			c0-2.4-1.9-4.2-4.2-4.2h-0.9c-1.7,0-2.9,0.7-3.8,2.2l-10.3,16.8l-10.2-16.7c-0.8-1.3-2-2.2-3.9-2.2h-0.9c-2.4,0-4.2,1.9-4.2,4.2
			L214.1,108.4L214.1,108.4z M193.6,112.8c6.2,0,10.2-1.8,13.7-4.8c0.8-0.7,1.4-1.7,1.4-3c0-2.2-1.8-3.9-4-3.9c-1,0-1.9,0.4-2.5,0.9
			c-2.4,1.9-4.8,3-8.4,3c-6.6,0-11.2-5.5-11.2-12.1v-0.1c0-6.6,4.7-12,11.2-12c3,0,5.5,1,7.9,2.8c0.6,0.4,1.4,0.8,2.5,0.8
			c2.3,0,4.2-1.8,4.2-4.1c0-1.5-0.8-2.7-1.6-3.4c-3.2-2.4-7.1-3.9-12.9-3.9c-11.9,0-20.1,9-20.1,20V93
			C173.9,104.1,182.3,112.8,193.6,112.8"/>
	</g>
	<g>
		<g>
			<path class="st1" d="M134.6,106.6c0-2.7,2.2-4.9,4.9-4.9c2.7,0,4.9,2.2,4.9,4.9c0,2.7-2.2,4.9-4.9,4.9
				C136.8,111.5,134.6,109.3,134.6,106.6"/>
			<path class="st0" d="M68.5,114c-11.4,0-20.6-9.2-20.6-20.6s9.2-20.6,20.6-20.6c2.2,0,4.4,0.3,6.4,1c2.3,0.8,3.5,3.2,2.8,5.5
				c-0.8,2.3-3.2,3.5-5.5,2.8c-1.2-0.4-2.5-0.6-3.7-0.6c-6.6,0-11.9,5.3-11.9,11.9c0,6.6,5.3,11.9,11.9,11.9
				c6.1,0,9.6-3.2,12.5-11.5l6.5-18.1c0.6-1.7,2.2-2.9,4-2.9c1.8,0,3.5,1.1,4.1,2.8l7.5,19.3l7.5-19.3c0.7-1.7,2.3-2.8,4-2.8
				c0,0,0,0,0.1,0c1.8,0,3.4,1.2,4,2.9l10.7,30c0.8,2.3-0.4,4.7-2.6,5.6c-2.3,0.8-4.7-0.4-5.6-2.6l-6.8-19.1l-7.4,18.9
				c-0.7,1.7-2.3,2.8-4,2.8l0,0c-1.8,0-3.4-1.1-4-2.8l-7.3-18.9l-2.5,7.1C86.6,104.1,81.6,114,68.5,114"/>
		</g>
		<g>
			<g>
				<path class="st0" d="M94.2,160.2c-36.9,0-66.8-30-66.8-66.8c0-36.9,30-66.8,66.8-66.8s66.8,30,66.8,66.8
					C161,130.2,131,160.2,94.2,160.2z M94.2,32.6c-33.5,0-60.8,27.3-60.8,60.8c0,33.5,27.3,60.8,60.8,60.8S155,126.9,155,93.4
					C155,59.9,127.7,32.6,94.2,32.6z"/>
			</g>
		</g>
	</g>
</g>
<g id="Layer_1">
</g>
</svg>
