<svg width="160" height="128" viewBox="0 0 160 128" fill="none" xmlns="http://www.w3.org/2000/svg">
<circle cx="20" cy="94" r="10" fill="url(#paint0_radial_201_36288)"/>
<circle cx="132" cy="104" r="12" fill="url(#paint1_radial_201_36288)"/>
<circle cx="68" cy="64" r="56" fill="url(#paint2_linear_201_36288)"/>
<mask id="mask0_201_36288" style="mask-type:alpha" maskUnits="userSpaceOnUse" x="12" y="8" width="112" height="112">
<circle cx="68" cy="64" r="56" fill="url(#paint3_linear_201_36288)"/>
</mask>
<g mask="url(#mask0_201_36288)">
<g style="mix-blend-mode:multiply" filter="url(#filter0_d_201_36288)">
<circle cx="18" cy="41" r="12" fill="white" fill-opacity="0.01"/>
</g>
</g>
<path d="M36 64C36 92.7188 50.3269 116 68 116C96.7188 116 80 92.7188 80 64C80 48.469 91.8896 34.5283 91.838 25C91.7942 16.9093 81.1878 12 68 12C50.3269 12 36 35.2812 36 64Z" fill="url(#paint4_linear_201_36288)"/>
<path d="M120 64C120 92.7188 96.7188 116 68 116V12C96.7188 12 120 35.2812 120 64Z" fill="url(#paint5_linear_201_36288)"/>
<path d="M68 116C50.3269 116 36 92.7188 36 64C36 35.2812 50.3269 12 68 12V116Z" fill="url(#paint6_linear_201_36288)"/>
<circle cx="140" cy="24" r="8" fill="url(#paint7_radial_201_36288)"/>
<circle cx="16" cy="35" r="12" transform="rotate(180 16 35)" fill="url(#paint8_radial_201_36288)"/>
<mask id="path-11-inside-1_201_36288" fill="white">
<path fill-rule="evenodd" clip-rule="evenodd" d="M36 64C36 92.7188 50.3269 116 68 116C96.7188 116 120 92.7188 120 64C120 35.2812 96.7188 12 68 12C50.3269 12 36 35.2812 36 64Z"/>
</mask>
<path d="M68 114C60.117 114 52.6631 108.8 47.0759 99.7214C41.5086 90.6746 38 78.0502 38 64H34C34 78.6686 37.6548 92.0442 43.6693 101.818C49.6638 111.559 58.2099 118 68 118V114ZM118 64C118 91.6142 95.6142 114 68 114V118C97.8234 118 122 93.8234 122 64H118ZM68 14C95.6142 14 118 36.3858 118 64H122C122 34.1766 97.8234 10 68 10V14ZM38 64C38 49.9498 41.5086 37.3254 47.0759 28.2786C52.6631 19.1995 60.117 14 68 14V10C58.2099 10 49.6638 16.4411 43.6693 26.1823C37.6548 35.9558 34 49.3314 34 64H38Z" fill="#101E1E" mask="url(#path-11-inside-1_201_36288)"/>
<g style="mix-blend-mode:multiply" filter="url(#filter1_d_201_36288)">
<circle cx="68" cy="70" r="20" transform="rotate(180 68 70)" fill="white" fill-opacity="0.01"/>
</g>
<circle cx="68" cy="64" r="20" transform="rotate(180 68 64)" fill="url(#paint9_radial_201_36288)"/>
<defs>
<filter id="filter0_d_201_36288" x="-2" y="21" width="40" height="40" filterUnits="userSpaceOnUse" color-interpolation-filters="sRGB">
<feFlood flood-opacity="0" result="BackgroundImageFix"/>
<feColorMatrix in="SourceAlpha" type="matrix" values="0 0 0 0 0 0 0 0 0 0 0 0 0 0 0 0 0 0 127 0" result="hardAlpha"/>
<feOffset/>
<feGaussianBlur stdDeviation="4"/>
<feColorMatrix type="matrix" values="0 0 0 0 0.0627451 0 0 0 0 0.117647 0 0 0 0 0.117647 0 0 0 0.3 0"/>
<feBlend mode="normal" in2="BackgroundImageFix" result="effect1_dropShadow_201_36288"/>
<feBlend mode="normal" in="SourceGraphic" in2="effect1_dropShadow_201_36288" result="shape"/>
</filter>
<filter id="filter1_d_201_36288" x="40" y="42" width="56" height="56" filterUnits="userSpaceOnUse" color-interpolation-filters="sRGB">
<feFlood flood-opacity="0" result="BackgroundImageFix"/>
<feColorMatrix in="SourceAlpha" type="matrix" values="0 0 0 0 0 0 0 0 0 0 0 0 0 0 0 0 0 0 127 0" result="hardAlpha"/>
<feOffset/>
<feGaussianBlur stdDeviation="4"/>
<feColorMatrix type="matrix" values="0 0 0 0 0.0627451 0 0 0 0 0.117647 0 0 0 0 0.117647 0 0 0 0.3 0"/>
<feBlend mode="normal" in2="BackgroundImageFix" result="effect1_dropShadow_201_36288"/>
<feBlend mode="normal" in="SourceGraphic" in2="effect1_dropShadow_201_36288" result="shape"/>
</filter>
<radialGradient id="paint0_radial_201_36288" cx="0" cy="0" r="1" gradientUnits="userSpaceOnUse" gradientTransform="translate(10 104) rotate(-45) scale(28.2843)">
<stop stop-color="#04E4F4"/>
<stop offset="0.247221" stop-color="#04E4F4"/>
<stop offset="1" stop-color="#007FFF"/>
</radialGradient>
<radialGradient id="paint1_radial_201_36288" cx="0" cy="0" r="1" gradientUnits="userSpaceOnUse" gradientTransform="translate(120 116) rotate(-45) scale(33.9411)">
<stop stop-color="#FFC866"/>
<stop offset="1" stop-color="#FFDB99"/>
</radialGradient>
<linearGradient id="paint2_linear_201_36288" x1="12" y1="120" x2="124" y2="8" gradientUnits="userSpaceOnUse">
<stop stop-color="#007FFF"/>
<stop offset="0.246496" stop-color="#007FFF"/>
<stop offset="1" stop-color="#6610F2"/>
</linearGradient>
<linearGradient id="paint3_linear_201_36288" x1="12" y1="120" x2="124" y2="8" gradientUnits="userSpaceOnUse">
<stop stop-color="#007FFF"/>
<stop offset="0.246496" stop-color="#007FFF"/>
<stop offset="1" stop-color="#6610F2"/>
</linearGradient>
<linearGradient id="paint4_linear_201_36288" x1="36" y1="116" x2="122.687" y2="69.4571" gradientUnits="userSpaceOnUse">
<stop stop-color="#101E1E"/>
<stop offset="0.25" stop-color="#101E1E"/>
<stop offset="1" stop-color="#344055"/>
</linearGradient>
<linearGradient id="paint5_linear_201_36288" x1="68" y1="116" x2="151.2" y2="74.4" gradientUnits="userSpaceOnUse">
<stop stop-color="#101E1E"/>
<stop offset="0.25" stop-color="#101E1E"/>
<stop offset="1" stop-color="#344055"/>
</linearGradient>
<linearGradient id="paint6_linear_201_36288" x1="36" y1="116" x2="94.4649" y2="98.0108" gradientUnits="userSpaceOnUse">
<stop stop-color="#101E1E"/>
<stop offset="0.25" stop-color="#101E1E"/>
<stop offset="1" stop-color="#344055"/>
</linearGradient>
<radialGradient id="paint7_radial_201_36288" cx="0" cy="0" r="1" gradientUnits="userSpaceOnUse" gradientTransform="translate(132 32) rotate(-45) scale(22.6274)">
<stop stop-color="#04E4F4"/>
<stop offset="0.247221" stop-color="#04E4F4"/>
<stop offset="1" stop-color="#007FFF"/>
</radialGradient>
<radialGradient id="paint8_radial_201_36288" cx="0" cy="0" r="1" gradientUnits="userSpaceOnUse" gradientTransform="translate(4 47) rotate(-45) scale(33.9411)">
<stop stop-color="white"/>
<stop offset="0.25" stop-color="white"/>
<stop offset="1" stop-color="#AEB3BB"/>
</radialGradient>
<radialGradient id="paint9_radial_201_36288" cx="0" cy="0" r="1" gradientUnits="userSpaceOnUse" gradientTransform="translate(48 84) rotate(-45) scale(56.5685)">
<stop stop-color="#FDCA40"/>
<stop offset="0.246094" stop-color="#FDCA40"/>
<stop offset="1" stop-color="#FFA400"/>
</radialGradient>
</defs>
</svg>
