<?xml version="1.0" encoding="UTF-8"?>
<svg width="96px" height="96px" viewBox="0 0 96 96" version="1.1" xmlns="http://www.w3.org/2000/svg" xmlns:xlink="http://www.w3.org/1999/xlink">
    <title>Icons (Solution)/CAIC/4. Dark diapositive/2. CAIC dark diapositive96px</title>
    <defs>
        <linearGradient x1="0%" y1="100%" x2="100%" y2="0%" id="linearGradient-1">
            <stop stop-color="#007FFF" offset="0%"></stop>
            <stop stop-color="#007FFF" offset="24.6495927%"></stop>
            <stop stop-color="#6610F2" offset="100%"></stop>
        </linearGradient>
        <linearGradient x1="1.57470396%" y1="100%" x2="98.425296%" y2="0%" id="linearGradient-2">
            <stop stop-color="#FDCA40" offset="0%"></stop>
            <stop stop-color="#FDCA40" offset="24.6093781%"></stop>
            <stop stop-color="#FFA400" offset="100%"></stop>
        </linearGradient>
        <path d="M31,4 C34.20276,4 36.8,6.6868 36.8,10 C36.8,12.6118232 35.185997,14.8343826 32.9336919,15.6583326 L32.9333333,20 L43,20 C52.3888407,20 60,27.6111593 60,37 C60,46.3888407 52.3888407,54 43,54 L19,54 C9.61115925,54 2,46.3888407 2,37 C2,27.6111593 9.61115925,20 19,20 L29.0666667,20 L29.0663081,15.6583326 C26.814003,14.8343826 25.2,12.6118232 25.2,10 C25.2,6.6868 27.79724,4 31,4 Z" id="path-3"></path>
        <filter x="-12.9%" y="-15.0%" width="125.9%" height="130.0%" filterUnits="objectBoundingBox" id="filter-4">
            <feOffset dx="0" dy="0" in="SourceAlpha" result="shadowOffsetOuter1"></feOffset>
            <feGaussianBlur stdDeviation="2.5" in="shadowOffsetOuter1" result="shadowBlurOuter1"></feGaussianBlur>
            <feColorMatrix values="0 0 0 0 0.062745098   0 0 0 0 0.117647059   0 0 0 0 0.117647059  0 0 0 0.3 0" type="matrix" in="shadowBlurOuter1"></feColorMatrix>
        </filter>
        <linearGradient x1="-2.22044605e-13%" y1="84.7222222%" x2="99.0041453%" y2="15.9693436%" id="linearGradient-5">
            <stop stop-color="#101E1E" offset="0%"></stop>
            <stop stop-color="#101E1E" offset="25%"></stop>
            <stop stop-color="#344055" offset="100%"></stop>
        </linearGradient>
        <linearGradient x1="3.57353036e-13%" y1="60.5034722%" x2="99.0041453%" y2="39.7057264%" id="linearGradient-6">
            <stop stop-color="#344055" offset="0%"></stop>
            <stop stop-color="#344055" offset="25%"></stop>
            <stop stop-color="#5D6677" offset="100%"></stop>
        </linearGradient>
        <linearGradient x1="-2.22044605e-13%" y1="100%" x2="99.0041453%" y2="0.995854731%" id="linearGradient-7">
            <stop stop-color="#FFFFFF" offset="0%"></stop>
            <stop stop-color="#FFFFFF" offset="25%"></stop>
            <stop stop-color="#AEB3BB" offset="100%"></stop>
        </linearGradient>
    </defs>
    <g id="Icons-(Solution)/CAIC/4.-Dark-diapositive/2.-CAIC-dark-diapositive96px" stroke="none" stroke-width="1" fill="none" fill-rule="evenodd">
        <g id="Icons-(Solution)/CAIC/1.-3D/1.-Primary/2.-CAIC-96px" transform="translate(5.000000, 5.000000)">
            <path d="M83,43 C83,65.0911111 65.0911111,83 43,83 C20.9088889,83 3,65.0911111 3,43 C3,20.9088889 20.9088889,3 43,3 C65.0911111,3 83,20.9088889 83,43" id="Gradient" fill="url(#linearGradient-1)"></path>
            <path d="M23,57 L23.2239444,57.0002127 C23.4193804,56.1435756 23.7445953,55.3013229 24.2068723,54.5006356 C26.6915213,50.1970973 32.1958261,48.7222233 36.4993644,51.2068723 C38.7567536,52.5101766 40.2358501,54.6443239 40.7734425,57.0002008 L41,57 L41,59 C41.0013709,60.5299928 40.6126053,62.0799875 39.7931277,63.4993644 C37.3084787,67.8029027 31.8041739,69.2777767 27.5006356,66.7931277 C24.6316101,65.136695 23.0197687,62.1381931 23.0001807,59.0481175 L23,57 Z" id="Combined-Shape" fill="#9D8532"></path>
            <path d="M57,57 L57.0831636,57.0004913 C57.1988773,56.3148578 57.4366684,55.6378815 57.8048088,55.0004237 C59.4617093,52.1313982 63.1322822,51.1481489 66.0021181,52.8045815 C67.61337,53.7345756 68.630021,55.2991388 68.9186087,57.0003234 L69,57 L69.0015545,57.857625 C69.02792,58.9231701 68.7706056,60.0090793 68.1985805,60.9995763 C66.54168,63.8686018 62.871107,64.8518511 60.0012712,63.1954185 C58.0880473,62.09113 57.0131828,60.0921288 57.0001205,58.0320783 L57,57 Z" id="Combined-Shape" fill="#9D8532"></path>
            <path d="M82.4996469,22.6704846 C84.8905015,24.0508452 85.7098759,27.1087923 84.3295154,29.4996469 C83.1901959,31.4730061 80.908022,32.3757959 78.8013789,31.8547557 L66.9120148,52.4480312 C69.0624584,54.2902834 69.6658955,57.4588297 68.1985805,59.9995763 C67.8629052,60.5808187 67.4445815,61.084662 66.9670116,61.5048374 L74.8379435,75.1377963 C76.0383264,74.850685 77.3465697,75.0047552 78.4996469,75.6704846 C80.8905015,77.0508452 81.7098759,80.1087923 80.3295154,82.4996469 C78.9491548,84.8905015 75.8912077,85.7098759 73.5003531,84.3295154 C71.1094985,82.9491548 70.2901241,79.8912077 71.6704846,77.5003531 C71.8437226,77.2002961 72.0433839,76.924991 72.2648336,76.6756799 L64.2878303,62.8595834 C62.8769844,63.1695111 61.3506177,62.9742441 60.0012712,62.1954185 C58.5496719,61.3575739 57.580678,60.0046838 57.1918803,58.5008592 L40.8750366,58.5007634 C40.7014215,59.5287009 40.3449139,60.5436427 39.7931277,61.4993644 C37.3084787,65.8029027 31.8041739,67.2777767 27.5006356,64.7931277 C23.1970973,62.3084787 21.7222233,56.8041739 24.2068723,52.5006356 C26.6915213,48.1970973 32.1958261,46.7222233 36.4993644,49.2068723 C38.915419,50.6017821 40.4399281,52.9484347 40.8727894,55.500039 L57.1897936,55.500589 C57.3226833,54.9868375 57.526497,54.4823377 57.8048088,54.0004237 C58.0258689,53.6176445 58.2827731,53.2684327 58.5688373,52.9545787 L51.6407391,40.9576412 C50.5898734,41.0952252 49.4871491,40.9006866 48.4985608,40.3295154 C46.10942,38.9491548 45.2906329,35.8912077 46.670004,33.5003531 C48.049375,31.1094985 51.10513,30.2901241 53.4942708,31.6704846 C55.8834115,33.0508452 56.7021986,36.1087923 55.3228276,38.4996469 C55.060882,38.9536753 54.7384813,39.3510318 54.3716713,39.6874137 L61.0851035,51.3151854 C62.0800953,50.9803627 63.1594205,50.9060489 64.2108311,51.1223123 L76.2367308,30.2929709 C74.8664587,28.7270705 74.5722382,26.4025718 75.6704846,24.5003531 C77.0508452,22.1094985 80.1087923,21.2901241 82.4996469,22.6704846 Z" id="Combined-Shape" fill="url(#linearGradient-2)"></path>
            <g id="Shadow" style="mix-blend-mode: multiply;" fill="black" fill-opacity="1">
                <use filter="url(#filter-4)" xlink:href="#path-3"></use>
            </g>
            <path d="M0,33 L0.116352091,33.0004624 C1.10600002,24.5538989 8.28762745,18 17,18 L43,18 C51.7123725,18 58.894,24.5538989 59.8836479,33.0004624 L60,33 L60,35 C60,44.3888407 52.3888407,52 43,52 L17,52 C7.61115925,52 1.14980138e-15,44.3888407 0,35 L0,33 Z" id="Combined-Shape" fill="#101E1E"></path>
            <path d="M30,0 C33.3132,0 36,2.6868 36,6 C36,8.61152388 34.3307244,10.8338732 32.0011719,11.6580493 L32,16 L43,16 C52.3888407,16 60,23.6111593 60,33 C60,42.3888407 52.3888407,50 43,50 L17,50 C7.61115925,50 1.14980138e-15,42.3888407 0,33 C-1.14980138e-15,23.6111593 7.61115925,16 17,16 L28,16 L27.9998306,11.6584039 C25.6697545,10.8345108 24,8.61189851 24,6 C24,2.6868 26.6868,0 30,0 Z" id="Solid" fill="url(#linearGradient-5)"></path>
            <rect id="Colour" fill="url(#linearGradient-6)" x="6" y="22" width="48" height="22" rx="11"></rect>
            <path d="M43,22 C49.0751322,22 54,26.9248678 54,33 C54,33.3369962 53.9848458,33.670453 53.9551817,33.999726 C53.4495221,28.3931213 48.7377953,24 43,24 L17,24 C11.261864,24 6.5499183,28.3936431 6.04481833,34.000274 C6.01518487,33.6711273 6,33.337337 6,33 C6,26.9248678 10.9248678,22 17,22 L43,22 Z" id="Combined-Shape" fill="#101E1E"></path>
            <path d="M36,33 C36,30.239 38.239,28 41,28 C43.761,28 46,30.239 46,33 C46,35.761 43.761,38 41,38 C38.239,38 36,35.761 36,33 Z" id="Path" fill="url(#linearGradient-7)"></path>
            <path d="M14,33 C14,30.239 16.239,28 19,28 C21.761,28 24,30.239 24,33 C24,35.761 21.761,38 19,38 C16.239,38 14,35.761 14,33 Z" id="Path" fill="url(#linearGradient-7)"></path>
            <path d="M20,34 C18.8956,34 18,33.1044 18,32 C18,30.8956 18.8956,30 20,30 C21.1044,30 22,30.8956 22,32 C22,33.1044 21.1044,34 20,34" id="Path-Copy-2" fill="#FFFFFF" transform="translate(20.000000, 32.000000) scale(-1, -1) translate(-20.000000, -32.000000) "></path>
            <path d="M42,34 C40.8956,34 40,33.1044 40,32 C40,30.8956 40.8956,30 42,30 C43.1044,30 44,30.8956 44,32 C44,33.1044 43.1044,34 42,34" id="Path-Copy-3" fill="#FFFFFF" transform="translate(42.000000, 32.000000) scale(-1, -1) translate(-42.000000, -32.000000) "></path>
        </g>
    </g>
</svg>