<?xml version="1.0" encoding="UTF-8"?>
<svg width="160px" height="128px" viewBox="0 0 160 128" version="1.1" xmlns="http://www.w3.org/2000/svg" xmlns:xlink="http://www.w3.org/1999/xlink">
    <title>Icons (Solution)/CPaaS/3. Dark positive/1. CPaaS dark positive 160px</title>
    <defs>
        <linearGradient x1="-2.22044605e-13%" y1="100%" x2="99.0041453%" y2="0.995854731%" id="linearGradient-1">
            <stop stop-color="#101E1E" offset="0%"></stop>
            <stop stop-color="#101E1E" offset="25%"></stop>
            <stop stop-color="#344055" offset="100%"></stop>
        </linearGradient>
        <path d="M87,71.999625 C87,83.0451129 78.0458629,91.99925 67.000375,91.99925 L28.199174,91.9992308 C25.351579,92.1112879 22.5211637,93.5142131 20.4959112,95.5860206 L19.4745801,96.6294391 C17.3623245,98.7902498 14.5127543,100.001085 11.5428063,100.001085 C10.4763335,100.001085 9.99858378,98.6676092 10.7735164,97.9084054 C12.197361,96.5145852 13.0851479,94.5406555 13.0851479,92.3525914 C13.0851479,90.3541491 12.3353624,87.9364799 11.1210107,86.39734 C7.34675298,82.7608373 5,77.6542879 5,71.999625 C5,60.9541371 13.9541371,52 24.999625,52 L31.4002331,52.0003782 C31.1377773,50.707706 31,49.3697553 31,47.999625 C31,36.9541371 39.9541371,28 50.999625,28 L93.000375,28 C95.0986932,28 97.1215369,28.3231444 99.0218563,28.9223831 C99.0070309,28.6173905 99,28.3095163 99,28 C99,16.954305 107.954305,8 119,8 C130.045695,8 139,16.954305 139,28 C139,39.045695 130.045695,48 119,48 C116.901642,48 114.878761,47.6768496 112.978406,47.0775996 C112.992969,47.3822461 113,47.6901145 113,47.999625 C113,53.6542879 110.653247,58.7608373 106.878989,62.39734 C105.664638,63.9364799 104.914852,66.3541491 104.914852,68.3525914 C104.914852,70.5406555 105.802639,72.5145852 107.226484,73.9084054 C108.001416,74.6676092 107.523667,76.0010851 106.457194,76.0010851 C103.487246,76.0010851 100.637676,74.7902498 98.5254199,72.6294391 L97.5040888,71.5860206 C95.4788363,69.5142131 92.648421,68.1112879 89.800826,67.9992308 L86.5997855,67.9989634 C86.8622292,69.2916073 87,70.6295271 87,71.999625 Z" id="path-2"></path>
        <filter x="-9.0%" y="-13.0%" width="117.9%" height="126.1%" filterUnits="objectBoundingBox" id="filter-3">
            <feOffset dx="0" dy="0" in="SourceAlpha" result="shadowOffsetOuter1"></feOffset>
            <feGaussianBlur stdDeviation="4" in="shadowOffsetOuter1" result="shadowBlurOuter1"></feGaussianBlur>
            <feColorMatrix values="0 0 0 0 0.062745098   0 0 0 0 0.117647059   0 0 0 0 0.117647059  0 0 0 0.3 0" type="matrix" in="shadowBlurOuter1"></feColorMatrix>
        </filter>
        <linearGradient x1="0%" y1="67.1334337%" x2="100%" y2="32.8665663%" id="linearGradient-4">
            <stop stop-color="#FDCA40" offset="0%"></stop>
            <stop stop-color="#FDCA40" offset="24.6093781%"></stop>
            <stop stop-color="#FFA400" offset="100%"></stop>
        </linearGradient>
        <linearGradient x1="3.57353036e-13%" y1="67.1334337%" x2="99.0041453%" y2="33.2078145%" id="linearGradient-5">
            <stop stop-color="#344055" offset="0%"></stop>
            <stop stop-color="#344055" offset="25%"></stop>
            <stop stop-color="#5D6677" offset="100%"></stop>
        </linearGradient>
        <linearGradient x1="0.101753715%" y1="67.2655054%" x2="100%" y2="32.6992863%" id="linearGradient-6">
            <stop stop-color="#FFC866" offset="0%"></stop>
            <stop stop-color="#FFDB99" offset="100%"></stop>
        </linearGradient>
        <linearGradient x1="0%" y1="72.2222222%" x2="100%" y2="27.7777778%" id="linearGradient-7">
            <stop stop-color="#EFF0F2" offset="0%"></stop>
            <stop stop-color="#EFF0F2" offset="24.7309791%"></stop>
            <stop stop-color="#FFFFFF" offset="100%"></stop>
        </linearGradient>
        <linearGradient x1="0%" y1="100%" x2="100%" y2="0%" id="linearGradient-8">
            <stop stop-color="#007FFF" offset="0%"></stop>
            <stop stop-color="#007FFF" offset="24.6495927%"></stop>
            <stop stop-color="#6610F2" offset="100%"></stop>
        </linearGradient>
    </defs>
    <g id="Icons-(Solution)/CPaaS/3.-Dark-positive/1.-CPaaS-dark-positive-160px" stroke="none" stroke-width="1" fill="none" fill-rule="evenodd">
        <g id="Icons-(Solution)/CPaaS/1.-3D/1.-Primary/1.-CPaaS-160px" transform="translate(4.000000, 8.000000)">
            <path d="M120,56 C120,86.9275556 94.9275556,112 64,112 C33.0724444,112 8,86.9275556 8,56 C8,25.0724444 33.0724444,0 64,0 C94.9275556,0 120,25.0724444 120,56" id="Gradient" fill="url(#linearGradient-1)"></path>
            <g id="Shadow" style="mix-blend-mode: multiply;" fill="black" fill-opacity="1">
                <use filter="url(#filter-3)" xlink:href="#path-2"></use>
            </g>
            <path d="M62.000375,46 C72.371225,46 80.898394,53.8937368 81.9013524,64.0006807 L82,64 L82,65.999625 C82,77.0451129 73.0458629,85.99925 62.000375,85.99925 L23.199174,85.9992308 C20.351579,86.1112879 17.5211637,87.5142131 15.4959112,89.5860206 L14.4745801,90.6294391 C12.3623245,92.7902498 9.51275433,94.0010851 6.54280629,94.0010851 C5.85323644,94.0010851 5.40979856,93.4435886 5.39197712,92.8443067 L5.39141909,90.7542288 L6.39141909,90.7542288 L6.39218642,91.224176 C7.44985589,89.9012391 8.08514789,88.2035315 8.08514789,86.3525914 C8.08514789,84.3541491 7.33536237,81.9364799 6.12101073,80.39734 C2.34675298,76.7608373 6.92496487e-16,71.6542879 0,65.999625 L0,64 L0.0986475635,64.0006807 C1.10160595,53.8937368 9.62877497,46 19.999625,46 L62.000375,46 Z" id="Combined-Shape" fill="#9D8532"></path>
            <path d="M62.000375,44 C73.0458629,44 82,52.9541371 82,63.999625 C82,75.0451129 73.0458629,83.99925 62.000375,83.99925 L23.199174,83.9992308 C20.351579,84.1112879 17.5211637,85.5142131 15.4959112,87.5860206 L14.4745801,88.6294391 C12.3623245,90.7902498 9.51275433,92.0010851 6.54280629,92.0010851 C5.4763335,92.0010851 4.99858378,90.6676092 5.77351639,89.9084054 C7.19736102,88.5145852 8.08514789,86.5406555 8.08514789,84.3525914 C8.08514789,82.3541491 7.33536237,79.9364799 6.12101073,78.39734 C2.34675298,74.7608373 6.92496487e-16,69.6542879 0,63.999625 C-1.35268214e-15,52.9541371 8.95413711,44 19.999625,44 L62.000375,44 Z" id="Colour" fill="url(#linearGradient-4)"></path>
            <path d="M93.000375,22 C104.045863,22 113,30.9541371 113,41.999625 C113,47.6542879 110.653247,52.7608373 106.878989,56.39734 C105.664638,57.9364799 104.914852,60.3541491 104.914852,62.3525914 C104.914852,64.2035315 105.550144,65.9012391 106.607814,67.224176 L106.608581,66.7523682 L107.608581,66.7523682 L107.608581,68.8427243 C107.591197,69.4423365 107.147537,70.0010851 106.457194,70.0010851 C103.487246,70.0010851 100.637676,68.7902498 98.5254199,66.6294391 L97.5040888,65.5860206 C95.4788363,63.5142131 92.648421,62.1112879 89.800826,61.9992308 L50.999625,61.99925 C39.9541371,61.99925 31,53.0451129 31,41.999625 C31,30.9541371 39.9541371,22 50.999625,22 Z" id="Combined-Shape" fill="#101E1E"></path>
            <rect id="Rectangle-Copy-53" fill="#101E1E" x="31" y="40" width="82" height="2"></rect>
            <path d="M50.999625,20 C39.9541371,20 31,28.9541371 31,39.999625 C31,51.0451129 39.9541371,59.99925 50.999625,59.99925 L89.800826,59.9992308 C92.5388981,60.106978 95.2610866,61.4082053 97.2668774,63.3499697 L97.5040888,63.5860206 L98.5254199,64.6294391 C100.637676,66.7902498 103.487246,68.0010851 106.457194,68.0010851 C107.523667,68.0010851 108.001416,66.6676092 107.226484,65.9084054 C105.802639,64.5145852 104.914852,62.5406555 104.914852,60.3525914 C104.914852,58.3541491 105.664638,55.9364799 106.878989,54.39734 C110.653247,50.7608373 113,45.6542879 113,39.999625 C113,28.9541371 104.045863,20 93.000375,20 L50.999625,20 Z" id="Path" fill="url(#linearGradient-5)"></path>
            <path d="M126.12132,86.8786797 L133.121188,93.8785468 C134.29276,95.0501197 134.29276,96.9496147 133.121188,98.1211875 L126.12132,105.121055 C124.949747,106.292628 123.050253,106.292628 121.87868,105.121055 C120.707107,103.949482 120.707107,102.049987 121.87868,100.878414 L126.757,96 L121.87868,91.1213203 C120.707107,89.9497475 120.707107,88.0502525 121.87868,86.8786797 C123.050253,85.7071068 124.949747,85.7071068 126.12132,86.8786797 Z M107.878547,86.8786797 L100.87868,93.8785468 C99.7071068,95.0501197 99.7071068,96.9496147 100.87868,98.1211875 L107.878547,105.121055 C109.05012,106.292628 110.949615,106.292628 112.121188,105.121055 C113.29276,103.949482 113.29276,102.049987 112.121188,100.878414 L107.242867,96 L112.121188,91.1213203 C113.29276,89.9497475 113.29276,88.0502525 112.121188,86.8786797 C110.949615,85.7071068 109.05012,85.7071068 107.878547,86.8786797 Z" id="Combined-Shape" fill="url(#linearGradient-6)"></path>
            <path d="M72,28 C74.209139,28 76,29.790861 76,32 L76,48 C76,50.209139 74.209139,52 72,52 C69.790861,52 68,50.209139 68,48 L68,32 C68,29.790861 69.790861,28 72,28 Z M58,32 C60.209139,32 62,33.790861 62,36 L62,44 C62,46.209139 60.209139,48 58,48 C55.790861,48 54,46.209139 54,44 L54,36 C54,33.790861 55.790861,32 58,32 Z M86,32 C88.209139,32 90,33.790861 90,36 L90,44 C90,46.209139 88.209139,48 86,48 C83.790861,48 82,46.209139 82,44 L82,36 C82,33.790861 83.790861,32 86,32 Z" id="Shape" fill="url(#linearGradient-7)"></path>
            <path d="M100,20 L100.098748,20.0000201 C101.102188,9.89336506 109.629297,2 120,2 C130.370703,2 138.897812,9.89336506 139.901252,20.0000201 L140,20 L140,22 C140,33.045695 131.045695,42 120,42 C108.954305,42 100,33.045695 100,22 L100,20 Z" id="Combined-Shape" fill="#0658A5"></path>
            <circle id="Oval-Copy" fill="url(#linearGradient-8)" cx="120" cy="20" r="20"></circle>
        </g>
    </g>
</svg>