<?xml version="1.0" encoding="UTF-8"?>
<svg width="96px" height="96px" viewBox="0 0 96 96" version="1.1" xmlns="http://www.w3.org/2000/svg" xmlns:xlink="http://www.w3.org/1999/xlink">
    <title>Icons (Solution)/CPaaS/3. Dark positive/2. CPaaS dark positive 96px</title>
    <defs>
        <linearGradient x1="-2.22044605e-13%" y1="100%" x2="99.0041453%" y2="0.995854731%" id="linearGradient-1">
            <stop stop-color="#101E1E" offset="0%"></stop>
            <stop stop-color="#101E1E" offset="25%"></stop>
            <stop stop-color="#344055" offset="100%"></stop>
        </linearGradient>
        <path d="M75,4 C81.627417,4 87,9.372583 87,16 C87,22.4657563 81.886324,27.7371496 75.4826824,27.9904696 C77.0693157,30.2585934 78,33.0206102 78,36 C78,39.7851168 76.4978741,43.2193934 74.0572227,45.7392292 L74.0840886,45.7308588 C73.1796848,46.5432096 72.5976481,48.2166464 72.5976481,49.5731934 C72.5976481,50.8396044 73.0986794,51.9820784 73.90224,52.7887957 C74.3395809,53.2282088 74.0699581,54 73.4680837,54 C71.7919644,54 70.1837815,53.2991909 68.9917093,52.0485537 L68.4153111,51.4446424 C67.240415,50.2120252 65.7824456,50.003961 64.1359683,49.9982211 L64,50 L59.6528812,50.000302 C60.5166714,51.818736 61,53.8529243 61,56 C61,63.7319865 54.7319865,70 47,70 L17,70 L16.8650346,69.9982176 C15.2181465,70.0038765 13.7598235,70.2117749 12.5846889,71.4446424 L12.0082907,72.0485537 C10.8162185,73.2991909 9.20803559,74 7.53191626,74 C6.93004187,74 6.66041913,73.2282088 7.09775996,72.7887957 C7.90132065,71.9820784 8.40235189,70.8396044 8.40235189,69.5731934 C8.40235189,68.2166464 7.82031521,66.5427576 6.91591136,65.7304068 L6.94277726,65.7392292 C4.50212588,63.2193934 3,59.7851168 3,56 C3,48.2680135 9.2680135,42 17,42 L21.347593,42.000696 C20.4835054,40.1820083 20,38.1474685 20,36 C20,28.2680135 26.2680135,22 34,22 L64,22 C64.2056129,22 64.4101906,22.0044325 64.6136426,22.0132072 C63.5874731,20.2458412 63,18.1915264 63,16 C63,9.372583 68.372583,4 75,4 Z" id="path-2"></path>
        <filter x="-8.9%" y="-10.7%" width="117.9%" height="121.4%" filterUnits="objectBoundingBox" id="filter-3">
            <feOffset dx="0" dy="0" in="SourceAlpha" result="shadowOffsetOuter1"></feOffset>
            <feGaussianBlur stdDeviation="2.5" in="shadowOffsetOuter1" result="shadowBlurOuter1"></feGaussianBlur>
            <feColorMatrix values="0 0 0 0 0.062745098   0 0 0 0 0.117647059   0 0 0 0 0.117647059  0 0 0 0.3 0" type="matrix" in="shadowBlurOuter1"></feColorMatrix>
        </filter>
        <linearGradient x1="0%" y1="65.2199762%" x2="100%" y2="34.7800238%" id="linearGradient-4">
            <stop stop-color="#FDCA40" offset="0%"></stop>
            <stop stop-color="#FDCA40" offset="24.6093781%"></stop>
            <stop stop-color="#FFA400" offset="100%"></stop>
        </linearGradient>
        <linearGradient x1="3.57353036e-13%" y1="65.2199762%" x2="99.0041453%" y2="35.0831615%" id="linearGradient-5">
            <stop stop-color="#344055" offset="0%"></stop>
            <stop stop-color="#344055" offset="25%"></stop>
            <stop stop-color="#5D6677" offset="100%"></stop>
        </linearGradient>
        <linearGradient x1="0%" y1="100%" x2="100%" y2="0%" id="linearGradient-6">
            <stop stop-color="#007FFF" offset="0%"></stop>
            <stop stop-color="#007FFF" offset="24.6495927%"></stop>
            <stop stop-color="#6610F2" offset="100%"></stop>
        </linearGradient>
        <linearGradient x1="0%" y1="68.9349112%" x2="100%" y2="31.0650888%" id="linearGradient-7">
            <stop stop-color="#EFF0F2" offset="0%"></stop>
            <stop stop-color="#EFF0F2" offset="24.7309791%"></stop>
            <stop stop-color="#FFFFFF" offset="100%"></stop>
        </linearGradient>
    </defs>
    <g id="Icons-(Solution)/CPaaS/3.-Dark-positive/2.-CPaaS-dark-positive-96px" stroke="none" stroke-width="1" fill="none" fill-rule="evenodd">
        <g id="Icons-(Solution)/CPaaS/1.-3D/1.-Primary/2.-CPaaS-96px" transform="translate(4.000000, 4.000000)">
            <path d="M84,44 C84,66.0911111 66.0911111,84 44,84 C21.9088889,84 4,66.0911111 4,44 C4,21.9088889 21.9088889,4 44,4 C66.0911111,4 84,21.9088889 84,44" id="Gradient" fill="url(#linearGradient-1)"></path>
            <g id="Shadow" style="mix-blend-mode: multiply;" fill="black" fill-opacity="1">
                <use filter="url(#filter-3)" xlink:href="#path-2"></use>
            </g>
            <path d="M44,40 C51.0529991,40 56.8878544,45.2154935 57.8582451,52.0001595 L58,52 L58,54 C58,61.7319865 51.7319865,68 44,68 L14,68 L13.8650346,67.9982176 C12.2181465,68.0038765 10.7598235,68.2117749 9.58468891,69.4446424 L9.00829069,70.0485537 C7.81621849,71.2991909 6.20803559,72 4.53191626,72 C4.14945176,72 3.90115178,71.6883477 3.88316721,71.3483724 L3.88211959,69.3369551 L4.88211959,69.3369551 L4.88272024,69.7146511 C5.21387507,69.0800352 5.40235189,68.3499255 5.40235189,67.5731934 C5.40235189,66.2166464 4.82031521,64.5427576 3.91591136,63.7304068 L3.94277726,63.7392292 C1.50212588,61.2193934 4.63543121e-16,57.7851168 0,54 L0,52 L0.141754904,52.0001595 C1.11214559,45.2154935 6.94700091,40 14,40 L44,40 Z" id="Combined-Shape" fill="#9D8532"></path>
            <path d="M44,38 C51.7319865,38 58,44.2680135 58,52 C58,59.7319865 51.7319865,66 44,66 L14,66 L13.8650346,65.9982176 C12.2181465,66.0038765 10.7598235,66.2117749 9.58468891,67.4446424 L9.00829069,68.0485537 C7.81621849,69.2991909 6.20803559,70 4.53191626,70 C3.93004187,70 3.66041913,69.2282088 4.09775996,68.7887957 C4.90132065,67.9820784 5.40235189,66.8396044 5.40235189,65.5731934 C5.40235189,64.2166464 4.82031521,62.5427576 3.91591136,61.7304068 L3.94277726,61.7392292 C1.50212588,59.2193934 4.63543121e-16,55.7851168 0,52 C-9.46895252e-16,44.2680135 6.2680135,38 14,38 L44,38 Z" id="Colour" fill="url(#linearGradient-4)"></path>
            <path d="M20,32 L20.1417549,32.0001595 C21.1121456,25.2154935 26.9470009,20 34,20 L64,20 C71.0529991,20 76.8878544,25.2154935 77.8582451,32.0001595 L78,32 L78,34 C78,37.7760747 76.5050423,41.2029834 74.0746977,43.721155 L74.0840886,43.7170458 L73.9507171,43.848008 C73.9389273,43.8599201 73.9271162,43.8718111 73.9152575,43.8826149 C73.1078989,44.7429986 72.5976481,46.3030536 72.5976481,47.5731934 C72.5976481,48.3499255 72.7861249,49.0800352 73.1172798,49.7146511 L73.1178804,49.3067279 L74.1178804,49.3067279 L74.1178804,51.3268299 C74.1095176,51.6747319 73.8588137,52 73.4680837,52 C71.7919644,52 70.1837815,51.2991909 68.9917093,50.0485537 L68.4153111,49.4446424 C67.2401765,48.2117749 65.7818535,48.0038765 64.1349654,47.9982176 L64,48 L34,48 C26.2680135,48 20,41.7319865 20,34 L20,32 Z" id="Combined-Shape" fill="#101E1E"></path>
            <path d="M34,18 C26.2680135,18 20,24.2680135 20,32 C20,39.7319865 26.2680135,46 34,46 L64,46 L64.1359683,45.9982211 C65.6957889,46.0036589 67.0864224,46.1906842 68.2274626,47.2584131 L68.4153111,47.4446424 L68.9917093,48.0485537 C70.1837815,49.2991909 71.7919644,50 73.4680837,50 C74.0699581,50 74.3395809,49.2282088 73.90224,48.7887957 C73.0986794,47.9820784 72.5976481,46.8396044 72.5976481,45.5731934 C72.5976481,44.2964432 73.1132239,42.738988 73.9278872,41.8829137 L74.0840886,41.7308588 L74.0572227,41.7392292 C76.4978741,39.2193934 78,35.7851168 78,32 C78,24.2680135 71.7319865,18 64,18 L34,18 Z" id="Path" fill="url(#linearGradient-5)"></path>
            <path d="M64,12 L64.1658855,12.0001873 C65.1179645,6.32466846 70.053942,2 76,2 C81.946058,2 86.8820355,6.32466846 87.8341145,12.0001873 L88,12 L88,14 C88,20.627417 82.627417,26 76,26 C69.372583,26 64,20.627417 64,14 L64,12 Z" id="Combined-Shape" fill="#0658A5"></path>
            <circle id="Oval-Copy" fill="url(#linearGradient-6)" cx="76" cy="12" r="12"></circle>
            <path d="M49,40 C47.3431458,40 46,38.6568542 46,37 L46,27 C46,25.3431458 47.3431458,24 49,24 C50.6568542,24 52,25.3431458 52,27 L52,37 C52,38.6568542 50.6568542,40 49,40 Z M59,27 C60.6568542,27 62,28.3431458 62,30 L62,34 C62,35.6568542 60.6568542,37 59,37 C57.3431458,37 56,35.6568542 56,34 L56,30 C56,28.3431458 57.3431458,27 59,27 Z M39,27 C40.6568542,27 42,28.3431458 42,30 L42,34 C42,35.6568542 40.6568542,37 39,37 C37.3431458,37 36,35.6568542 36,34 L36,30 C36,28.3431458 37.3431458,27 39,27 Z" id="Combined-Shape" fill="url(#linearGradient-7)"></path>
        </g>
    </g>
</svg>