<?xml version="1.0" encoding="UTF-8"?>
<svg width="96px" height="96px" viewBox="0 0 96 96" version="1.1" xmlns="http://www.w3.org/2000/svg" xmlns:xlink="http://www.w3.org/1999/xlink">
    <title>Icons (Solution)/Ticketing/3. Dark positive/2. Ticketing dark positive 96px</title>
    <defs>
        <linearGradient x1="-2.22044605e-13%" y1="100%" x2="99.0041453%" y2="0.995854731%" id="linearGradient-1">
            <stop stop-color="#101E1E" offset="0%"></stop>
            <stop stop-color="#101E1E" offset="25%"></stop>
            <stop stop-color="#344055" offset="100%"></stop>
        </linearGradient>
        <linearGradient x1="0%" y1="78.6960514%" x2="100%" y2="21.3039486%" id="linearGradient-2">
            <stop stop-color="#EFF0F2" offset="0%"></stop>
            <stop stop-color="#EFF0F2" offset="24.7309791%"></stop>
            <stop stop-color="#FFFFFF" offset="100%"></stop>
        </linearGradient>
        <linearGradient x1="0%" y1="81.0158403%" x2="100%" y2="18.9841597%" id="linearGradient-3">
            <stop stop-color="#04E4F4" offset="0%"></stop>
            <stop stop-color="#04E4F4" offset="24.7220569%"></stop>
            <stop stop-color="#007FFF" offset="100%"></stop>
        </linearGradient>
        <path d="M60.3742286,65.18 L72.4985843,58.18 C76.8032179,55.6947186 82.3075315,57.169595 84.7928129,61.4742286 C87.2780943,65.7788622 85.8032179,71.2831759 81.4985843,73.7684573 L69.3742286,80.7684573 C65.069595,83.2537386 59.5652814,81.7788622 57.08,77.4742286 C54.5947186,73.169595 56.069595,67.6652814 60.3742286,65.18 Z M31.5351178,16.42 C32.6396873,18.3331705 35.0860489,18.9886711 36.9992194,17.8841016 C38.9123899,16.7795321 39.5678905,14.3331705 38.463321,12.42 L40.1953718,11.42 C48.804639,6.44943725 59.8132663,9.39919005 64.7838291,18.0084573 C69.7543918,26.6177245 66.804639,37.6263518 58.1953718,42.5969145 L56.463321,43.5969145 C55.3587515,41.683744 52.9123899,41.0282434 50.9992194,42.1328129 C49.0860489,43.2373824 48.4305483,45.683744 49.5351178,47.5969145 L27.0184573,60.5969145 C18.40919,65.5674773 7.40056275,62.6177245 2.43,54.0084573 C-2.54056275,45.39919 0.409190046,34.3905627 9.01845727,29.42 Z M44.9992194,31.7405081 C43.0860489,32.8450776 42.4305483,35.2914392 43.5351178,37.2046097 C44.6396873,39.1177802 47.0860489,39.7732808 48.9992194,38.6687113 C50.9123899,37.5641418 51.5678905,35.1177802 50.463321,33.2046097 C49.3587515,31.2914392 46.9123899,30.6359386 44.9992194,31.7405081 Z M38.9992194,21.3482032 C37.0860489,22.4527727 36.4305483,24.8991344 37.5351178,26.8123048 C38.6396873,28.7254753 41.0860489,29.380976 42.9992194,28.2764065 C44.9123899,27.171837 45.5678905,24.7254753 44.463321,22.8123048 C43.3587515,20.8991344 40.9123899,20.2436337 38.9992194,21.3482032 Z" id="path-4"></path>
        <filter x="-8.7%" y="-10.3%" width="117.4%" height="120.6%" filterUnits="objectBoundingBox" id="filter-5">
            <feOffset dx="0" dy="0" in="SourceAlpha" result="shadowOffsetOuter1"></feOffset>
            <feGaussianBlur stdDeviation="2.5" in="shadowOffsetOuter1" result="shadowBlurOuter1"></feGaussianBlur>
            <feColorMatrix values="0 0 0 0 0.062745098   0 0 0 0 0.117647059   0 0 0 0 0.117647059  0 0 0 0.3 0" type="matrix" in="shadowBlurOuter1"></feColorMatrix>
        </filter>
        <linearGradient x1="0%" y1="84.4375503%" x2="100%" y2="15.5624497%" id="linearGradient-6">
            <stop stop-color="#FDCA40" offset="0%"></stop>
            <stop stop-color="#FDCA40" offset="24.6093781%"></stop>
            <stop stop-color="#FFA400" offset="100%"></stop>
        </linearGradient>
        <linearGradient x1="0%" y1="82.2935405%" x2="100%" y2="17.7064595%" id="linearGradient-7">
            <stop stop-color="#0658A5" offset="0%"></stop>
            <stop stop-color="#0658A5" offset="24.6495927%"></stop>
            <stop stop-color="#43159D" offset="100%"></stop>
        </linearGradient>
        <linearGradient x1="0%" y1="82.3099572%" x2="100%" y2="17.6900428%" id="linearGradient-8">
            <stop stop-color="#007FFF" offset="0%"></stop>
            <stop stop-color="#007FFF" offset="24.6495927%"></stop>
            <stop stop-color="#6610F2" offset="100%"></stop>
        </linearGradient>
    </defs>
    <g id="Icons-(Solution)/Ticketing/3.-Dark-positive/2.-Ticketing-dark-positive-96px" stroke="none" stroke-width="1" fill="none" fill-rule="evenodd">
        <g id="Icons-(Solution)/Ticketing/1.-3D/1.-Primary/2.-Ticketing-96px" transform="translate(4.000000, 8.000000)">
            <path d="M84,40 C84,62.0911111 66.0911111,80 44,80 C21.9088889,80 4,62.0911111 4,40 C4,17.9088889 21.9088889,0 44,0 C66.0911111,0 84,17.9088889 84,40" id="Gradient" fill="url(#linearGradient-1)"></path>
            <path d="M38.2512595,26.6763351 C30.3611325,30.1273707 27.6573954,37.7716769 32.2127623,43.7490458 C36.7681293,49.7264148 46.8586135,51.7747005 54.7487405,48.3236649 C62.6388675,44.8726293 65.3426046,37.2283231 60.7872377,31.2509542 C56.2318707,25.2735852 46.1413865,23.2252995 38.2512595,26.6763351 Z" id="Path" fill="url(#linearGradient-2)"></path>
            <path d="M43.5351178,35.2046097 C44.6396178,37.1176598 47.0861693,37.7732113 48.9992194,36.6687113 C50.9122695,35.5642113 52.0790037,30.3901198 52.917812,30.1299565 C58.1529046,28.5062494 63.9997216,30.6503433 66.8556258,35.5969145 C70.1691258,41.3360649 68.2024713,48.6757194 62.463321,51.9892194 C61.358821,50.0761693 58.9122695,49.4206178 56.9992194,50.5251178 C55.0861693,51.6296178 54.4306178,54.0761693 55.5351178,55.9892194 L38.2146097,65.9892194 C32.4754593,69.3027194 25.1358048,67.3360649 21.8223048,61.5969145 C18.5088048,55.8577642 20.4754593,48.5181097 26.2146097,45.2046097 L43.5351178,35.2046097 Z M50.9992194,40.1328129 C49.0861693,41.2373129 48.4306178,43.6838644 49.5351178,45.5969145 C50.6396178,47.5099647 53.0861693,48.1655162 54.9992194,47.0610162 C56.9122695,45.9565162 57.567821,43.5099647 56.463321,41.5969145 C55.358821,39.6838644 52.9122695,39.0283129 50.9992194,40.1328129 Z" id="Shape" fill="url(#linearGradient-3)"></path>
            <g id="Shadow" style="mix-blend-mode: multiply;" fill="black" fill-opacity="1">
                <use filter="url(#filter-5)" xlink:href="#path-4"></use>
            </g>
            <path d="M84.7928129,60.4742286 C85.438929,61.5933345 85.8173857,62.7935244 85.9480457,64.0006699 L86,64 L86,65 C85.9880854,68.0986883 84.3751639,71.1076632 81.4985843,72.7684573 L69.3742286,79.7684573 C65.069595,82.2537386 59.5652814,80.7788622 57.08,76.4742286 C56.2648248,75.0623038 55.8757023,73.5213118 55.8727429,72.000122 L55.87,71 L55.926521,70.9998199 C56.2285169,68.2473172 57.7923863,65.6706274 60.3742286,64.18 L72.4985843,57.18 C76.8032179,54.6947186 82.3075315,56.169595 84.7928129,60.4742286 Z" id="Combined-Shape" fill="#9D8532"></path>
            <path d="M60.3742286,63.18 L72.4985843,56.18 C76.8032179,53.6947186 82.3075315,55.169595 84.7928129,59.4742286 C87.2780943,63.7788622 85.8032179,69.2831759 81.4985843,71.7684573 L69.3742286,78.7684573 C65.069595,81.2537386 59.5652814,79.7788622 57.08,75.4742286 C54.5947186,71.169595 56.069595,65.6652814 60.3742286,63.18 Z" id="Rectangle-Copy" fill="url(#linearGradient-6)"></path>
            <path d="M31.2512595,15.6763351 C23.3611325,19.1273707 20.6573954,26.7716769 25.2127623,32.7490458 C29.7681293,38.7264148 39.8586135,40.7747005 47.7487405,37.3236649 C55.6388675,33.8726293 58.3426046,26.2283231 53.7872377,20.2509542 C49.2318707,14.2735852 39.1413865,12.2252995 31.2512595,15.6763351 Z" id="Path" fill="url(#linearGradient-2)"></path>
            <path d="M64.7838291,16.0084573 C66.0651796,18.2278216 66.8201891,20.6066343 67.0875876,23.0003524 L67.2,23 L67.2,25 C67.1954236,31.2180287 63.9673256,37.2644754 58.1953718,40.5969145 L56.463321,41.5969145 C55.3587515,39.683744 52.9123899,39.0282434 50.9992194,40.1328129 C49.7193272,40.871759 49.0023024,42.2112211 48.9985662,43.5898199 L49.54,43.59 L49.54,45.59 L27.0184573,58.5969145 C18.40919,63.5674773 7.40056275,60.6177245 2.43,52.0084573 C0.788843767,49.1658913 0.0111256482,46.0617576 0.0154698099,42.9997549 L0,43 L0,41 L0.12972919,40.9996168 C0.749801241,35.5171949 3.87354416,30.390417 9.01845727,27.42 L31.5351178,14.42 C32.6396873,16.3331705 35.0860489,16.9886711 36.9992194,15.8841016 C38.9123899,14.7795321 39.5678905,12.3331705 38.463321,10.42 L38.47,10.4154517 L38.47,8.42 L41.47,8.42 L41.4703165,8.74940072 C49.8633957,4.75041771 60.0555268,7.81879757 64.7838291,16.0084573 Z M44.9992194,29.7405081 C43.0860489,30.8450776 42.4305483,33.2914392 43.5351178,35.2046097 C44.6396873,37.1177802 47.0860489,37.7732808 48.9992194,36.6687113 C50.9123899,35.5641418 51.5678905,33.1177802 50.463321,31.2046097 C49.3587515,29.2914392 46.9123899,28.6359386 44.9992194,29.7405081 Z M38.9992194,19.3482032 C37.0860489,20.4527727 36.4305483,22.8991344 37.5351178,24.8123048 C38.6396873,26.7254753 41.0860489,27.380976 42.9992194,26.2764065 C44.9123899,25.171837 45.5678905,22.7254753 44.463321,20.8123048 C43.3587515,18.8991344 40.9123899,18.2436337 38.9992194,19.3482032 Z" id="Combined-Shape" fill="url(#linearGradient-7)"></path>
            <path d="M31.5351178,12.42 C32.6396873,14.3331705 35.0860489,14.9886711 36.9992194,13.8841016 C38.9123899,12.7795321 39.5678905,10.3331705 38.463321,8.42 L40.1953718,7.42 C48.804639,2.44943725 59.8132663,5.39919005 64.7838291,14.0084573 C69.7543918,22.6177245 66.804639,33.6263518 58.1953718,38.5969145 L56.463321,39.5969145 C55.3587515,37.683744 52.9123899,37.0282434 50.9992194,38.1328129 C49.0860489,39.2373824 48.4305483,41.683744 49.5351178,43.5969145 L27.0184573,56.5969145 C18.40919,61.5674773 7.40056275,58.6177245 2.43,50.0084573 C-2.54056275,41.39919 0.409190046,30.3905627 9.01845727,25.42 L31.5351178,12.42 Z M44.9992194,27.7405081 C43.0860489,28.8450776 42.4305483,31.2914392 43.5351178,33.2046097 C44.6396873,35.1177802 47.0860489,35.7732808 48.9992194,34.6687113 C50.9123899,33.5641418 51.5678905,31.1177802 50.463321,29.2046097 C49.3587515,27.2914392 46.9123899,26.6359386 44.9992194,27.7405081 Z M38.9992194,17.3482032 C37.0860489,18.4527727 36.4305483,20.8991344 37.5351178,22.8123048 C38.6396873,24.7254753 41.0860489,25.380976 42.9992194,24.2764065 C44.9123899,23.171837 45.5678905,20.7254753 44.463321,18.8123048 C43.3587515,16.8991344 40.9123899,16.2436337 38.9992194,17.3482032 Z" id="Shape" fill="url(#linearGradient-8)"></path>
        </g>
    </g>
</svg>