<svg width="160" height="128" viewBox="0 0 160 128" fill="none" xmlns="http://www.w3.org/2000/svg">
<path fill-rule="evenodd" clip-rule="evenodd" d="M68 120C37.0724 120 12 94.9276 12 64C12 33.0724 37.0724 8 68 8C98.9276 8 124 33.0724 124 64C124 94.9276 98.9276 120 68 120Z" fill="url(#paint0_linear_5309_13828)"/>
<path d="M104 91.4311C104 90.5288 104.643 89.7545 105.529 89.5882L113.424 88.108C113.805 88.0366 114.195 88.0366 114.576 88.108L122.471 89.5882C123.357 89.7545 124 90.5288 124 91.4311V102C124 107.523 119.523 112 114 112V112C108.477 112 104 107.523 104 102V91.4311Z" fill="url(#paint1_linear_5309_13828)"/>
<g style="mix-blend-mode:multiply" filter="url(#filter0_d_5309_13828)">
<path fill-rule="evenodd" clip-rule="evenodd" d="M102 12C92.5681 12 84.8305 19.2545 84.0626 28.4881C77.1299 30.2424 72 36.5221 72 44C72 52.8366 79.1634 60 88 60H113H121H138C144.627 60 150 54.6274 150 48C150 42.7699 146.654 38.3212 141.986 36.6779C141.995 36.4531 142 36.2271 142 36C142 27.1634 134.837 20 126 20C123.149 20 120.473 20.7455 118.155 22.0521C115.219 16.097 109.088 12 102 12Z" fill="white" fill-opacity="0.01"/>
</g>
<path fill-rule="evenodd" clip-rule="evenodd" d="M102 6C92.5681 6 84.8305 13.2545 84.0626 22.4881C77.7579 24.0835 72.9441 29.4217 72.1238 36H72V38C72 46.8366 79.1634 54 88 54H115H121H140C146.627 54 152 48.6274 152 42V40H151.834C150.991 34.9747 147.025 31.0085 141.999 30.1658L142 30.1023C142 30.0683 142 30.0341 142 30C142 21.1634 134.837 14 126 14C123.149 14 120.473 14.7455 118.155 16.0521C115.219 10.097 109.088 6 102 6Z" fill="#08949E"/>
<path fill-rule="evenodd" clip-rule="evenodd" d="M102 4C92.5681 4 84.8305 11.2545 84.0626 20.4881C77.1299 22.2424 72 28.5221 72 36C72 44.8366 79.1634 52 88 52H115H121H140C146.627 52 152 46.6274 152 40C152 34.0537 147.675 29.1176 141.999 28.1658C142 28.1106 142 28.0553 142 28C142 19.1634 134.837 12 126 12C123.149 12 120.473 12.7455 118.155 14.0521C115.219 8.09703 109.088 4 102 4Z" fill="url(#paint2_radial_5309_13828)"/>
<g style="mix-blend-mode:multiply" filter="url(#filter1_d_5309_13828)">
<path fill-rule="evenodd" clip-rule="evenodd" d="M20 26V118H86V48L64 26H20Z" fill="white" fill-opacity="0.01"/>
</g>
<path fill-rule="evenodd" clip-rule="evenodd" d="M26 20C21.5817 20 18 23.5817 18 28V104C18 108.418 21.5817 112 26 112H78C82.4183 112 86 108.418 86 104V46.9706C86 43.788 84.7357 40.7357 82.4853 38.4853L67.5147 23.5147C65.2643 21.2643 62.212 20 59.0294 20H26Z" fill="#101E1E"/>
<path fill-rule="evenodd" clip-rule="evenodd" d="M26 18C21.5817 18 18 21.5817 18 26V102C18 106.418 21.5817 110 26 110H78C82.4183 110 86 106.418 86 102V44.9706C86 41.788 84.7357 38.7357 82.4853 36.4853L67.5147 21.5147C65.2643 19.2643 62.212 18 59.0294 18H26Z" fill="url(#paint3_linear_5309_13828)"/>
<path d="M28 50C28 46.6863 30.6863 44 34 44L70 44C73.3137 44 76 46.6863 76 50V94C76 97.3137 73.3137 100 70 100H34C30.6863 100 28 97.3137 28 94L28 50Z" fill="url(#paint4_linear_5309_13828)"/>
<path fill-rule="evenodd" clip-rule="evenodd" d="M40 48H35C33.3431 48 32 49.3431 32 51V70C33.1046 70 34 70.8954 34 72C34 73.1046 33.1046 74 32 74V93C32 94.6569 33.3431 96 35 96H40C40 94.8954 40.8954 94 42 94C43.1046 94 44 94.8954 44 96H60C60 94.8954 60.8954 94 62 94C63.1046 94 64 94.8954 64 96H69C70.6569 96 72 94.6569 72 93V74C70.8954 74 70 73.1046 70 72C70 70.8954 70.8954 70 72 70V51C72 49.3431 70.6569 48 69 48H64C64 49.1046 63.1046 50 62 50C60.8954 50 60 49.1046 60 48H44C44 49.1046 43.1046 50 42 50C40.8954 50 40 49.1046 40 48Z" fill="url(#paint5_linear_5309_13828)"/>
<path fill-rule="evenodd" clip-rule="evenodd" d="M104.427 39.6353C104.764 40.3198 105.3 40.9154 106.01 41.3255C107.918 42.4269 110.357 41.7732 111.459 39.8656L119.466 25.9972C120.57 24.0852 119.914 21.6402 118.002 20.5363C116.089 19.4314 113.642 20.0886 112.539 22.0035L108.014 29.8618L107.463 28.9036C106.36 26.9885 103.913 26.3311 101.999 27.4359C100.087 28.5398 99.4324 30.9846 100.536 32.8965L104.427 39.6353Z" fill="url(#paint6_linear_5309_13828)"/>
<path fill-rule="evenodd" clip-rule="evenodd" d="M52 68C55.3137 68 58 65.3137 58 62C58 58.6863 55.3137 56 52 56C48.6863 56 46 58.6863 46 62C46 65.3137 48.6863 68 52 68ZM49 70C44.5817 70 41 73.5817 41 78V83.5C41 84.8807 42.1193 86 43.5 86H60.5C61.8807 86 63 84.8807 63 83.5V78C63 73.5817 59.4183 70 55 70H49Z" fill="url(#paint7_linear_5309_13828)"/>
<defs>
<filter id="filter0_d_5309_13828" x="64" y="4" width="94" height="64" filterUnits="userSpaceOnUse" color-interpolation-filters="sRGB">
<feFlood flood-opacity="0" result="BackgroundImageFix"/>
<feColorMatrix in="SourceAlpha" type="matrix" values="0 0 0 0 0 0 0 0 0 0 0 0 0 0 0 0 0 0 127 0" result="hardAlpha"/>
<feOffset/>
<feGaussianBlur stdDeviation="4"/>
<feColorMatrix type="matrix" values="0 0 0 0 0.0627451 0 0 0 0 0.117647 0 0 0 0 0.117647 0 0 0 0.3 0"/>
<feBlend mode="normal" in2="BackgroundImageFix" result="effect1_dropShadow_5309_13828"/>
<feBlend mode="normal" in="SourceGraphic" in2="effect1_dropShadow_5309_13828" result="shape"/>
</filter>
<filter id="filter1_d_5309_13828" x="12" y="18" width="82" height="108" filterUnits="userSpaceOnUse" color-interpolation-filters="sRGB">
<feFlood flood-opacity="0" result="BackgroundImageFix"/>
<feColorMatrix in="SourceAlpha" type="matrix" values="0 0 0 0 0 0 0 0 0 0 0 0 0 0 0 0 0 0 127 0" result="hardAlpha"/>
<feOffset/>
<feGaussianBlur stdDeviation="4"/>
<feColorMatrix type="matrix" values="0 0 0 0 0.0627451 0 0 0 0 0.117647 0 0 0 0 0.117647 0 0 0 0.3 0"/>
<feBlend mode="normal" in2="BackgroundImageFix" result="effect1_dropShadow_5309_13828"/>
<feBlend mode="normal" in="SourceGraphic" in2="effect1_dropShadow_5309_13828" result="shape"/>
</filter>
<linearGradient id="paint0_linear_5309_13828" x1="12" y1="120" x2="124" y2="8" gradientUnits="userSpaceOnUse">
<stop stop-color="#007FFF"/>
<stop offset="0.246496" stop-color="#007FFF"/>
<stop offset="1" stop-color="#6610F2"/>
</linearGradient>
<linearGradient id="paint1_linear_5309_13828" x1="104" y1="112" x2="127.607" y2="92.3279" gradientUnits="userSpaceOnUse">
<stop stop-color="#FFC866"/>
<stop offset="0.246496" stop-color="#FFC866"/>
<stop offset="1" stop-color="#FFDB99"/>
</linearGradient>
<radialGradient id="paint2_radial_5309_13828" cx="0" cy="0" r="1" gradientUnits="userSpaceOnUse" gradientTransform="translate(72 52) rotate(-30.9638) scale(93.2952 82.3193)">
<stop stop-color="#04E4F4"/>
<stop offset="0.246496" stop-color="#04E4F4"/>
<stop offset="1" stop-color="#007FFF"/>
</radialGradient>
<linearGradient id="paint3_linear_5309_13828" x1="18" y1="110" x2="105.951" y2="44.9927" gradientUnits="userSpaceOnUse">
<stop stop-color="#344055"/>
<stop offset="0.246496" stop-color="#344055"/>
<stop offset="1" stop-color="#5D6677"/>
</linearGradient>
<linearGradient id="paint4_linear_5309_13828" x1="28" y1="100" x2="83.3412" y2="52.5647" gradientUnits="userSpaceOnUse">
<stop stop-color="#101E1E"/>
<stop offset="0.246496" stop-color="#101E1E"/>
<stop offset="1" stop-color="#344055"/>
</linearGradient>
<linearGradient id="paint5_linear_5309_13828" x1="32" y1="96" x2="79.2131" y2="56.6557" gradientUnits="userSpaceOnUse">
<stop stop-color="#FDCA40"/>
<stop offset="0.246496" stop-color="#FDCA40"/>
<stop offset="1" stop-color="#FFA400"/>
</linearGradient>
<linearGradient id="paint6_linear_5309_13828" x1="100" y1="41.8605" x2="121.774" y2="21.9372" gradientUnits="userSpaceOnUse">
<stop stop-color="#EFF0F2"/>
<stop offset="0.24731" stop-color="#EFF0F2"/>
<stop offset="1" stop-color="white"/>
</linearGradient>
<linearGradient id="paint7_linear_5309_13828" x1="41" y1="86" x2="69.6127" y2="65.0173" gradientUnits="userSpaceOnUse">
<stop stop-color="#EFF0F2"/>
<stop offset="0.24731" stop-color="#EFF0F2"/>
<stop offset="1" stop-color="white"/>
</linearGradient>
</defs>
</svg>
